G04 #@! TF.GenerationSoftware,KiCad,Pcbnew,(5.1.5)-3*
G04 #@! TF.CreationDate,2022-05-21T19:39:02+09:00*
G04 #@! TF.ProjectId,RP_MD,52505f4d-442e-46b6-9963-61645f706362,rev?*
G04 #@! TF.SameCoordinates,Original*
G04 #@! TF.FileFunction,Paste,Top*
G04 #@! TF.FilePolarity,Positive*
%FSLAX46Y46*%
G04 Gerber Fmt 4.6, Leading zero omitted, Abs format (unit mm)*
G04 Created by KiCad (PCBNEW (5.1.5)-3) date 2022-05-21 19:39:02*
%MOMM*%
%LPD*%
G04 APERTURE LIST*
%ADD10R,0.300000X0.700000*%
%ADD11C,0.100000*%
%ADD12R,0.650000X1.050000*%
%ADD13R,3.200000X3.200000*%
%ADD14R,0.200000X0.875000*%
%ADD15R,0.875000X0.200000*%
%ADD16R,2.650000X2.200000*%
%ADD17R,0.400000X0.600000*%
%ADD18R,0.600000X0.400000*%
%ADD19R,2.200000X2.650000*%
%ADD20R,1.400000X0.300000*%
%ADD21R,1.800000X2.400000*%
G04 APERTURE END LIST*
D10*
X99530000Y-66290000D03*
X99030000Y-66290000D03*
X98530000Y-66290000D03*
X98030000Y-66290000D03*
X97530000Y-66290000D03*
X97030000Y-66290000D03*
X96530000Y-66290000D03*
X94030000Y-66290000D03*
X95030000Y-66290000D03*
X95530000Y-66290000D03*
X96030000Y-66290000D03*
X94530000Y-66290000D03*
X94280000Y-64590000D03*
X94780000Y-64590000D03*
X95280000Y-64590000D03*
X95780000Y-64590000D03*
X96280000Y-64590000D03*
X96780000Y-64590000D03*
X97280000Y-64590000D03*
X97780000Y-64590000D03*
X98280000Y-64590000D03*
X98780000Y-64590000D03*
X99280000Y-64590000D03*
X99780000Y-64590000D03*
D11*
G36*
X131502958Y-76642710D02*
G01*
X131517276Y-76644834D01*
X131531317Y-76648351D01*
X131544946Y-76653228D01*
X131558031Y-76659417D01*
X131570447Y-76666858D01*
X131582073Y-76675481D01*
X131592798Y-76685202D01*
X131602519Y-76695927D01*
X131611142Y-76707553D01*
X131618583Y-76719969D01*
X131624772Y-76733054D01*
X131629649Y-76746683D01*
X131633166Y-76760724D01*
X131635290Y-76775042D01*
X131636000Y-76789500D01*
X131636000Y-77134500D01*
X131635290Y-77148958D01*
X131633166Y-77163276D01*
X131629649Y-77177317D01*
X131624772Y-77190946D01*
X131618583Y-77204031D01*
X131611142Y-77216447D01*
X131602519Y-77228073D01*
X131592798Y-77238798D01*
X131582073Y-77248519D01*
X131570447Y-77257142D01*
X131558031Y-77264583D01*
X131544946Y-77270772D01*
X131531317Y-77275649D01*
X131517276Y-77279166D01*
X131502958Y-77281290D01*
X131488500Y-77282000D01*
X131193500Y-77282000D01*
X131179042Y-77281290D01*
X131164724Y-77279166D01*
X131150683Y-77275649D01*
X131137054Y-77270772D01*
X131123969Y-77264583D01*
X131111553Y-77257142D01*
X131099927Y-77248519D01*
X131089202Y-77238798D01*
X131079481Y-77228073D01*
X131070858Y-77216447D01*
X131063417Y-77204031D01*
X131057228Y-77190946D01*
X131052351Y-77177317D01*
X131048834Y-77163276D01*
X131046710Y-77148958D01*
X131046000Y-77134500D01*
X131046000Y-76789500D01*
X131046710Y-76775042D01*
X131048834Y-76760724D01*
X131052351Y-76746683D01*
X131057228Y-76733054D01*
X131063417Y-76719969D01*
X131070858Y-76707553D01*
X131079481Y-76695927D01*
X131089202Y-76685202D01*
X131099927Y-76675481D01*
X131111553Y-76666858D01*
X131123969Y-76659417D01*
X131137054Y-76653228D01*
X131150683Y-76648351D01*
X131164724Y-76644834D01*
X131179042Y-76642710D01*
X131193500Y-76642000D01*
X131488500Y-76642000D01*
X131502958Y-76642710D01*
G37*
G36*
X132472958Y-76642710D02*
G01*
X132487276Y-76644834D01*
X132501317Y-76648351D01*
X132514946Y-76653228D01*
X132528031Y-76659417D01*
X132540447Y-76666858D01*
X132552073Y-76675481D01*
X132562798Y-76685202D01*
X132572519Y-76695927D01*
X132581142Y-76707553D01*
X132588583Y-76719969D01*
X132594772Y-76733054D01*
X132599649Y-76746683D01*
X132603166Y-76760724D01*
X132605290Y-76775042D01*
X132606000Y-76789500D01*
X132606000Y-77134500D01*
X132605290Y-77148958D01*
X132603166Y-77163276D01*
X132599649Y-77177317D01*
X132594772Y-77190946D01*
X132588583Y-77204031D01*
X132581142Y-77216447D01*
X132572519Y-77228073D01*
X132562798Y-77238798D01*
X132552073Y-77248519D01*
X132540447Y-77257142D01*
X132528031Y-77264583D01*
X132514946Y-77270772D01*
X132501317Y-77275649D01*
X132487276Y-77279166D01*
X132472958Y-77281290D01*
X132458500Y-77282000D01*
X132163500Y-77282000D01*
X132149042Y-77281290D01*
X132134724Y-77279166D01*
X132120683Y-77275649D01*
X132107054Y-77270772D01*
X132093969Y-77264583D01*
X132081553Y-77257142D01*
X132069927Y-77248519D01*
X132059202Y-77238798D01*
X132049481Y-77228073D01*
X132040858Y-77216447D01*
X132033417Y-77204031D01*
X132027228Y-77190946D01*
X132022351Y-77177317D01*
X132018834Y-77163276D01*
X132016710Y-77148958D01*
X132016000Y-77134500D01*
X132016000Y-76789500D01*
X132016710Y-76775042D01*
X132018834Y-76760724D01*
X132022351Y-76746683D01*
X132027228Y-76733054D01*
X132033417Y-76719969D01*
X132040858Y-76707553D01*
X132049481Y-76695927D01*
X132059202Y-76685202D01*
X132069927Y-76675481D01*
X132081553Y-76666858D01*
X132093969Y-76659417D01*
X132107054Y-76653228D01*
X132120683Y-76648351D01*
X132134724Y-76644834D01*
X132149042Y-76642710D01*
X132163500Y-76642000D01*
X132458500Y-76642000D01*
X132472958Y-76642710D01*
G37*
D12*
X128329000Y-95255000D03*
X128329000Y-99405000D03*
X126179000Y-95255000D03*
X126179000Y-99405000D03*
X122385000Y-99405000D03*
X122385000Y-95255000D03*
X124535000Y-99405000D03*
X124535000Y-95255000D03*
X118575000Y-99405000D03*
X118575000Y-95255000D03*
X120725000Y-99405000D03*
X120725000Y-95255000D03*
X112295000Y-64755000D03*
X112295000Y-68905000D03*
X110145000Y-64755000D03*
X110145000Y-68905000D03*
D11*
G36*
X163494504Y-59581204D02*
G01*
X163518773Y-59584804D01*
X163542571Y-59590765D01*
X163565671Y-59599030D01*
X163587849Y-59609520D01*
X163608893Y-59622133D01*
X163628598Y-59636747D01*
X163646777Y-59653223D01*
X163663253Y-59671402D01*
X163677867Y-59691107D01*
X163690480Y-59712151D01*
X163700970Y-59734329D01*
X163709235Y-59757429D01*
X163715196Y-59781227D01*
X163718796Y-59805496D01*
X163720000Y-59830000D01*
X163720000Y-61830000D01*
X163718796Y-61854504D01*
X163715196Y-61878773D01*
X163709235Y-61902571D01*
X163700970Y-61925671D01*
X163690480Y-61947849D01*
X163677867Y-61968893D01*
X163663253Y-61988598D01*
X163646777Y-62006777D01*
X163628598Y-62023253D01*
X163608893Y-62037867D01*
X163587849Y-62050480D01*
X163565671Y-62060970D01*
X163542571Y-62069235D01*
X163518773Y-62075196D01*
X163494504Y-62078796D01*
X163470000Y-62080000D01*
X159970000Y-62080000D01*
X159945496Y-62078796D01*
X159921227Y-62075196D01*
X159897429Y-62069235D01*
X159874329Y-62060970D01*
X159852151Y-62050480D01*
X159831107Y-62037867D01*
X159811402Y-62023253D01*
X159793223Y-62006777D01*
X159776747Y-61988598D01*
X159762133Y-61968893D01*
X159749520Y-61947849D01*
X159739030Y-61925671D01*
X159730765Y-61902571D01*
X159724804Y-61878773D01*
X159721204Y-61854504D01*
X159720000Y-61830000D01*
X159720000Y-59830000D01*
X159721204Y-59805496D01*
X159724804Y-59781227D01*
X159730765Y-59757429D01*
X159739030Y-59734329D01*
X159749520Y-59712151D01*
X159762133Y-59691107D01*
X159776747Y-59671402D01*
X159793223Y-59653223D01*
X159811402Y-59636747D01*
X159831107Y-59622133D01*
X159852151Y-59609520D01*
X159874329Y-59599030D01*
X159897429Y-59590765D01*
X159921227Y-59584804D01*
X159945496Y-59581204D01*
X159970000Y-59580000D01*
X163470000Y-59580000D01*
X163494504Y-59581204D01*
G37*
G36*
X155494504Y-59581204D02*
G01*
X155518773Y-59584804D01*
X155542571Y-59590765D01*
X155565671Y-59599030D01*
X155587849Y-59609520D01*
X155608893Y-59622133D01*
X155628598Y-59636747D01*
X155646777Y-59653223D01*
X155663253Y-59671402D01*
X155677867Y-59691107D01*
X155690480Y-59712151D01*
X155700970Y-59734329D01*
X155709235Y-59757429D01*
X155715196Y-59781227D01*
X155718796Y-59805496D01*
X155720000Y-59830000D01*
X155720000Y-61830000D01*
X155718796Y-61854504D01*
X155715196Y-61878773D01*
X155709235Y-61902571D01*
X155700970Y-61925671D01*
X155690480Y-61947849D01*
X155677867Y-61968893D01*
X155663253Y-61988598D01*
X155646777Y-62006777D01*
X155628598Y-62023253D01*
X155608893Y-62037867D01*
X155587849Y-62050480D01*
X155565671Y-62060970D01*
X155542571Y-62069235D01*
X155518773Y-62075196D01*
X155494504Y-62078796D01*
X155470000Y-62080000D01*
X151970000Y-62080000D01*
X151945496Y-62078796D01*
X151921227Y-62075196D01*
X151897429Y-62069235D01*
X151874329Y-62060970D01*
X151852151Y-62050480D01*
X151831107Y-62037867D01*
X151811402Y-62023253D01*
X151793223Y-62006777D01*
X151776747Y-61988598D01*
X151762133Y-61968893D01*
X151749520Y-61947849D01*
X151739030Y-61925671D01*
X151730765Y-61902571D01*
X151724804Y-61878773D01*
X151721204Y-61854504D01*
X151720000Y-61830000D01*
X151720000Y-59830000D01*
X151721204Y-59805496D01*
X151724804Y-59781227D01*
X151730765Y-59757429D01*
X151739030Y-59734329D01*
X151749520Y-59712151D01*
X151762133Y-59691107D01*
X151776747Y-59671402D01*
X151793223Y-59653223D01*
X151811402Y-59636747D01*
X151831107Y-59622133D01*
X151852151Y-59609520D01*
X151874329Y-59599030D01*
X151897429Y-59590765D01*
X151921227Y-59584804D01*
X151945496Y-59581204D01*
X151970000Y-59580000D01*
X155470000Y-59580000D01*
X155494504Y-59581204D01*
G37*
G36*
X133407958Y-72578710D02*
G01*
X133422276Y-72580834D01*
X133436317Y-72584351D01*
X133449946Y-72589228D01*
X133463031Y-72595417D01*
X133475447Y-72602858D01*
X133487073Y-72611481D01*
X133497798Y-72621202D01*
X133507519Y-72631927D01*
X133516142Y-72643553D01*
X133523583Y-72655969D01*
X133529772Y-72669054D01*
X133534649Y-72682683D01*
X133538166Y-72696724D01*
X133540290Y-72711042D01*
X133541000Y-72725500D01*
X133541000Y-73070500D01*
X133540290Y-73084958D01*
X133538166Y-73099276D01*
X133534649Y-73113317D01*
X133529772Y-73126946D01*
X133523583Y-73140031D01*
X133516142Y-73152447D01*
X133507519Y-73164073D01*
X133497798Y-73174798D01*
X133487073Y-73184519D01*
X133475447Y-73193142D01*
X133463031Y-73200583D01*
X133449946Y-73206772D01*
X133436317Y-73211649D01*
X133422276Y-73215166D01*
X133407958Y-73217290D01*
X133393500Y-73218000D01*
X133098500Y-73218000D01*
X133084042Y-73217290D01*
X133069724Y-73215166D01*
X133055683Y-73211649D01*
X133042054Y-73206772D01*
X133028969Y-73200583D01*
X133016553Y-73193142D01*
X133004927Y-73184519D01*
X132994202Y-73174798D01*
X132984481Y-73164073D01*
X132975858Y-73152447D01*
X132968417Y-73140031D01*
X132962228Y-73126946D01*
X132957351Y-73113317D01*
X132953834Y-73099276D01*
X132951710Y-73084958D01*
X132951000Y-73070500D01*
X132951000Y-72725500D01*
X132951710Y-72711042D01*
X132953834Y-72696724D01*
X132957351Y-72682683D01*
X132962228Y-72669054D01*
X132968417Y-72655969D01*
X132975858Y-72643553D01*
X132984481Y-72631927D01*
X132994202Y-72621202D01*
X133004927Y-72611481D01*
X133016553Y-72602858D01*
X133028969Y-72595417D01*
X133042054Y-72589228D01*
X133055683Y-72584351D01*
X133069724Y-72580834D01*
X133084042Y-72578710D01*
X133098500Y-72578000D01*
X133393500Y-72578000D01*
X133407958Y-72578710D01*
G37*
G36*
X134377958Y-72578710D02*
G01*
X134392276Y-72580834D01*
X134406317Y-72584351D01*
X134419946Y-72589228D01*
X134433031Y-72595417D01*
X134445447Y-72602858D01*
X134457073Y-72611481D01*
X134467798Y-72621202D01*
X134477519Y-72631927D01*
X134486142Y-72643553D01*
X134493583Y-72655969D01*
X134499772Y-72669054D01*
X134504649Y-72682683D01*
X134508166Y-72696724D01*
X134510290Y-72711042D01*
X134511000Y-72725500D01*
X134511000Y-73070500D01*
X134510290Y-73084958D01*
X134508166Y-73099276D01*
X134504649Y-73113317D01*
X134499772Y-73126946D01*
X134493583Y-73140031D01*
X134486142Y-73152447D01*
X134477519Y-73164073D01*
X134467798Y-73174798D01*
X134457073Y-73184519D01*
X134445447Y-73193142D01*
X134433031Y-73200583D01*
X134419946Y-73206772D01*
X134406317Y-73211649D01*
X134392276Y-73215166D01*
X134377958Y-73217290D01*
X134363500Y-73218000D01*
X134068500Y-73218000D01*
X134054042Y-73217290D01*
X134039724Y-73215166D01*
X134025683Y-73211649D01*
X134012054Y-73206772D01*
X133998969Y-73200583D01*
X133986553Y-73193142D01*
X133974927Y-73184519D01*
X133964202Y-73174798D01*
X133954481Y-73164073D01*
X133945858Y-73152447D01*
X133938417Y-73140031D01*
X133932228Y-73126946D01*
X133927351Y-73113317D01*
X133923834Y-73099276D01*
X133921710Y-73084958D01*
X133921000Y-73070500D01*
X133921000Y-72725500D01*
X133921710Y-72711042D01*
X133923834Y-72696724D01*
X133927351Y-72682683D01*
X133932228Y-72669054D01*
X133938417Y-72655969D01*
X133945858Y-72643553D01*
X133954481Y-72631927D01*
X133964202Y-72621202D01*
X133974927Y-72611481D01*
X133986553Y-72602858D01*
X133998969Y-72595417D01*
X134012054Y-72589228D01*
X134025683Y-72584351D01*
X134039724Y-72580834D01*
X134054042Y-72578710D01*
X134068500Y-72578000D01*
X134363500Y-72578000D01*
X134377958Y-72578710D01*
G37*
G36*
X134377958Y-73658710D02*
G01*
X134392276Y-73660834D01*
X134406317Y-73664351D01*
X134419946Y-73669228D01*
X134433031Y-73675417D01*
X134445447Y-73682858D01*
X134457073Y-73691481D01*
X134467798Y-73701202D01*
X134477519Y-73711927D01*
X134486142Y-73723553D01*
X134493583Y-73735969D01*
X134499772Y-73749054D01*
X134504649Y-73762683D01*
X134508166Y-73776724D01*
X134510290Y-73791042D01*
X134511000Y-73805500D01*
X134511000Y-74150500D01*
X134510290Y-74164958D01*
X134508166Y-74179276D01*
X134504649Y-74193317D01*
X134499772Y-74206946D01*
X134493583Y-74220031D01*
X134486142Y-74232447D01*
X134477519Y-74244073D01*
X134467798Y-74254798D01*
X134457073Y-74264519D01*
X134445447Y-74273142D01*
X134433031Y-74280583D01*
X134419946Y-74286772D01*
X134406317Y-74291649D01*
X134392276Y-74295166D01*
X134377958Y-74297290D01*
X134363500Y-74298000D01*
X134068500Y-74298000D01*
X134054042Y-74297290D01*
X134039724Y-74295166D01*
X134025683Y-74291649D01*
X134012054Y-74286772D01*
X133998969Y-74280583D01*
X133986553Y-74273142D01*
X133974927Y-74264519D01*
X133964202Y-74254798D01*
X133954481Y-74244073D01*
X133945858Y-74232447D01*
X133938417Y-74220031D01*
X133932228Y-74206946D01*
X133927351Y-74193317D01*
X133923834Y-74179276D01*
X133921710Y-74164958D01*
X133921000Y-74150500D01*
X133921000Y-73805500D01*
X133921710Y-73791042D01*
X133923834Y-73776724D01*
X133927351Y-73762683D01*
X133932228Y-73749054D01*
X133938417Y-73735969D01*
X133945858Y-73723553D01*
X133954481Y-73711927D01*
X133964202Y-73701202D01*
X133974927Y-73691481D01*
X133986553Y-73682858D01*
X133998969Y-73675417D01*
X134012054Y-73669228D01*
X134025683Y-73664351D01*
X134039724Y-73660834D01*
X134054042Y-73658710D01*
X134068500Y-73658000D01*
X134363500Y-73658000D01*
X134377958Y-73658710D01*
G37*
G36*
X133407958Y-73658710D02*
G01*
X133422276Y-73660834D01*
X133436317Y-73664351D01*
X133449946Y-73669228D01*
X133463031Y-73675417D01*
X133475447Y-73682858D01*
X133487073Y-73691481D01*
X133497798Y-73701202D01*
X133507519Y-73711927D01*
X133516142Y-73723553D01*
X133523583Y-73735969D01*
X133529772Y-73749054D01*
X133534649Y-73762683D01*
X133538166Y-73776724D01*
X133540290Y-73791042D01*
X133541000Y-73805500D01*
X133541000Y-74150500D01*
X133540290Y-74164958D01*
X133538166Y-74179276D01*
X133534649Y-74193317D01*
X133529772Y-74206946D01*
X133523583Y-74220031D01*
X133516142Y-74232447D01*
X133507519Y-74244073D01*
X133497798Y-74254798D01*
X133487073Y-74264519D01*
X133475447Y-74273142D01*
X133463031Y-74280583D01*
X133449946Y-74286772D01*
X133436317Y-74291649D01*
X133422276Y-74295166D01*
X133407958Y-74297290D01*
X133393500Y-74298000D01*
X133098500Y-74298000D01*
X133084042Y-74297290D01*
X133069724Y-74295166D01*
X133055683Y-74291649D01*
X133042054Y-74286772D01*
X133028969Y-74280583D01*
X133016553Y-74273142D01*
X133004927Y-74264519D01*
X132994202Y-74254798D01*
X132984481Y-74244073D01*
X132975858Y-74232447D01*
X132968417Y-74220031D01*
X132962228Y-74206946D01*
X132957351Y-74193317D01*
X132953834Y-74179276D01*
X132951710Y-74164958D01*
X132951000Y-74150500D01*
X132951000Y-73805500D01*
X132951710Y-73791042D01*
X132953834Y-73776724D01*
X132957351Y-73762683D01*
X132962228Y-73749054D01*
X132968417Y-73735969D01*
X132975858Y-73723553D01*
X132984481Y-73711927D01*
X132994202Y-73701202D01*
X133004927Y-73691481D01*
X133016553Y-73682858D01*
X133028969Y-73675417D01*
X133042054Y-73669228D01*
X133055683Y-73664351D01*
X133069724Y-73660834D01*
X133084042Y-73658710D01*
X133098500Y-73658000D01*
X133393500Y-73658000D01*
X133407958Y-73658710D01*
G37*
G36*
X142329505Y-90401204D02*
G01*
X142353773Y-90404804D01*
X142377572Y-90410765D01*
X142400671Y-90419030D01*
X142422850Y-90429520D01*
X142443893Y-90442132D01*
X142463599Y-90456747D01*
X142481777Y-90473223D01*
X142498253Y-90491401D01*
X142512868Y-90511107D01*
X142525480Y-90532150D01*
X142535970Y-90554329D01*
X142544235Y-90577428D01*
X142550196Y-90601227D01*
X142553796Y-90625495D01*
X142555000Y-90649999D01*
X142555000Y-93500001D01*
X142553796Y-93524505D01*
X142550196Y-93548773D01*
X142544235Y-93572572D01*
X142535970Y-93595671D01*
X142525480Y-93617850D01*
X142512868Y-93638893D01*
X142498253Y-93658599D01*
X142481777Y-93676777D01*
X142463599Y-93693253D01*
X142443893Y-93707868D01*
X142422850Y-93720480D01*
X142400671Y-93730970D01*
X142377572Y-93739235D01*
X142353773Y-93745196D01*
X142329505Y-93748796D01*
X142305001Y-93750000D01*
X141454999Y-93750000D01*
X141430495Y-93748796D01*
X141406227Y-93745196D01*
X141382428Y-93739235D01*
X141359329Y-93730970D01*
X141337150Y-93720480D01*
X141316107Y-93707868D01*
X141296401Y-93693253D01*
X141278223Y-93676777D01*
X141261747Y-93658599D01*
X141247132Y-93638893D01*
X141234520Y-93617850D01*
X141224030Y-93595671D01*
X141215765Y-93572572D01*
X141209804Y-93548773D01*
X141206204Y-93524505D01*
X141205000Y-93500001D01*
X141205000Y-90649999D01*
X141206204Y-90625495D01*
X141209804Y-90601227D01*
X141215765Y-90577428D01*
X141224030Y-90554329D01*
X141234520Y-90532150D01*
X141247132Y-90511107D01*
X141261747Y-90491401D01*
X141278223Y-90473223D01*
X141296401Y-90456747D01*
X141316107Y-90442132D01*
X141337150Y-90429520D01*
X141359329Y-90419030D01*
X141382428Y-90410765D01*
X141406227Y-90404804D01*
X141430495Y-90401204D01*
X141454999Y-90400000D01*
X142305001Y-90400000D01*
X142329505Y-90401204D01*
G37*
G36*
X148129505Y-90401204D02*
G01*
X148153773Y-90404804D01*
X148177572Y-90410765D01*
X148200671Y-90419030D01*
X148222850Y-90429520D01*
X148243893Y-90442132D01*
X148263599Y-90456747D01*
X148281777Y-90473223D01*
X148298253Y-90491401D01*
X148312868Y-90511107D01*
X148325480Y-90532150D01*
X148335970Y-90554329D01*
X148344235Y-90577428D01*
X148350196Y-90601227D01*
X148353796Y-90625495D01*
X148355000Y-90649999D01*
X148355000Y-93500001D01*
X148353796Y-93524505D01*
X148350196Y-93548773D01*
X148344235Y-93572572D01*
X148335970Y-93595671D01*
X148325480Y-93617850D01*
X148312868Y-93638893D01*
X148298253Y-93658599D01*
X148281777Y-93676777D01*
X148263599Y-93693253D01*
X148243893Y-93707868D01*
X148222850Y-93720480D01*
X148200671Y-93730970D01*
X148177572Y-93739235D01*
X148153773Y-93745196D01*
X148129505Y-93748796D01*
X148105001Y-93750000D01*
X147254999Y-93750000D01*
X147230495Y-93748796D01*
X147206227Y-93745196D01*
X147182428Y-93739235D01*
X147159329Y-93730970D01*
X147137150Y-93720480D01*
X147116107Y-93707868D01*
X147096401Y-93693253D01*
X147078223Y-93676777D01*
X147061747Y-93658599D01*
X147047132Y-93638893D01*
X147034520Y-93617850D01*
X147024030Y-93595671D01*
X147015765Y-93572572D01*
X147009804Y-93548773D01*
X147006204Y-93524505D01*
X147005000Y-93500001D01*
X147005000Y-90649999D01*
X147006204Y-90625495D01*
X147009804Y-90601227D01*
X147015765Y-90577428D01*
X147024030Y-90554329D01*
X147034520Y-90532150D01*
X147047132Y-90511107D01*
X147061747Y-90491401D01*
X147078223Y-90473223D01*
X147096401Y-90456747D01*
X147116107Y-90442132D01*
X147137150Y-90429520D01*
X147159329Y-90419030D01*
X147182428Y-90410765D01*
X147206227Y-90404804D01*
X147230495Y-90401204D01*
X147254999Y-90400000D01*
X148105001Y-90400000D01*
X148129505Y-90401204D01*
G37*
G36*
X134124703Y-89235722D02*
G01*
X134139264Y-89237882D01*
X134153543Y-89241459D01*
X134167403Y-89246418D01*
X134180710Y-89252712D01*
X134193336Y-89260280D01*
X134205159Y-89269048D01*
X134216066Y-89278934D01*
X134225952Y-89289841D01*
X134234720Y-89301664D01*
X134242288Y-89314290D01*
X134248582Y-89327597D01*
X134253541Y-89341457D01*
X134257118Y-89355736D01*
X134259278Y-89370297D01*
X134260000Y-89385000D01*
X134260000Y-89685000D01*
X134259278Y-89699703D01*
X134257118Y-89714264D01*
X134253541Y-89728543D01*
X134248582Y-89742403D01*
X134242288Y-89755710D01*
X134234720Y-89768336D01*
X134225952Y-89780159D01*
X134216066Y-89791066D01*
X134205159Y-89800952D01*
X134193336Y-89809720D01*
X134180710Y-89817288D01*
X134167403Y-89823582D01*
X134153543Y-89828541D01*
X134139264Y-89832118D01*
X134124703Y-89834278D01*
X134110000Y-89835000D01*
X132760000Y-89835000D01*
X132745297Y-89834278D01*
X132730736Y-89832118D01*
X132716457Y-89828541D01*
X132702597Y-89823582D01*
X132689290Y-89817288D01*
X132676664Y-89809720D01*
X132664841Y-89800952D01*
X132653934Y-89791066D01*
X132644048Y-89780159D01*
X132635280Y-89768336D01*
X132627712Y-89755710D01*
X132621418Y-89742403D01*
X132616459Y-89728543D01*
X132612882Y-89714264D01*
X132610722Y-89699703D01*
X132610000Y-89685000D01*
X132610000Y-89385000D01*
X132610722Y-89370297D01*
X132612882Y-89355736D01*
X132616459Y-89341457D01*
X132621418Y-89327597D01*
X132627712Y-89314290D01*
X132635280Y-89301664D01*
X132644048Y-89289841D01*
X132653934Y-89278934D01*
X132664841Y-89269048D01*
X132676664Y-89260280D01*
X132689290Y-89252712D01*
X132702597Y-89246418D01*
X132716457Y-89241459D01*
X132730736Y-89237882D01*
X132745297Y-89235722D01*
X132760000Y-89235000D01*
X134110000Y-89235000D01*
X134124703Y-89235722D01*
G37*
G36*
X134124703Y-90505722D02*
G01*
X134139264Y-90507882D01*
X134153543Y-90511459D01*
X134167403Y-90516418D01*
X134180710Y-90522712D01*
X134193336Y-90530280D01*
X134205159Y-90539048D01*
X134216066Y-90548934D01*
X134225952Y-90559841D01*
X134234720Y-90571664D01*
X134242288Y-90584290D01*
X134248582Y-90597597D01*
X134253541Y-90611457D01*
X134257118Y-90625736D01*
X134259278Y-90640297D01*
X134260000Y-90655000D01*
X134260000Y-90955000D01*
X134259278Y-90969703D01*
X134257118Y-90984264D01*
X134253541Y-90998543D01*
X134248582Y-91012403D01*
X134242288Y-91025710D01*
X134234720Y-91038336D01*
X134225952Y-91050159D01*
X134216066Y-91061066D01*
X134205159Y-91070952D01*
X134193336Y-91079720D01*
X134180710Y-91087288D01*
X134167403Y-91093582D01*
X134153543Y-91098541D01*
X134139264Y-91102118D01*
X134124703Y-91104278D01*
X134110000Y-91105000D01*
X132760000Y-91105000D01*
X132745297Y-91104278D01*
X132730736Y-91102118D01*
X132716457Y-91098541D01*
X132702597Y-91093582D01*
X132689290Y-91087288D01*
X132676664Y-91079720D01*
X132664841Y-91070952D01*
X132653934Y-91061066D01*
X132644048Y-91050159D01*
X132635280Y-91038336D01*
X132627712Y-91025710D01*
X132621418Y-91012403D01*
X132616459Y-90998543D01*
X132612882Y-90984264D01*
X132610722Y-90969703D01*
X132610000Y-90955000D01*
X132610000Y-90655000D01*
X132610722Y-90640297D01*
X132612882Y-90625736D01*
X132616459Y-90611457D01*
X132621418Y-90597597D01*
X132627712Y-90584290D01*
X132635280Y-90571664D01*
X132644048Y-90559841D01*
X132653934Y-90548934D01*
X132664841Y-90539048D01*
X132676664Y-90530280D01*
X132689290Y-90522712D01*
X132702597Y-90516418D01*
X132716457Y-90511459D01*
X132730736Y-90507882D01*
X132745297Y-90505722D01*
X132760000Y-90505000D01*
X134110000Y-90505000D01*
X134124703Y-90505722D01*
G37*
G36*
X134124703Y-91775722D02*
G01*
X134139264Y-91777882D01*
X134153543Y-91781459D01*
X134167403Y-91786418D01*
X134180710Y-91792712D01*
X134193336Y-91800280D01*
X134205159Y-91809048D01*
X134216066Y-91818934D01*
X134225952Y-91829841D01*
X134234720Y-91841664D01*
X134242288Y-91854290D01*
X134248582Y-91867597D01*
X134253541Y-91881457D01*
X134257118Y-91895736D01*
X134259278Y-91910297D01*
X134260000Y-91925000D01*
X134260000Y-92225000D01*
X134259278Y-92239703D01*
X134257118Y-92254264D01*
X134253541Y-92268543D01*
X134248582Y-92282403D01*
X134242288Y-92295710D01*
X134234720Y-92308336D01*
X134225952Y-92320159D01*
X134216066Y-92331066D01*
X134205159Y-92340952D01*
X134193336Y-92349720D01*
X134180710Y-92357288D01*
X134167403Y-92363582D01*
X134153543Y-92368541D01*
X134139264Y-92372118D01*
X134124703Y-92374278D01*
X134110000Y-92375000D01*
X132760000Y-92375000D01*
X132745297Y-92374278D01*
X132730736Y-92372118D01*
X132716457Y-92368541D01*
X132702597Y-92363582D01*
X132689290Y-92357288D01*
X132676664Y-92349720D01*
X132664841Y-92340952D01*
X132653934Y-92331066D01*
X132644048Y-92320159D01*
X132635280Y-92308336D01*
X132627712Y-92295710D01*
X132621418Y-92282403D01*
X132616459Y-92268543D01*
X132612882Y-92254264D01*
X132610722Y-92239703D01*
X132610000Y-92225000D01*
X132610000Y-91925000D01*
X132610722Y-91910297D01*
X132612882Y-91895736D01*
X132616459Y-91881457D01*
X132621418Y-91867597D01*
X132627712Y-91854290D01*
X132635280Y-91841664D01*
X132644048Y-91829841D01*
X132653934Y-91818934D01*
X132664841Y-91809048D01*
X132676664Y-91800280D01*
X132689290Y-91792712D01*
X132702597Y-91786418D01*
X132716457Y-91781459D01*
X132730736Y-91777882D01*
X132745297Y-91775722D01*
X132760000Y-91775000D01*
X134110000Y-91775000D01*
X134124703Y-91775722D01*
G37*
G36*
X134124703Y-93045722D02*
G01*
X134139264Y-93047882D01*
X134153543Y-93051459D01*
X134167403Y-93056418D01*
X134180710Y-93062712D01*
X134193336Y-93070280D01*
X134205159Y-93079048D01*
X134216066Y-93088934D01*
X134225952Y-93099841D01*
X134234720Y-93111664D01*
X134242288Y-93124290D01*
X134248582Y-93137597D01*
X134253541Y-93151457D01*
X134257118Y-93165736D01*
X134259278Y-93180297D01*
X134260000Y-93195000D01*
X134260000Y-93495000D01*
X134259278Y-93509703D01*
X134257118Y-93524264D01*
X134253541Y-93538543D01*
X134248582Y-93552403D01*
X134242288Y-93565710D01*
X134234720Y-93578336D01*
X134225952Y-93590159D01*
X134216066Y-93601066D01*
X134205159Y-93610952D01*
X134193336Y-93619720D01*
X134180710Y-93627288D01*
X134167403Y-93633582D01*
X134153543Y-93638541D01*
X134139264Y-93642118D01*
X134124703Y-93644278D01*
X134110000Y-93645000D01*
X132760000Y-93645000D01*
X132745297Y-93644278D01*
X132730736Y-93642118D01*
X132716457Y-93638541D01*
X132702597Y-93633582D01*
X132689290Y-93627288D01*
X132676664Y-93619720D01*
X132664841Y-93610952D01*
X132653934Y-93601066D01*
X132644048Y-93590159D01*
X132635280Y-93578336D01*
X132627712Y-93565710D01*
X132621418Y-93552403D01*
X132616459Y-93538543D01*
X132612882Y-93524264D01*
X132610722Y-93509703D01*
X132610000Y-93495000D01*
X132610000Y-93195000D01*
X132610722Y-93180297D01*
X132612882Y-93165736D01*
X132616459Y-93151457D01*
X132621418Y-93137597D01*
X132627712Y-93124290D01*
X132635280Y-93111664D01*
X132644048Y-93099841D01*
X132653934Y-93088934D01*
X132664841Y-93079048D01*
X132676664Y-93070280D01*
X132689290Y-93062712D01*
X132702597Y-93056418D01*
X132716457Y-93051459D01*
X132730736Y-93047882D01*
X132745297Y-93045722D01*
X132760000Y-93045000D01*
X134110000Y-93045000D01*
X134124703Y-93045722D01*
G37*
G36*
X128874703Y-93045722D02*
G01*
X128889264Y-93047882D01*
X128903543Y-93051459D01*
X128917403Y-93056418D01*
X128930710Y-93062712D01*
X128943336Y-93070280D01*
X128955159Y-93079048D01*
X128966066Y-93088934D01*
X128975952Y-93099841D01*
X128984720Y-93111664D01*
X128992288Y-93124290D01*
X128998582Y-93137597D01*
X129003541Y-93151457D01*
X129007118Y-93165736D01*
X129009278Y-93180297D01*
X129010000Y-93195000D01*
X129010000Y-93495000D01*
X129009278Y-93509703D01*
X129007118Y-93524264D01*
X129003541Y-93538543D01*
X128998582Y-93552403D01*
X128992288Y-93565710D01*
X128984720Y-93578336D01*
X128975952Y-93590159D01*
X128966066Y-93601066D01*
X128955159Y-93610952D01*
X128943336Y-93619720D01*
X128930710Y-93627288D01*
X128917403Y-93633582D01*
X128903543Y-93638541D01*
X128889264Y-93642118D01*
X128874703Y-93644278D01*
X128860000Y-93645000D01*
X127510000Y-93645000D01*
X127495297Y-93644278D01*
X127480736Y-93642118D01*
X127466457Y-93638541D01*
X127452597Y-93633582D01*
X127439290Y-93627288D01*
X127426664Y-93619720D01*
X127414841Y-93610952D01*
X127403934Y-93601066D01*
X127394048Y-93590159D01*
X127385280Y-93578336D01*
X127377712Y-93565710D01*
X127371418Y-93552403D01*
X127366459Y-93538543D01*
X127362882Y-93524264D01*
X127360722Y-93509703D01*
X127360000Y-93495000D01*
X127360000Y-93195000D01*
X127360722Y-93180297D01*
X127362882Y-93165736D01*
X127366459Y-93151457D01*
X127371418Y-93137597D01*
X127377712Y-93124290D01*
X127385280Y-93111664D01*
X127394048Y-93099841D01*
X127403934Y-93088934D01*
X127414841Y-93079048D01*
X127426664Y-93070280D01*
X127439290Y-93062712D01*
X127452597Y-93056418D01*
X127466457Y-93051459D01*
X127480736Y-93047882D01*
X127495297Y-93045722D01*
X127510000Y-93045000D01*
X128860000Y-93045000D01*
X128874703Y-93045722D01*
G37*
G36*
X128874703Y-91775722D02*
G01*
X128889264Y-91777882D01*
X128903543Y-91781459D01*
X128917403Y-91786418D01*
X128930710Y-91792712D01*
X128943336Y-91800280D01*
X128955159Y-91809048D01*
X128966066Y-91818934D01*
X128975952Y-91829841D01*
X128984720Y-91841664D01*
X128992288Y-91854290D01*
X128998582Y-91867597D01*
X129003541Y-91881457D01*
X129007118Y-91895736D01*
X129009278Y-91910297D01*
X129010000Y-91925000D01*
X129010000Y-92225000D01*
X129009278Y-92239703D01*
X129007118Y-92254264D01*
X129003541Y-92268543D01*
X128998582Y-92282403D01*
X128992288Y-92295710D01*
X128984720Y-92308336D01*
X128975952Y-92320159D01*
X128966066Y-92331066D01*
X128955159Y-92340952D01*
X128943336Y-92349720D01*
X128930710Y-92357288D01*
X128917403Y-92363582D01*
X128903543Y-92368541D01*
X128889264Y-92372118D01*
X128874703Y-92374278D01*
X128860000Y-92375000D01*
X127510000Y-92375000D01*
X127495297Y-92374278D01*
X127480736Y-92372118D01*
X127466457Y-92368541D01*
X127452597Y-92363582D01*
X127439290Y-92357288D01*
X127426664Y-92349720D01*
X127414841Y-92340952D01*
X127403934Y-92331066D01*
X127394048Y-92320159D01*
X127385280Y-92308336D01*
X127377712Y-92295710D01*
X127371418Y-92282403D01*
X127366459Y-92268543D01*
X127362882Y-92254264D01*
X127360722Y-92239703D01*
X127360000Y-92225000D01*
X127360000Y-91925000D01*
X127360722Y-91910297D01*
X127362882Y-91895736D01*
X127366459Y-91881457D01*
X127371418Y-91867597D01*
X127377712Y-91854290D01*
X127385280Y-91841664D01*
X127394048Y-91829841D01*
X127403934Y-91818934D01*
X127414841Y-91809048D01*
X127426664Y-91800280D01*
X127439290Y-91792712D01*
X127452597Y-91786418D01*
X127466457Y-91781459D01*
X127480736Y-91777882D01*
X127495297Y-91775722D01*
X127510000Y-91775000D01*
X128860000Y-91775000D01*
X128874703Y-91775722D01*
G37*
G36*
X128874703Y-90505722D02*
G01*
X128889264Y-90507882D01*
X128903543Y-90511459D01*
X128917403Y-90516418D01*
X128930710Y-90522712D01*
X128943336Y-90530280D01*
X128955159Y-90539048D01*
X128966066Y-90548934D01*
X128975952Y-90559841D01*
X128984720Y-90571664D01*
X128992288Y-90584290D01*
X128998582Y-90597597D01*
X129003541Y-90611457D01*
X129007118Y-90625736D01*
X129009278Y-90640297D01*
X129010000Y-90655000D01*
X129010000Y-90955000D01*
X129009278Y-90969703D01*
X129007118Y-90984264D01*
X129003541Y-90998543D01*
X128998582Y-91012403D01*
X128992288Y-91025710D01*
X128984720Y-91038336D01*
X128975952Y-91050159D01*
X128966066Y-91061066D01*
X128955159Y-91070952D01*
X128943336Y-91079720D01*
X128930710Y-91087288D01*
X128917403Y-91093582D01*
X128903543Y-91098541D01*
X128889264Y-91102118D01*
X128874703Y-91104278D01*
X128860000Y-91105000D01*
X127510000Y-91105000D01*
X127495297Y-91104278D01*
X127480736Y-91102118D01*
X127466457Y-91098541D01*
X127452597Y-91093582D01*
X127439290Y-91087288D01*
X127426664Y-91079720D01*
X127414841Y-91070952D01*
X127403934Y-91061066D01*
X127394048Y-91050159D01*
X127385280Y-91038336D01*
X127377712Y-91025710D01*
X127371418Y-91012403D01*
X127366459Y-90998543D01*
X127362882Y-90984264D01*
X127360722Y-90969703D01*
X127360000Y-90955000D01*
X127360000Y-90655000D01*
X127360722Y-90640297D01*
X127362882Y-90625736D01*
X127366459Y-90611457D01*
X127371418Y-90597597D01*
X127377712Y-90584290D01*
X127385280Y-90571664D01*
X127394048Y-90559841D01*
X127403934Y-90548934D01*
X127414841Y-90539048D01*
X127426664Y-90530280D01*
X127439290Y-90522712D01*
X127452597Y-90516418D01*
X127466457Y-90511459D01*
X127480736Y-90507882D01*
X127495297Y-90505722D01*
X127510000Y-90505000D01*
X128860000Y-90505000D01*
X128874703Y-90505722D01*
G37*
G36*
X128874703Y-89235722D02*
G01*
X128889264Y-89237882D01*
X128903543Y-89241459D01*
X128917403Y-89246418D01*
X128930710Y-89252712D01*
X128943336Y-89260280D01*
X128955159Y-89269048D01*
X128966066Y-89278934D01*
X128975952Y-89289841D01*
X128984720Y-89301664D01*
X128992288Y-89314290D01*
X128998582Y-89327597D01*
X129003541Y-89341457D01*
X129007118Y-89355736D01*
X129009278Y-89370297D01*
X129010000Y-89385000D01*
X129010000Y-89685000D01*
X129009278Y-89699703D01*
X129007118Y-89714264D01*
X129003541Y-89728543D01*
X128998582Y-89742403D01*
X128992288Y-89755710D01*
X128984720Y-89768336D01*
X128975952Y-89780159D01*
X128966066Y-89791066D01*
X128955159Y-89800952D01*
X128943336Y-89809720D01*
X128930710Y-89817288D01*
X128917403Y-89823582D01*
X128903543Y-89828541D01*
X128889264Y-89832118D01*
X128874703Y-89834278D01*
X128860000Y-89835000D01*
X127510000Y-89835000D01*
X127495297Y-89834278D01*
X127480736Y-89832118D01*
X127466457Y-89828541D01*
X127452597Y-89823582D01*
X127439290Y-89817288D01*
X127426664Y-89809720D01*
X127414841Y-89800952D01*
X127403934Y-89791066D01*
X127394048Y-89780159D01*
X127385280Y-89768336D01*
X127377712Y-89755710D01*
X127371418Y-89742403D01*
X127366459Y-89728543D01*
X127362882Y-89714264D01*
X127360722Y-89699703D01*
X127360000Y-89685000D01*
X127360000Y-89385000D01*
X127360722Y-89370297D01*
X127362882Y-89355736D01*
X127366459Y-89341457D01*
X127371418Y-89327597D01*
X127377712Y-89314290D01*
X127385280Y-89301664D01*
X127394048Y-89289841D01*
X127403934Y-89278934D01*
X127414841Y-89269048D01*
X127426664Y-89260280D01*
X127439290Y-89252712D01*
X127452597Y-89246418D01*
X127466457Y-89241459D01*
X127480736Y-89237882D01*
X127495297Y-89235722D01*
X127510000Y-89235000D01*
X128860000Y-89235000D01*
X128874703Y-89235722D01*
G37*
G36*
X117026958Y-94216710D02*
G01*
X117041276Y-94218834D01*
X117055317Y-94222351D01*
X117068946Y-94227228D01*
X117082031Y-94233417D01*
X117094447Y-94240858D01*
X117106073Y-94249481D01*
X117116798Y-94259202D01*
X117126519Y-94269927D01*
X117135142Y-94281553D01*
X117142583Y-94293969D01*
X117148772Y-94307054D01*
X117153649Y-94320683D01*
X117157166Y-94334724D01*
X117159290Y-94349042D01*
X117160000Y-94363500D01*
X117160000Y-94658500D01*
X117159290Y-94672958D01*
X117157166Y-94687276D01*
X117153649Y-94701317D01*
X117148772Y-94714946D01*
X117142583Y-94728031D01*
X117135142Y-94740447D01*
X117126519Y-94752073D01*
X117116798Y-94762798D01*
X117106073Y-94772519D01*
X117094447Y-94781142D01*
X117082031Y-94788583D01*
X117068946Y-94794772D01*
X117055317Y-94799649D01*
X117041276Y-94803166D01*
X117026958Y-94805290D01*
X117012500Y-94806000D01*
X116667500Y-94806000D01*
X116653042Y-94805290D01*
X116638724Y-94803166D01*
X116624683Y-94799649D01*
X116611054Y-94794772D01*
X116597969Y-94788583D01*
X116585553Y-94781142D01*
X116573927Y-94772519D01*
X116563202Y-94762798D01*
X116553481Y-94752073D01*
X116544858Y-94740447D01*
X116537417Y-94728031D01*
X116531228Y-94714946D01*
X116526351Y-94701317D01*
X116522834Y-94687276D01*
X116520710Y-94672958D01*
X116520000Y-94658500D01*
X116520000Y-94363500D01*
X116520710Y-94349042D01*
X116522834Y-94334724D01*
X116526351Y-94320683D01*
X116531228Y-94307054D01*
X116537417Y-94293969D01*
X116544858Y-94281553D01*
X116553481Y-94269927D01*
X116563202Y-94259202D01*
X116573927Y-94249481D01*
X116585553Y-94240858D01*
X116597969Y-94233417D01*
X116611054Y-94227228D01*
X116624683Y-94222351D01*
X116638724Y-94218834D01*
X116653042Y-94216710D01*
X116667500Y-94216000D01*
X117012500Y-94216000D01*
X117026958Y-94216710D01*
G37*
G36*
X117026958Y-95186710D02*
G01*
X117041276Y-95188834D01*
X117055317Y-95192351D01*
X117068946Y-95197228D01*
X117082031Y-95203417D01*
X117094447Y-95210858D01*
X117106073Y-95219481D01*
X117116798Y-95229202D01*
X117126519Y-95239927D01*
X117135142Y-95251553D01*
X117142583Y-95263969D01*
X117148772Y-95277054D01*
X117153649Y-95290683D01*
X117157166Y-95304724D01*
X117159290Y-95319042D01*
X117160000Y-95333500D01*
X117160000Y-95628500D01*
X117159290Y-95642958D01*
X117157166Y-95657276D01*
X117153649Y-95671317D01*
X117148772Y-95684946D01*
X117142583Y-95698031D01*
X117135142Y-95710447D01*
X117126519Y-95722073D01*
X117116798Y-95732798D01*
X117106073Y-95742519D01*
X117094447Y-95751142D01*
X117082031Y-95758583D01*
X117068946Y-95764772D01*
X117055317Y-95769649D01*
X117041276Y-95773166D01*
X117026958Y-95775290D01*
X117012500Y-95776000D01*
X116667500Y-95776000D01*
X116653042Y-95775290D01*
X116638724Y-95773166D01*
X116624683Y-95769649D01*
X116611054Y-95764772D01*
X116597969Y-95758583D01*
X116585553Y-95751142D01*
X116573927Y-95742519D01*
X116563202Y-95732798D01*
X116553481Y-95722073D01*
X116544858Y-95710447D01*
X116537417Y-95698031D01*
X116531228Y-95684946D01*
X116526351Y-95671317D01*
X116522834Y-95657276D01*
X116520710Y-95642958D01*
X116520000Y-95628500D01*
X116520000Y-95333500D01*
X116520710Y-95319042D01*
X116522834Y-95304724D01*
X116526351Y-95290683D01*
X116531228Y-95277054D01*
X116537417Y-95263969D01*
X116544858Y-95251553D01*
X116553481Y-95239927D01*
X116563202Y-95229202D01*
X116573927Y-95219481D01*
X116585553Y-95210858D01*
X116597969Y-95203417D01*
X116611054Y-95197228D01*
X116624683Y-95192351D01*
X116638724Y-95188834D01*
X116653042Y-95186710D01*
X116667500Y-95186000D01*
X117012500Y-95186000D01*
X117026958Y-95186710D01*
G37*
G36*
X115502958Y-94216710D02*
G01*
X115517276Y-94218834D01*
X115531317Y-94222351D01*
X115544946Y-94227228D01*
X115558031Y-94233417D01*
X115570447Y-94240858D01*
X115582073Y-94249481D01*
X115592798Y-94259202D01*
X115602519Y-94269927D01*
X115611142Y-94281553D01*
X115618583Y-94293969D01*
X115624772Y-94307054D01*
X115629649Y-94320683D01*
X115633166Y-94334724D01*
X115635290Y-94349042D01*
X115636000Y-94363500D01*
X115636000Y-94658500D01*
X115635290Y-94672958D01*
X115633166Y-94687276D01*
X115629649Y-94701317D01*
X115624772Y-94714946D01*
X115618583Y-94728031D01*
X115611142Y-94740447D01*
X115602519Y-94752073D01*
X115592798Y-94762798D01*
X115582073Y-94772519D01*
X115570447Y-94781142D01*
X115558031Y-94788583D01*
X115544946Y-94794772D01*
X115531317Y-94799649D01*
X115517276Y-94803166D01*
X115502958Y-94805290D01*
X115488500Y-94806000D01*
X115143500Y-94806000D01*
X115129042Y-94805290D01*
X115114724Y-94803166D01*
X115100683Y-94799649D01*
X115087054Y-94794772D01*
X115073969Y-94788583D01*
X115061553Y-94781142D01*
X115049927Y-94772519D01*
X115039202Y-94762798D01*
X115029481Y-94752073D01*
X115020858Y-94740447D01*
X115013417Y-94728031D01*
X115007228Y-94714946D01*
X115002351Y-94701317D01*
X114998834Y-94687276D01*
X114996710Y-94672958D01*
X114996000Y-94658500D01*
X114996000Y-94363500D01*
X114996710Y-94349042D01*
X114998834Y-94334724D01*
X115002351Y-94320683D01*
X115007228Y-94307054D01*
X115013417Y-94293969D01*
X115020858Y-94281553D01*
X115029481Y-94269927D01*
X115039202Y-94259202D01*
X115049927Y-94249481D01*
X115061553Y-94240858D01*
X115073969Y-94233417D01*
X115087054Y-94227228D01*
X115100683Y-94222351D01*
X115114724Y-94218834D01*
X115129042Y-94216710D01*
X115143500Y-94216000D01*
X115488500Y-94216000D01*
X115502958Y-94216710D01*
G37*
G36*
X115502958Y-95186710D02*
G01*
X115517276Y-95188834D01*
X115531317Y-95192351D01*
X115544946Y-95197228D01*
X115558031Y-95203417D01*
X115570447Y-95210858D01*
X115582073Y-95219481D01*
X115592798Y-95229202D01*
X115602519Y-95239927D01*
X115611142Y-95251553D01*
X115618583Y-95263969D01*
X115624772Y-95277054D01*
X115629649Y-95290683D01*
X115633166Y-95304724D01*
X115635290Y-95319042D01*
X115636000Y-95333500D01*
X115636000Y-95628500D01*
X115635290Y-95642958D01*
X115633166Y-95657276D01*
X115629649Y-95671317D01*
X115624772Y-95684946D01*
X115618583Y-95698031D01*
X115611142Y-95710447D01*
X115602519Y-95722073D01*
X115592798Y-95732798D01*
X115582073Y-95742519D01*
X115570447Y-95751142D01*
X115558031Y-95758583D01*
X115544946Y-95764772D01*
X115531317Y-95769649D01*
X115517276Y-95773166D01*
X115502958Y-95775290D01*
X115488500Y-95776000D01*
X115143500Y-95776000D01*
X115129042Y-95775290D01*
X115114724Y-95773166D01*
X115100683Y-95769649D01*
X115087054Y-95764772D01*
X115073969Y-95758583D01*
X115061553Y-95751142D01*
X115049927Y-95742519D01*
X115039202Y-95732798D01*
X115029481Y-95722073D01*
X115020858Y-95710447D01*
X115013417Y-95698031D01*
X115007228Y-95684946D01*
X115002351Y-95671317D01*
X114998834Y-95657276D01*
X114996710Y-95642958D01*
X114996000Y-95628500D01*
X114996000Y-95333500D01*
X114996710Y-95319042D01*
X114998834Y-95304724D01*
X115002351Y-95290683D01*
X115007228Y-95277054D01*
X115013417Y-95263969D01*
X115020858Y-95251553D01*
X115029481Y-95239927D01*
X115039202Y-95229202D01*
X115049927Y-95219481D01*
X115061553Y-95210858D01*
X115073969Y-95203417D01*
X115087054Y-95197228D01*
X115100683Y-95192351D01*
X115114724Y-95188834D01*
X115129042Y-95186710D01*
X115143500Y-95186000D01*
X115488500Y-95186000D01*
X115502958Y-95186710D01*
G37*
G36*
X117100779Y-96891144D02*
G01*
X117123834Y-96894563D01*
X117146443Y-96900227D01*
X117168387Y-96908079D01*
X117189457Y-96918044D01*
X117209448Y-96930026D01*
X117228168Y-96943910D01*
X117245438Y-96959562D01*
X117261090Y-96976832D01*
X117274974Y-96995552D01*
X117286956Y-97015543D01*
X117296921Y-97036613D01*
X117304773Y-97058557D01*
X117310437Y-97081166D01*
X117313856Y-97104221D01*
X117315000Y-97127500D01*
X117315000Y-97702500D01*
X117313856Y-97725779D01*
X117310437Y-97748834D01*
X117304773Y-97771443D01*
X117296921Y-97793387D01*
X117286956Y-97814457D01*
X117274974Y-97834448D01*
X117261090Y-97853168D01*
X117245438Y-97870438D01*
X117228168Y-97886090D01*
X117209448Y-97899974D01*
X117189457Y-97911956D01*
X117168387Y-97921921D01*
X117146443Y-97929773D01*
X117123834Y-97935437D01*
X117100779Y-97938856D01*
X117077500Y-97940000D01*
X116602500Y-97940000D01*
X116579221Y-97938856D01*
X116556166Y-97935437D01*
X116533557Y-97929773D01*
X116511613Y-97921921D01*
X116490543Y-97911956D01*
X116470552Y-97899974D01*
X116451832Y-97886090D01*
X116434562Y-97870438D01*
X116418910Y-97853168D01*
X116405026Y-97834448D01*
X116393044Y-97814457D01*
X116383079Y-97793387D01*
X116375227Y-97771443D01*
X116369563Y-97748834D01*
X116366144Y-97725779D01*
X116365000Y-97702500D01*
X116365000Y-97127500D01*
X116366144Y-97104221D01*
X116369563Y-97081166D01*
X116375227Y-97058557D01*
X116383079Y-97036613D01*
X116393044Y-97015543D01*
X116405026Y-96995552D01*
X116418910Y-96976832D01*
X116434562Y-96959562D01*
X116451832Y-96943910D01*
X116470552Y-96930026D01*
X116490543Y-96918044D01*
X116511613Y-96908079D01*
X116533557Y-96900227D01*
X116556166Y-96894563D01*
X116579221Y-96891144D01*
X116602500Y-96890000D01*
X117077500Y-96890000D01*
X117100779Y-96891144D01*
G37*
G36*
X117100779Y-98641144D02*
G01*
X117123834Y-98644563D01*
X117146443Y-98650227D01*
X117168387Y-98658079D01*
X117189457Y-98668044D01*
X117209448Y-98680026D01*
X117228168Y-98693910D01*
X117245438Y-98709562D01*
X117261090Y-98726832D01*
X117274974Y-98745552D01*
X117286956Y-98765543D01*
X117296921Y-98786613D01*
X117304773Y-98808557D01*
X117310437Y-98831166D01*
X117313856Y-98854221D01*
X117315000Y-98877500D01*
X117315000Y-99452500D01*
X117313856Y-99475779D01*
X117310437Y-99498834D01*
X117304773Y-99521443D01*
X117296921Y-99543387D01*
X117286956Y-99564457D01*
X117274974Y-99584448D01*
X117261090Y-99603168D01*
X117245438Y-99620438D01*
X117228168Y-99636090D01*
X117209448Y-99649974D01*
X117189457Y-99661956D01*
X117168387Y-99671921D01*
X117146443Y-99679773D01*
X117123834Y-99685437D01*
X117100779Y-99688856D01*
X117077500Y-99690000D01*
X116602500Y-99690000D01*
X116579221Y-99688856D01*
X116556166Y-99685437D01*
X116533557Y-99679773D01*
X116511613Y-99671921D01*
X116490543Y-99661956D01*
X116470552Y-99649974D01*
X116451832Y-99636090D01*
X116434562Y-99620438D01*
X116418910Y-99603168D01*
X116405026Y-99584448D01*
X116393044Y-99564457D01*
X116383079Y-99543387D01*
X116375227Y-99521443D01*
X116369563Y-99498834D01*
X116366144Y-99475779D01*
X116365000Y-99452500D01*
X116365000Y-98877500D01*
X116366144Y-98854221D01*
X116369563Y-98831166D01*
X116375227Y-98808557D01*
X116383079Y-98786613D01*
X116393044Y-98765543D01*
X116405026Y-98745552D01*
X116418910Y-98726832D01*
X116434562Y-98709562D01*
X116451832Y-98693910D01*
X116470552Y-98680026D01*
X116490543Y-98668044D01*
X116511613Y-98658079D01*
X116533557Y-98650227D01*
X116556166Y-98644563D01*
X116579221Y-98641144D01*
X116602500Y-98640000D01*
X117077500Y-98640000D01*
X117100779Y-98641144D01*
G37*
G36*
X115068779Y-96899144D02*
G01*
X115091834Y-96902563D01*
X115114443Y-96908227D01*
X115136387Y-96916079D01*
X115157457Y-96926044D01*
X115177448Y-96938026D01*
X115196168Y-96951910D01*
X115213438Y-96967562D01*
X115229090Y-96984832D01*
X115242974Y-97003552D01*
X115254956Y-97023543D01*
X115264921Y-97044613D01*
X115272773Y-97066557D01*
X115278437Y-97089166D01*
X115281856Y-97112221D01*
X115283000Y-97135500D01*
X115283000Y-97710500D01*
X115281856Y-97733779D01*
X115278437Y-97756834D01*
X115272773Y-97779443D01*
X115264921Y-97801387D01*
X115254956Y-97822457D01*
X115242974Y-97842448D01*
X115229090Y-97861168D01*
X115213438Y-97878438D01*
X115196168Y-97894090D01*
X115177448Y-97907974D01*
X115157457Y-97919956D01*
X115136387Y-97929921D01*
X115114443Y-97937773D01*
X115091834Y-97943437D01*
X115068779Y-97946856D01*
X115045500Y-97948000D01*
X114570500Y-97948000D01*
X114547221Y-97946856D01*
X114524166Y-97943437D01*
X114501557Y-97937773D01*
X114479613Y-97929921D01*
X114458543Y-97919956D01*
X114438552Y-97907974D01*
X114419832Y-97894090D01*
X114402562Y-97878438D01*
X114386910Y-97861168D01*
X114373026Y-97842448D01*
X114361044Y-97822457D01*
X114351079Y-97801387D01*
X114343227Y-97779443D01*
X114337563Y-97756834D01*
X114334144Y-97733779D01*
X114333000Y-97710500D01*
X114333000Y-97135500D01*
X114334144Y-97112221D01*
X114337563Y-97089166D01*
X114343227Y-97066557D01*
X114351079Y-97044613D01*
X114361044Y-97023543D01*
X114373026Y-97003552D01*
X114386910Y-96984832D01*
X114402562Y-96967562D01*
X114419832Y-96951910D01*
X114438552Y-96938026D01*
X114458543Y-96926044D01*
X114479613Y-96916079D01*
X114501557Y-96908227D01*
X114524166Y-96902563D01*
X114547221Y-96899144D01*
X114570500Y-96898000D01*
X115045500Y-96898000D01*
X115068779Y-96899144D01*
G37*
G36*
X115068779Y-98649144D02*
G01*
X115091834Y-98652563D01*
X115114443Y-98658227D01*
X115136387Y-98666079D01*
X115157457Y-98676044D01*
X115177448Y-98688026D01*
X115196168Y-98701910D01*
X115213438Y-98717562D01*
X115229090Y-98734832D01*
X115242974Y-98753552D01*
X115254956Y-98773543D01*
X115264921Y-98794613D01*
X115272773Y-98816557D01*
X115278437Y-98839166D01*
X115281856Y-98862221D01*
X115283000Y-98885500D01*
X115283000Y-99460500D01*
X115281856Y-99483779D01*
X115278437Y-99506834D01*
X115272773Y-99529443D01*
X115264921Y-99551387D01*
X115254956Y-99572457D01*
X115242974Y-99592448D01*
X115229090Y-99611168D01*
X115213438Y-99628438D01*
X115196168Y-99644090D01*
X115177448Y-99657974D01*
X115157457Y-99669956D01*
X115136387Y-99679921D01*
X115114443Y-99687773D01*
X115091834Y-99693437D01*
X115068779Y-99696856D01*
X115045500Y-99698000D01*
X114570500Y-99698000D01*
X114547221Y-99696856D01*
X114524166Y-99693437D01*
X114501557Y-99687773D01*
X114479613Y-99679921D01*
X114458543Y-99669956D01*
X114438552Y-99657974D01*
X114419832Y-99644090D01*
X114402562Y-99628438D01*
X114386910Y-99611168D01*
X114373026Y-99592448D01*
X114361044Y-99572457D01*
X114351079Y-99551387D01*
X114343227Y-99529443D01*
X114337563Y-99506834D01*
X114334144Y-99483779D01*
X114333000Y-99460500D01*
X114333000Y-98885500D01*
X114334144Y-98862221D01*
X114337563Y-98839166D01*
X114343227Y-98816557D01*
X114351079Y-98794613D01*
X114361044Y-98773543D01*
X114373026Y-98753552D01*
X114386910Y-98734832D01*
X114402562Y-98717562D01*
X114419832Y-98701910D01*
X114438552Y-98688026D01*
X114458543Y-98676044D01*
X114479613Y-98666079D01*
X114501557Y-98658227D01*
X114524166Y-98652563D01*
X114547221Y-98649144D01*
X114570500Y-98648000D01*
X115045500Y-98648000D01*
X115068779Y-98649144D01*
G37*
G36*
X142329505Y-73891204D02*
G01*
X142353773Y-73894804D01*
X142377572Y-73900765D01*
X142400671Y-73909030D01*
X142422850Y-73919520D01*
X142443893Y-73932132D01*
X142463599Y-73946747D01*
X142481777Y-73963223D01*
X142498253Y-73981401D01*
X142512868Y-74001107D01*
X142525480Y-74022150D01*
X142535970Y-74044329D01*
X142544235Y-74067428D01*
X142550196Y-74091227D01*
X142553796Y-74115495D01*
X142555000Y-74139999D01*
X142555000Y-76990001D01*
X142553796Y-77014505D01*
X142550196Y-77038773D01*
X142544235Y-77062572D01*
X142535970Y-77085671D01*
X142525480Y-77107850D01*
X142512868Y-77128893D01*
X142498253Y-77148599D01*
X142481777Y-77166777D01*
X142463599Y-77183253D01*
X142443893Y-77197868D01*
X142422850Y-77210480D01*
X142400671Y-77220970D01*
X142377572Y-77229235D01*
X142353773Y-77235196D01*
X142329505Y-77238796D01*
X142305001Y-77240000D01*
X141454999Y-77240000D01*
X141430495Y-77238796D01*
X141406227Y-77235196D01*
X141382428Y-77229235D01*
X141359329Y-77220970D01*
X141337150Y-77210480D01*
X141316107Y-77197868D01*
X141296401Y-77183253D01*
X141278223Y-77166777D01*
X141261747Y-77148599D01*
X141247132Y-77128893D01*
X141234520Y-77107850D01*
X141224030Y-77085671D01*
X141215765Y-77062572D01*
X141209804Y-77038773D01*
X141206204Y-77014505D01*
X141205000Y-76990001D01*
X141205000Y-74139999D01*
X141206204Y-74115495D01*
X141209804Y-74091227D01*
X141215765Y-74067428D01*
X141224030Y-74044329D01*
X141234520Y-74022150D01*
X141247132Y-74001107D01*
X141261747Y-73981401D01*
X141278223Y-73963223D01*
X141296401Y-73946747D01*
X141316107Y-73932132D01*
X141337150Y-73919520D01*
X141359329Y-73909030D01*
X141382428Y-73900765D01*
X141406227Y-73894804D01*
X141430495Y-73891204D01*
X141454999Y-73890000D01*
X142305001Y-73890000D01*
X142329505Y-73891204D01*
G37*
G36*
X148129505Y-73891204D02*
G01*
X148153773Y-73894804D01*
X148177572Y-73900765D01*
X148200671Y-73909030D01*
X148222850Y-73919520D01*
X148243893Y-73932132D01*
X148263599Y-73946747D01*
X148281777Y-73963223D01*
X148298253Y-73981401D01*
X148312868Y-74001107D01*
X148325480Y-74022150D01*
X148335970Y-74044329D01*
X148344235Y-74067428D01*
X148350196Y-74091227D01*
X148353796Y-74115495D01*
X148355000Y-74139999D01*
X148355000Y-76990001D01*
X148353796Y-77014505D01*
X148350196Y-77038773D01*
X148344235Y-77062572D01*
X148335970Y-77085671D01*
X148325480Y-77107850D01*
X148312868Y-77128893D01*
X148298253Y-77148599D01*
X148281777Y-77166777D01*
X148263599Y-77183253D01*
X148243893Y-77197868D01*
X148222850Y-77210480D01*
X148200671Y-77220970D01*
X148177572Y-77229235D01*
X148153773Y-77235196D01*
X148129505Y-77238796D01*
X148105001Y-77240000D01*
X147254999Y-77240000D01*
X147230495Y-77238796D01*
X147206227Y-77235196D01*
X147182428Y-77229235D01*
X147159329Y-77220970D01*
X147137150Y-77210480D01*
X147116107Y-77197868D01*
X147096401Y-77183253D01*
X147078223Y-77166777D01*
X147061747Y-77148599D01*
X147047132Y-77128893D01*
X147034520Y-77107850D01*
X147024030Y-77085671D01*
X147015765Y-77062572D01*
X147009804Y-77038773D01*
X147006204Y-77014505D01*
X147005000Y-76990001D01*
X147005000Y-74139999D01*
X147006204Y-74115495D01*
X147009804Y-74091227D01*
X147015765Y-74067428D01*
X147024030Y-74044329D01*
X147034520Y-74022150D01*
X147047132Y-74001107D01*
X147061747Y-73981401D01*
X147078223Y-73963223D01*
X147096401Y-73946747D01*
X147116107Y-73932132D01*
X147137150Y-73919520D01*
X147159329Y-73909030D01*
X147182428Y-73900765D01*
X147206227Y-73894804D01*
X147230495Y-73891204D01*
X147254999Y-73890000D01*
X148105001Y-73890000D01*
X148129505Y-73891204D01*
G37*
D13*
X121681000Y-78867000D03*
D14*
X119081000Y-75429500D03*
X119481000Y-75429500D03*
X119881000Y-75429500D03*
X120281000Y-75429500D03*
X121481000Y-75429500D03*
X121881000Y-75429500D03*
X121081000Y-75429500D03*
X120681000Y-75429500D03*
X122281000Y-75429500D03*
X122681000Y-75429500D03*
X123081000Y-75429500D03*
X123481000Y-75429500D03*
X123881000Y-75429500D03*
X124281000Y-75429500D03*
D15*
X125168500Y-76267000D03*
X125168500Y-76667000D03*
X125168500Y-77067000D03*
X125168500Y-78667000D03*
X125168500Y-78267000D03*
X125168500Y-77867000D03*
X125168500Y-77467000D03*
X125168500Y-79867000D03*
X125168500Y-79467000D03*
X125168500Y-79067000D03*
X125168500Y-80667000D03*
X125168500Y-80267000D03*
X125168500Y-81067000D03*
X125168500Y-81467000D03*
D14*
X124281000Y-82304500D03*
X123881000Y-82304500D03*
X123481000Y-82304500D03*
X123081000Y-82304500D03*
X122681000Y-82304500D03*
X122281000Y-82304500D03*
X121881000Y-82304500D03*
X121481000Y-82304500D03*
X121081000Y-82304500D03*
X120681000Y-82304500D03*
X120281000Y-82304500D03*
X119881000Y-82304500D03*
X119481000Y-82304500D03*
X119081000Y-82304500D03*
D15*
X118293500Y-81467000D03*
X118293500Y-81067000D03*
X118293500Y-80667000D03*
X118293500Y-80267000D03*
X118293500Y-79867000D03*
X118293500Y-79467000D03*
X118293500Y-79067000D03*
X118293500Y-78667000D03*
X118293500Y-78267000D03*
X118293500Y-77867000D03*
X118293500Y-77467000D03*
X118293500Y-77067000D03*
X118293500Y-76667000D03*
X118293500Y-76267000D03*
D11*
G36*
X117280958Y-73642710D02*
G01*
X117295276Y-73644834D01*
X117309317Y-73648351D01*
X117322946Y-73653228D01*
X117336031Y-73659417D01*
X117348447Y-73666858D01*
X117360073Y-73675481D01*
X117370798Y-73685202D01*
X117380519Y-73695927D01*
X117389142Y-73707553D01*
X117396583Y-73719969D01*
X117402772Y-73733054D01*
X117407649Y-73746683D01*
X117411166Y-73760724D01*
X117413290Y-73775042D01*
X117414000Y-73789500D01*
X117414000Y-74084500D01*
X117413290Y-74098958D01*
X117411166Y-74113276D01*
X117407649Y-74127317D01*
X117402772Y-74140946D01*
X117396583Y-74154031D01*
X117389142Y-74166447D01*
X117380519Y-74178073D01*
X117370798Y-74188798D01*
X117360073Y-74198519D01*
X117348447Y-74207142D01*
X117336031Y-74214583D01*
X117322946Y-74220772D01*
X117309317Y-74225649D01*
X117295276Y-74229166D01*
X117280958Y-74231290D01*
X117266500Y-74232000D01*
X116921500Y-74232000D01*
X116907042Y-74231290D01*
X116892724Y-74229166D01*
X116878683Y-74225649D01*
X116865054Y-74220772D01*
X116851969Y-74214583D01*
X116839553Y-74207142D01*
X116827927Y-74198519D01*
X116817202Y-74188798D01*
X116807481Y-74178073D01*
X116798858Y-74166447D01*
X116791417Y-74154031D01*
X116785228Y-74140946D01*
X116780351Y-74127317D01*
X116776834Y-74113276D01*
X116774710Y-74098958D01*
X116774000Y-74084500D01*
X116774000Y-73789500D01*
X116774710Y-73775042D01*
X116776834Y-73760724D01*
X116780351Y-73746683D01*
X116785228Y-73733054D01*
X116791417Y-73719969D01*
X116798858Y-73707553D01*
X116807481Y-73695927D01*
X116817202Y-73685202D01*
X116827927Y-73675481D01*
X116839553Y-73666858D01*
X116851969Y-73659417D01*
X116865054Y-73653228D01*
X116878683Y-73648351D01*
X116892724Y-73644834D01*
X116907042Y-73642710D01*
X116921500Y-73642000D01*
X117266500Y-73642000D01*
X117280958Y-73642710D01*
G37*
G36*
X117280958Y-74612710D02*
G01*
X117295276Y-74614834D01*
X117309317Y-74618351D01*
X117322946Y-74623228D01*
X117336031Y-74629417D01*
X117348447Y-74636858D01*
X117360073Y-74645481D01*
X117370798Y-74655202D01*
X117380519Y-74665927D01*
X117389142Y-74677553D01*
X117396583Y-74689969D01*
X117402772Y-74703054D01*
X117407649Y-74716683D01*
X117411166Y-74730724D01*
X117413290Y-74745042D01*
X117414000Y-74759500D01*
X117414000Y-75054500D01*
X117413290Y-75068958D01*
X117411166Y-75083276D01*
X117407649Y-75097317D01*
X117402772Y-75110946D01*
X117396583Y-75124031D01*
X117389142Y-75136447D01*
X117380519Y-75148073D01*
X117370798Y-75158798D01*
X117360073Y-75168519D01*
X117348447Y-75177142D01*
X117336031Y-75184583D01*
X117322946Y-75190772D01*
X117309317Y-75195649D01*
X117295276Y-75199166D01*
X117280958Y-75201290D01*
X117266500Y-75202000D01*
X116921500Y-75202000D01*
X116907042Y-75201290D01*
X116892724Y-75199166D01*
X116878683Y-75195649D01*
X116865054Y-75190772D01*
X116851969Y-75184583D01*
X116839553Y-75177142D01*
X116827927Y-75168519D01*
X116817202Y-75158798D01*
X116807481Y-75148073D01*
X116798858Y-75136447D01*
X116791417Y-75124031D01*
X116785228Y-75110946D01*
X116780351Y-75097317D01*
X116776834Y-75083276D01*
X116774710Y-75068958D01*
X116774000Y-75054500D01*
X116774000Y-74759500D01*
X116774710Y-74745042D01*
X116776834Y-74730724D01*
X116780351Y-74716683D01*
X116785228Y-74703054D01*
X116791417Y-74689969D01*
X116798858Y-74677553D01*
X116807481Y-74665927D01*
X116817202Y-74655202D01*
X116827927Y-74645481D01*
X116839553Y-74636858D01*
X116851969Y-74629417D01*
X116865054Y-74623228D01*
X116878683Y-74618351D01*
X116892724Y-74614834D01*
X116907042Y-74612710D01*
X116921500Y-74612000D01*
X117266500Y-74612000D01*
X117280958Y-74612710D01*
G37*
G36*
X115134958Y-79944710D02*
G01*
X115149276Y-79946834D01*
X115163317Y-79950351D01*
X115176946Y-79955228D01*
X115190031Y-79961417D01*
X115202447Y-79968858D01*
X115214073Y-79977481D01*
X115224798Y-79987202D01*
X115234519Y-79997927D01*
X115243142Y-80009553D01*
X115250583Y-80021969D01*
X115256772Y-80035054D01*
X115261649Y-80048683D01*
X115265166Y-80062724D01*
X115267290Y-80077042D01*
X115268000Y-80091500D01*
X115268000Y-80436500D01*
X115267290Y-80450958D01*
X115265166Y-80465276D01*
X115261649Y-80479317D01*
X115256772Y-80492946D01*
X115250583Y-80506031D01*
X115243142Y-80518447D01*
X115234519Y-80530073D01*
X115224798Y-80540798D01*
X115214073Y-80550519D01*
X115202447Y-80559142D01*
X115190031Y-80566583D01*
X115176946Y-80572772D01*
X115163317Y-80577649D01*
X115149276Y-80581166D01*
X115134958Y-80583290D01*
X115120500Y-80584000D01*
X114825500Y-80584000D01*
X114811042Y-80583290D01*
X114796724Y-80581166D01*
X114782683Y-80577649D01*
X114769054Y-80572772D01*
X114755969Y-80566583D01*
X114743553Y-80559142D01*
X114731927Y-80550519D01*
X114721202Y-80540798D01*
X114711481Y-80530073D01*
X114702858Y-80518447D01*
X114695417Y-80506031D01*
X114689228Y-80492946D01*
X114684351Y-80479317D01*
X114680834Y-80465276D01*
X114678710Y-80450958D01*
X114678000Y-80436500D01*
X114678000Y-80091500D01*
X114678710Y-80077042D01*
X114680834Y-80062724D01*
X114684351Y-80048683D01*
X114689228Y-80035054D01*
X114695417Y-80021969D01*
X114702858Y-80009553D01*
X114711481Y-79997927D01*
X114721202Y-79987202D01*
X114731927Y-79977481D01*
X114743553Y-79968858D01*
X114755969Y-79961417D01*
X114769054Y-79955228D01*
X114782683Y-79950351D01*
X114796724Y-79946834D01*
X114811042Y-79944710D01*
X114825500Y-79944000D01*
X115120500Y-79944000D01*
X115134958Y-79944710D01*
G37*
G36*
X116104958Y-79944710D02*
G01*
X116119276Y-79946834D01*
X116133317Y-79950351D01*
X116146946Y-79955228D01*
X116160031Y-79961417D01*
X116172447Y-79968858D01*
X116184073Y-79977481D01*
X116194798Y-79987202D01*
X116204519Y-79997927D01*
X116213142Y-80009553D01*
X116220583Y-80021969D01*
X116226772Y-80035054D01*
X116231649Y-80048683D01*
X116235166Y-80062724D01*
X116237290Y-80077042D01*
X116238000Y-80091500D01*
X116238000Y-80436500D01*
X116237290Y-80450958D01*
X116235166Y-80465276D01*
X116231649Y-80479317D01*
X116226772Y-80492946D01*
X116220583Y-80506031D01*
X116213142Y-80518447D01*
X116204519Y-80530073D01*
X116194798Y-80540798D01*
X116184073Y-80550519D01*
X116172447Y-80559142D01*
X116160031Y-80566583D01*
X116146946Y-80572772D01*
X116133317Y-80577649D01*
X116119276Y-80581166D01*
X116104958Y-80583290D01*
X116090500Y-80584000D01*
X115795500Y-80584000D01*
X115781042Y-80583290D01*
X115766724Y-80581166D01*
X115752683Y-80577649D01*
X115739054Y-80572772D01*
X115725969Y-80566583D01*
X115713553Y-80559142D01*
X115701927Y-80550519D01*
X115691202Y-80540798D01*
X115681481Y-80530073D01*
X115672858Y-80518447D01*
X115665417Y-80506031D01*
X115659228Y-80492946D01*
X115654351Y-80479317D01*
X115650834Y-80465276D01*
X115648710Y-80450958D01*
X115648000Y-80436500D01*
X115648000Y-80091500D01*
X115648710Y-80077042D01*
X115650834Y-80062724D01*
X115654351Y-80048683D01*
X115659228Y-80035054D01*
X115665417Y-80021969D01*
X115672858Y-80009553D01*
X115681481Y-79997927D01*
X115691202Y-79987202D01*
X115701927Y-79977481D01*
X115713553Y-79968858D01*
X115725969Y-79961417D01*
X115739054Y-79955228D01*
X115752683Y-79950351D01*
X115766724Y-79946834D01*
X115781042Y-79944710D01*
X115795500Y-79944000D01*
X116090500Y-79944000D01*
X116104958Y-79944710D01*
G37*
G36*
X121994958Y-70594710D02*
G01*
X122009276Y-70596834D01*
X122023317Y-70600351D01*
X122036946Y-70605228D01*
X122050031Y-70611417D01*
X122062447Y-70618858D01*
X122074073Y-70627481D01*
X122084798Y-70637202D01*
X122094519Y-70647927D01*
X122103142Y-70659553D01*
X122110583Y-70671969D01*
X122116772Y-70685054D01*
X122121649Y-70698683D01*
X122125166Y-70712724D01*
X122127290Y-70727042D01*
X122128000Y-70741500D01*
X122128000Y-71036500D01*
X122127290Y-71050958D01*
X122125166Y-71065276D01*
X122121649Y-71079317D01*
X122116772Y-71092946D01*
X122110583Y-71106031D01*
X122103142Y-71118447D01*
X122094519Y-71130073D01*
X122084798Y-71140798D01*
X122074073Y-71150519D01*
X122062447Y-71159142D01*
X122050031Y-71166583D01*
X122036946Y-71172772D01*
X122023317Y-71177649D01*
X122009276Y-71181166D01*
X121994958Y-71183290D01*
X121980500Y-71184000D01*
X121635500Y-71184000D01*
X121621042Y-71183290D01*
X121606724Y-71181166D01*
X121592683Y-71177649D01*
X121579054Y-71172772D01*
X121565969Y-71166583D01*
X121553553Y-71159142D01*
X121541927Y-71150519D01*
X121531202Y-71140798D01*
X121521481Y-71130073D01*
X121512858Y-71118447D01*
X121505417Y-71106031D01*
X121499228Y-71092946D01*
X121494351Y-71079317D01*
X121490834Y-71065276D01*
X121488710Y-71050958D01*
X121488000Y-71036500D01*
X121488000Y-70741500D01*
X121488710Y-70727042D01*
X121490834Y-70712724D01*
X121494351Y-70698683D01*
X121499228Y-70685054D01*
X121505417Y-70671969D01*
X121512858Y-70659553D01*
X121521481Y-70647927D01*
X121531202Y-70637202D01*
X121541927Y-70627481D01*
X121553553Y-70618858D01*
X121565969Y-70611417D01*
X121579054Y-70605228D01*
X121592683Y-70600351D01*
X121606724Y-70596834D01*
X121621042Y-70594710D01*
X121635500Y-70594000D01*
X121980500Y-70594000D01*
X121994958Y-70594710D01*
G37*
G36*
X121994958Y-71564710D02*
G01*
X122009276Y-71566834D01*
X122023317Y-71570351D01*
X122036946Y-71575228D01*
X122050031Y-71581417D01*
X122062447Y-71588858D01*
X122074073Y-71597481D01*
X122084798Y-71607202D01*
X122094519Y-71617927D01*
X122103142Y-71629553D01*
X122110583Y-71641969D01*
X122116772Y-71655054D01*
X122121649Y-71668683D01*
X122125166Y-71682724D01*
X122127290Y-71697042D01*
X122128000Y-71711500D01*
X122128000Y-72006500D01*
X122127290Y-72020958D01*
X122125166Y-72035276D01*
X122121649Y-72049317D01*
X122116772Y-72062946D01*
X122110583Y-72076031D01*
X122103142Y-72088447D01*
X122094519Y-72100073D01*
X122084798Y-72110798D01*
X122074073Y-72120519D01*
X122062447Y-72129142D01*
X122050031Y-72136583D01*
X122036946Y-72142772D01*
X122023317Y-72147649D01*
X122009276Y-72151166D01*
X121994958Y-72153290D01*
X121980500Y-72154000D01*
X121635500Y-72154000D01*
X121621042Y-72153290D01*
X121606724Y-72151166D01*
X121592683Y-72147649D01*
X121579054Y-72142772D01*
X121565969Y-72136583D01*
X121553553Y-72129142D01*
X121541927Y-72120519D01*
X121531202Y-72110798D01*
X121521481Y-72100073D01*
X121512858Y-72088447D01*
X121505417Y-72076031D01*
X121499228Y-72062946D01*
X121494351Y-72049317D01*
X121490834Y-72035276D01*
X121488710Y-72020958D01*
X121488000Y-72006500D01*
X121488000Y-71711500D01*
X121488710Y-71697042D01*
X121490834Y-71682724D01*
X121494351Y-71668683D01*
X121499228Y-71655054D01*
X121505417Y-71641969D01*
X121512858Y-71629553D01*
X121521481Y-71617927D01*
X121531202Y-71607202D01*
X121541927Y-71597481D01*
X121553553Y-71588858D01*
X121565969Y-71581417D01*
X121579054Y-71575228D01*
X121592683Y-71570351D01*
X121606724Y-71566834D01*
X121621042Y-71564710D01*
X121635500Y-71564000D01*
X121980500Y-71564000D01*
X121994958Y-71564710D01*
G37*
G36*
X123994958Y-65476710D02*
G01*
X124009276Y-65478834D01*
X124023317Y-65482351D01*
X124036946Y-65487228D01*
X124050031Y-65493417D01*
X124062447Y-65500858D01*
X124074073Y-65509481D01*
X124084798Y-65519202D01*
X124094519Y-65529927D01*
X124103142Y-65541553D01*
X124110583Y-65553969D01*
X124116772Y-65567054D01*
X124121649Y-65580683D01*
X124125166Y-65594724D01*
X124127290Y-65609042D01*
X124128000Y-65623500D01*
X124128000Y-65918500D01*
X124127290Y-65932958D01*
X124125166Y-65947276D01*
X124121649Y-65961317D01*
X124116772Y-65974946D01*
X124110583Y-65988031D01*
X124103142Y-66000447D01*
X124094519Y-66012073D01*
X124084798Y-66022798D01*
X124074073Y-66032519D01*
X124062447Y-66041142D01*
X124050031Y-66048583D01*
X124036946Y-66054772D01*
X124023317Y-66059649D01*
X124009276Y-66063166D01*
X123994958Y-66065290D01*
X123980500Y-66066000D01*
X123635500Y-66066000D01*
X123621042Y-66065290D01*
X123606724Y-66063166D01*
X123592683Y-66059649D01*
X123579054Y-66054772D01*
X123565969Y-66048583D01*
X123553553Y-66041142D01*
X123541927Y-66032519D01*
X123531202Y-66022798D01*
X123521481Y-66012073D01*
X123512858Y-66000447D01*
X123505417Y-65988031D01*
X123499228Y-65974946D01*
X123494351Y-65961317D01*
X123490834Y-65947276D01*
X123488710Y-65932958D01*
X123488000Y-65918500D01*
X123488000Y-65623500D01*
X123488710Y-65609042D01*
X123490834Y-65594724D01*
X123494351Y-65580683D01*
X123499228Y-65567054D01*
X123505417Y-65553969D01*
X123512858Y-65541553D01*
X123521481Y-65529927D01*
X123531202Y-65519202D01*
X123541927Y-65509481D01*
X123553553Y-65500858D01*
X123565969Y-65493417D01*
X123579054Y-65487228D01*
X123592683Y-65482351D01*
X123606724Y-65478834D01*
X123621042Y-65476710D01*
X123635500Y-65476000D01*
X123980500Y-65476000D01*
X123994958Y-65476710D01*
G37*
G36*
X123994958Y-64506710D02*
G01*
X124009276Y-64508834D01*
X124023317Y-64512351D01*
X124036946Y-64517228D01*
X124050031Y-64523417D01*
X124062447Y-64530858D01*
X124074073Y-64539481D01*
X124084798Y-64549202D01*
X124094519Y-64559927D01*
X124103142Y-64571553D01*
X124110583Y-64583969D01*
X124116772Y-64597054D01*
X124121649Y-64610683D01*
X124125166Y-64624724D01*
X124127290Y-64639042D01*
X124128000Y-64653500D01*
X124128000Y-64948500D01*
X124127290Y-64962958D01*
X124125166Y-64977276D01*
X124121649Y-64991317D01*
X124116772Y-65004946D01*
X124110583Y-65018031D01*
X124103142Y-65030447D01*
X124094519Y-65042073D01*
X124084798Y-65052798D01*
X124074073Y-65062519D01*
X124062447Y-65071142D01*
X124050031Y-65078583D01*
X124036946Y-65084772D01*
X124023317Y-65089649D01*
X124009276Y-65093166D01*
X123994958Y-65095290D01*
X123980500Y-65096000D01*
X123635500Y-65096000D01*
X123621042Y-65095290D01*
X123606724Y-65093166D01*
X123592683Y-65089649D01*
X123579054Y-65084772D01*
X123565969Y-65078583D01*
X123553553Y-65071142D01*
X123541927Y-65062519D01*
X123531202Y-65052798D01*
X123521481Y-65042073D01*
X123512858Y-65030447D01*
X123505417Y-65018031D01*
X123499228Y-65004946D01*
X123494351Y-64991317D01*
X123490834Y-64977276D01*
X123488710Y-64962958D01*
X123488000Y-64948500D01*
X123488000Y-64653500D01*
X123488710Y-64639042D01*
X123490834Y-64624724D01*
X123494351Y-64610683D01*
X123499228Y-64597054D01*
X123505417Y-64583969D01*
X123512858Y-64571553D01*
X123521481Y-64559927D01*
X123531202Y-64549202D01*
X123541927Y-64539481D01*
X123553553Y-64530858D01*
X123565969Y-64523417D01*
X123579054Y-64517228D01*
X123592683Y-64512351D01*
X123606724Y-64508834D01*
X123621042Y-64506710D01*
X123635500Y-64506000D01*
X123980500Y-64506000D01*
X123994958Y-64506710D01*
G37*
G36*
X120978958Y-71564710D02*
G01*
X120993276Y-71566834D01*
X121007317Y-71570351D01*
X121020946Y-71575228D01*
X121034031Y-71581417D01*
X121046447Y-71588858D01*
X121058073Y-71597481D01*
X121068798Y-71607202D01*
X121078519Y-71617927D01*
X121087142Y-71629553D01*
X121094583Y-71641969D01*
X121100772Y-71655054D01*
X121105649Y-71668683D01*
X121109166Y-71682724D01*
X121111290Y-71697042D01*
X121112000Y-71711500D01*
X121112000Y-72006500D01*
X121111290Y-72020958D01*
X121109166Y-72035276D01*
X121105649Y-72049317D01*
X121100772Y-72062946D01*
X121094583Y-72076031D01*
X121087142Y-72088447D01*
X121078519Y-72100073D01*
X121068798Y-72110798D01*
X121058073Y-72120519D01*
X121046447Y-72129142D01*
X121034031Y-72136583D01*
X121020946Y-72142772D01*
X121007317Y-72147649D01*
X120993276Y-72151166D01*
X120978958Y-72153290D01*
X120964500Y-72154000D01*
X120619500Y-72154000D01*
X120605042Y-72153290D01*
X120590724Y-72151166D01*
X120576683Y-72147649D01*
X120563054Y-72142772D01*
X120549969Y-72136583D01*
X120537553Y-72129142D01*
X120525927Y-72120519D01*
X120515202Y-72110798D01*
X120505481Y-72100073D01*
X120496858Y-72088447D01*
X120489417Y-72076031D01*
X120483228Y-72062946D01*
X120478351Y-72049317D01*
X120474834Y-72035276D01*
X120472710Y-72020958D01*
X120472000Y-72006500D01*
X120472000Y-71711500D01*
X120472710Y-71697042D01*
X120474834Y-71682724D01*
X120478351Y-71668683D01*
X120483228Y-71655054D01*
X120489417Y-71641969D01*
X120496858Y-71629553D01*
X120505481Y-71617927D01*
X120515202Y-71607202D01*
X120525927Y-71597481D01*
X120537553Y-71588858D01*
X120549969Y-71581417D01*
X120563054Y-71575228D01*
X120576683Y-71570351D01*
X120590724Y-71566834D01*
X120605042Y-71564710D01*
X120619500Y-71564000D01*
X120964500Y-71564000D01*
X120978958Y-71564710D01*
G37*
G36*
X120978958Y-70594710D02*
G01*
X120993276Y-70596834D01*
X121007317Y-70600351D01*
X121020946Y-70605228D01*
X121034031Y-70611417D01*
X121046447Y-70618858D01*
X121058073Y-70627481D01*
X121068798Y-70637202D01*
X121078519Y-70647927D01*
X121087142Y-70659553D01*
X121094583Y-70671969D01*
X121100772Y-70685054D01*
X121105649Y-70698683D01*
X121109166Y-70712724D01*
X121111290Y-70727042D01*
X121112000Y-70741500D01*
X121112000Y-71036500D01*
X121111290Y-71050958D01*
X121109166Y-71065276D01*
X121105649Y-71079317D01*
X121100772Y-71092946D01*
X121094583Y-71106031D01*
X121087142Y-71118447D01*
X121078519Y-71130073D01*
X121068798Y-71140798D01*
X121058073Y-71150519D01*
X121046447Y-71159142D01*
X121034031Y-71166583D01*
X121020946Y-71172772D01*
X121007317Y-71177649D01*
X120993276Y-71181166D01*
X120978958Y-71183290D01*
X120964500Y-71184000D01*
X120619500Y-71184000D01*
X120605042Y-71183290D01*
X120590724Y-71181166D01*
X120576683Y-71177649D01*
X120563054Y-71172772D01*
X120549969Y-71166583D01*
X120537553Y-71159142D01*
X120525927Y-71150519D01*
X120515202Y-71140798D01*
X120505481Y-71130073D01*
X120496858Y-71118447D01*
X120489417Y-71106031D01*
X120483228Y-71092946D01*
X120478351Y-71079317D01*
X120474834Y-71065276D01*
X120472710Y-71050958D01*
X120472000Y-71036500D01*
X120472000Y-70741500D01*
X120472710Y-70727042D01*
X120474834Y-70712724D01*
X120478351Y-70698683D01*
X120483228Y-70685054D01*
X120489417Y-70671969D01*
X120496858Y-70659553D01*
X120505481Y-70647927D01*
X120515202Y-70637202D01*
X120525927Y-70627481D01*
X120537553Y-70618858D01*
X120549969Y-70611417D01*
X120563054Y-70605228D01*
X120576683Y-70600351D01*
X120590724Y-70596834D01*
X120605042Y-70594710D01*
X120619500Y-70594000D01*
X120964500Y-70594000D01*
X120978958Y-70594710D01*
G37*
G36*
X125010958Y-64506710D02*
G01*
X125025276Y-64508834D01*
X125039317Y-64512351D01*
X125052946Y-64517228D01*
X125066031Y-64523417D01*
X125078447Y-64530858D01*
X125090073Y-64539481D01*
X125100798Y-64549202D01*
X125110519Y-64559927D01*
X125119142Y-64571553D01*
X125126583Y-64583969D01*
X125132772Y-64597054D01*
X125137649Y-64610683D01*
X125141166Y-64624724D01*
X125143290Y-64639042D01*
X125144000Y-64653500D01*
X125144000Y-64948500D01*
X125143290Y-64962958D01*
X125141166Y-64977276D01*
X125137649Y-64991317D01*
X125132772Y-65004946D01*
X125126583Y-65018031D01*
X125119142Y-65030447D01*
X125110519Y-65042073D01*
X125100798Y-65052798D01*
X125090073Y-65062519D01*
X125078447Y-65071142D01*
X125066031Y-65078583D01*
X125052946Y-65084772D01*
X125039317Y-65089649D01*
X125025276Y-65093166D01*
X125010958Y-65095290D01*
X124996500Y-65096000D01*
X124651500Y-65096000D01*
X124637042Y-65095290D01*
X124622724Y-65093166D01*
X124608683Y-65089649D01*
X124595054Y-65084772D01*
X124581969Y-65078583D01*
X124569553Y-65071142D01*
X124557927Y-65062519D01*
X124547202Y-65052798D01*
X124537481Y-65042073D01*
X124528858Y-65030447D01*
X124521417Y-65018031D01*
X124515228Y-65004946D01*
X124510351Y-64991317D01*
X124506834Y-64977276D01*
X124504710Y-64962958D01*
X124504000Y-64948500D01*
X124504000Y-64653500D01*
X124504710Y-64639042D01*
X124506834Y-64624724D01*
X124510351Y-64610683D01*
X124515228Y-64597054D01*
X124521417Y-64583969D01*
X124528858Y-64571553D01*
X124537481Y-64559927D01*
X124547202Y-64549202D01*
X124557927Y-64539481D01*
X124569553Y-64530858D01*
X124581969Y-64523417D01*
X124595054Y-64517228D01*
X124608683Y-64512351D01*
X124622724Y-64508834D01*
X124637042Y-64506710D01*
X124651500Y-64506000D01*
X124996500Y-64506000D01*
X125010958Y-64506710D01*
G37*
G36*
X125010958Y-65476710D02*
G01*
X125025276Y-65478834D01*
X125039317Y-65482351D01*
X125052946Y-65487228D01*
X125066031Y-65493417D01*
X125078447Y-65500858D01*
X125090073Y-65509481D01*
X125100798Y-65519202D01*
X125110519Y-65529927D01*
X125119142Y-65541553D01*
X125126583Y-65553969D01*
X125132772Y-65567054D01*
X125137649Y-65580683D01*
X125141166Y-65594724D01*
X125143290Y-65609042D01*
X125144000Y-65623500D01*
X125144000Y-65918500D01*
X125143290Y-65932958D01*
X125141166Y-65947276D01*
X125137649Y-65961317D01*
X125132772Y-65974946D01*
X125126583Y-65988031D01*
X125119142Y-66000447D01*
X125110519Y-66012073D01*
X125100798Y-66022798D01*
X125090073Y-66032519D01*
X125078447Y-66041142D01*
X125066031Y-66048583D01*
X125052946Y-66054772D01*
X125039317Y-66059649D01*
X125025276Y-66063166D01*
X125010958Y-66065290D01*
X124996500Y-66066000D01*
X124651500Y-66066000D01*
X124637042Y-66065290D01*
X124622724Y-66063166D01*
X124608683Y-66059649D01*
X124595054Y-66054772D01*
X124581969Y-66048583D01*
X124569553Y-66041142D01*
X124557927Y-66032519D01*
X124547202Y-66022798D01*
X124537481Y-66012073D01*
X124528858Y-66000447D01*
X124521417Y-65988031D01*
X124515228Y-65974946D01*
X124510351Y-65961317D01*
X124506834Y-65947276D01*
X124504710Y-65932958D01*
X124504000Y-65918500D01*
X124504000Y-65623500D01*
X124504710Y-65609042D01*
X124506834Y-65594724D01*
X124510351Y-65580683D01*
X124515228Y-65567054D01*
X124521417Y-65553969D01*
X124528858Y-65541553D01*
X124537481Y-65529927D01*
X124547202Y-65519202D01*
X124557927Y-65509481D01*
X124569553Y-65500858D01*
X124581969Y-65493417D01*
X124595054Y-65487228D01*
X124608683Y-65482351D01*
X124622724Y-65478834D01*
X124637042Y-65476710D01*
X124651500Y-65476000D01*
X124996500Y-65476000D01*
X125010958Y-65476710D01*
G37*
G36*
X122502958Y-84772710D02*
G01*
X122517276Y-84774834D01*
X122531317Y-84778351D01*
X122544946Y-84783228D01*
X122558031Y-84789417D01*
X122570447Y-84796858D01*
X122582073Y-84805481D01*
X122592798Y-84815202D01*
X122602519Y-84825927D01*
X122611142Y-84837553D01*
X122618583Y-84849969D01*
X122624772Y-84863054D01*
X122629649Y-84876683D01*
X122633166Y-84890724D01*
X122635290Y-84905042D01*
X122636000Y-84919500D01*
X122636000Y-85214500D01*
X122635290Y-85228958D01*
X122633166Y-85243276D01*
X122629649Y-85257317D01*
X122624772Y-85270946D01*
X122618583Y-85284031D01*
X122611142Y-85296447D01*
X122602519Y-85308073D01*
X122592798Y-85318798D01*
X122582073Y-85328519D01*
X122570447Y-85337142D01*
X122558031Y-85344583D01*
X122544946Y-85350772D01*
X122531317Y-85355649D01*
X122517276Y-85359166D01*
X122502958Y-85361290D01*
X122488500Y-85362000D01*
X122143500Y-85362000D01*
X122129042Y-85361290D01*
X122114724Y-85359166D01*
X122100683Y-85355649D01*
X122087054Y-85350772D01*
X122073969Y-85344583D01*
X122061553Y-85337142D01*
X122049927Y-85328519D01*
X122039202Y-85318798D01*
X122029481Y-85308073D01*
X122020858Y-85296447D01*
X122013417Y-85284031D01*
X122007228Y-85270946D01*
X122002351Y-85257317D01*
X121998834Y-85243276D01*
X121996710Y-85228958D01*
X121996000Y-85214500D01*
X121996000Y-84919500D01*
X121996710Y-84905042D01*
X121998834Y-84890724D01*
X122002351Y-84876683D01*
X122007228Y-84863054D01*
X122013417Y-84849969D01*
X122020858Y-84837553D01*
X122029481Y-84825927D01*
X122039202Y-84815202D01*
X122049927Y-84805481D01*
X122061553Y-84796858D01*
X122073969Y-84789417D01*
X122087054Y-84783228D01*
X122100683Y-84778351D01*
X122114724Y-84774834D01*
X122129042Y-84772710D01*
X122143500Y-84772000D01*
X122488500Y-84772000D01*
X122502958Y-84772710D01*
G37*
G36*
X122502958Y-83802710D02*
G01*
X122517276Y-83804834D01*
X122531317Y-83808351D01*
X122544946Y-83813228D01*
X122558031Y-83819417D01*
X122570447Y-83826858D01*
X122582073Y-83835481D01*
X122592798Y-83845202D01*
X122602519Y-83855927D01*
X122611142Y-83867553D01*
X122618583Y-83879969D01*
X122624772Y-83893054D01*
X122629649Y-83906683D01*
X122633166Y-83920724D01*
X122635290Y-83935042D01*
X122636000Y-83949500D01*
X122636000Y-84244500D01*
X122635290Y-84258958D01*
X122633166Y-84273276D01*
X122629649Y-84287317D01*
X122624772Y-84300946D01*
X122618583Y-84314031D01*
X122611142Y-84326447D01*
X122602519Y-84338073D01*
X122592798Y-84348798D01*
X122582073Y-84358519D01*
X122570447Y-84367142D01*
X122558031Y-84374583D01*
X122544946Y-84380772D01*
X122531317Y-84385649D01*
X122517276Y-84389166D01*
X122502958Y-84391290D01*
X122488500Y-84392000D01*
X122143500Y-84392000D01*
X122129042Y-84391290D01*
X122114724Y-84389166D01*
X122100683Y-84385649D01*
X122087054Y-84380772D01*
X122073969Y-84374583D01*
X122061553Y-84367142D01*
X122049927Y-84358519D01*
X122039202Y-84348798D01*
X122029481Y-84338073D01*
X122020858Y-84326447D01*
X122013417Y-84314031D01*
X122007228Y-84300946D01*
X122002351Y-84287317D01*
X121998834Y-84273276D01*
X121996710Y-84258958D01*
X121996000Y-84244500D01*
X121996000Y-83949500D01*
X121996710Y-83935042D01*
X121998834Y-83920724D01*
X122002351Y-83906683D01*
X122007228Y-83893054D01*
X122013417Y-83879969D01*
X122020858Y-83867553D01*
X122029481Y-83855927D01*
X122039202Y-83845202D01*
X122049927Y-83835481D01*
X122061553Y-83826858D01*
X122073969Y-83819417D01*
X122087054Y-83813228D01*
X122100683Y-83808351D01*
X122114724Y-83804834D01*
X122129042Y-83802710D01*
X122143500Y-83802000D01*
X122488500Y-83802000D01*
X122502958Y-83802710D01*
G37*
G36*
X123518958Y-84772710D02*
G01*
X123533276Y-84774834D01*
X123547317Y-84778351D01*
X123560946Y-84783228D01*
X123574031Y-84789417D01*
X123586447Y-84796858D01*
X123598073Y-84805481D01*
X123608798Y-84815202D01*
X123618519Y-84825927D01*
X123627142Y-84837553D01*
X123634583Y-84849969D01*
X123640772Y-84863054D01*
X123645649Y-84876683D01*
X123649166Y-84890724D01*
X123651290Y-84905042D01*
X123652000Y-84919500D01*
X123652000Y-85214500D01*
X123651290Y-85228958D01*
X123649166Y-85243276D01*
X123645649Y-85257317D01*
X123640772Y-85270946D01*
X123634583Y-85284031D01*
X123627142Y-85296447D01*
X123618519Y-85308073D01*
X123608798Y-85318798D01*
X123598073Y-85328519D01*
X123586447Y-85337142D01*
X123574031Y-85344583D01*
X123560946Y-85350772D01*
X123547317Y-85355649D01*
X123533276Y-85359166D01*
X123518958Y-85361290D01*
X123504500Y-85362000D01*
X123159500Y-85362000D01*
X123145042Y-85361290D01*
X123130724Y-85359166D01*
X123116683Y-85355649D01*
X123103054Y-85350772D01*
X123089969Y-85344583D01*
X123077553Y-85337142D01*
X123065927Y-85328519D01*
X123055202Y-85318798D01*
X123045481Y-85308073D01*
X123036858Y-85296447D01*
X123029417Y-85284031D01*
X123023228Y-85270946D01*
X123018351Y-85257317D01*
X123014834Y-85243276D01*
X123012710Y-85228958D01*
X123012000Y-85214500D01*
X123012000Y-84919500D01*
X123012710Y-84905042D01*
X123014834Y-84890724D01*
X123018351Y-84876683D01*
X123023228Y-84863054D01*
X123029417Y-84849969D01*
X123036858Y-84837553D01*
X123045481Y-84825927D01*
X123055202Y-84815202D01*
X123065927Y-84805481D01*
X123077553Y-84796858D01*
X123089969Y-84789417D01*
X123103054Y-84783228D01*
X123116683Y-84778351D01*
X123130724Y-84774834D01*
X123145042Y-84772710D01*
X123159500Y-84772000D01*
X123504500Y-84772000D01*
X123518958Y-84772710D01*
G37*
G36*
X123518958Y-83802710D02*
G01*
X123533276Y-83804834D01*
X123547317Y-83808351D01*
X123560946Y-83813228D01*
X123574031Y-83819417D01*
X123586447Y-83826858D01*
X123598073Y-83835481D01*
X123608798Y-83845202D01*
X123618519Y-83855927D01*
X123627142Y-83867553D01*
X123634583Y-83879969D01*
X123640772Y-83893054D01*
X123645649Y-83906683D01*
X123649166Y-83920724D01*
X123651290Y-83935042D01*
X123652000Y-83949500D01*
X123652000Y-84244500D01*
X123651290Y-84258958D01*
X123649166Y-84273276D01*
X123645649Y-84287317D01*
X123640772Y-84300946D01*
X123634583Y-84314031D01*
X123627142Y-84326447D01*
X123618519Y-84338073D01*
X123608798Y-84348798D01*
X123598073Y-84358519D01*
X123586447Y-84367142D01*
X123574031Y-84374583D01*
X123560946Y-84380772D01*
X123547317Y-84385649D01*
X123533276Y-84389166D01*
X123518958Y-84391290D01*
X123504500Y-84392000D01*
X123159500Y-84392000D01*
X123145042Y-84391290D01*
X123130724Y-84389166D01*
X123116683Y-84385649D01*
X123103054Y-84380772D01*
X123089969Y-84374583D01*
X123077553Y-84367142D01*
X123065927Y-84358519D01*
X123055202Y-84348798D01*
X123045481Y-84338073D01*
X123036858Y-84326447D01*
X123029417Y-84314031D01*
X123023228Y-84300946D01*
X123018351Y-84287317D01*
X123014834Y-84273276D01*
X123012710Y-84258958D01*
X123012000Y-84244500D01*
X123012000Y-83949500D01*
X123012710Y-83935042D01*
X123014834Y-83920724D01*
X123018351Y-83906683D01*
X123023228Y-83893054D01*
X123029417Y-83879969D01*
X123036858Y-83867553D01*
X123045481Y-83855927D01*
X123055202Y-83845202D01*
X123065927Y-83835481D01*
X123077553Y-83826858D01*
X123089969Y-83819417D01*
X123103054Y-83813228D01*
X123116683Y-83808351D01*
X123130724Y-83804834D01*
X123145042Y-83802710D01*
X123159500Y-83802000D01*
X123504500Y-83802000D01*
X123518958Y-83802710D01*
G37*
G36*
X125296958Y-70594710D02*
G01*
X125311276Y-70596834D01*
X125325317Y-70600351D01*
X125338946Y-70605228D01*
X125352031Y-70611417D01*
X125364447Y-70618858D01*
X125376073Y-70627481D01*
X125386798Y-70637202D01*
X125396519Y-70647927D01*
X125405142Y-70659553D01*
X125412583Y-70671969D01*
X125418772Y-70685054D01*
X125423649Y-70698683D01*
X125427166Y-70712724D01*
X125429290Y-70727042D01*
X125430000Y-70741500D01*
X125430000Y-71036500D01*
X125429290Y-71050958D01*
X125427166Y-71065276D01*
X125423649Y-71079317D01*
X125418772Y-71092946D01*
X125412583Y-71106031D01*
X125405142Y-71118447D01*
X125396519Y-71130073D01*
X125386798Y-71140798D01*
X125376073Y-71150519D01*
X125364447Y-71159142D01*
X125352031Y-71166583D01*
X125338946Y-71172772D01*
X125325317Y-71177649D01*
X125311276Y-71181166D01*
X125296958Y-71183290D01*
X125282500Y-71184000D01*
X124937500Y-71184000D01*
X124923042Y-71183290D01*
X124908724Y-71181166D01*
X124894683Y-71177649D01*
X124881054Y-71172772D01*
X124867969Y-71166583D01*
X124855553Y-71159142D01*
X124843927Y-71150519D01*
X124833202Y-71140798D01*
X124823481Y-71130073D01*
X124814858Y-71118447D01*
X124807417Y-71106031D01*
X124801228Y-71092946D01*
X124796351Y-71079317D01*
X124792834Y-71065276D01*
X124790710Y-71050958D01*
X124790000Y-71036500D01*
X124790000Y-70741500D01*
X124790710Y-70727042D01*
X124792834Y-70712724D01*
X124796351Y-70698683D01*
X124801228Y-70685054D01*
X124807417Y-70671969D01*
X124814858Y-70659553D01*
X124823481Y-70647927D01*
X124833202Y-70637202D01*
X124843927Y-70627481D01*
X124855553Y-70618858D01*
X124867969Y-70611417D01*
X124881054Y-70605228D01*
X124894683Y-70600351D01*
X124908724Y-70596834D01*
X124923042Y-70594710D01*
X124937500Y-70594000D01*
X125282500Y-70594000D01*
X125296958Y-70594710D01*
G37*
G36*
X125296958Y-71564710D02*
G01*
X125311276Y-71566834D01*
X125325317Y-71570351D01*
X125338946Y-71575228D01*
X125352031Y-71581417D01*
X125364447Y-71588858D01*
X125376073Y-71597481D01*
X125386798Y-71607202D01*
X125396519Y-71617927D01*
X125405142Y-71629553D01*
X125412583Y-71641969D01*
X125418772Y-71655054D01*
X125423649Y-71668683D01*
X125427166Y-71682724D01*
X125429290Y-71697042D01*
X125430000Y-71711500D01*
X125430000Y-72006500D01*
X125429290Y-72020958D01*
X125427166Y-72035276D01*
X125423649Y-72049317D01*
X125418772Y-72062946D01*
X125412583Y-72076031D01*
X125405142Y-72088447D01*
X125396519Y-72100073D01*
X125386798Y-72110798D01*
X125376073Y-72120519D01*
X125364447Y-72129142D01*
X125352031Y-72136583D01*
X125338946Y-72142772D01*
X125325317Y-72147649D01*
X125311276Y-72151166D01*
X125296958Y-72153290D01*
X125282500Y-72154000D01*
X124937500Y-72154000D01*
X124923042Y-72153290D01*
X124908724Y-72151166D01*
X124894683Y-72147649D01*
X124881054Y-72142772D01*
X124867969Y-72136583D01*
X124855553Y-72129142D01*
X124843927Y-72120519D01*
X124833202Y-72110798D01*
X124823481Y-72100073D01*
X124814858Y-72088447D01*
X124807417Y-72076031D01*
X124801228Y-72062946D01*
X124796351Y-72049317D01*
X124792834Y-72035276D01*
X124790710Y-72020958D01*
X124790000Y-72006500D01*
X124790000Y-71711500D01*
X124790710Y-71697042D01*
X124792834Y-71682724D01*
X124796351Y-71668683D01*
X124801228Y-71655054D01*
X124807417Y-71641969D01*
X124814858Y-71629553D01*
X124823481Y-71617927D01*
X124833202Y-71607202D01*
X124843927Y-71597481D01*
X124855553Y-71588858D01*
X124867969Y-71581417D01*
X124881054Y-71575228D01*
X124894683Y-71570351D01*
X124908724Y-71566834D01*
X124923042Y-71564710D01*
X124937500Y-71564000D01*
X125282500Y-71564000D01*
X125296958Y-71564710D01*
G37*
G36*
X126312958Y-71564710D02*
G01*
X126327276Y-71566834D01*
X126341317Y-71570351D01*
X126354946Y-71575228D01*
X126368031Y-71581417D01*
X126380447Y-71588858D01*
X126392073Y-71597481D01*
X126402798Y-71607202D01*
X126412519Y-71617927D01*
X126421142Y-71629553D01*
X126428583Y-71641969D01*
X126434772Y-71655054D01*
X126439649Y-71668683D01*
X126443166Y-71682724D01*
X126445290Y-71697042D01*
X126446000Y-71711500D01*
X126446000Y-72006500D01*
X126445290Y-72020958D01*
X126443166Y-72035276D01*
X126439649Y-72049317D01*
X126434772Y-72062946D01*
X126428583Y-72076031D01*
X126421142Y-72088447D01*
X126412519Y-72100073D01*
X126402798Y-72110798D01*
X126392073Y-72120519D01*
X126380447Y-72129142D01*
X126368031Y-72136583D01*
X126354946Y-72142772D01*
X126341317Y-72147649D01*
X126327276Y-72151166D01*
X126312958Y-72153290D01*
X126298500Y-72154000D01*
X125953500Y-72154000D01*
X125939042Y-72153290D01*
X125924724Y-72151166D01*
X125910683Y-72147649D01*
X125897054Y-72142772D01*
X125883969Y-72136583D01*
X125871553Y-72129142D01*
X125859927Y-72120519D01*
X125849202Y-72110798D01*
X125839481Y-72100073D01*
X125830858Y-72088447D01*
X125823417Y-72076031D01*
X125817228Y-72062946D01*
X125812351Y-72049317D01*
X125808834Y-72035276D01*
X125806710Y-72020958D01*
X125806000Y-72006500D01*
X125806000Y-71711500D01*
X125806710Y-71697042D01*
X125808834Y-71682724D01*
X125812351Y-71668683D01*
X125817228Y-71655054D01*
X125823417Y-71641969D01*
X125830858Y-71629553D01*
X125839481Y-71617927D01*
X125849202Y-71607202D01*
X125859927Y-71597481D01*
X125871553Y-71588858D01*
X125883969Y-71581417D01*
X125897054Y-71575228D01*
X125910683Y-71570351D01*
X125924724Y-71566834D01*
X125939042Y-71564710D01*
X125953500Y-71564000D01*
X126298500Y-71564000D01*
X126312958Y-71564710D01*
G37*
G36*
X126312958Y-70594710D02*
G01*
X126327276Y-70596834D01*
X126341317Y-70600351D01*
X126354946Y-70605228D01*
X126368031Y-70611417D01*
X126380447Y-70618858D01*
X126392073Y-70627481D01*
X126402798Y-70637202D01*
X126412519Y-70647927D01*
X126421142Y-70659553D01*
X126428583Y-70671969D01*
X126434772Y-70685054D01*
X126439649Y-70698683D01*
X126443166Y-70712724D01*
X126445290Y-70727042D01*
X126446000Y-70741500D01*
X126446000Y-71036500D01*
X126445290Y-71050958D01*
X126443166Y-71065276D01*
X126439649Y-71079317D01*
X126434772Y-71092946D01*
X126428583Y-71106031D01*
X126421142Y-71118447D01*
X126412519Y-71130073D01*
X126402798Y-71140798D01*
X126392073Y-71150519D01*
X126380447Y-71159142D01*
X126368031Y-71166583D01*
X126354946Y-71172772D01*
X126341317Y-71177649D01*
X126327276Y-71181166D01*
X126312958Y-71183290D01*
X126298500Y-71184000D01*
X125953500Y-71184000D01*
X125939042Y-71183290D01*
X125924724Y-71181166D01*
X125910683Y-71177649D01*
X125897054Y-71172772D01*
X125883969Y-71166583D01*
X125871553Y-71159142D01*
X125859927Y-71150519D01*
X125849202Y-71140798D01*
X125839481Y-71130073D01*
X125830858Y-71118447D01*
X125823417Y-71106031D01*
X125817228Y-71092946D01*
X125812351Y-71079317D01*
X125808834Y-71065276D01*
X125806710Y-71050958D01*
X125806000Y-71036500D01*
X125806000Y-70741500D01*
X125806710Y-70727042D01*
X125808834Y-70712724D01*
X125812351Y-70698683D01*
X125817228Y-70685054D01*
X125823417Y-70671969D01*
X125830858Y-70659553D01*
X125839481Y-70647927D01*
X125849202Y-70637202D01*
X125859927Y-70627481D01*
X125871553Y-70618858D01*
X125883969Y-70611417D01*
X125897054Y-70605228D01*
X125910683Y-70600351D01*
X125924724Y-70596834D01*
X125939042Y-70594710D01*
X125953500Y-70594000D01*
X126298500Y-70594000D01*
X126312958Y-70594710D01*
G37*
G36*
X126566958Y-73850710D02*
G01*
X126581276Y-73852834D01*
X126595317Y-73856351D01*
X126608946Y-73861228D01*
X126622031Y-73867417D01*
X126634447Y-73874858D01*
X126646073Y-73883481D01*
X126656798Y-73893202D01*
X126666519Y-73903927D01*
X126675142Y-73915553D01*
X126682583Y-73927969D01*
X126688772Y-73941054D01*
X126693649Y-73954683D01*
X126697166Y-73968724D01*
X126699290Y-73983042D01*
X126700000Y-73997500D01*
X126700000Y-74292500D01*
X126699290Y-74306958D01*
X126697166Y-74321276D01*
X126693649Y-74335317D01*
X126688772Y-74348946D01*
X126682583Y-74362031D01*
X126675142Y-74374447D01*
X126666519Y-74386073D01*
X126656798Y-74396798D01*
X126646073Y-74406519D01*
X126634447Y-74415142D01*
X126622031Y-74422583D01*
X126608946Y-74428772D01*
X126595317Y-74433649D01*
X126581276Y-74437166D01*
X126566958Y-74439290D01*
X126552500Y-74440000D01*
X126207500Y-74440000D01*
X126193042Y-74439290D01*
X126178724Y-74437166D01*
X126164683Y-74433649D01*
X126151054Y-74428772D01*
X126137969Y-74422583D01*
X126125553Y-74415142D01*
X126113927Y-74406519D01*
X126103202Y-74396798D01*
X126093481Y-74386073D01*
X126084858Y-74374447D01*
X126077417Y-74362031D01*
X126071228Y-74348946D01*
X126066351Y-74335317D01*
X126062834Y-74321276D01*
X126060710Y-74306958D01*
X126060000Y-74292500D01*
X126060000Y-73997500D01*
X126060710Y-73983042D01*
X126062834Y-73968724D01*
X126066351Y-73954683D01*
X126071228Y-73941054D01*
X126077417Y-73927969D01*
X126084858Y-73915553D01*
X126093481Y-73903927D01*
X126103202Y-73893202D01*
X126113927Y-73883481D01*
X126125553Y-73874858D01*
X126137969Y-73867417D01*
X126151054Y-73861228D01*
X126164683Y-73856351D01*
X126178724Y-73852834D01*
X126193042Y-73850710D01*
X126207500Y-73850000D01*
X126552500Y-73850000D01*
X126566958Y-73850710D01*
G37*
G36*
X126566958Y-72880710D02*
G01*
X126581276Y-72882834D01*
X126595317Y-72886351D01*
X126608946Y-72891228D01*
X126622031Y-72897417D01*
X126634447Y-72904858D01*
X126646073Y-72913481D01*
X126656798Y-72923202D01*
X126666519Y-72933927D01*
X126675142Y-72945553D01*
X126682583Y-72957969D01*
X126688772Y-72971054D01*
X126693649Y-72984683D01*
X126697166Y-72998724D01*
X126699290Y-73013042D01*
X126700000Y-73027500D01*
X126700000Y-73322500D01*
X126699290Y-73336958D01*
X126697166Y-73351276D01*
X126693649Y-73365317D01*
X126688772Y-73378946D01*
X126682583Y-73392031D01*
X126675142Y-73404447D01*
X126666519Y-73416073D01*
X126656798Y-73426798D01*
X126646073Y-73436519D01*
X126634447Y-73445142D01*
X126622031Y-73452583D01*
X126608946Y-73458772D01*
X126595317Y-73463649D01*
X126581276Y-73467166D01*
X126566958Y-73469290D01*
X126552500Y-73470000D01*
X126207500Y-73470000D01*
X126193042Y-73469290D01*
X126178724Y-73467166D01*
X126164683Y-73463649D01*
X126151054Y-73458772D01*
X126137969Y-73452583D01*
X126125553Y-73445142D01*
X126113927Y-73436519D01*
X126103202Y-73426798D01*
X126093481Y-73416073D01*
X126084858Y-73404447D01*
X126077417Y-73392031D01*
X126071228Y-73378946D01*
X126066351Y-73365317D01*
X126062834Y-73351276D01*
X126060710Y-73336958D01*
X126060000Y-73322500D01*
X126060000Y-73027500D01*
X126060710Y-73013042D01*
X126062834Y-72998724D01*
X126066351Y-72984683D01*
X126071228Y-72971054D01*
X126077417Y-72957969D01*
X126084858Y-72945553D01*
X126093481Y-72933927D01*
X126103202Y-72923202D01*
X126113927Y-72913481D01*
X126125553Y-72904858D01*
X126137969Y-72897417D01*
X126151054Y-72891228D01*
X126164683Y-72886351D01*
X126178724Y-72882834D01*
X126193042Y-72880710D01*
X126207500Y-72880000D01*
X126552500Y-72880000D01*
X126566958Y-72880710D01*
G37*
G36*
X128710958Y-78468710D02*
G01*
X128725276Y-78470834D01*
X128739317Y-78474351D01*
X128752946Y-78479228D01*
X128766031Y-78485417D01*
X128778447Y-78492858D01*
X128790073Y-78501481D01*
X128800798Y-78511202D01*
X128810519Y-78521927D01*
X128819142Y-78533553D01*
X128826583Y-78545969D01*
X128832772Y-78559054D01*
X128837649Y-78572683D01*
X128841166Y-78586724D01*
X128843290Y-78601042D01*
X128844000Y-78615500D01*
X128844000Y-78910500D01*
X128843290Y-78924958D01*
X128841166Y-78939276D01*
X128837649Y-78953317D01*
X128832772Y-78966946D01*
X128826583Y-78980031D01*
X128819142Y-78992447D01*
X128810519Y-79004073D01*
X128800798Y-79014798D01*
X128790073Y-79024519D01*
X128778447Y-79033142D01*
X128766031Y-79040583D01*
X128752946Y-79046772D01*
X128739317Y-79051649D01*
X128725276Y-79055166D01*
X128710958Y-79057290D01*
X128696500Y-79058000D01*
X128351500Y-79058000D01*
X128337042Y-79057290D01*
X128322724Y-79055166D01*
X128308683Y-79051649D01*
X128295054Y-79046772D01*
X128281969Y-79040583D01*
X128269553Y-79033142D01*
X128257927Y-79024519D01*
X128247202Y-79014798D01*
X128237481Y-79004073D01*
X128228858Y-78992447D01*
X128221417Y-78980031D01*
X128215228Y-78966946D01*
X128210351Y-78953317D01*
X128206834Y-78939276D01*
X128204710Y-78924958D01*
X128204000Y-78910500D01*
X128204000Y-78615500D01*
X128204710Y-78601042D01*
X128206834Y-78586724D01*
X128210351Y-78572683D01*
X128215228Y-78559054D01*
X128221417Y-78545969D01*
X128228858Y-78533553D01*
X128237481Y-78521927D01*
X128247202Y-78511202D01*
X128257927Y-78501481D01*
X128269553Y-78492858D01*
X128281969Y-78485417D01*
X128295054Y-78479228D01*
X128308683Y-78474351D01*
X128322724Y-78470834D01*
X128337042Y-78468710D01*
X128351500Y-78468000D01*
X128696500Y-78468000D01*
X128710958Y-78468710D01*
G37*
G36*
X128710958Y-79438710D02*
G01*
X128725276Y-79440834D01*
X128739317Y-79444351D01*
X128752946Y-79449228D01*
X128766031Y-79455417D01*
X128778447Y-79462858D01*
X128790073Y-79471481D01*
X128800798Y-79481202D01*
X128810519Y-79491927D01*
X128819142Y-79503553D01*
X128826583Y-79515969D01*
X128832772Y-79529054D01*
X128837649Y-79542683D01*
X128841166Y-79556724D01*
X128843290Y-79571042D01*
X128844000Y-79585500D01*
X128844000Y-79880500D01*
X128843290Y-79894958D01*
X128841166Y-79909276D01*
X128837649Y-79923317D01*
X128832772Y-79936946D01*
X128826583Y-79950031D01*
X128819142Y-79962447D01*
X128810519Y-79974073D01*
X128800798Y-79984798D01*
X128790073Y-79994519D01*
X128778447Y-80003142D01*
X128766031Y-80010583D01*
X128752946Y-80016772D01*
X128739317Y-80021649D01*
X128725276Y-80025166D01*
X128710958Y-80027290D01*
X128696500Y-80028000D01*
X128351500Y-80028000D01*
X128337042Y-80027290D01*
X128322724Y-80025166D01*
X128308683Y-80021649D01*
X128295054Y-80016772D01*
X128281969Y-80010583D01*
X128269553Y-80003142D01*
X128257927Y-79994519D01*
X128247202Y-79984798D01*
X128237481Y-79974073D01*
X128228858Y-79962447D01*
X128221417Y-79950031D01*
X128215228Y-79936946D01*
X128210351Y-79923317D01*
X128206834Y-79909276D01*
X128204710Y-79894958D01*
X128204000Y-79880500D01*
X128204000Y-79585500D01*
X128204710Y-79571042D01*
X128206834Y-79556724D01*
X128210351Y-79542683D01*
X128215228Y-79529054D01*
X128221417Y-79515969D01*
X128228858Y-79503553D01*
X128237481Y-79491927D01*
X128247202Y-79481202D01*
X128257927Y-79471481D01*
X128269553Y-79462858D01*
X128281969Y-79455417D01*
X128295054Y-79449228D01*
X128308683Y-79444351D01*
X128322724Y-79440834D01*
X128337042Y-79438710D01*
X128351500Y-79438000D01*
X128696500Y-79438000D01*
X128710958Y-79438710D01*
G37*
G36*
X117676958Y-87820710D02*
G01*
X117691276Y-87822834D01*
X117705317Y-87826351D01*
X117718946Y-87831228D01*
X117732031Y-87837417D01*
X117744447Y-87844858D01*
X117756073Y-87853481D01*
X117766798Y-87863202D01*
X117776519Y-87873927D01*
X117785142Y-87885553D01*
X117792583Y-87897969D01*
X117798772Y-87911054D01*
X117803649Y-87924683D01*
X117807166Y-87938724D01*
X117809290Y-87953042D01*
X117810000Y-87967500D01*
X117810000Y-88262500D01*
X117809290Y-88276958D01*
X117807166Y-88291276D01*
X117803649Y-88305317D01*
X117798772Y-88318946D01*
X117792583Y-88332031D01*
X117785142Y-88344447D01*
X117776519Y-88356073D01*
X117766798Y-88366798D01*
X117756073Y-88376519D01*
X117744447Y-88385142D01*
X117732031Y-88392583D01*
X117718946Y-88398772D01*
X117705317Y-88403649D01*
X117691276Y-88407166D01*
X117676958Y-88409290D01*
X117662500Y-88410000D01*
X117317500Y-88410000D01*
X117303042Y-88409290D01*
X117288724Y-88407166D01*
X117274683Y-88403649D01*
X117261054Y-88398772D01*
X117247969Y-88392583D01*
X117235553Y-88385142D01*
X117223927Y-88376519D01*
X117213202Y-88366798D01*
X117203481Y-88356073D01*
X117194858Y-88344447D01*
X117187417Y-88332031D01*
X117181228Y-88318946D01*
X117176351Y-88305317D01*
X117172834Y-88291276D01*
X117170710Y-88276958D01*
X117170000Y-88262500D01*
X117170000Y-87967500D01*
X117170710Y-87953042D01*
X117172834Y-87938724D01*
X117176351Y-87924683D01*
X117181228Y-87911054D01*
X117187417Y-87897969D01*
X117194858Y-87885553D01*
X117203481Y-87873927D01*
X117213202Y-87863202D01*
X117223927Y-87853481D01*
X117235553Y-87844858D01*
X117247969Y-87837417D01*
X117261054Y-87831228D01*
X117274683Y-87826351D01*
X117288724Y-87822834D01*
X117303042Y-87820710D01*
X117317500Y-87820000D01*
X117662500Y-87820000D01*
X117676958Y-87820710D01*
G37*
G36*
X117676958Y-86850710D02*
G01*
X117691276Y-86852834D01*
X117705317Y-86856351D01*
X117718946Y-86861228D01*
X117732031Y-86867417D01*
X117744447Y-86874858D01*
X117756073Y-86883481D01*
X117766798Y-86893202D01*
X117776519Y-86903927D01*
X117785142Y-86915553D01*
X117792583Y-86927969D01*
X117798772Y-86941054D01*
X117803649Y-86954683D01*
X117807166Y-86968724D01*
X117809290Y-86983042D01*
X117810000Y-86997500D01*
X117810000Y-87292500D01*
X117809290Y-87306958D01*
X117807166Y-87321276D01*
X117803649Y-87335317D01*
X117798772Y-87348946D01*
X117792583Y-87362031D01*
X117785142Y-87374447D01*
X117776519Y-87386073D01*
X117766798Y-87396798D01*
X117756073Y-87406519D01*
X117744447Y-87415142D01*
X117732031Y-87422583D01*
X117718946Y-87428772D01*
X117705317Y-87433649D01*
X117691276Y-87437166D01*
X117676958Y-87439290D01*
X117662500Y-87440000D01*
X117317500Y-87440000D01*
X117303042Y-87439290D01*
X117288724Y-87437166D01*
X117274683Y-87433649D01*
X117261054Y-87428772D01*
X117247969Y-87422583D01*
X117235553Y-87415142D01*
X117223927Y-87406519D01*
X117213202Y-87396798D01*
X117203481Y-87386073D01*
X117194858Y-87374447D01*
X117187417Y-87362031D01*
X117181228Y-87348946D01*
X117176351Y-87335317D01*
X117172834Y-87321276D01*
X117170710Y-87306958D01*
X117170000Y-87292500D01*
X117170000Y-86997500D01*
X117170710Y-86983042D01*
X117172834Y-86968724D01*
X117176351Y-86954683D01*
X117181228Y-86941054D01*
X117187417Y-86927969D01*
X117194858Y-86915553D01*
X117203481Y-86903927D01*
X117213202Y-86893202D01*
X117223927Y-86883481D01*
X117235553Y-86874858D01*
X117247969Y-86867417D01*
X117261054Y-86861228D01*
X117274683Y-86856351D01*
X117288724Y-86852834D01*
X117303042Y-86850710D01*
X117317500Y-86850000D01*
X117662500Y-86850000D01*
X117676958Y-86850710D01*
G37*
G36*
X125296958Y-86850710D02*
G01*
X125311276Y-86852834D01*
X125325317Y-86856351D01*
X125338946Y-86861228D01*
X125352031Y-86867417D01*
X125364447Y-86874858D01*
X125376073Y-86883481D01*
X125386798Y-86893202D01*
X125396519Y-86903927D01*
X125405142Y-86915553D01*
X125412583Y-86927969D01*
X125418772Y-86941054D01*
X125423649Y-86954683D01*
X125427166Y-86968724D01*
X125429290Y-86983042D01*
X125430000Y-86997500D01*
X125430000Y-87292500D01*
X125429290Y-87306958D01*
X125427166Y-87321276D01*
X125423649Y-87335317D01*
X125418772Y-87348946D01*
X125412583Y-87362031D01*
X125405142Y-87374447D01*
X125396519Y-87386073D01*
X125386798Y-87396798D01*
X125376073Y-87406519D01*
X125364447Y-87415142D01*
X125352031Y-87422583D01*
X125338946Y-87428772D01*
X125325317Y-87433649D01*
X125311276Y-87437166D01*
X125296958Y-87439290D01*
X125282500Y-87440000D01*
X124937500Y-87440000D01*
X124923042Y-87439290D01*
X124908724Y-87437166D01*
X124894683Y-87433649D01*
X124881054Y-87428772D01*
X124867969Y-87422583D01*
X124855553Y-87415142D01*
X124843927Y-87406519D01*
X124833202Y-87396798D01*
X124823481Y-87386073D01*
X124814858Y-87374447D01*
X124807417Y-87362031D01*
X124801228Y-87348946D01*
X124796351Y-87335317D01*
X124792834Y-87321276D01*
X124790710Y-87306958D01*
X124790000Y-87292500D01*
X124790000Y-86997500D01*
X124790710Y-86983042D01*
X124792834Y-86968724D01*
X124796351Y-86954683D01*
X124801228Y-86941054D01*
X124807417Y-86927969D01*
X124814858Y-86915553D01*
X124823481Y-86903927D01*
X124833202Y-86893202D01*
X124843927Y-86883481D01*
X124855553Y-86874858D01*
X124867969Y-86867417D01*
X124881054Y-86861228D01*
X124894683Y-86856351D01*
X124908724Y-86852834D01*
X124923042Y-86850710D01*
X124937500Y-86850000D01*
X125282500Y-86850000D01*
X125296958Y-86850710D01*
G37*
G36*
X125296958Y-87820710D02*
G01*
X125311276Y-87822834D01*
X125325317Y-87826351D01*
X125338946Y-87831228D01*
X125352031Y-87837417D01*
X125364447Y-87844858D01*
X125376073Y-87853481D01*
X125386798Y-87863202D01*
X125396519Y-87873927D01*
X125405142Y-87885553D01*
X125412583Y-87897969D01*
X125418772Y-87911054D01*
X125423649Y-87924683D01*
X125427166Y-87938724D01*
X125429290Y-87953042D01*
X125430000Y-87967500D01*
X125430000Y-88262500D01*
X125429290Y-88276958D01*
X125427166Y-88291276D01*
X125423649Y-88305317D01*
X125418772Y-88318946D01*
X125412583Y-88332031D01*
X125405142Y-88344447D01*
X125396519Y-88356073D01*
X125386798Y-88366798D01*
X125376073Y-88376519D01*
X125364447Y-88385142D01*
X125352031Y-88392583D01*
X125338946Y-88398772D01*
X125325317Y-88403649D01*
X125311276Y-88407166D01*
X125296958Y-88409290D01*
X125282500Y-88410000D01*
X124937500Y-88410000D01*
X124923042Y-88409290D01*
X124908724Y-88407166D01*
X124894683Y-88403649D01*
X124881054Y-88398772D01*
X124867969Y-88392583D01*
X124855553Y-88385142D01*
X124843927Y-88376519D01*
X124833202Y-88366798D01*
X124823481Y-88356073D01*
X124814858Y-88344447D01*
X124807417Y-88332031D01*
X124801228Y-88318946D01*
X124796351Y-88305317D01*
X124792834Y-88291276D01*
X124790710Y-88276958D01*
X124790000Y-88262500D01*
X124790000Y-87967500D01*
X124790710Y-87953042D01*
X124792834Y-87938724D01*
X124796351Y-87924683D01*
X124801228Y-87911054D01*
X124807417Y-87897969D01*
X124814858Y-87885553D01*
X124823481Y-87873927D01*
X124833202Y-87863202D01*
X124843927Y-87853481D01*
X124855553Y-87844858D01*
X124867969Y-87837417D01*
X124881054Y-87831228D01*
X124894683Y-87826351D01*
X124908724Y-87822834D01*
X124923042Y-87820710D01*
X124937500Y-87820000D01*
X125282500Y-87820000D01*
X125296958Y-87820710D01*
G37*
D16*
X147955000Y-69680000D03*
D17*
X148930000Y-70930000D03*
X148280000Y-70930000D03*
X147630000Y-70930000D03*
X146980000Y-70930000D03*
X146980000Y-67780000D03*
X147630000Y-67780000D03*
X148280000Y-67780000D03*
X148930000Y-67780000D03*
D18*
X145580000Y-70825000D03*
X145580000Y-70175000D03*
X145580000Y-69525000D03*
X145580000Y-68875000D03*
X142430000Y-68875000D03*
X142430000Y-69525000D03*
X142430000Y-70175000D03*
X142430000Y-70825000D03*
D19*
X143680000Y-69850000D03*
D16*
X139700000Y-69680000D03*
D17*
X140675000Y-70930000D03*
X140025000Y-70930000D03*
X139375000Y-70930000D03*
X138725000Y-70930000D03*
X138725000Y-67780000D03*
X139375000Y-67780000D03*
X140025000Y-67780000D03*
X140675000Y-67780000D03*
D18*
X137155000Y-70825000D03*
X137155000Y-70175000D03*
X137155000Y-69525000D03*
X137155000Y-68875000D03*
X134005000Y-68875000D03*
X134005000Y-69525000D03*
X134005000Y-70175000D03*
X134005000Y-70825000D03*
D19*
X135255000Y-69850000D03*
D17*
X148930000Y-84290000D03*
X148280000Y-84290000D03*
X147630000Y-84290000D03*
X146980000Y-84290000D03*
X146980000Y-87440000D03*
X147630000Y-87440000D03*
X148280000Y-87440000D03*
X148930000Y-87440000D03*
D16*
X147955000Y-86190000D03*
D19*
X143510000Y-86360000D03*
D18*
X142260000Y-87335000D03*
X142260000Y-86685000D03*
X142260000Y-86035000D03*
X142260000Y-85385000D03*
X145410000Y-85385000D03*
X145410000Y-86035000D03*
X145410000Y-86685000D03*
X145410000Y-87335000D03*
D17*
X140675000Y-84290000D03*
X140025000Y-84290000D03*
X139375000Y-84290000D03*
X138725000Y-84290000D03*
X138725000Y-87440000D03*
X139375000Y-87440000D03*
X140025000Y-87440000D03*
X140675000Y-87440000D03*
D16*
X139700000Y-86190000D03*
D19*
X135255000Y-86360000D03*
D18*
X134005000Y-87335000D03*
X134005000Y-86685000D03*
X134005000Y-86035000D03*
X134005000Y-85385000D03*
X137155000Y-85385000D03*
X137155000Y-86035000D03*
X137155000Y-86685000D03*
X137155000Y-87335000D03*
D11*
G36*
X137473958Y-62212710D02*
G01*
X137488276Y-62214834D01*
X137502317Y-62218351D01*
X137515946Y-62223228D01*
X137529031Y-62229417D01*
X137541447Y-62236858D01*
X137553073Y-62245481D01*
X137563798Y-62255202D01*
X137573519Y-62265927D01*
X137582142Y-62277553D01*
X137589583Y-62289969D01*
X137595772Y-62303054D01*
X137600649Y-62316683D01*
X137604166Y-62330724D01*
X137606290Y-62345042D01*
X137607000Y-62359500D01*
X137607000Y-62654500D01*
X137606290Y-62668958D01*
X137604166Y-62683276D01*
X137600649Y-62697317D01*
X137595772Y-62710946D01*
X137589583Y-62724031D01*
X137582142Y-62736447D01*
X137573519Y-62748073D01*
X137563798Y-62758798D01*
X137553073Y-62768519D01*
X137541447Y-62777142D01*
X137529031Y-62784583D01*
X137515946Y-62790772D01*
X137502317Y-62795649D01*
X137488276Y-62799166D01*
X137473958Y-62801290D01*
X137459500Y-62802000D01*
X137114500Y-62802000D01*
X137100042Y-62801290D01*
X137085724Y-62799166D01*
X137071683Y-62795649D01*
X137058054Y-62790772D01*
X137044969Y-62784583D01*
X137032553Y-62777142D01*
X137020927Y-62768519D01*
X137010202Y-62758798D01*
X137000481Y-62748073D01*
X136991858Y-62736447D01*
X136984417Y-62724031D01*
X136978228Y-62710946D01*
X136973351Y-62697317D01*
X136969834Y-62683276D01*
X136967710Y-62668958D01*
X136967000Y-62654500D01*
X136967000Y-62359500D01*
X136967710Y-62345042D01*
X136969834Y-62330724D01*
X136973351Y-62316683D01*
X136978228Y-62303054D01*
X136984417Y-62289969D01*
X136991858Y-62277553D01*
X137000481Y-62265927D01*
X137010202Y-62255202D01*
X137020927Y-62245481D01*
X137032553Y-62236858D01*
X137044969Y-62229417D01*
X137058054Y-62223228D01*
X137071683Y-62218351D01*
X137085724Y-62214834D01*
X137100042Y-62212710D01*
X137114500Y-62212000D01*
X137459500Y-62212000D01*
X137473958Y-62212710D01*
G37*
G36*
X137473958Y-63182710D02*
G01*
X137488276Y-63184834D01*
X137502317Y-63188351D01*
X137515946Y-63193228D01*
X137529031Y-63199417D01*
X137541447Y-63206858D01*
X137553073Y-63215481D01*
X137563798Y-63225202D01*
X137573519Y-63235927D01*
X137582142Y-63247553D01*
X137589583Y-63259969D01*
X137595772Y-63273054D01*
X137600649Y-63286683D01*
X137604166Y-63300724D01*
X137606290Y-63315042D01*
X137607000Y-63329500D01*
X137607000Y-63624500D01*
X137606290Y-63638958D01*
X137604166Y-63653276D01*
X137600649Y-63667317D01*
X137595772Y-63680946D01*
X137589583Y-63694031D01*
X137582142Y-63706447D01*
X137573519Y-63718073D01*
X137563798Y-63728798D01*
X137553073Y-63738519D01*
X137541447Y-63747142D01*
X137529031Y-63754583D01*
X137515946Y-63760772D01*
X137502317Y-63765649D01*
X137488276Y-63769166D01*
X137473958Y-63771290D01*
X137459500Y-63772000D01*
X137114500Y-63772000D01*
X137100042Y-63771290D01*
X137085724Y-63769166D01*
X137071683Y-63765649D01*
X137058054Y-63760772D01*
X137044969Y-63754583D01*
X137032553Y-63747142D01*
X137020927Y-63738519D01*
X137010202Y-63728798D01*
X137000481Y-63718073D01*
X136991858Y-63706447D01*
X136984417Y-63694031D01*
X136978228Y-63680946D01*
X136973351Y-63667317D01*
X136969834Y-63653276D01*
X136967710Y-63638958D01*
X136967000Y-63624500D01*
X136967000Y-63329500D01*
X136967710Y-63315042D01*
X136969834Y-63300724D01*
X136973351Y-63286683D01*
X136978228Y-63273054D01*
X136984417Y-63259969D01*
X136991858Y-63247553D01*
X137000481Y-63235927D01*
X137010202Y-63225202D01*
X137020927Y-63215481D01*
X137032553Y-63206858D01*
X137044969Y-63199417D01*
X137058054Y-63193228D01*
X137071683Y-63188351D01*
X137085724Y-63184834D01*
X137100042Y-63182710D01*
X137114500Y-63182000D01*
X137459500Y-63182000D01*
X137473958Y-63182710D01*
G37*
G36*
X134550958Y-60132710D02*
G01*
X134565276Y-60134834D01*
X134579317Y-60138351D01*
X134592946Y-60143228D01*
X134606031Y-60149417D01*
X134618447Y-60156858D01*
X134630073Y-60165481D01*
X134640798Y-60175202D01*
X134650519Y-60185927D01*
X134659142Y-60197553D01*
X134666583Y-60209969D01*
X134672772Y-60223054D01*
X134677649Y-60236683D01*
X134681166Y-60250724D01*
X134683290Y-60265042D01*
X134684000Y-60279500D01*
X134684000Y-60624500D01*
X134683290Y-60638958D01*
X134681166Y-60653276D01*
X134677649Y-60667317D01*
X134672772Y-60680946D01*
X134666583Y-60694031D01*
X134659142Y-60706447D01*
X134650519Y-60718073D01*
X134640798Y-60728798D01*
X134630073Y-60738519D01*
X134618447Y-60747142D01*
X134606031Y-60754583D01*
X134592946Y-60760772D01*
X134579317Y-60765649D01*
X134565276Y-60769166D01*
X134550958Y-60771290D01*
X134536500Y-60772000D01*
X134241500Y-60772000D01*
X134227042Y-60771290D01*
X134212724Y-60769166D01*
X134198683Y-60765649D01*
X134185054Y-60760772D01*
X134171969Y-60754583D01*
X134159553Y-60747142D01*
X134147927Y-60738519D01*
X134137202Y-60728798D01*
X134127481Y-60718073D01*
X134118858Y-60706447D01*
X134111417Y-60694031D01*
X134105228Y-60680946D01*
X134100351Y-60667317D01*
X134096834Y-60653276D01*
X134094710Y-60638958D01*
X134094000Y-60624500D01*
X134094000Y-60279500D01*
X134094710Y-60265042D01*
X134096834Y-60250724D01*
X134100351Y-60236683D01*
X134105228Y-60223054D01*
X134111417Y-60209969D01*
X134118858Y-60197553D01*
X134127481Y-60185927D01*
X134137202Y-60175202D01*
X134147927Y-60165481D01*
X134159553Y-60156858D01*
X134171969Y-60149417D01*
X134185054Y-60143228D01*
X134198683Y-60138351D01*
X134212724Y-60134834D01*
X134227042Y-60132710D01*
X134241500Y-60132000D01*
X134536500Y-60132000D01*
X134550958Y-60132710D01*
G37*
G36*
X135520958Y-60132710D02*
G01*
X135535276Y-60134834D01*
X135549317Y-60138351D01*
X135562946Y-60143228D01*
X135576031Y-60149417D01*
X135588447Y-60156858D01*
X135600073Y-60165481D01*
X135610798Y-60175202D01*
X135620519Y-60185927D01*
X135629142Y-60197553D01*
X135636583Y-60209969D01*
X135642772Y-60223054D01*
X135647649Y-60236683D01*
X135651166Y-60250724D01*
X135653290Y-60265042D01*
X135654000Y-60279500D01*
X135654000Y-60624500D01*
X135653290Y-60638958D01*
X135651166Y-60653276D01*
X135647649Y-60667317D01*
X135642772Y-60680946D01*
X135636583Y-60694031D01*
X135629142Y-60706447D01*
X135620519Y-60718073D01*
X135610798Y-60728798D01*
X135600073Y-60738519D01*
X135588447Y-60747142D01*
X135576031Y-60754583D01*
X135562946Y-60760772D01*
X135549317Y-60765649D01*
X135535276Y-60769166D01*
X135520958Y-60771290D01*
X135506500Y-60772000D01*
X135211500Y-60772000D01*
X135197042Y-60771290D01*
X135182724Y-60769166D01*
X135168683Y-60765649D01*
X135155054Y-60760772D01*
X135141969Y-60754583D01*
X135129553Y-60747142D01*
X135117927Y-60738519D01*
X135107202Y-60728798D01*
X135097481Y-60718073D01*
X135088858Y-60706447D01*
X135081417Y-60694031D01*
X135075228Y-60680946D01*
X135070351Y-60667317D01*
X135066834Y-60653276D01*
X135064710Y-60638958D01*
X135064000Y-60624500D01*
X135064000Y-60279500D01*
X135064710Y-60265042D01*
X135066834Y-60250724D01*
X135070351Y-60236683D01*
X135075228Y-60223054D01*
X135081417Y-60209969D01*
X135088858Y-60197553D01*
X135097481Y-60185927D01*
X135107202Y-60175202D01*
X135117927Y-60165481D01*
X135129553Y-60156858D01*
X135141969Y-60149417D01*
X135155054Y-60143228D01*
X135168683Y-60138351D01*
X135182724Y-60134834D01*
X135197042Y-60132710D01*
X135211500Y-60132000D01*
X135506500Y-60132000D01*
X135520958Y-60132710D01*
G37*
G36*
X137854958Y-78722710D02*
G01*
X137869276Y-78724834D01*
X137883317Y-78728351D01*
X137896946Y-78733228D01*
X137910031Y-78739417D01*
X137922447Y-78746858D01*
X137934073Y-78755481D01*
X137944798Y-78765202D01*
X137954519Y-78775927D01*
X137963142Y-78787553D01*
X137970583Y-78799969D01*
X137976772Y-78813054D01*
X137981649Y-78826683D01*
X137985166Y-78840724D01*
X137987290Y-78855042D01*
X137988000Y-78869500D01*
X137988000Y-79164500D01*
X137987290Y-79178958D01*
X137985166Y-79193276D01*
X137981649Y-79207317D01*
X137976772Y-79220946D01*
X137970583Y-79234031D01*
X137963142Y-79246447D01*
X137954519Y-79258073D01*
X137944798Y-79268798D01*
X137934073Y-79278519D01*
X137922447Y-79287142D01*
X137910031Y-79294583D01*
X137896946Y-79300772D01*
X137883317Y-79305649D01*
X137869276Y-79309166D01*
X137854958Y-79311290D01*
X137840500Y-79312000D01*
X137495500Y-79312000D01*
X137481042Y-79311290D01*
X137466724Y-79309166D01*
X137452683Y-79305649D01*
X137439054Y-79300772D01*
X137425969Y-79294583D01*
X137413553Y-79287142D01*
X137401927Y-79278519D01*
X137391202Y-79268798D01*
X137381481Y-79258073D01*
X137372858Y-79246447D01*
X137365417Y-79234031D01*
X137359228Y-79220946D01*
X137354351Y-79207317D01*
X137350834Y-79193276D01*
X137348710Y-79178958D01*
X137348000Y-79164500D01*
X137348000Y-78869500D01*
X137348710Y-78855042D01*
X137350834Y-78840724D01*
X137354351Y-78826683D01*
X137359228Y-78813054D01*
X137365417Y-78799969D01*
X137372858Y-78787553D01*
X137381481Y-78775927D01*
X137391202Y-78765202D01*
X137401927Y-78755481D01*
X137413553Y-78746858D01*
X137425969Y-78739417D01*
X137439054Y-78733228D01*
X137452683Y-78728351D01*
X137466724Y-78724834D01*
X137481042Y-78722710D01*
X137495500Y-78722000D01*
X137840500Y-78722000D01*
X137854958Y-78722710D01*
G37*
G36*
X137854958Y-79692710D02*
G01*
X137869276Y-79694834D01*
X137883317Y-79698351D01*
X137896946Y-79703228D01*
X137910031Y-79709417D01*
X137922447Y-79716858D01*
X137934073Y-79725481D01*
X137944798Y-79735202D01*
X137954519Y-79745927D01*
X137963142Y-79757553D01*
X137970583Y-79769969D01*
X137976772Y-79783054D01*
X137981649Y-79796683D01*
X137985166Y-79810724D01*
X137987290Y-79825042D01*
X137988000Y-79839500D01*
X137988000Y-80134500D01*
X137987290Y-80148958D01*
X137985166Y-80163276D01*
X137981649Y-80177317D01*
X137976772Y-80190946D01*
X137970583Y-80204031D01*
X137963142Y-80216447D01*
X137954519Y-80228073D01*
X137944798Y-80238798D01*
X137934073Y-80248519D01*
X137922447Y-80257142D01*
X137910031Y-80264583D01*
X137896946Y-80270772D01*
X137883317Y-80275649D01*
X137869276Y-80279166D01*
X137854958Y-80281290D01*
X137840500Y-80282000D01*
X137495500Y-80282000D01*
X137481042Y-80281290D01*
X137466724Y-80279166D01*
X137452683Y-80275649D01*
X137439054Y-80270772D01*
X137425969Y-80264583D01*
X137413553Y-80257142D01*
X137401927Y-80248519D01*
X137391202Y-80238798D01*
X137381481Y-80228073D01*
X137372858Y-80216447D01*
X137365417Y-80204031D01*
X137359228Y-80190946D01*
X137354351Y-80177317D01*
X137350834Y-80163276D01*
X137348710Y-80148958D01*
X137348000Y-80134500D01*
X137348000Y-79839500D01*
X137348710Y-79825042D01*
X137350834Y-79810724D01*
X137354351Y-79796683D01*
X137359228Y-79783054D01*
X137365417Y-79769969D01*
X137372858Y-79757553D01*
X137381481Y-79745927D01*
X137391202Y-79735202D01*
X137401927Y-79725481D01*
X137413553Y-79716858D01*
X137425969Y-79709417D01*
X137439054Y-79703228D01*
X137452683Y-79698351D01*
X137466724Y-79694834D01*
X137481042Y-79692710D01*
X137495500Y-79692000D01*
X137840500Y-79692000D01*
X137854958Y-79692710D01*
G37*
G36*
X133740958Y-76690710D02*
G01*
X133755276Y-76692834D01*
X133769317Y-76696351D01*
X133782946Y-76701228D01*
X133796031Y-76707417D01*
X133808447Y-76714858D01*
X133820073Y-76723481D01*
X133830798Y-76733202D01*
X133840519Y-76743927D01*
X133849142Y-76755553D01*
X133856583Y-76767969D01*
X133862772Y-76781054D01*
X133867649Y-76794683D01*
X133871166Y-76808724D01*
X133873290Y-76823042D01*
X133874000Y-76837500D01*
X133874000Y-77182500D01*
X133873290Y-77196958D01*
X133871166Y-77211276D01*
X133867649Y-77225317D01*
X133862772Y-77238946D01*
X133856583Y-77252031D01*
X133849142Y-77264447D01*
X133840519Y-77276073D01*
X133830798Y-77286798D01*
X133820073Y-77296519D01*
X133808447Y-77305142D01*
X133796031Y-77312583D01*
X133782946Y-77318772D01*
X133769317Y-77323649D01*
X133755276Y-77327166D01*
X133740958Y-77329290D01*
X133726500Y-77330000D01*
X133431500Y-77330000D01*
X133417042Y-77329290D01*
X133402724Y-77327166D01*
X133388683Y-77323649D01*
X133375054Y-77318772D01*
X133361969Y-77312583D01*
X133349553Y-77305142D01*
X133337927Y-77296519D01*
X133327202Y-77286798D01*
X133317481Y-77276073D01*
X133308858Y-77264447D01*
X133301417Y-77252031D01*
X133295228Y-77238946D01*
X133290351Y-77225317D01*
X133286834Y-77211276D01*
X133284710Y-77196958D01*
X133284000Y-77182500D01*
X133284000Y-76837500D01*
X133284710Y-76823042D01*
X133286834Y-76808724D01*
X133290351Y-76794683D01*
X133295228Y-76781054D01*
X133301417Y-76767969D01*
X133308858Y-76755553D01*
X133317481Y-76743927D01*
X133327202Y-76733202D01*
X133337927Y-76723481D01*
X133349553Y-76714858D01*
X133361969Y-76707417D01*
X133375054Y-76701228D01*
X133388683Y-76696351D01*
X133402724Y-76692834D01*
X133417042Y-76690710D01*
X133431500Y-76690000D01*
X133726500Y-76690000D01*
X133740958Y-76690710D01*
G37*
G36*
X134710958Y-76690710D02*
G01*
X134725276Y-76692834D01*
X134739317Y-76696351D01*
X134752946Y-76701228D01*
X134766031Y-76707417D01*
X134778447Y-76714858D01*
X134790073Y-76723481D01*
X134800798Y-76733202D01*
X134810519Y-76743927D01*
X134819142Y-76755553D01*
X134826583Y-76767969D01*
X134832772Y-76781054D01*
X134837649Y-76794683D01*
X134841166Y-76808724D01*
X134843290Y-76823042D01*
X134844000Y-76837500D01*
X134844000Y-77182500D01*
X134843290Y-77196958D01*
X134841166Y-77211276D01*
X134837649Y-77225317D01*
X134832772Y-77238946D01*
X134826583Y-77252031D01*
X134819142Y-77264447D01*
X134810519Y-77276073D01*
X134800798Y-77286798D01*
X134790073Y-77296519D01*
X134778447Y-77305142D01*
X134766031Y-77312583D01*
X134752946Y-77318772D01*
X134739317Y-77323649D01*
X134725276Y-77327166D01*
X134710958Y-77329290D01*
X134696500Y-77330000D01*
X134401500Y-77330000D01*
X134387042Y-77329290D01*
X134372724Y-77327166D01*
X134358683Y-77323649D01*
X134345054Y-77318772D01*
X134331969Y-77312583D01*
X134319553Y-77305142D01*
X134307927Y-77296519D01*
X134297202Y-77286798D01*
X134287481Y-77276073D01*
X134278858Y-77264447D01*
X134271417Y-77252031D01*
X134265228Y-77238946D01*
X134260351Y-77225317D01*
X134256834Y-77211276D01*
X134254710Y-77196958D01*
X134254000Y-77182500D01*
X134254000Y-76837500D01*
X134254710Y-76823042D01*
X134256834Y-76808724D01*
X134260351Y-76794683D01*
X134265228Y-76781054D01*
X134271417Y-76767969D01*
X134278858Y-76755553D01*
X134287481Y-76743927D01*
X134297202Y-76733202D01*
X134307927Y-76723481D01*
X134319553Y-76714858D01*
X134331969Y-76707417D01*
X134345054Y-76701228D01*
X134358683Y-76696351D01*
X134372724Y-76692834D01*
X134387042Y-76690710D01*
X134401500Y-76690000D01*
X134696500Y-76690000D01*
X134710958Y-76690710D01*
G37*
G36*
X127582958Y-73596710D02*
G01*
X127597276Y-73598834D01*
X127611317Y-73602351D01*
X127624946Y-73607228D01*
X127638031Y-73613417D01*
X127650447Y-73620858D01*
X127662073Y-73629481D01*
X127672798Y-73639202D01*
X127682519Y-73649927D01*
X127691142Y-73661553D01*
X127698583Y-73673969D01*
X127704772Y-73687054D01*
X127709649Y-73700683D01*
X127713166Y-73714724D01*
X127715290Y-73729042D01*
X127716000Y-73743500D01*
X127716000Y-74038500D01*
X127715290Y-74052958D01*
X127713166Y-74067276D01*
X127709649Y-74081317D01*
X127704772Y-74094946D01*
X127698583Y-74108031D01*
X127691142Y-74120447D01*
X127682519Y-74132073D01*
X127672798Y-74142798D01*
X127662073Y-74152519D01*
X127650447Y-74161142D01*
X127638031Y-74168583D01*
X127624946Y-74174772D01*
X127611317Y-74179649D01*
X127597276Y-74183166D01*
X127582958Y-74185290D01*
X127568500Y-74186000D01*
X127223500Y-74186000D01*
X127209042Y-74185290D01*
X127194724Y-74183166D01*
X127180683Y-74179649D01*
X127167054Y-74174772D01*
X127153969Y-74168583D01*
X127141553Y-74161142D01*
X127129927Y-74152519D01*
X127119202Y-74142798D01*
X127109481Y-74132073D01*
X127100858Y-74120447D01*
X127093417Y-74108031D01*
X127087228Y-74094946D01*
X127082351Y-74081317D01*
X127078834Y-74067276D01*
X127076710Y-74052958D01*
X127076000Y-74038500D01*
X127076000Y-73743500D01*
X127076710Y-73729042D01*
X127078834Y-73714724D01*
X127082351Y-73700683D01*
X127087228Y-73687054D01*
X127093417Y-73673969D01*
X127100858Y-73661553D01*
X127109481Y-73649927D01*
X127119202Y-73639202D01*
X127129927Y-73629481D01*
X127141553Y-73620858D01*
X127153969Y-73613417D01*
X127167054Y-73607228D01*
X127180683Y-73602351D01*
X127194724Y-73598834D01*
X127209042Y-73596710D01*
X127223500Y-73596000D01*
X127568500Y-73596000D01*
X127582958Y-73596710D01*
G37*
G36*
X127582958Y-72626710D02*
G01*
X127597276Y-72628834D01*
X127611317Y-72632351D01*
X127624946Y-72637228D01*
X127638031Y-72643417D01*
X127650447Y-72650858D01*
X127662073Y-72659481D01*
X127672798Y-72669202D01*
X127682519Y-72679927D01*
X127691142Y-72691553D01*
X127698583Y-72703969D01*
X127704772Y-72717054D01*
X127709649Y-72730683D01*
X127713166Y-72744724D01*
X127715290Y-72759042D01*
X127716000Y-72773500D01*
X127716000Y-73068500D01*
X127715290Y-73082958D01*
X127713166Y-73097276D01*
X127709649Y-73111317D01*
X127704772Y-73124946D01*
X127698583Y-73138031D01*
X127691142Y-73150447D01*
X127682519Y-73162073D01*
X127672798Y-73172798D01*
X127662073Y-73182519D01*
X127650447Y-73191142D01*
X127638031Y-73198583D01*
X127624946Y-73204772D01*
X127611317Y-73209649D01*
X127597276Y-73213166D01*
X127582958Y-73215290D01*
X127568500Y-73216000D01*
X127223500Y-73216000D01*
X127209042Y-73215290D01*
X127194724Y-73213166D01*
X127180683Y-73209649D01*
X127167054Y-73204772D01*
X127153969Y-73198583D01*
X127141553Y-73191142D01*
X127129927Y-73182519D01*
X127119202Y-73172798D01*
X127109481Y-73162073D01*
X127100858Y-73150447D01*
X127093417Y-73138031D01*
X127087228Y-73124946D01*
X127082351Y-73111317D01*
X127078834Y-73097276D01*
X127076710Y-73082958D01*
X127076000Y-73068500D01*
X127076000Y-72773500D01*
X127076710Y-72759042D01*
X127078834Y-72744724D01*
X127082351Y-72730683D01*
X127087228Y-72717054D01*
X127093417Y-72703969D01*
X127100858Y-72691553D01*
X127109481Y-72679927D01*
X127119202Y-72669202D01*
X127129927Y-72659481D01*
X127141553Y-72650858D01*
X127153969Y-72643417D01*
X127167054Y-72637228D01*
X127180683Y-72632351D01*
X127194724Y-72628834D01*
X127209042Y-72626710D01*
X127223500Y-72626000D01*
X127568500Y-72626000D01*
X127582958Y-72626710D01*
G37*
G36*
X138362958Y-65722710D02*
G01*
X138377276Y-65724834D01*
X138391317Y-65728351D01*
X138404946Y-65733228D01*
X138418031Y-65739417D01*
X138430447Y-65746858D01*
X138442073Y-65755481D01*
X138452798Y-65765202D01*
X138462519Y-65775927D01*
X138471142Y-65787553D01*
X138478583Y-65799969D01*
X138484772Y-65813054D01*
X138489649Y-65826683D01*
X138493166Y-65840724D01*
X138495290Y-65855042D01*
X138496000Y-65869500D01*
X138496000Y-66164500D01*
X138495290Y-66178958D01*
X138493166Y-66193276D01*
X138489649Y-66207317D01*
X138484772Y-66220946D01*
X138478583Y-66234031D01*
X138471142Y-66246447D01*
X138462519Y-66258073D01*
X138452798Y-66268798D01*
X138442073Y-66278519D01*
X138430447Y-66287142D01*
X138418031Y-66294583D01*
X138404946Y-66300772D01*
X138391317Y-66305649D01*
X138377276Y-66309166D01*
X138362958Y-66311290D01*
X138348500Y-66312000D01*
X138003500Y-66312000D01*
X137989042Y-66311290D01*
X137974724Y-66309166D01*
X137960683Y-66305649D01*
X137947054Y-66300772D01*
X137933969Y-66294583D01*
X137921553Y-66287142D01*
X137909927Y-66278519D01*
X137899202Y-66268798D01*
X137889481Y-66258073D01*
X137880858Y-66246447D01*
X137873417Y-66234031D01*
X137867228Y-66220946D01*
X137862351Y-66207317D01*
X137858834Y-66193276D01*
X137856710Y-66178958D01*
X137856000Y-66164500D01*
X137856000Y-65869500D01*
X137856710Y-65855042D01*
X137858834Y-65840724D01*
X137862351Y-65826683D01*
X137867228Y-65813054D01*
X137873417Y-65799969D01*
X137880858Y-65787553D01*
X137889481Y-65775927D01*
X137899202Y-65765202D01*
X137909927Y-65755481D01*
X137921553Y-65746858D01*
X137933969Y-65739417D01*
X137947054Y-65733228D01*
X137960683Y-65728351D01*
X137974724Y-65724834D01*
X137989042Y-65722710D01*
X138003500Y-65722000D01*
X138348500Y-65722000D01*
X138362958Y-65722710D01*
G37*
G36*
X138362958Y-64752710D02*
G01*
X138377276Y-64754834D01*
X138391317Y-64758351D01*
X138404946Y-64763228D01*
X138418031Y-64769417D01*
X138430447Y-64776858D01*
X138442073Y-64785481D01*
X138452798Y-64795202D01*
X138462519Y-64805927D01*
X138471142Y-64817553D01*
X138478583Y-64829969D01*
X138484772Y-64843054D01*
X138489649Y-64856683D01*
X138493166Y-64870724D01*
X138495290Y-64885042D01*
X138496000Y-64899500D01*
X138496000Y-65194500D01*
X138495290Y-65208958D01*
X138493166Y-65223276D01*
X138489649Y-65237317D01*
X138484772Y-65250946D01*
X138478583Y-65264031D01*
X138471142Y-65276447D01*
X138462519Y-65288073D01*
X138452798Y-65298798D01*
X138442073Y-65308519D01*
X138430447Y-65317142D01*
X138418031Y-65324583D01*
X138404946Y-65330772D01*
X138391317Y-65335649D01*
X138377276Y-65339166D01*
X138362958Y-65341290D01*
X138348500Y-65342000D01*
X138003500Y-65342000D01*
X137989042Y-65341290D01*
X137974724Y-65339166D01*
X137960683Y-65335649D01*
X137947054Y-65330772D01*
X137933969Y-65324583D01*
X137921553Y-65317142D01*
X137909927Y-65308519D01*
X137899202Y-65298798D01*
X137889481Y-65288073D01*
X137880858Y-65276447D01*
X137873417Y-65264031D01*
X137867228Y-65250946D01*
X137862351Y-65237317D01*
X137858834Y-65223276D01*
X137856710Y-65208958D01*
X137856000Y-65194500D01*
X137856000Y-64899500D01*
X137856710Y-64885042D01*
X137858834Y-64870724D01*
X137862351Y-64856683D01*
X137867228Y-64843054D01*
X137873417Y-64829969D01*
X137880858Y-64817553D01*
X137889481Y-64805927D01*
X137899202Y-64795202D01*
X137909927Y-64785481D01*
X137921553Y-64776858D01*
X137933969Y-64769417D01*
X137947054Y-64763228D01*
X137960683Y-64758351D01*
X137974724Y-64754834D01*
X137989042Y-64752710D01*
X138003500Y-64752000D01*
X138348500Y-64752000D01*
X138362958Y-64752710D01*
G37*
G36*
X136328958Y-66990710D02*
G01*
X136343276Y-66992834D01*
X136357317Y-66996351D01*
X136370946Y-67001228D01*
X136384031Y-67007417D01*
X136396447Y-67014858D01*
X136408073Y-67023481D01*
X136418798Y-67033202D01*
X136428519Y-67043927D01*
X136437142Y-67055553D01*
X136444583Y-67067969D01*
X136450772Y-67081054D01*
X136455649Y-67094683D01*
X136459166Y-67108724D01*
X136461290Y-67123042D01*
X136462000Y-67137500D01*
X136462000Y-67482500D01*
X136461290Y-67496958D01*
X136459166Y-67511276D01*
X136455649Y-67525317D01*
X136450772Y-67538946D01*
X136444583Y-67552031D01*
X136437142Y-67564447D01*
X136428519Y-67576073D01*
X136418798Y-67586798D01*
X136408073Y-67596519D01*
X136396447Y-67605142D01*
X136384031Y-67612583D01*
X136370946Y-67618772D01*
X136357317Y-67623649D01*
X136343276Y-67627166D01*
X136328958Y-67629290D01*
X136314500Y-67630000D01*
X136019500Y-67630000D01*
X136005042Y-67629290D01*
X135990724Y-67627166D01*
X135976683Y-67623649D01*
X135963054Y-67618772D01*
X135949969Y-67612583D01*
X135937553Y-67605142D01*
X135925927Y-67596519D01*
X135915202Y-67586798D01*
X135905481Y-67576073D01*
X135896858Y-67564447D01*
X135889417Y-67552031D01*
X135883228Y-67538946D01*
X135878351Y-67525317D01*
X135874834Y-67511276D01*
X135872710Y-67496958D01*
X135872000Y-67482500D01*
X135872000Y-67137500D01*
X135872710Y-67123042D01*
X135874834Y-67108724D01*
X135878351Y-67094683D01*
X135883228Y-67081054D01*
X135889417Y-67067969D01*
X135896858Y-67055553D01*
X135905481Y-67043927D01*
X135915202Y-67033202D01*
X135925927Y-67023481D01*
X135937553Y-67014858D01*
X135949969Y-67007417D01*
X135963054Y-67001228D01*
X135976683Y-66996351D01*
X135990724Y-66992834D01*
X136005042Y-66990710D01*
X136019500Y-66990000D01*
X136314500Y-66990000D01*
X136328958Y-66990710D01*
G37*
G36*
X137298958Y-66990710D02*
G01*
X137313276Y-66992834D01*
X137327317Y-66996351D01*
X137340946Y-67001228D01*
X137354031Y-67007417D01*
X137366447Y-67014858D01*
X137378073Y-67023481D01*
X137388798Y-67033202D01*
X137398519Y-67043927D01*
X137407142Y-67055553D01*
X137414583Y-67067969D01*
X137420772Y-67081054D01*
X137425649Y-67094683D01*
X137429166Y-67108724D01*
X137431290Y-67123042D01*
X137432000Y-67137500D01*
X137432000Y-67482500D01*
X137431290Y-67496958D01*
X137429166Y-67511276D01*
X137425649Y-67525317D01*
X137420772Y-67538946D01*
X137414583Y-67552031D01*
X137407142Y-67564447D01*
X137398519Y-67576073D01*
X137388798Y-67586798D01*
X137378073Y-67596519D01*
X137366447Y-67605142D01*
X137354031Y-67612583D01*
X137340946Y-67618772D01*
X137327317Y-67623649D01*
X137313276Y-67627166D01*
X137298958Y-67629290D01*
X137284500Y-67630000D01*
X136989500Y-67630000D01*
X136975042Y-67629290D01*
X136960724Y-67627166D01*
X136946683Y-67623649D01*
X136933054Y-67618772D01*
X136919969Y-67612583D01*
X136907553Y-67605142D01*
X136895927Y-67596519D01*
X136885202Y-67586798D01*
X136875481Y-67576073D01*
X136866858Y-67564447D01*
X136859417Y-67552031D01*
X136853228Y-67538946D01*
X136848351Y-67525317D01*
X136844834Y-67511276D01*
X136842710Y-67496958D01*
X136842000Y-67482500D01*
X136842000Y-67137500D01*
X136842710Y-67123042D01*
X136844834Y-67108724D01*
X136848351Y-67094683D01*
X136853228Y-67081054D01*
X136859417Y-67067969D01*
X136866858Y-67055553D01*
X136875481Y-67043927D01*
X136885202Y-67033202D01*
X136895927Y-67023481D01*
X136907553Y-67014858D01*
X136919969Y-67007417D01*
X136933054Y-67001228D01*
X136946683Y-66996351D01*
X136960724Y-66992834D01*
X136975042Y-66990710D01*
X136989500Y-66990000D01*
X137284500Y-66990000D01*
X137298958Y-66990710D01*
G37*
G36*
X129980958Y-60434710D02*
G01*
X129995276Y-60436834D01*
X130009317Y-60440351D01*
X130022946Y-60445228D01*
X130036031Y-60451417D01*
X130048447Y-60458858D01*
X130060073Y-60467481D01*
X130070798Y-60477202D01*
X130080519Y-60487927D01*
X130089142Y-60499553D01*
X130096583Y-60511969D01*
X130102772Y-60525054D01*
X130107649Y-60538683D01*
X130111166Y-60552724D01*
X130113290Y-60567042D01*
X130114000Y-60581500D01*
X130114000Y-60876500D01*
X130113290Y-60890958D01*
X130111166Y-60905276D01*
X130107649Y-60919317D01*
X130102772Y-60932946D01*
X130096583Y-60946031D01*
X130089142Y-60958447D01*
X130080519Y-60970073D01*
X130070798Y-60980798D01*
X130060073Y-60990519D01*
X130048447Y-60999142D01*
X130036031Y-61006583D01*
X130022946Y-61012772D01*
X130009317Y-61017649D01*
X129995276Y-61021166D01*
X129980958Y-61023290D01*
X129966500Y-61024000D01*
X129621500Y-61024000D01*
X129607042Y-61023290D01*
X129592724Y-61021166D01*
X129578683Y-61017649D01*
X129565054Y-61012772D01*
X129551969Y-61006583D01*
X129539553Y-60999142D01*
X129527927Y-60990519D01*
X129517202Y-60980798D01*
X129507481Y-60970073D01*
X129498858Y-60958447D01*
X129491417Y-60946031D01*
X129485228Y-60932946D01*
X129480351Y-60919317D01*
X129476834Y-60905276D01*
X129474710Y-60890958D01*
X129474000Y-60876500D01*
X129474000Y-60581500D01*
X129474710Y-60567042D01*
X129476834Y-60552724D01*
X129480351Y-60538683D01*
X129485228Y-60525054D01*
X129491417Y-60511969D01*
X129498858Y-60499553D01*
X129507481Y-60487927D01*
X129517202Y-60477202D01*
X129527927Y-60467481D01*
X129539553Y-60458858D01*
X129551969Y-60451417D01*
X129565054Y-60445228D01*
X129578683Y-60440351D01*
X129592724Y-60436834D01*
X129607042Y-60434710D01*
X129621500Y-60434000D01*
X129966500Y-60434000D01*
X129980958Y-60434710D01*
G37*
G36*
X129980958Y-61404710D02*
G01*
X129995276Y-61406834D01*
X130009317Y-61410351D01*
X130022946Y-61415228D01*
X130036031Y-61421417D01*
X130048447Y-61428858D01*
X130060073Y-61437481D01*
X130070798Y-61447202D01*
X130080519Y-61457927D01*
X130089142Y-61469553D01*
X130096583Y-61481969D01*
X130102772Y-61495054D01*
X130107649Y-61508683D01*
X130111166Y-61522724D01*
X130113290Y-61537042D01*
X130114000Y-61551500D01*
X130114000Y-61846500D01*
X130113290Y-61860958D01*
X130111166Y-61875276D01*
X130107649Y-61889317D01*
X130102772Y-61902946D01*
X130096583Y-61916031D01*
X130089142Y-61928447D01*
X130080519Y-61940073D01*
X130070798Y-61950798D01*
X130060073Y-61960519D01*
X130048447Y-61969142D01*
X130036031Y-61976583D01*
X130022946Y-61982772D01*
X130009317Y-61987649D01*
X129995276Y-61991166D01*
X129980958Y-61993290D01*
X129966500Y-61994000D01*
X129621500Y-61994000D01*
X129607042Y-61993290D01*
X129592724Y-61991166D01*
X129578683Y-61987649D01*
X129565054Y-61982772D01*
X129551969Y-61976583D01*
X129539553Y-61969142D01*
X129527927Y-61960519D01*
X129517202Y-61950798D01*
X129507481Y-61940073D01*
X129498858Y-61928447D01*
X129491417Y-61916031D01*
X129485228Y-61902946D01*
X129480351Y-61889317D01*
X129476834Y-61875276D01*
X129474710Y-61860958D01*
X129474000Y-61846500D01*
X129474000Y-61551500D01*
X129474710Y-61537042D01*
X129476834Y-61522724D01*
X129480351Y-61508683D01*
X129485228Y-61495054D01*
X129491417Y-61481969D01*
X129498858Y-61469553D01*
X129507481Y-61457927D01*
X129517202Y-61447202D01*
X129527927Y-61437481D01*
X129539553Y-61428858D01*
X129551969Y-61421417D01*
X129565054Y-61415228D01*
X129578683Y-61410351D01*
X129592724Y-61406834D01*
X129607042Y-61404710D01*
X129621500Y-61404000D01*
X129966500Y-61404000D01*
X129980958Y-61404710D01*
G37*
G36*
X116072958Y-62934710D02*
G01*
X116087276Y-62936834D01*
X116101317Y-62940351D01*
X116114946Y-62945228D01*
X116128031Y-62951417D01*
X116140447Y-62958858D01*
X116152073Y-62967481D01*
X116162798Y-62977202D01*
X116172519Y-62987927D01*
X116181142Y-62999553D01*
X116188583Y-63011969D01*
X116194772Y-63025054D01*
X116199649Y-63038683D01*
X116203166Y-63052724D01*
X116205290Y-63067042D01*
X116206000Y-63081500D01*
X116206000Y-63426500D01*
X116205290Y-63440958D01*
X116203166Y-63455276D01*
X116199649Y-63469317D01*
X116194772Y-63482946D01*
X116188583Y-63496031D01*
X116181142Y-63508447D01*
X116172519Y-63520073D01*
X116162798Y-63530798D01*
X116152073Y-63540519D01*
X116140447Y-63549142D01*
X116128031Y-63556583D01*
X116114946Y-63562772D01*
X116101317Y-63567649D01*
X116087276Y-63571166D01*
X116072958Y-63573290D01*
X116058500Y-63574000D01*
X115763500Y-63574000D01*
X115749042Y-63573290D01*
X115734724Y-63571166D01*
X115720683Y-63567649D01*
X115707054Y-63562772D01*
X115693969Y-63556583D01*
X115681553Y-63549142D01*
X115669927Y-63540519D01*
X115659202Y-63530798D01*
X115649481Y-63520073D01*
X115640858Y-63508447D01*
X115633417Y-63496031D01*
X115627228Y-63482946D01*
X115622351Y-63469317D01*
X115618834Y-63455276D01*
X115616710Y-63440958D01*
X115616000Y-63426500D01*
X115616000Y-63081500D01*
X115616710Y-63067042D01*
X115618834Y-63052724D01*
X115622351Y-63038683D01*
X115627228Y-63025054D01*
X115633417Y-63011969D01*
X115640858Y-62999553D01*
X115649481Y-62987927D01*
X115659202Y-62977202D01*
X115669927Y-62967481D01*
X115681553Y-62958858D01*
X115693969Y-62951417D01*
X115707054Y-62945228D01*
X115720683Y-62940351D01*
X115734724Y-62936834D01*
X115749042Y-62934710D01*
X115763500Y-62934000D01*
X116058500Y-62934000D01*
X116072958Y-62934710D01*
G37*
G36*
X115102958Y-62934710D02*
G01*
X115117276Y-62936834D01*
X115131317Y-62940351D01*
X115144946Y-62945228D01*
X115158031Y-62951417D01*
X115170447Y-62958858D01*
X115182073Y-62967481D01*
X115192798Y-62977202D01*
X115202519Y-62987927D01*
X115211142Y-62999553D01*
X115218583Y-63011969D01*
X115224772Y-63025054D01*
X115229649Y-63038683D01*
X115233166Y-63052724D01*
X115235290Y-63067042D01*
X115236000Y-63081500D01*
X115236000Y-63426500D01*
X115235290Y-63440958D01*
X115233166Y-63455276D01*
X115229649Y-63469317D01*
X115224772Y-63482946D01*
X115218583Y-63496031D01*
X115211142Y-63508447D01*
X115202519Y-63520073D01*
X115192798Y-63530798D01*
X115182073Y-63540519D01*
X115170447Y-63549142D01*
X115158031Y-63556583D01*
X115144946Y-63562772D01*
X115131317Y-63567649D01*
X115117276Y-63571166D01*
X115102958Y-63573290D01*
X115088500Y-63574000D01*
X114793500Y-63574000D01*
X114779042Y-63573290D01*
X114764724Y-63571166D01*
X114750683Y-63567649D01*
X114737054Y-63562772D01*
X114723969Y-63556583D01*
X114711553Y-63549142D01*
X114699927Y-63540519D01*
X114689202Y-63530798D01*
X114679481Y-63520073D01*
X114670858Y-63508447D01*
X114663417Y-63496031D01*
X114657228Y-63482946D01*
X114652351Y-63469317D01*
X114648834Y-63455276D01*
X114646710Y-63440958D01*
X114646000Y-63426500D01*
X114646000Y-63081500D01*
X114646710Y-63067042D01*
X114648834Y-63052724D01*
X114652351Y-63038683D01*
X114657228Y-63025054D01*
X114663417Y-63011969D01*
X114670858Y-62999553D01*
X114679481Y-62987927D01*
X114689202Y-62977202D01*
X114699927Y-62967481D01*
X114711553Y-62958858D01*
X114723969Y-62951417D01*
X114737054Y-62945228D01*
X114750683Y-62940351D01*
X114764724Y-62936834D01*
X114779042Y-62934710D01*
X114793500Y-62934000D01*
X115088500Y-62934000D01*
X115102958Y-62934710D01*
G37*
G36*
X118358958Y-62934710D02*
G01*
X118373276Y-62936834D01*
X118387317Y-62940351D01*
X118400946Y-62945228D01*
X118414031Y-62951417D01*
X118426447Y-62958858D01*
X118438073Y-62967481D01*
X118448798Y-62977202D01*
X118458519Y-62987927D01*
X118467142Y-62999553D01*
X118474583Y-63011969D01*
X118480772Y-63025054D01*
X118485649Y-63038683D01*
X118489166Y-63052724D01*
X118491290Y-63067042D01*
X118492000Y-63081500D01*
X118492000Y-63426500D01*
X118491290Y-63440958D01*
X118489166Y-63455276D01*
X118485649Y-63469317D01*
X118480772Y-63482946D01*
X118474583Y-63496031D01*
X118467142Y-63508447D01*
X118458519Y-63520073D01*
X118448798Y-63530798D01*
X118438073Y-63540519D01*
X118426447Y-63549142D01*
X118414031Y-63556583D01*
X118400946Y-63562772D01*
X118387317Y-63567649D01*
X118373276Y-63571166D01*
X118358958Y-63573290D01*
X118344500Y-63574000D01*
X118049500Y-63574000D01*
X118035042Y-63573290D01*
X118020724Y-63571166D01*
X118006683Y-63567649D01*
X117993054Y-63562772D01*
X117979969Y-63556583D01*
X117967553Y-63549142D01*
X117955927Y-63540519D01*
X117945202Y-63530798D01*
X117935481Y-63520073D01*
X117926858Y-63508447D01*
X117919417Y-63496031D01*
X117913228Y-63482946D01*
X117908351Y-63469317D01*
X117904834Y-63455276D01*
X117902710Y-63440958D01*
X117902000Y-63426500D01*
X117902000Y-63081500D01*
X117902710Y-63067042D01*
X117904834Y-63052724D01*
X117908351Y-63038683D01*
X117913228Y-63025054D01*
X117919417Y-63011969D01*
X117926858Y-62999553D01*
X117935481Y-62987927D01*
X117945202Y-62977202D01*
X117955927Y-62967481D01*
X117967553Y-62958858D01*
X117979969Y-62951417D01*
X117993054Y-62945228D01*
X118006683Y-62940351D01*
X118020724Y-62936834D01*
X118035042Y-62934710D01*
X118049500Y-62934000D01*
X118344500Y-62934000D01*
X118358958Y-62934710D01*
G37*
G36*
X117388958Y-62934710D02*
G01*
X117403276Y-62936834D01*
X117417317Y-62940351D01*
X117430946Y-62945228D01*
X117444031Y-62951417D01*
X117456447Y-62958858D01*
X117468073Y-62967481D01*
X117478798Y-62977202D01*
X117488519Y-62987927D01*
X117497142Y-62999553D01*
X117504583Y-63011969D01*
X117510772Y-63025054D01*
X117515649Y-63038683D01*
X117519166Y-63052724D01*
X117521290Y-63067042D01*
X117522000Y-63081500D01*
X117522000Y-63426500D01*
X117521290Y-63440958D01*
X117519166Y-63455276D01*
X117515649Y-63469317D01*
X117510772Y-63482946D01*
X117504583Y-63496031D01*
X117497142Y-63508447D01*
X117488519Y-63520073D01*
X117478798Y-63530798D01*
X117468073Y-63540519D01*
X117456447Y-63549142D01*
X117444031Y-63556583D01*
X117430946Y-63562772D01*
X117417317Y-63567649D01*
X117403276Y-63571166D01*
X117388958Y-63573290D01*
X117374500Y-63574000D01*
X117079500Y-63574000D01*
X117065042Y-63573290D01*
X117050724Y-63571166D01*
X117036683Y-63567649D01*
X117023054Y-63562772D01*
X117009969Y-63556583D01*
X116997553Y-63549142D01*
X116985927Y-63540519D01*
X116975202Y-63530798D01*
X116965481Y-63520073D01*
X116956858Y-63508447D01*
X116949417Y-63496031D01*
X116943228Y-63482946D01*
X116938351Y-63469317D01*
X116934834Y-63455276D01*
X116932710Y-63440958D01*
X116932000Y-63426500D01*
X116932000Y-63081500D01*
X116932710Y-63067042D01*
X116934834Y-63052724D01*
X116938351Y-63038683D01*
X116943228Y-63025054D01*
X116949417Y-63011969D01*
X116956858Y-62999553D01*
X116965481Y-62987927D01*
X116975202Y-62977202D01*
X116985927Y-62967481D01*
X116997553Y-62958858D01*
X117009969Y-62951417D01*
X117023054Y-62945228D01*
X117036683Y-62940351D01*
X117050724Y-62936834D01*
X117065042Y-62934710D01*
X117079500Y-62934000D01*
X117374500Y-62934000D01*
X117388958Y-62934710D01*
G37*
G36*
X121994958Y-86804710D02*
G01*
X122009276Y-86806834D01*
X122023317Y-86810351D01*
X122036946Y-86815228D01*
X122050031Y-86821417D01*
X122062447Y-86828858D01*
X122074073Y-86837481D01*
X122084798Y-86847202D01*
X122094519Y-86857927D01*
X122103142Y-86869553D01*
X122110583Y-86881969D01*
X122116772Y-86895054D01*
X122121649Y-86908683D01*
X122125166Y-86922724D01*
X122127290Y-86937042D01*
X122128000Y-86951500D01*
X122128000Y-87246500D01*
X122127290Y-87260958D01*
X122125166Y-87275276D01*
X122121649Y-87289317D01*
X122116772Y-87302946D01*
X122110583Y-87316031D01*
X122103142Y-87328447D01*
X122094519Y-87340073D01*
X122084798Y-87350798D01*
X122074073Y-87360519D01*
X122062447Y-87369142D01*
X122050031Y-87376583D01*
X122036946Y-87382772D01*
X122023317Y-87387649D01*
X122009276Y-87391166D01*
X121994958Y-87393290D01*
X121980500Y-87394000D01*
X121635500Y-87394000D01*
X121621042Y-87393290D01*
X121606724Y-87391166D01*
X121592683Y-87387649D01*
X121579054Y-87382772D01*
X121565969Y-87376583D01*
X121553553Y-87369142D01*
X121541927Y-87360519D01*
X121531202Y-87350798D01*
X121521481Y-87340073D01*
X121512858Y-87328447D01*
X121505417Y-87316031D01*
X121499228Y-87302946D01*
X121494351Y-87289317D01*
X121490834Y-87275276D01*
X121488710Y-87260958D01*
X121488000Y-87246500D01*
X121488000Y-86951500D01*
X121488710Y-86937042D01*
X121490834Y-86922724D01*
X121494351Y-86908683D01*
X121499228Y-86895054D01*
X121505417Y-86881969D01*
X121512858Y-86869553D01*
X121521481Y-86857927D01*
X121531202Y-86847202D01*
X121541927Y-86837481D01*
X121553553Y-86828858D01*
X121565969Y-86821417D01*
X121579054Y-86815228D01*
X121592683Y-86810351D01*
X121606724Y-86806834D01*
X121621042Y-86804710D01*
X121635500Y-86804000D01*
X121980500Y-86804000D01*
X121994958Y-86804710D01*
G37*
G36*
X121994958Y-85834710D02*
G01*
X122009276Y-85836834D01*
X122023317Y-85840351D01*
X122036946Y-85845228D01*
X122050031Y-85851417D01*
X122062447Y-85858858D01*
X122074073Y-85867481D01*
X122084798Y-85877202D01*
X122094519Y-85887927D01*
X122103142Y-85899553D01*
X122110583Y-85911969D01*
X122116772Y-85925054D01*
X122121649Y-85938683D01*
X122125166Y-85952724D01*
X122127290Y-85967042D01*
X122128000Y-85981500D01*
X122128000Y-86276500D01*
X122127290Y-86290958D01*
X122125166Y-86305276D01*
X122121649Y-86319317D01*
X122116772Y-86332946D01*
X122110583Y-86346031D01*
X122103142Y-86358447D01*
X122094519Y-86370073D01*
X122084798Y-86380798D01*
X122074073Y-86390519D01*
X122062447Y-86399142D01*
X122050031Y-86406583D01*
X122036946Y-86412772D01*
X122023317Y-86417649D01*
X122009276Y-86421166D01*
X121994958Y-86423290D01*
X121980500Y-86424000D01*
X121635500Y-86424000D01*
X121621042Y-86423290D01*
X121606724Y-86421166D01*
X121592683Y-86417649D01*
X121579054Y-86412772D01*
X121565969Y-86406583D01*
X121553553Y-86399142D01*
X121541927Y-86390519D01*
X121531202Y-86380798D01*
X121521481Y-86370073D01*
X121512858Y-86358447D01*
X121505417Y-86346031D01*
X121499228Y-86332946D01*
X121494351Y-86319317D01*
X121490834Y-86305276D01*
X121488710Y-86290958D01*
X121488000Y-86276500D01*
X121488000Y-85981500D01*
X121488710Y-85967042D01*
X121490834Y-85952724D01*
X121494351Y-85938683D01*
X121499228Y-85925054D01*
X121505417Y-85911969D01*
X121512858Y-85899553D01*
X121521481Y-85887927D01*
X121531202Y-85877202D01*
X121541927Y-85867481D01*
X121553553Y-85858858D01*
X121565969Y-85851417D01*
X121579054Y-85845228D01*
X121592683Y-85840351D01*
X121606724Y-85836834D01*
X121621042Y-85834710D01*
X121635500Y-85834000D01*
X121980500Y-85834000D01*
X121994958Y-85834710D01*
G37*
G36*
X138362958Y-81262710D02*
G01*
X138377276Y-81264834D01*
X138391317Y-81268351D01*
X138404946Y-81273228D01*
X138418031Y-81279417D01*
X138430447Y-81286858D01*
X138442073Y-81295481D01*
X138452798Y-81305202D01*
X138462519Y-81315927D01*
X138471142Y-81327553D01*
X138478583Y-81339969D01*
X138484772Y-81353054D01*
X138489649Y-81366683D01*
X138493166Y-81380724D01*
X138495290Y-81395042D01*
X138496000Y-81409500D01*
X138496000Y-81704500D01*
X138495290Y-81718958D01*
X138493166Y-81733276D01*
X138489649Y-81747317D01*
X138484772Y-81760946D01*
X138478583Y-81774031D01*
X138471142Y-81786447D01*
X138462519Y-81798073D01*
X138452798Y-81808798D01*
X138442073Y-81818519D01*
X138430447Y-81827142D01*
X138418031Y-81834583D01*
X138404946Y-81840772D01*
X138391317Y-81845649D01*
X138377276Y-81849166D01*
X138362958Y-81851290D01*
X138348500Y-81852000D01*
X138003500Y-81852000D01*
X137989042Y-81851290D01*
X137974724Y-81849166D01*
X137960683Y-81845649D01*
X137947054Y-81840772D01*
X137933969Y-81834583D01*
X137921553Y-81827142D01*
X137909927Y-81818519D01*
X137899202Y-81808798D01*
X137889481Y-81798073D01*
X137880858Y-81786447D01*
X137873417Y-81774031D01*
X137867228Y-81760946D01*
X137862351Y-81747317D01*
X137858834Y-81733276D01*
X137856710Y-81718958D01*
X137856000Y-81704500D01*
X137856000Y-81409500D01*
X137856710Y-81395042D01*
X137858834Y-81380724D01*
X137862351Y-81366683D01*
X137867228Y-81353054D01*
X137873417Y-81339969D01*
X137880858Y-81327553D01*
X137889481Y-81315927D01*
X137899202Y-81305202D01*
X137909927Y-81295481D01*
X137921553Y-81286858D01*
X137933969Y-81279417D01*
X137947054Y-81273228D01*
X137960683Y-81268351D01*
X137974724Y-81264834D01*
X137989042Y-81262710D01*
X138003500Y-81262000D01*
X138348500Y-81262000D01*
X138362958Y-81262710D01*
G37*
G36*
X138362958Y-82232710D02*
G01*
X138377276Y-82234834D01*
X138391317Y-82238351D01*
X138404946Y-82243228D01*
X138418031Y-82249417D01*
X138430447Y-82256858D01*
X138442073Y-82265481D01*
X138452798Y-82275202D01*
X138462519Y-82285927D01*
X138471142Y-82297553D01*
X138478583Y-82309969D01*
X138484772Y-82323054D01*
X138489649Y-82336683D01*
X138493166Y-82350724D01*
X138495290Y-82365042D01*
X138496000Y-82379500D01*
X138496000Y-82674500D01*
X138495290Y-82688958D01*
X138493166Y-82703276D01*
X138489649Y-82717317D01*
X138484772Y-82730946D01*
X138478583Y-82744031D01*
X138471142Y-82756447D01*
X138462519Y-82768073D01*
X138452798Y-82778798D01*
X138442073Y-82788519D01*
X138430447Y-82797142D01*
X138418031Y-82804583D01*
X138404946Y-82810772D01*
X138391317Y-82815649D01*
X138377276Y-82819166D01*
X138362958Y-82821290D01*
X138348500Y-82822000D01*
X138003500Y-82822000D01*
X137989042Y-82821290D01*
X137974724Y-82819166D01*
X137960683Y-82815649D01*
X137947054Y-82810772D01*
X137933969Y-82804583D01*
X137921553Y-82797142D01*
X137909927Y-82788519D01*
X137899202Y-82778798D01*
X137889481Y-82768073D01*
X137880858Y-82756447D01*
X137873417Y-82744031D01*
X137867228Y-82730946D01*
X137862351Y-82717317D01*
X137858834Y-82703276D01*
X137856710Y-82688958D01*
X137856000Y-82674500D01*
X137856000Y-82379500D01*
X137856710Y-82365042D01*
X137858834Y-82350724D01*
X137862351Y-82336683D01*
X137867228Y-82323054D01*
X137873417Y-82309969D01*
X137880858Y-82297553D01*
X137889481Y-82285927D01*
X137899202Y-82275202D01*
X137909927Y-82265481D01*
X137921553Y-82256858D01*
X137933969Y-82249417D01*
X137947054Y-82243228D01*
X137960683Y-82238351D01*
X137974724Y-82234834D01*
X137989042Y-82232710D01*
X138003500Y-82232000D01*
X138348500Y-82232000D01*
X138362958Y-82232710D01*
G37*
G36*
X137298958Y-83500710D02*
G01*
X137313276Y-83502834D01*
X137327317Y-83506351D01*
X137340946Y-83511228D01*
X137354031Y-83517417D01*
X137366447Y-83524858D01*
X137378073Y-83533481D01*
X137388798Y-83543202D01*
X137398519Y-83553927D01*
X137407142Y-83565553D01*
X137414583Y-83577969D01*
X137420772Y-83591054D01*
X137425649Y-83604683D01*
X137429166Y-83618724D01*
X137431290Y-83633042D01*
X137432000Y-83647500D01*
X137432000Y-83992500D01*
X137431290Y-84006958D01*
X137429166Y-84021276D01*
X137425649Y-84035317D01*
X137420772Y-84048946D01*
X137414583Y-84062031D01*
X137407142Y-84074447D01*
X137398519Y-84086073D01*
X137388798Y-84096798D01*
X137378073Y-84106519D01*
X137366447Y-84115142D01*
X137354031Y-84122583D01*
X137340946Y-84128772D01*
X137327317Y-84133649D01*
X137313276Y-84137166D01*
X137298958Y-84139290D01*
X137284500Y-84140000D01*
X136989500Y-84140000D01*
X136975042Y-84139290D01*
X136960724Y-84137166D01*
X136946683Y-84133649D01*
X136933054Y-84128772D01*
X136919969Y-84122583D01*
X136907553Y-84115142D01*
X136895927Y-84106519D01*
X136885202Y-84096798D01*
X136875481Y-84086073D01*
X136866858Y-84074447D01*
X136859417Y-84062031D01*
X136853228Y-84048946D01*
X136848351Y-84035317D01*
X136844834Y-84021276D01*
X136842710Y-84006958D01*
X136842000Y-83992500D01*
X136842000Y-83647500D01*
X136842710Y-83633042D01*
X136844834Y-83618724D01*
X136848351Y-83604683D01*
X136853228Y-83591054D01*
X136859417Y-83577969D01*
X136866858Y-83565553D01*
X136875481Y-83553927D01*
X136885202Y-83543202D01*
X136895927Y-83533481D01*
X136907553Y-83524858D01*
X136919969Y-83517417D01*
X136933054Y-83511228D01*
X136946683Y-83506351D01*
X136960724Y-83502834D01*
X136975042Y-83500710D01*
X136989500Y-83500000D01*
X137284500Y-83500000D01*
X137298958Y-83500710D01*
G37*
G36*
X136328958Y-83500710D02*
G01*
X136343276Y-83502834D01*
X136357317Y-83506351D01*
X136370946Y-83511228D01*
X136384031Y-83517417D01*
X136396447Y-83524858D01*
X136408073Y-83533481D01*
X136418798Y-83543202D01*
X136428519Y-83553927D01*
X136437142Y-83565553D01*
X136444583Y-83577969D01*
X136450772Y-83591054D01*
X136455649Y-83604683D01*
X136459166Y-83618724D01*
X136461290Y-83633042D01*
X136462000Y-83647500D01*
X136462000Y-83992500D01*
X136461290Y-84006958D01*
X136459166Y-84021276D01*
X136455649Y-84035317D01*
X136450772Y-84048946D01*
X136444583Y-84062031D01*
X136437142Y-84074447D01*
X136428519Y-84086073D01*
X136418798Y-84096798D01*
X136408073Y-84106519D01*
X136396447Y-84115142D01*
X136384031Y-84122583D01*
X136370946Y-84128772D01*
X136357317Y-84133649D01*
X136343276Y-84137166D01*
X136328958Y-84139290D01*
X136314500Y-84140000D01*
X136019500Y-84140000D01*
X136005042Y-84139290D01*
X135990724Y-84137166D01*
X135976683Y-84133649D01*
X135963054Y-84128772D01*
X135949969Y-84122583D01*
X135937553Y-84115142D01*
X135925927Y-84106519D01*
X135915202Y-84096798D01*
X135905481Y-84086073D01*
X135896858Y-84074447D01*
X135889417Y-84062031D01*
X135883228Y-84048946D01*
X135878351Y-84035317D01*
X135874834Y-84021276D01*
X135872710Y-84006958D01*
X135872000Y-83992500D01*
X135872000Y-83647500D01*
X135872710Y-83633042D01*
X135874834Y-83618724D01*
X135878351Y-83604683D01*
X135883228Y-83591054D01*
X135889417Y-83577969D01*
X135896858Y-83565553D01*
X135905481Y-83553927D01*
X135915202Y-83543202D01*
X135925927Y-83533481D01*
X135937553Y-83524858D01*
X135949969Y-83517417D01*
X135963054Y-83511228D01*
X135976683Y-83506351D01*
X135990724Y-83502834D01*
X136005042Y-83500710D01*
X136019500Y-83500000D01*
X136314500Y-83500000D01*
X136328958Y-83500710D01*
G37*
D20*
X135677000Y-63992000D03*
X135677000Y-63492000D03*
X135677000Y-62992000D03*
X135677000Y-62492000D03*
X135677000Y-61992000D03*
X131277000Y-61992000D03*
X131277000Y-62492000D03*
X131277000Y-62992000D03*
X131277000Y-63492000D03*
X131277000Y-63992000D03*
X131404000Y-80502000D03*
X131404000Y-80002000D03*
X131404000Y-79502000D03*
X131404000Y-79002000D03*
X131404000Y-78502000D03*
X135804000Y-78502000D03*
X135804000Y-79002000D03*
X135804000Y-79502000D03*
X135804000Y-80002000D03*
X135804000Y-80502000D03*
D11*
G36*
X123264958Y-70594710D02*
G01*
X123279276Y-70596834D01*
X123293317Y-70600351D01*
X123306946Y-70605228D01*
X123320031Y-70611417D01*
X123332447Y-70618858D01*
X123344073Y-70627481D01*
X123354798Y-70637202D01*
X123364519Y-70647927D01*
X123373142Y-70659553D01*
X123380583Y-70671969D01*
X123386772Y-70685054D01*
X123391649Y-70698683D01*
X123395166Y-70712724D01*
X123397290Y-70727042D01*
X123398000Y-70741500D01*
X123398000Y-71036500D01*
X123397290Y-71050958D01*
X123395166Y-71065276D01*
X123391649Y-71079317D01*
X123386772Y-71092946D01*
X123380583Y-71106031D01*
X123373142Y-71118447D01*
X123364519Y-71130073D01*
X123354798Y-71140798D01*
X123344073Y-71150519D01*
X123332447Y-71159142D01*
X123320031Y-71166583D01*
X123306946Y-71172772D01*
X123293317Y-71177649D01*
X123279276Y-71181166D01*
X123264958Y-71183290D01*
X123250500Y-71184000D01*
X122905500Y-71184000D01*
X122891042Y-71183290D01*
X122876724Y-71181166D01*
X122862683Y-71177649D01*
X122849054Y-71172772D01*
X122835969Y-71166583D01*
X122823553Y-71159142D01*
X122811927Y-71150519D01*
X122801202Y-71140798D01*
X122791481Y-71130073D01*
X122782858Y-71118447D01*
X122775417Y-71106031D01*
X122769228Y-71092946D01*
X122764351Y-71079317D01*
X122760834Y-71065276D01*
X122758710Y-71050958D01*
X122758000Y-71036500D01*
X122758000Y-70741500D01*
X122758710Y-70727042D01*
X122760834Y-70712724D01*
X122764351Y-70698683D01*
X122769228Y-70685054D01*
X122775417Y-70671969D01*
X122782858Y-70659553D01*
X122791481Y-70647927D01*
X122801202Y-70637202D01*
X122811927Y-70627481D01*
X122823553Y-70618858D01*
X122835969Y-70611417D01*
X122849054Y-70605228D01*
X122862683Y-70600351D01*
X122876724Y-70596834D01*
X122891042Y-70594710D01*
X122905500Y-70594000D01*
X123250500Y-70594000D01*
X123264958Y-70594710D01*
G37*
G36*
X123264958Y-71564710D02*
G01*
X123279276Y-71566834D01*
X123293317Y-71570351D01*
X123306946Y-71575228D01*
X123320031Y-71581417D01*
X123332447Y-71588858D01*
X123344073Y-71597481D01*
X123354798Y-71607202D01*
X123364519Y-71617927D01*
X123373142Y-71629553D01*
X123380583Y-71641969D01*
X123386772Y-71655054D01*
X123391649Y-71668683D01*
X123395166Y-71682724D01*
X123397290Y-71697042D01*
X123398000Y-71711500D01*
X123398000Y-72006500D01*
X123397290Y-72020958D01*
X123395166Y-72035276D01*
X123391649Y-72049317D01*
X123386772Y-72062946D01*
X123380583Y-72076031D01*
X123373142Y-72088447D01*
X123364519Y-72100073D01*
X123354798Y-72110798D01*
X123344073Y-72120519D01*
X123332447Y-72129142D01*
X123320031Y-72136583D01*
X123306946Y-72142772D01*
X123293317Y-72147649D01*
X123279276Y-72151166D01*
X123264958Y-72153290D01*
X123250500Y-72154000D01*
X122905500Y-72154000D01*
X122891042Y-72153290D01*
X122876724Y-72151166D01*
X122862683Y-72147649D01*
X122849054Y-72142772D01*
X122835969Y-72136583D01*
X122823553Y-72129142D01*
X122811927Y-72120519D01*
X122801202Y-72110798D01*
X122791481Y-72100073D01*
X122782858Y-72088447D01*
X122775417Y-72076031D01*
X122769228Y-72062946D01*
X122764351Y-72049317D01*
X122760834Y-72035276D01*
X122758710Y-72020958D01*
X122758000Y-72006500D01*
X122758000Y-71711500D01*
X122758710Y-71697042D01*
X122760834Y-71682724D01*
X122764351Y-71668683D01*
X122769228Y-71655054D01*
X122775417Y-71641969D01*
X122782858Y-71629553D01*
X122791481Y-71617927D01*
X122801202Y-71607202D01*
X122811927Y-71597481D01*
X122823553Y-71588858D01*
X122835969Y-71581417D01*
X122849054Y-71575228D01*
X122862683Y-71570351D01*
X122876724Y-71566834D01*
X122891042Y-71564710D01*
X122905500Y-71564000D01*
X123250500Y-71564000D01*
X123264958Y-71564710D01*
G37*
G36*
X124280958Y-70594710D02*
G01*
X124295276Y-70596834D01*
X124309317Y-70600351D01*
X124322946Y-70605228D01*
X124336031Y-70611417D01*
X124348447Y-70618858D01*
X124360073Y-70627481D01*
X124370798Y-70637202D01*
X124380519Y-70647927D01*
X124389142Y-70659553D01*
X124396583Y-70671969D01*
X124402772Y-70685054D01*
X124407649Y-70698683D01*
X124411166Y-70712724D01*
X124413290Y-70727042D01*
X124414000Y-70741500D01*
X124414000Y-71036500D01*
X124413290Y-71050958D01*
X124411166Y-71065276D01*
X124407649Y-71079317D01*
X124402772Y-71092946D01*
X124396583Y-71106031D01*
X124389142Y-71118447D01*
X124380519Y-71130073D01*
X124370798Y-71140798D01*
X124360073Y-71150519D01*
X124348447Y-71159142D01*
X124336031Y-71166583D01*
X124322946Y-71172772D01*
X124309317Y-71177649D01*
X124295276Y-71181166D01*
X124280958Y-71183290D01*
X124266500Y-71184000D01*
X123921500Y-71184000D01*
X123907042Y-71183290D01*
X123892724Y-71181166D01*
X123878683Y-71177649D01*
X123865054Y-71172772D01*
X123851969Y-71166583D01*
X123839553Y-71159142D01*
X123827927Y-71150519D01*
X123817202Y-71140798D01*
X123807481Y-71130073D01*
X123798858Y-71118447D01*
X123791417Y-71106031D01*
X123785228Y-71092946D01*
X123780351Y-71079317D01*
X123776834Y-71065276D01*
X123774710Y-71050958D01*
X123774000Y-71036500D01*
X123774000Y-70741500D01*
X123774710Y-70727042D01*
X123776834Y-70712724D01*
X123780351Y-70698683D01*
X123785228Y-70685054D01*
X123791417Y-70671969D01*
X123798858Y-70659553D01*
X123807481Y-70647927D01*
X123817202Y-70637202D01*
X123827927Y-70627481D01*
X123839553Y-70618858D01*
X123851969Y-70611417D01*
X123865054Y-70605228D01*
X123878683Y-70600351D01*
X123892724Y-70596834D01*
X123907042Y-70594710D01*
X123921500Y-70594000D01*
X124266500Y-70594000D01*
X124280958Y-70594710D01*
G37*
G36*
X124280958Y-71564710D02*
G01*
X124295276Y-71566834D01*
X124309317Y-71570351D01*
X124322946Y-71575228D01*
X124336031Y-71581417D01*
X124348447Y-71588858D01*
X124360073Y-71597481D01*
X124370798Y-71607202D01*
X124380519Y-71617927D01*
X124389142Y-71629553D01*
X124396583Y-71641969D01*
X124402772Y-71655054D01*
X124407649Y-71668683D01*
X124411166Y-71682724D01*
X124413290Y-71697042D01*
X124414000Y-71711500D01*
X124414000Y-72006500D01*
X124413290Y-72020958D01*
X124411166Y-72035276D01*
X124407649Y-72049317D01*
X124402772Y-72062946D01*
X124396583Y-72076031D01*
X124389142Y-72088447D01*
X124380519Y-72100073D01*
X124370798Y-72110798D01*
X124360073Y-72120519D01*
X124348447Y-72129142D01*
X124336031Y-72136583D01*
X124322946Y-72142772D01*
X124309317Y-72147649D01*
X124295276Y-72151166D01*
X124280958Y-72153290D01*
X124266500Y-72154000D01*
X123921500Y-72154000D01*
X123907042Y-72153290D01*
X123892724Y-72151166D01*
X123878683Y-72147649D01*
X123865054Y-72142772D01*
X123851969Y-72136583D01*
X123839553Y-72129142D01*
X123827927Y-72120519D01*
X123817202Y-72110798D01*
X123807481Y-72100073D01*
X123798858Y-72088447D01*
X123791417Y-72076031D01*
X123785228Y-72062946D01*
X123780351Y-72049317D01*
X123776834Y-72035276D01*
X123774710Y-72020958D01*
X123774000Y-72006500D01*
X123774000Y-71711500D01*
X123774710Y-71697042D01*
X123776834Y-71682724D01*
X123780351Y-71668683D01*
X123785228Y-71655054D01*
X123791417Y-71641969D01*
X123798858Y-71629553D01*
X123807481Y-71617927D01*
X123817202Y-71607202D01*
X123827927Y-71597481D01*
X123839553Y-71588858D01*
X123851969Y-71581417D01*
X123865054Y-71575228D01*
X123878683Y-71570351D01*
X123892724Y-71566834D01*
X123907042Y-71564710D01*
X123921500Y-71564000D01*
X124266500Y-71564000D01*
X124280958Y-71564710D01*
G37*
G36*
X117346703Y-64605722D02*
G01*
X117361264Y-64607882D01*
X117375543Y-64611459D01*
X117389403Y-64616418D01*
X117402710Y-64622712D01*
X117415336Y-64630280D01*
X117427159Y-64639048D01*
X117438066Y-64648934D01*
X117447952Y-64659841D01*
X117456720Y-64671664D01*
X117464288Y-64684290D01*
X117470582Y-64697597D01*
X117475541Y-64711457D01*
X117479118Y-64725736D01*
X117481278Y-64740297D01*
X117482000Y-64755000D01*
X117482000Y-65055000D01*
X117481278Y-65069703D01*
X117479118Y-65084264D01*
X117475541Y-65098543D01*
X117470582Y-65112403D01*
X117464288Y-65125710D01*
X117456720Y-65138336D01*
X117447952Y-65150159D01*
X117438066Y-65161066D01*
X117427159Y-65170952D01*
X117415336Y-65179720D01*
X117402710Y-65187288D01*
X117389403Y-65193582D01*
X117375543Y-65198541D01*
X117361264Y-65202118D01*
X117346703Y-65204278D01*
X117332000Y-65205000D01*
X115682000Y-65205000D01*
X115667297Y-65204278D01*
X115652736Y-65202118D01*
X115638457Y-65198541D01*
X115624597Y-65193582D01*
X115611290Y-65187288D01*
X115598664Y-65179720D01*
X115586841Y-65170952D01*
X115575934Y-65161066D01*
X115566048Y-65150159D01*
X115557280Y-65138336D01*
X115549712Y-65125710D01*
X115543418Y-65112403D01*
X115538459Y-65098543D01*
X115534882Y-65084264D01*
X115532722Y-65069703D01*
X115532000Y-65055000D01*
X115532000Y-64755000D01*
X115532722Y-64740297D01*
X115534882Y-64725736D01*
X115538459Y-64711457D01*
X115543418Y-64697597D01*
X115549712Y-64684290D01*
X115557280Y-64671664D01*
X115566048Y-64659841D01*
X115575934Y-64648934D01*
X115586841Y-64639048D01*
X115598664Y-64630280D01*
X115611290Y-64622712D01*
X115624597Y-64616418D01*
X115638457Y-64611459D01*
X115652736Y-64607882D01*
X115667297Y-64605722D01*
X115682000Y-64605000D01*
X117332000Y-64605000D01*
X117346703Y-64605722D01*
G37*
G36*
X117346703Y-65875722D02*
G01*
X117361264Y-65877882D01*
X117375543Y-65881459D01*
X117389403Y-65886418D01*
X117402710Y-65892712D01*
X117415336Y-65900280D01*
X117427159Y-65909048D01*
X117438066Y-65918934D01*
X117447952Y-65929841D01*
X117456720Y-65941664D01*
X117464288Y-65954290D01*
X117470582Y-65967597D01*
X117475541Y-65981457D01*
X117479118Y-65995736D01*
X117481278Y-66010297D01*
X117482000Y-66025000D01*
X117482000Y-66325000D01*
X117481278Y-66339703D01*
X117479118Y-66354264D01*
X117475541Y-66368543D01*
X117470582Y-66382403D01*
X117464288Y-66395710D01*
X117456720Y-66408336D01*
X117447952Y-66420159D01*
X117438066Y-66431066D01*
X117427159Y-66440952D01*
X117415336Y-66449720D01*
X117402710Y-66457288D01*
X117389403Y-66463582D01*
X117375543Y-66468541D01*
X117361264Y-66472118D01*
X117346703Y-66474278D01*
X117332000Y-66475000D01*
X115682000Y-66475000D01*
X115667297Y-66474278D01*
X115652736Y-66472118D01*
X115638457Y-66468541D01*
X115624597Y-66463582D01*
X115611290Y-66457288D01*
X115598664Y-66449720D01*
X115586841Y-66440952D01*
X115575934Y-66431066D01*
X115566048Y-66420159D01*
X115557280Y-66408336D01*
X115549712Y-66395710D01*
X115543418Y-66382403D01*
X115538459Y-66368543D01*
X115534882Y-66354264D01*
X115532722Y-66339703D01*
X115532000Y-66325000D01*
X115532000Y-66025000D01*
X115532722Y-66010297D01*
X115534882Y-65995736D01*
X115538459Y-65981457D01*
X115543418Y-65967597D01*
X115549712Y-65954290D01*
X115557280Y-65941664D01*
X115566048Y-65929841D01*
X115575934Y-65918934D01*
X115586841Y-65909048D01*
X115598664Y-65900280D01*
X115611290Y-65892712D01*
X115624597Y-65886418D01*
X115638457Y-65881459D01*
X115652736Y-65877882D01*
X115667297Y-65875722D01*
X115682000Y-65875000D01*
X117332000Y-65875000D01*
X117346703Y-65875722D01*
G37*
G36*
X117346703Y-67145722D02*
G01*
X117361264Y-67147882D01*
X117375543Y-67151459D01*
X117389403Y-67156418D01*
X117402710Y-67162712D01*
X117415336Y-67170280D01*
X117427159Y-67179048D01*
X117438066Y-67188934D01*
X117447952Y-67199841D01*
X117456720Y-67211664D01*
X117464288Y-67224290D01*
X117470582Y-67237597D01*
X117475541Y-67251457D01*
X117479118Y-67265736D01*
X117481278Y-67280297D01*
X117482000Y-67295000D01*
X117482000Y-67595000D01*
X117481278Y-67609703D01*
X117479118Y-67624264D01*
X117475541Y-67638543D01*
X117470582Y-67652403D01*
X117464288Y-67665710D01*
X117456720Y-67678336D01*
X117447952Y-67690159D01*
X117438066Y-67701066D01*
X117427159Y-67710952D01*
X117415336Y-67719720D01*
X117402710Y-67727288D01*
X117389403Y-67733582D01*
X117375543Y-67738541D01*
X117361264Y-67742118D01*
X117346703Y-67744278D01*
X117332000Y-67745000D01*
X115682000Y-67745000D01*
X115667297Y-67744278D01*
X115652736Y-67742118D01*
X115638457Y-67738541D01*
X115624597Y-67733582D01*
X115611290Y-67727288D01*
X115598664Y-67719720D01*
X115586841Y-67710952D01*
X115575934Y-67701066D01*
X115566048Y-67690159D01*
X115557280Y-67678336D01*
X115549712Y-67665710D01*
X115543418Y-67652403D01*
X115538459Y-67638543D01*
X115534882Y-67624264D01*
X115532722Y-67609703D01*
X115532000Y-67595000D01*
X115532000Y-67295000D01*
X115532722Y-67280297D01*
X115534882Y-67265736D01*
X115538459Y-67251457D01*
X115543418Y-67237597D01*
X115549712Y-67224290D01*
X115557280Y-67211664D01*
X115566048Y-67199841D01*
X115575934Y-67188934D01*
X115586841Y-67179048D01*
X115598664Y-67170280D01*
X115611290Y-67162712D01*
X115624597Y-67156418D01*
X115638457Y-67151459D01*
X115652736Y-67147882D01*
X115667297Y-67145722D01*
X115682000Y-67145000D01*
X117332000Y-67145000D01*
X117346703Y-67145722D01*
G37*
G36*
X117346703Y-68415722D02*
G01*
X117361264Y-68417882D01*
X117375543Y-68421459D01*
X117389403Y-68426418D01*
X117402710Y-68432712D01*
X117415336Y-68440280D01*
X117427159Y-68449048D01*
X117438066Y-68458934D01*
X117447952Y-68469841D01*
X117456720Y-68481664D01*
X117464288Y-68494290D01*
X117470582Y-68507597D01*
X117475541Y-68521457D01*
X117479118Y-68535736D01*
X117481278Y-68550297D01*
X117482000Y-68565000D01*
X117482000Y-68865000D01*
X117481278Y-68879703D01*
X117479118Y-68894264D01*
X117475541Y-68908543D01*
X117470582Y-68922403D01*
X117464288Y-68935710D01*
X117456720Y-68948336D01*
X117447952Y-68960159D01*
X117438066Y-68971066D01*
X117427159Y-68980952D01*
X117415336Y-68989720D01*
X117402710Y-68997288D01*
X117389403Y-69003582D01*
X117375543Y-69008541D01*
X117361264Y-69012118D01*
X117346703Y-69014278D01*
X117332000Y-69015000D01*
X115682000Y-69015000D01*
X115667297Y-69014278D01*
X115652736Y-69012118D01*
X115638457Y-69008541D01*
X115624597Y-69003582D01*
X115611290Y-68997288D01*
X115598664Y-68989720D01*
X115586841Y-68980952D01*
X115575934Y-68971066D01*
X115566048Y-68960159D01*
X115557280Y-68948336D01*
X115549712Y-68935710D01*
X115543418Y-68922403D01*
X115538459Y-68908543D01*
X115534882Y-68894264D01*
X115532722Y-68879703D01*
X115532000Y-68865000D01*
X115532000Y-68565000D01*
X115532722Y-68550297D01*
X115534882Y-68535736D01*
X115538459Y-68521457D01*
X115543418Y-68507597D01*
X115549712Y-68494290D01*
X115557280Y-68481664D01*
X115566048Y-68469841D01*
X115575934Y-68458934D01*
X115586841Y-68449048D01*
X115598664Y-68440280D01*
X115611290Y-68432712D01*
X115624597Y-68426418D01*
X115638457Y-68421459D01*
X115652736Y-68417882D01*
X115667297Y-68415722D01*
X115682000Y-68415000D01*
X117332000Y-68415000D01*
X117346703Y-68415722D01*
G37*
G36*
X122296703Y-68415722D02*
G01*
X122311264Y-68417882D01*
X122325543Y-68421459D01*
X122339403Y-68426418D01*
X122352710Y-68432712D01*
X122365336Y-68440280D01*
X122377159Y-68449048D01*
X122388066Y-68458934D01*
X122397952Y-68469841D01*
X122406720Y-68481664D01*
X122414288Y-68494290D01*
X122420582Y-68507597D01*
X122425541Y-68521457D01*
X122429118Y-68535736D01*
X122431278Y-68550297D01*
X122432000Y-68565000D01*
X122432000Y-68865000D01*
X122431278Y-68879703D01*
X122429118Y-68894264D01*
X122425541Y-68908543D01*
X122420582Y-68922403D01*
X122414288Y-68935710D01*
X122406720Y-68948336D01*
X122397952Y-68960159D01*
X122388066Y-68971066D01*
X122377159Y-68980952D01*
X122365336Y-68989720D01*
X122352710Y-68997288D01*
X122339403Y-69003582D01*
X122325543Y-69008541D01*
X122311264Y-69012118D01*
X122296703Y-69014278D01*
X122282000Y-69015000D01*
X120632000Y-69015000D01*
X120617297Y-69014278D01*
X120602736Y-69012118D01*
X120588457Y-69008541D01*
X120574597Y-69003582D01*
X120561290Y-68997288D01*
X120548664Y-68989720D01*
X120536841Y-68980952D01*
X120525934Y-68971066D01*
X120516048Y-68960159D01*
X120507280Y-68948336D01*
X120499712Y-68935710D01*
X120493418Y-68922403D01*
X120488459Y-68908543D01*
X120484882Y-68894264D01*
X120482722Y-68879703D01*
X120482000Y-68865000D01*
X120482000Y-68565000D01*
X120482722Y-68550297D01*
X120484882Y-68535736D01*
X120488459Y-68521457D01*
X120493418Y-68507597D01*
X120499712Y-68494290D01*
X120507280Y-68481664D01*
X120516048Y-68469841D01*
X120525934Y-68458934D01*
X120536841Y-68449048D01*
X120548664Y-68440280D01*
X120561290Y-68432712D01*
X120574597Y-68426418D01*
X120588457Y-68421459D01*
X120602736Y-68417882D01*
X120617297Y-68415722D01*
X120632000Y-68415000D01*
X122282000Y-68415000D01*
X122296703Y-68415722D01*
G37*
G36*
X122296703Y-67145722D02*
G01*
X122311264Y-67147882D01*
X122325543Y-67151459D01*
X122339403Y-67156418D01*
X122352710Y-67162712D01*
X122365336Y-67170280D01*
X122377159Y-67179048D01*
X122388066Y-67188934D01*
X122397952Y-67199841D01*
X122406720Y-67211664D01*
X122414288Y-67224290D01*
X122420582Y-67237597D01*
X122425541Y-67251457D01*
X122429118Y-67265736D01*
X122431278Y-67280297D01*
X122432000Y-67295000D01*
X122432000Y-67595000D01*
X122431278Y-67609703D01*
X122429118Y-67624264D01*
X122425541Y-67638543D01*
X122420582Y-67652403D01*
X122414288Y-67665710D01*
X122406720Y-67678336D01*
X122397952Y-67690159D01*
X122388066Y-67701066D01*
X122377159Y-67710952D01*
X122365336Y-67719720D01*
X122352710Y-67727288D01*
X122339403Y-67733582D01*
X122325543Y-67738541D01*
X122311264Y-67742118D01*
X122296703Y-67744278D01*
X122282000Y-67745000D01*
X120632000Y-67745000D01*
X120617297Y-67744278D01*
X120602736Y-67742118D01*
X120588457Y-67738541D01*
X120574597Y-67733582D01*
X120561290Y-67727288D01*
X120548664Y-67719720D01*
X120536841Y-67710952D01*
X120525934Y-67701066D01*
X120516048Y-67690159D01*
X120507280Y-67678336D01*
X120499712Y-67665710D01*
X120493418Y-67652403D01*
X120488459Y-67638543D01*
X120484882Y-67624264D01*
X120482722Y-67609703D01*
X120482000Y-67595000D01*
X120482000Y-67295000D01*
X120482722Y-67280297D01*
X120484882Y-67265736D01*
X120488459Y-67251457D01*
X120493418Y-67237597D01*
X120499712Y-67224290D01*
X120507280Y-67211664D01*
X120516048Y-67199841D01*
X120525934Y-67188934D01*
X120536841Y-67179048D01*
X120548664Y-67170280D01*
X120561290Y-67162712D01*
X120574597Y-67156418D01*
X120588457Y-67151459D01*
X120602736Y-67147882D01*
X120617297Y-67145722D01*
X120632000Y-67145000D01*
X122282000Y-67145000D01*
X122296703Y-67145722D01*
G37*
G36*
X122296703Y-65875722D02*
G01*
X122311264Y-65877882D01*
X122325543Y-65881459D01*
X122339403Y-65886418D01*
X122352710Y-65892712D01*
X122365336Y-65900280D01*
X122377159Y-65909048D01*
X122388066Y-65918934D01*
X122397952Y-65929841D01*
X122406720Y-65941664D01*
X122414288Y-65954290D01*
X122420582Y-65967597D01*
X122425541Y-65981457D01*
X122429118Y-65995736D01*
X122431278Y-66010297D01*
X122432000Y-66025000D01*
X122432000Y-66325000D01*
X122431278Y-66339703D01*
X122429118Y-66354264D01*
X122425541Y-66368543D01*
X122420582Y-66382403D01*
X122414288Y-66395710D01*
X122406720Y-66408336D01*
X122397952Y-66420159D01*
X122388066Y-66431066D01*
X122377159Y-66440952D01*
X122365336Y-66449720D01*
X122352710Y-66457288D01*
X122339403Y-66463582D01*
X122325543Y-66468541D01*
X122311264Y-66472118D01*
X122296703Y-66474278D01*
X122282000Y-66475000D01*
X120632000Y-66475000D01*
X120617297Y-66474278D01*
X120602736Y-66472118D01*
X120588457Y-66468541D01*
X120574597Y-66463582D01*
X120561290Y-66457288D01*
X120548664Y-66449720D01*
X120536841Y-66440952D01*
X120525934Y-66431066D01*
X120516048Y-66420159D01*
X120507280Y-66408336D01*
X120499712Y-66395710D01*
X120493418Y-66382403D01*
X120488459Y-66368543D01*
X120484882Y-66354264D01*
X120482722Y-66339703D01*
X120482000Y-66325000D01*
X120482000Y-66025000D01*
X120482722Y-66010297D01*
X120484882Y-65995736D01*
X120488459Y-65981457D01*
X120493418Y-65967597D01*
X120499712Y-65954290D01*
X120507280Y-65941664D01*
X120516048Y-65929841D01*
X120525934Y-65918934D01*
X120536841Y-65909048D01*
X120548664Y-65900280D01*
X120561290Y-65892712D01*
X120574597Y-65886418D01*
X120588457Y-65881459D01*
X120602736Y-65877882D01*
X120617297Y-65875722D01*
X120632000Y-65875000D01*
X122282000Y-65875000D01*
X122296703Y-65875722D01*
G37*
G36*
X122296703Y-64605722D02*
G01*
X122311264Y-64607882D01*
X122325543Y-64611459D01*
X122339403Y-64616418D01*
X122352710Y-64622712D01*
X122365336Y-64630280D01*
X122377159Y-64639048D01*
X122388066Y-64648934D01*
X122397952Y-64659841D01*
X122406720Y-64671664D01*
X122414288Y-64684290D01*
X122420582Y-64697597D01*
X122425541Y-64711457D01*
X122429118Y-64725736D01*
X122431278Y-64740297D01*
X122432000Y-64755000D01*
X122432000Y-65055000D01*
X122431278Y-65069703D01*
X122429118Y-65084264D01*
X122425541Y-65098543D01*
X122420582Y-65112403D01*
X122414288Y-65125710D01*
X122406720Y-65138336D01*
X122397952Y-65150159D01*
X122388066Y-65161066D01*
X122377159Y-65170952D01*
X122365336Y-65179720D01*
X122352710Y-65187288D01*
X122339403Y-65193582D01*
X122325543Y-65198541D01*
X122311264Y-65202118D01*
X122296703Y-65204278D01*
X122282000Y-65205000D01*
X120632000Y-65205000D01*
X120617297Y-65204278D01*
X120602736Y-65202118D01*
X120588457Y-65198541D01*
X120574597Y-65193582D01*
X120561290Y-65187288D01*
X120548664Y-65179720D01*
X120536841Y-65170952D01*
X120525934Y-65161066D01*
X120516048Y-65150159D01*
X120507280Y-65138336D01*
X120499712Y-65125710D01*
X120493418Y-65112403D01*
X120488459Y-65098543D01*
X120484882Y-65084264D01*
X120482722Y-65069703D01*
X120482000Y-65055000D01*
X120482000Y-64755000D01*
X120482722Y-64740297D01*
X120484882Y-64725736D01*
X120488459Y-64711457D01*
X120493418Y-64697597D01*
X120499712Y-64684290D01*
X120507280Y-64671664D01*
X120516048Y-64659841D01*
X120525934Y-64648934D01*
X120536841Y-64639048D01*
X120548664Y-64630280D01*
X120561290Y-64622712D01*
X120574597Y-64616418D01*
X120588457Y-64611459D01*
X120602736Y-64607882D01*
X120617297Y-64605722D01*
X120632000Y-64605000D01*
X122282000Y-64605000D01*
X122296703Y-64605722D01*
G37*
D21*
X119400000Y-89408000D03*
X123200000Y-89408000D03*
D11*
G36*
X141738779Y-98649144D02*
G01*
X141761834Y-98652563D01*
X141784443Y-98658227D01*
X141806387Y-98666079D01*
X141827457Y-98676044D01*
X141847448Y-98688026D01*
X141866168Y-98701910D01*
X141883438Y-98717562D01*
X141899090Y-98734832D01*
X141912974Y-98753552D01*
X141924956Y-98773543D01*
X141934921Y-98794613D01*
X141942773Y-98816557D01*
X141948437Y-98839166D01*
X141951856Y-98862221D01*
X141953000Y-98885500D01*
X141953000Y-99460500D01*
X141951856Y-99483779D01*
X141948437Y-99506834D01*
X141942773Y-99529443D01*
X141934921Y-99551387D01*
X141924956Y-99572457D01*
X141912974Y-99592448D01*
X141899090Y-99611168D01*
X141883438Y-99628438D01*
X141866168Y-99644090D01*
X141847448Y-99657974D01*
X141827457Y-99669956D01*
X141806387Y-99679921D01*
X141784443Y-99687773D01*
X141761834Y-99693437D01*
X141738779Y-99696856D01*
X141715500Y-99698000D01*
X141240500Y-99698000D01*
X141217221Y-99696856D01*
X141194166Y-99693437D01*
X141171557Y-99687773D01*
X141149613Y-99679921D01*
X141128543Y-99669956D01*
X141108552Y-99657974D01*
X141089832Y-99644090D01*
X141072562Y-99628438D01*
X141056910Y-99611168D01*
X141043026Y-99592448D01*
X141031044Y-99572457D01*
X141021079Y-99551387D01*
X141013227Y-99529443D01*
X141007563Y-99506834D01*
X141004144Y-99483779D01*
X141003000Y-99460500D01*
X141003000Y-98885500D01*
X141004144Y-98862221D01*
X141007563Y-98839166D01*
X141013227Y-98816557D01*
X141021079Y-98794613D01*
X141031044Y-98773543D01*
X141043026Y-98753552D01*
X141056910Y-98734832D01*
X141072562Y-98717562D01*
X141089832Y-98701910D01*
X141108552Y-98688026D01*
X141128543Y-98676044D01*
X141149613Y-98666079D01*
X141171557Y-98658227D01*
X141194166Y-98652563D01*
X141217221Y-98649144D01*
X141240500Y-98648000D01*
X141715500Y-98648000D01*
X141738779Y-98649144D01*
G37*
G36*
X141738779Y-96899144D02*
G01*
X141761834Y-96902563D01*
X141784443Y-96908227D01*
X141806387Y-96916079D01*
X141827457Y-96926044D01*
X141847448Y-96938026D01*
X141866168Y-96951910D01*
X141883438Y-96967562D01*
X141899090Y-96984832D01*
X141912974Y-97003552D01*
X141924956Y-97023543D01*
X141934921Y-97044613D01*
X141942773Y-97066557D01*
X141948437Y-97089166D01*
X141951856Y-97112221D01*
X141953000Y-97135500D01*
X141953000Y-97710500D01*
X141951856Y-97733779D01*
X141948437Y-97756834D01*
X141942773Y-97779443D01*
X141934921Y-97801387D01*
X141924956Y-97822457D01*
X141912974Y-97842448D01*
X141899090Y-97861168D01*
X141883438Y-97878438D01*
X141866168Y-97894090D01*
X141847448Y-97907974D01*
X141827457Y-97919956D01*
X141806387Y-97929921D01*
X141784443Y-97937773D01*
X141761834Y-97943437D01*
X141738779Y-97946856D01*
X141715500Y-97948000D01*
X141240500Y-97948000D01*
X141217221Y-97946856D01*
X141194166Y-97943437D01*
X141171557Y-97937773D01*
X141149613Y-97929921D01*
X141128543Y-97919956D01*
X141108552Y-97907974D01*
X141089832Y-97894090D01*
X141072562Y-97878438D01*
X141056910Y-97861168D01*
X141043026Y-97842448D01*
X141031044Y-97822457D01*
X141021079Y-97801387D01*
X141013227Y-97779443D01*
X141007563Y-97756834D01*
X141004144Y-97733779D01*
X141003000Y-97710500D01*
X141003000Y-97135500D01*
X141004144Y-97112221D01*
X141007563Y-97089166D01*
X141013227Y-97066557D01*
X141021079Y-97044613D01*
X141031044Y-97023543D01*
X141043026Y-97003552D01*
X141056910Y-96984832D01*
X141072562Y-96967562D01*
X141089832Y-96951910D01*
X141108552Y-96938026D01*
X141128543Y-96926044D01*
X141149613Y-96916079D01*
X141171557Y-96908227D01*
X141194166Y-96902563D01*
X141217221Y-96899144D01*
X141240500Y-96898000D01*
X141715500Y-96898000D01*
X141738779Y-96899144D01*
G37*
M02*
