G04 #@! TF.GenerationSoftware,KiCad,Pcbnew,(5.1.5)-3*
G04 #@! TF.CreationDate,2022-05-21T19:39:02+09:00*
G04 #@! TF.ProjectId,RP_MD,52505f4d-442e-46b6-9963-61645f706362,rev?*
G04 #@! TF.SameCoordinates,Original*
G04 #@! TF.FileFunction,Profile,NP*
%FSLAX46Y46*%
G04 Gerber Fmt 4.6, Leading zero omitted, Abs format (unit mm)*
G04 Created by KiCad (PCBNEW (5.1.5)-3) date 2022-05-21 19:39:02*
%MOMM*%
%LPD*%
G04 APERTURE LIST*
%ADD10C,0.050000*%
G04 APERTURE END LIST*
D10*
X90424000Y-74676000D02*
X103124000Y-74676000D01*
X109220000Y-55118000D02*
X109220000Y-52578000D01*
X103124000Y-74676000D02*
G75*
G02X103632000Y-74168000I508000J0D01*
G01*
X103632000Y-55626000D02*
G75*
G02X103124000Y-55118000I0J508000D01*
G01*
X103632000Y-74168000D02*
X108712000Y-74168000D01*
X103632000Y-55626000D02*
X108712000Y-55626000D01*
X108712000Y-74168000D02*
G75*
G02X109220000Y-74676000I0J-508000D01*
G01*
X109220000Y-52578000D02*
X109220000Y-52330000D01*
X109220000Y-55118000D02*
G75*
G02X108712000Y-55626000I-508000J0D01*
G01*
X103632000Y-59690000D02*
X108712000Y-59690000D01*
X103632000Y-70104000D02*
X108712000Y-70104000D01*
X109220000Y-69596000D02*
G75*
G02X108712000Y-70104000I-508000J0D01*
G01*
X103632000Y-70104000D02*
G75*
G02X103124000Y-69596000I0J508000D01*
G01*
X108712000Y-59690000D02*
G75*
G02X109220000Y-60198000I0J-508000D01*
G01*
X103124000Y-60198000D02*
G75*
G02X103632000Y-59690000I508000J0D01*
G01*
X109220000Y-98330000D02*
X109220000Y-74676000D01*
X109220000Y-60198000D02*
X109220000Y-69596000D01*
X103124000Y-69596000D02*
X103124000Y-60198000D01*
X90424000Y-55118000D02*
X90424000Y-74676000D01*
X103124000Y-55118000D02*
X90424000Y-55118000D01*
X111220000Y-100330000D02*
G75*
G02X109220000Y-98330000I0J2000000D01*
G01*
X164220000Y-98330000D02*
G75*
G02X162220000Y-100330000I-2000000J0D01*
G01*
X162220000Y-50330000D02*
G75*
G02X164220000Y-52330000I0J-2000000D01*
G01*
X109220000Y-52330000D02*
G75*
G02X111220000Y-50330000I2000000J0D01*
G01*
X109553333Y-100330000D02*
G75*
G03X109553333Y-100330000I-333333J0D01*
G01*
X108720000Y-100330000D02*
X109720000Y-100330000D01*
X109220000Y-99830000D02*
X109220000Y-100830000D01*
X111220000Y-50330000D02*
X162220000Y-50330000D01*
X162220000Y-100330000D02*
X111220000Y-100330000D01*
X164220000Y-52330000D02*
X164220000Y-98330000D01*
M02*
