M48
; DRILL file {KiCad (5.1.5)-3} date 2022/05/21 19:39:09
; FORMAT={-:-/ absolute / inch / decimal}
; #@! TF.CreationDate,2022-05-21T19:39:09+09:00
; #@! TF.GenerationSoftware,Kicad,Pcbnew,(5.1.5)-3
FMAT,2
INCH
T1C0.0157
T2C0.0197
T3C0.0295
T4C0.0394
T5C0.0472
T6C0.0787
T7C0.0256
%
G90
G05
T1
X3.7902Y-2.6522
X3.8202Y-2.5022
X4.35Y-2.16
X4.355Y-2.795
X4.375Y-2.76
X4.41Y-3.16
X4.41Y-3.225
X4.4211Y-2.5494
X4.45Y-3.73
X4.46Y-2.96
X4.47Y-3.04
X4.485Y-3.16
X4.485Y-3.225
X4.495Y-3.715
X4.495Y-3.78
X4.5Y-2.025
X4.51Y-2.41
X4.53Y-2.52
X4.545Y-2.23
X4.55Y-3.2
X4.605Y-2.91
X4.61Y-2.785
X4.615Y-3.655
X4.62Y-2.96
X4.635Y-3.525
X4.64Y-2.31
X4.65Y-2.025
X4.6683Y-3.7502
X4.69Y-2.43
X4.715Y-3.03
X4.715Y-3.185
X4.715Y-3.655
X4.715Y-3.75
X4.72Y-2.31
X4.725Y-3.435
X4.75Y-2.43
X4.75Y-3.07
X4.75Y-3.15
X4.755Y-3.7
X4.755Y-3.83
X4.775Y-2.79
X4.775Y-3.555
X4.79Y-3.11
X4.7956Y-2.8291
X4.8Y-2.025
X4.81Y-2.46
X4.8156Y-3.3109
X4.8183Y-3.7502
X4.82Y-3.07
X4.82Y-3.15
X4.84Y-3.195
X4.85Y-3.395
X4.85Y-3.605
X4.85Y-3.69
X4.86Y-3.01
X4.885Y-3.07
X4.895Y-2.605
X4.895Y-2.66
X4.9Y-2.25
X4.905Y-3.795
X4.905Y-3.865
X4.9143Y-2.5512
X4.9225Y-3.6625
X4.925Y-3.395
X4.925Y-3.53
X4.925Y-3.6
X4.93Y-2.755
X4.95Y-2.025
X4.96Y-2.45
X4.96Y-2.93
X4.9656Y-2.8291
X4.97Y-2.2
X5.0Y-2.7
X5.0Y-2.775
X5.005Y-3.795
X5.005Y-3.86
X5.01Y-2.53
X5.01Y-3.0
X5.0156Y-2.9091
X5.02Y-3.3
X5.03Y-3.18
X5.04Y-2.635
X5.04Y-2.95
X5.045Y-2.825
X5.0467Y-3.575
X5.05Y-2.49
X5.05Y-3.795
X5.05Y-3.86
X5.06Y-3.1391
X5.06Y-3.21
X5.07Y-2.39
X5.0742Y-2.5275
X5.1Y-2.025
X5.115Y-3.28
X5.115Y-3.57
X5.15Y-2.915
X5.15Y-3.52
X5.16Y-2.58
X5.16Y-3.655
X5.165Y-2.7
X5.165Y-2.825
X5.19Y-3.54
X5.19Y-3.605
X5.19Y-3.78
X5.215Y-2.73
X5.215Y-2.775
X5.215Y-3.0
X5.215Y-3.28
X5.22Y-3.355
X5.22Y-3.395
X5.25Y-2.025
X5.255Y-2.71
X5.255Y-2.755
X5.255Y-2.795
X5.26Y-3.03
X5.26Y-3.355
X5.26Y-3.395
X5.26Y-3.435
X5.27Y-3.78
X5.28Y-2.835
X5.2909Y-2.38
X5.2975Y-3.675
X5.3Y-2.71
X5.3Y-2.755
X5.3Y-2.795
X5.305Y-3.365
X5.305Y-3.405
X5.305Y-3.445
X5.32Y-2.835
X5.33Y-3.03
X5.33Y-3.485
X5.345Y-2.71
X5.345Y-2.755
X5.345Y-2.795
X5.35Y-3.365
X5.35Y-3.405
X5.35Y-3.445
X5.375Y-2.38
X5.3875Y-3.735
X5.4Y-2.025
X5.47Y-3.8075
X5.57Y-3.7425
X5.57Y-3.91
X5.59Y-3.37
X5.59Y-3.41
X5.59Y-3.45
X5.595Y-2.725
X5.595Y-2.765
X5.595Y-2.805
X5.61Y-2.84
X5.615Y-3.49
X5.63Y-3.8791
X5.635Y-3.37
X5.635Y-3.41
X5.635Y-3.45
X5.64Y-2.725
X5.64Y-2.765
X5.64Y-2.805
X5.645Y-2.975
X5.65Y-3.625
X5.655Y-2.84
X5.665Y-3.49
X5.6691Y-2.66
X5.6691Y-3.32
X5.675Y-2.025
X5.68Y-3.37
X5.68Y-3.41
X5.68Y-3.45
X5.685Y-2.725
X5.685Y-2.765
X5.685Y-2.805
X5.7Y-2.855
X5.7Y-3.52
X5.75Y-3.32
X5.75Y-3.625
X5.755Y-2.975
X5.76Y-2.67
X5.78Y-3.36
X5.79Y-2.71
X5.85Y-2.025
X6.02Y-3.9
X6.075Y-2.025
X6.15Y-3.9
X6.225Y-2.025
X6.26Y-3.32
X6.26Y-3.5
X6.26Y-3.68
X6.26Y-3.77
X6.275Y-3.9
X6.28Y-2.32
X6.28Y-2.4
X6.33Y-2.32
X6.33Y-2.4
X6.33Y-2.48
X6.33Y-2.62
X6.34Y-2.8
X6.34Y-2.97
X6.35Y-3.15
X6.38Y-2.32
X6.38Y-2.4
X6.38Y-2.48
X6.425Y-2.175
X6.425Y-2.32
X6.425Y-2.48
X6.425Y-2.625
X6.425Y-2.8
X6.425Y-2.975
X6.425Y-3.15
X6.425Y-3.325
X6.425Y-3.5
X6.425Y-3.675
X6.425Y-3.775
X6.43Y-2.4
T3
X5.0087Y-2.1193
X5.0874Y-2.1193
X5.1661Y-2.1193
X5.2449Y-2.1193
X5.3236Y-2.1193
X5.4024Y-2.1193
X4.4181Y-3.2807
X4.4181Y-3.3594
X4.4181Y-3.4382
X4.4181Y-3.5169
X4.4181Y-3.5957
X4.4181Y-3.6744
X5.1925Y-3.86
X5.2713Y-3.86
X5.35Y-3.86
X5.4287Y-3.86
X4.5638Y-2.1197
X4.6425Y-2.1197
X4.7213Y-2.1197
X4.8Y-2.1197
X4.4185Y-2.8441
X4.4185Y-2.9228
X4.4185Y-3.0016
X4.4185Y-3.0803
T4
X3.7102Y-2.7846
X3.8102Y-2.7846
X3.9102Y-2.7846
X4.3787Y-2.2374
X4.3787Y-2.3374
X4.3787Y-2.4374
X6.15Y-3.3085
X6.15Y-3.7415
X6.15Y-2.6585
X6.15Y-3.0915
T5
X5.5598Y-2.0406
X5.9929Y-2.0406
T6
X4.3787Y-2.0602
X4.3787Y-3.8713
X6.3866Y-2.0602
X6.3866Y-3.8713
X5.9531Y-3.4266
X5.9531Y-3.6234
X5.678Y-2.4343
X5.8748Y-2.4343
X5.9531Y-2.7766
X5.9531Y-2.9734
T7
X3.952Y-2.5839
T2
G00X3.6335Y-2.3122
M15
G01X3.6335Y-2.2886
M16
G05
G00X3.6476Y-2.5465
M15
G01X3.6476Y-2.5228
M16
G05
G00X3.9728Y-2.5465
M15
G01X3.9728Y-2.5228
M16
G05
G00X3.987Y-2.3122
M15
G01X3.987Y-2.2886
M16
G05
T7
G00X3.6744Y-2.5839
M15
G01X3.6626Y-2.5839
M16
G05
T0
M30
