G04 #@! TF.GenerationSoftware,KiCad,Pcbnew,(5.1.5)-3*
G04 #@! TF.CreationDate,2022-07-01T00:55:21+09:00*
G04 #@! TF.ProjectId,RP_MD,52505f4d-442e-46b6-9963-61645f706362,rev?*
G04 #@! TF.SameCoordinates,Original*
G04 #@! TF.FileFunction,Paste,Bot*
G04 #@! TF.FilePolarity,Positive*
%FSLAX46Y46*%
G04 Gerber Fmt 4.6, Leading zero omitted, Abs format (unit mm)*
G04 Created by KiCad (PCBNEW (5.1.5)-3) date 2022-07-01 00:55:21*
%MOMM*%
%LPD*%
G04 APERTURE LIST*
%ADD10C,0.100000*%
%ADD11R,2.200000X1.840000*%
%ADD12R,1.000000X1.500000*%
%ADD13R,1.000000X1.800000*%
%ADD14R,1.400000X0.300000*%
%ADD15R,1.560000X0.650000*%
G04 APERTURE END LIST*
D10*
G36*
X124608504Y-96009204D02*
G01*
X124632773Y-96012804D01*
X124656571Y-96018765D01*
X124679671Y-96027030D01*
X124701849Y-96037520D01*
X124722893Y-96050133D01*
X124742598Y-96064747D01*
X124760777Y-96081223D01*
X124777253Y-96099402D01*
X124791867Y-96119107D01*
X124804480Y-96140151D01*
X124814970Y-96162329D01*
X124823235Y-96185429D01*
X124829196Y-96209227D01*
X124832796Y-96233496D01*
X124834000Y-96258000D01*
X124834000Y-98758000D01*
X124832796Y-98782504D01*
X124829196Y-98806773D01*
X124823235Y-98830571D01*
X124814970Y-98853671D01*
X124804480Y-98875849D01*
X124791867Y-98896893D01*
X124777253Y-98916598D01*
X124760777Y-98934777D01*
X124742598Y-98951253D01*
X124722893Y-98965867D01*
X124701849Y-98978480D01*
X124679671Y-98988970D01*
X124656571Y-98997235D01*
X124632773Y-99003196D01*
X124608504Y-99006796D01*
X124584000Y-99008000D01*
X123484000Y-99008000D01*
X123459496Y-99006796D01*
X123435227Y-99003196D01*
X123411429Y-98997235D01*
X123388329Y-98988970D01*
X123366151Y-98978480D01*
X123345107Y-98965867D01*
X123325402Y-98951253D01*
X123307223Y-98934777D01*
X123290747Y-98916598D01*
X123276133Y-98896893D01*
X123263520Y-98875849D01*
X123253030Y-98853671D01*
X123244765Y-98830571D01*
X123238804Y-98806773D01*
X123235204Y-98782504D01*
X123234000Y-98758000D01*
X123234000Y-96258000D01*
X123235204Y-96233496D01*
X123238804Y-96209227D01*
X123244765Y-96185429D01*
X123253030Y-96162329D01*
X123263520Y-96140151D01*
X123276133Y-96119107D01*
X123290747Y-96099402D01*
X123307223Y-96081223D01*
X123325402Y-96064747D01*
X123345107Y-96050133D01*
X123366151Y-96037520D01*
X123388329Y-96027030D01*
X123411429Y-96018765D01*
X123435227Y-96012804D01*
X123459496Y-96009204D01*
X123484000Y-96008000D01*
X124584000Y-96008000D01*
X124608504Y-96009204D01*
G37*
G36*
X115808504Y-96009204D02*
G01*
X115832773Y-96012804D01*
X115856571Y-96018765D01*
X115879671Y-96027030D01*
X115901849Y-96037520D01*
X115922893Y-96050133D01*
X115942598Y-96064747D01*
X115960777Y-96081223D01*
X115977253Y-96099402D01*
X115991867Y-96119107D01*
X116004480Y-96140151D01*
X116014970Y-96162329D01*
X116023235Y-96185429D01*
X116029196Y-96209227D01*
X116032796Y-96233496D01*
X116034000Y-96258000D01*
X116034000Y-98758000D01*
X116032796Y-98782504D01*
X116029196Y-98806773D01*
X116023235Y-98830571D01*
X116014970Y-98853671D01*
X116004480Y-98875849D01*
X115991867Y-98896893D01*
X115977253Y-98916598D01*
X115960777Y-98934777D01*
X115942598Y-98951253D01*
X115922893Y-98965867D01*
X115901849Y-98978480D01*
X115879671Y-98988970D01*
X115856571Y-98997235D01*
X115832773Y-99003196D01*
X115808504Y-99006796D01*
X115784000Y-99008000D01*
X114684000Y-99008000D01*
X114659496Y-99006796D01*
X114635227Y-99003196D01*
X114611429Y-98997235D01*
X114588329Y-98988970D01*
X114566151Y-98978480D01*
X114545107Y-98965867D01*
X114525402Y-98951253D01*
X114507223Y-98934777D01*
X114490747Y-98916598D01*
X114476133Y-98896893D01*
X114463520Y-98875849D01*
X114453030Y-98853671D01*
X114444765Y-98830571D01*
X114438804Y-98806773D01*
X114435204Y-98782504D01*
X114434000Y-98758000D01*
X114434000Y-96258000D01*
X114435204Y-96233496D01*
X114438804Y-96209227D01*
X114444765Y-96185429D01*
X114453030Y-96162329D01*
X114463520Y-96140151D01*
X114476133Y-96119107D01*
X114490747Y-96099402D01*
X114507223Y-96081223D01*
X114525402Y-96064747D01*
X114545107Y-96050133D01*
X114566151Y-96037520D01*
X114588329Y-96027030D01*
X114611429Y-96018765D01*
X114635227Y-96012804D01*
X114659496Y-96009204D01*
X114684000Y-96008000D01*
X115784000Y-96008000D01*
X115808504Y-96009204D01*
G37*
G36*
X121908504Y-92509204D02*
G01*
X121932773Y-92512804D01*
X121956571Y-92518765D01*
X121979671Y-92527030D01*
X122001849Y-92537520D01*
X122022893Y-92550133D01*
X122042598Y-92564747D01*
X122060777Y-92581223D01*
X122077253Y-92599402D01*
X122091867Y-92619107D01*
X122104480Y-92640151D01*
X122114970Y-92662329D01*
X122123235Y-92685429D01*
X122129196Y-92709227D01*
X122132796Y-92733496D01*
X122134000Y-92758000D01*
X122134000Y-97758000D01*
X122132796Y-97782504D01*
X122129196Y-97806773D01*
X122123235Y-97830571D01*
X122114970Y-97853671D01*
X122104480Y-97875849D01*
X122091867Y-97896893D01*
X122077253Y-97916598D01*
X122060777Y-97934777D01*
X122042598Y-97951253D01*
X122022893Y-97965867D01*
X122001849Y-97978480D01*
X121979671Y-97988970D01*
X121956571Y-97997235D01*
X121932773Y-98003196D01*
X121908504Y-98006796D01*
X121884000Y-98008000D01*
X121384000Y-98008000D01*
X121359496Y-98006796D01*
X121335227Y-98003196D01*
X121311429Y-97997235D01*
X121288329Y-97988970D01*
X121266151Y-97978480D01*
X121245107Y-97965867D01*
X121225402Y-97951253D01*
X121207223Y-97934777D01*
X121190747Y-97916598D01*
X121176133Y-97896893D01*
X121163520Y-97875849D01*
X121153030Y-97853671D01*
X121144765Y-97830571D01*
X121138804Y-97806773D01*
X121135204Y-97782504D01*
X121134000Y-97758000D01*
X121134000Y-92758000D01*
X121135204Y-92733496D01*
X121138804Y-92709227D01*
X121144765Y-92685429D01*
X121153030Y-92662329D01*
X121163520Y-92640151D01*
X121176133Y-92619107D01*
X121190747Y-92599402D01*
X121207223Y-92581223D01*
X121225402Y-92564747D01*
X121245107Y-92550133D01*
X121266151Y-92537520D01*
X121288329Y-92527030D01*
X121311429Y-92518765D01*
X121335227Y-92512804D01*
X121359496Y-92509204D01*
X121384000Y-92508000D01*
X121884000Y-92508000D01*
X121908504Y-92509204D01*
G37*
G36*
X119908504Y-92509204D02*
G01*
X119932773Y-92512804D01*
X119956571Y-92518765D01*
X119979671Y-92527030D01*
X120001849Y-92537520D01*
X120022893Y-92550133D01*
X120042598Y-92564747D01*
X120060777Y-92581223D01*
X120077253Y-92599402D01*
X120091867Y-92619107D01*
X120104480Y-92640151D01*
X120114970Y-92662329D01*
X120123235Y-92685429D01*
X120129196Y-92709227D01*
X120132796Y-92733496D01*
X120134000Y-92758000D01*
X120134000Y-97758000D01*
X120132796Y-97782504D01*
X120129196Y-97806773D01*
X120123235Y-97830571D01*
X120114970Y-97853671D01*
X120104480Y-97875849D01*
X120091867Y-97896893D01*
X120077253Y-97916598D01*
X120060777Y-97934777D01*
X120042598Y-97951253D01*
X120022893Y-97965867D01*
X120001849Y-97978480D01*
X119979671Y-97988970D01*
X119956571Y-97997235D01*
X119932773Y-98003196D01*
X119908504Y-98006796D01*
X119884000Y-98008000D01*
X119384000Y-98008000D01*
X119359496Y-98006796D01*
X119335227Y-98003196D01*
X119311429Y-97997235D01*
X119288329Y-97988970D01*
X119266151Y-97978480D01*
X119245107Y-97965867D01*
X119225402Y-97951253D01*
X119207223Y-97934777D01*
X119190747Y-97916598D01*
X119176133Y-97896893D01*
X119163520Y-97875849D01*
X119153030Y-97853671D01*
X119144765Y-97830571D01*
X119138804Y-97806773D01*
X119135204Y-97782504D01*
X119134000Y-97758000D01*
X119134000Y-92758000D01*
X119135204Y-92733496D01*
X119138804Y-92709227D01*
X119144765Y-92685429D01*
X119153030Y-92662329D01*
X119163520Y-92640151D01*
X119176133Y-92619107D01*
X119190747Y-92599402D01*
X119207223Y-92581223D01*
X119225402Y-92564747D01*
X119245107Y-92550133D01*
X119266151Y-92537520D01*
X119288329Y-92527030D01*
X119311429Y-92518765D01*
X119335227Y-92512804D01*
X119359496Y-92509204D01*
X119384000Y-92508000D01*
X119884000Y-92508000D01*
X119908504Y-92509204D01*
G37*
G36*
X117908504Y-92509204D02*
G01*
X117932773Y-92512804D01*
X117956571Y-92518765D01*
X117979671Y-92527030D01*
X118001849Y-92537520D01*
X118022893Y-92550133D01*
X118042598Y-92564747D01*
X118060777Y-92581223D01*
X118077253Y-92599402D01*
X118091867Y-92619107D01*
X118104480Y-92640151D01*
X118114970Y-92662329D01*
X118123235Y-92685429D01*
X118129196Y-92709227D01*
X118132796Y-92733496D01*
X118134000Y-92758000D01*
X118134000Y-97758000D01*
X118132796Y-97782504D01*
X118129196Y-97806773D01*
X118123235Y-97830571D01*
X118114970Y-97853671D01*
X118104480Y-97875849D01*
X118091867Y-97896893D01*
X118077253Y-97916598D01*
X118060777Y-97934777D01*
X118042598Y-97951253D01*
X118022893Y-97965867D01*
X118001849Y-97978480D01*
X117979671Y-97988970D01*
X117956571Y-97997235D01*
X117932773Y-98003196D01*
X117908504Y-98006796D01*
X117884000Y-98008000D01*
X117384000Y-98008000D01*
X117359496Y-98006796D01*
X117335227Y-98003196D01*
X117311429Y-97997235D01*
X117288329Y-97988970D01*
X117266151Y-97978480D01*
X117245107Y-97965867D01*
X117225402Y-97951253D01*
X117207223Y-97934777D01*
X117190747Y-97916598D01*
X117176133Y-97896893D01*
X117163520Y-97875849D01*
X117153030Y-97853671D01*
X117144765Y-97830571D01*
X117138804Y-97806773D01*
X117135204Y-97782504D01*
X117134000Y-97758000D01*
X117134000Y-92758000D01*
X117135204Y-92733496D01*
X117138804Y-92709227D01*
X117144765Y-92685429D01*
X117153030Y-92662329D01*
X117163520Y-92640151D01*
X117176133Y-92619107D01*
X117190747Y-92599402D01*
X117207223Y-92581223D01*
X117225402Y-92564747D01*
X117245107Y-92550133D01*
X117266151Y-92537520D01*
X117288329Y-92527030D01*
X117311429Y-92518765D01*
X117335227Y-92512804D01*
X117359496Y-92509204D01*
X117384000Y-92508000D01*
X117884000Y-92508000D01*
X117908504Y-92509204D01*
G37*
G36*
X128416000Y-95118300D02*
G01*
X129116000Y-96118300D01*
X126916000Y-96118300D01*
X127616000Y-95118300D01*
X128416000Y-95118300D01*
G37*
D11*
X128016000Y-97028000D03*
D12*
X129516000Y-94214500D03*
D13*
X128016000Y-94361000D03*
D12*
X126516000Y-94214500D03*
D10*
G36*
X127516000Y-98786500D02*
G01*
X126916000Y-97936500D01*
X129116000Y-97936500D01*
X128516000Y-98786500D01*
X127516000Y-98786500D01*
G37*
G36*
X124900958Y-93916710D02*
G01*
X124915276Y-93918834D01*
X124929317Y-93922351D01*
X124942946Y-93927228D01*
X124956031Y-93933417D01*
X124968447Y-93940858D01*
X124980073Y-93949481D01*
X124990798Y-93959202D01*
X125000519Y-93969927D01*
X125009142Y-93981553D01*
X125016583Y-93993969D01*
X125022772Y-94007054D01*
X125027649Y-94020683D01*
X125031166Y-94034724D01*
X125033290Y-94049042D01*
X125034000Y-94063500D01*
X125034000Y-94358500D01*
X125033290Y-94372958D01*
X125031166Y-94387276D01*
X125027649Y-94401317D01*
X125022772Y-94414946D01*
X125016583Y-94428031D01*
X125009142Y-94440447D01*
X125000519Y-94452073D01*
X124990798Y-94462798D01*
X124980073Y-94472519D01*
X124968447Y-94481142D01*
X124956031Y-94488583D01*
X124942946Y-94494772D01*
X124929317Y-94499649D01*
X124915276Y-94503166D01*
X124900958Y-94505290D01*
X124886500Y-94506000D01*
X124541500Y-94506000D01*
X124527042Y-94505290D01*
X124512724Y-94503166D01*
X124498683Y-94499649D01*
X124485054Y-94494772D01*
X124471969Y-94488583D01*
X124459553Y-94481142D01*
X124447927Y-94472519D01*
X124437202Y-94462798D01*
X124427481Y-94452073D01*
X124418858Y-94440447D01*
X124411417Y-94428031D01*
X124405228Y-94414946D01*
X124400351Y-94401317D01*
X124396834Y-94387276D01*
X124394710Y-94372958D01*
X124394000Y-94358500D01*
X124394000Y-94063500D01*
X124394710Y-94049042D01*
X124396834Y-94034724D01*
X124400351Y-94020683D01*
X124405228Y-94007054D01*
X124411417Y-93993969D01*
X124418858Y-93981553D01*
X124427481Y-93969927D01*
X124437202Y-93959202D01*
X124447927Y-93949481D01*
X124459553Y-93940858D01*
X124471969Y-93933417D01*
X124485054Y-93927228D01*
X124498683Y-93922351D01*
X124512724Y-93918834D01*
X124527042Y-93916710D01*
X124541500Y-93916000D01*
X124886500Y-93916000D01*
X124900958Y-93916710D01*
G37*
G36*
X124900958Y-92946710D02*
G01*
X124915276Y-92948834D01*
X124929317Y-92952351D01*
X124942946Y-92957228D01*
X124956031Y-92963417D01*
X124968447Y-92970858D01*
X124980073Y-92979481D01*
X124990798Y-92989202D01*
X125000519Y-92999927D01*
X125009142Y-93011553D01*
X125016583Y-93023969D01*
X125022772Y-93037054D01*
X125027649Y-93050683D01*
X125031166Y-93064724D01*
X125033290Y-93079042D01*
X125034000Y-93093500D01*
X125034000Y-93388500D01*
X125033290Y-93402958D01*
X125031166Y-93417276D01*
X125027649Y-93431317D01*
X125022772Y-93444946D01*
X125016583Y-93458031D01*
X125009142Y-93470447D01*
X125000519Y-93482073D01*
X124990798Y-93492798D01*
X124980073Y-93502519D01*
X124968447Y-93511142D01*
X124956031Y-93518583D01*
X124942946Y-93524772D01*
X124929317Y-93529649D01*
X124915276Y-93533166D01*
X124900958Y-93535290D01*
X124886500Y-93536000D01*
X124541500Y-93536000D01*
X124527042Y-93535290D01*
X124512724Y-93533166D01*
X124498683Y-93529649D01*
X124485054Y-93524772D01*
X124471969Y-93518583D01*
X124459553Y-93511142D01*
X124447927Y-93502519D01*
X124437202Y-93492798D01*
X124427481Y-93482073D01*
X124418858Y-93470447D01*
X124411417Y-93458031D01*
X124405228Y-93444946D01*
X124400351Y-93431317D01*
X124396834Y-93417276D01*
X124394710Y-93402958D01*
X124394000Y-93388500D01*
X124394000Y-93093500D01*
X124394710Y-93079042D01*
X124396834Y-93064724D01*
X124400351Y-93050683D01*
X124405228Y-93037054D01*
X124411417Y-93023969D01*
X124418858Y-93011553D01*
X124427481Y-92999927D01*
X124437202Y-92989202D01*
X124447927Y-92979481D01*
X124459553Y-92970858D01*
X124471969Y-92963417D01*
X124485054Y-92957228D01*
X124498683Y-92952351D01*
X124512724Y-92948834D01*
X124527042Y-92946710D01*
X124541500Y-92946000D01*
X124886500Y-92946000D01*
X124900958Y-92946710D01*
G37*
G36*
X131250958Y-94424710D02*
G01*
X131265276Y-94426834D01*
X131279317Y-94430351D01*
X131292946Y-94435228D01*
X131306031Y-94441417D01*
X131318447Y-94448858D01*
X131330073Y-94457481D01*
X131340798Y-94467202D01*
X131350519Y-94477927D01*
X131359142Y-94489553D01*
X131366583Y-94501969D01*
X131372772Y-94515054D01*
X131377649Y-94528683D01*
X131381166Y-94542724D01*
X131383290Y-94557042D01*
X131384000Y-94571500D01*
X131384000Y-94866500D01*
X131383290Y-94880958D01*
X131381166Y-94895276D01*
X131377649Y-94909317D01*
X131372772Y-94922946D01*
X131366583Y-94936031D01*
X131359142Y-94948447D01*
X131350519Y-94960073D01*
X131340798Y-94970798D01*
X131330073Y-94980519D01*
X131318447Y-94989142D01*
X131306031Y-94996583D01*
X131292946Y-95002772D01*
X131279317Y-95007649D01*
X131265276Y-95011166D01*
X131250958Y-95013290D01*
X131236500Y-95014000D01*
X130891500Y-95014000D01*
X130877042Y-95013290D01*
X130862724Y-95011166D01*
X130848683Y-95007649D01*
X130835054Y-95002772D01*
X130821969Y-94996583D01*
X130809553Y-94989142D01*
X130797927Y-94980519D01*
X130787202Y-94970798D01*
X130777481Y-94960073D01*
X130768858Y-94948447D01*
X130761417Y-94936031D01*
X130755228Y-94922946D01*
X130750351Y-94909317D01*
X130746834Y-94895276D01*
X130744710Y-94880958D01*
X130744000Y-94866500D01*
X130744000Y-94571500D01*
X130744710Y-94557042D01*
X130746834Y-94542724D01*
X130750351Y-94528683D01*
X130755228Y-94515054D01*
X130761417Y-94501969D01*
X130768858Y-94489553D01*
X130777481Y-94477927D01*
X130787202Y-94467202D01*
X130797927Y-94457481D01*
X130809553Y-94448858D01*
X130821969Y-94441417D01*
X130835054Y-94435228D01*
X130848683Y-94430351D01*
X130862724Y-94426834D01*
X130877042Y-94424710D01*
X130891500Y-94424000D01*
X131236500Y-94424000D01*
X131250958Y-94424710D01*
G37*
G36*
X131250958Y-93454710D02*
G01*
X131265276Y-93456834D01*
X131279317Y-93460351D01*
X131292946Y-93465228D01*
X131306031Y-93471417D01*
X131318447Y-93478858D01*
X131330073Y-93487481D01*
X131340798Y-93497202D01*
X131350519Y-93507927D01*
X131359142Y-93519553D01*
X131366583Y-93531969D01*
X131372772Y-93545054D01*
X131377649Y-93558683D01*
X131381166Y-93572724D01*
X131383290Y-93587042D01*
X131384000Y-93601500D01*
X131384000Y-93896500D01*
X131383290Y-93910958D01*
X131381166Y-93925276D01*
X131377649Y-93939317D01*
X131372772Y-93952946D01*
X131366583Y-93966031D01*
X131359142Y-93978447D01*
X131350519Y-93990073D01*
X131340798Y-94000798D01*
X131330073Y-94010519D01*
X131318447Y-94019142D01*
X131306031Y-94026583D01*
X131292946Y-94032772D01*
X131279317Y-94037649D01*
X131265276Y-94041166D01*
X131250958Y-94043290D01*
X131236500Y-94044000D01*
X130891500Y-94044000D01*
X130877042Y-94043290D01*
X130862724Y-94041166D01*
X130848683Y-94037649D01*
X130835054Y-94032772D01*
X130821969Y-94026583D01*
X130809553Y-94019142D01*
X130797927Y-94010519D01*
X130787202Y-94000798D01*
X130777481Y-93990073D01*
X130768858Y-93978447D01*
X130761417Y-93966031D01*
X130755228Y-93952946D01*
X130750351Y-93939317D01*
X130746834Y-93925276D01*
X130744710Y-93910958D01*
X130744000Y-93896500D01*
X130744000Y-93601500D01*
X130744710Y-93587042D01*
X130746834Y-93572724D01*
X130750351Y-93558683D01*
X130755228Y-93545054D01*
X130761417Y-93531969D01*
X130768858Y-93519553D01*
X130777481Y-93507927D01*
X130787202Y-93497202D01*
X130797927Y-93487481D01*
X130809553Y-93478858D01*
X130821969Y-93471417D01*
X130835054Y-93465228D01*
X130848683Y-93460351D01*
X130862724Y-93456834D01*
X130877042Y-93454710D01*
X130891500Y-93454000D01*
X131236500Y-93454000D01*
X131250958Y-93454710D01*
G37*
G36*
X144156958Y-84008710D02*
G01*
X144171276Y-84010834D01*
X144185317Y-84014351D01*
X144198946Y-84019228D01*
X144212031Y-84025417D01*
X144224447Y-84032858D01*
X144236073Y-84041481D01*
X144246798Y-84051202D01*
X144256519Y-84061927D01*
X144265142Y-84073553D01*
X144272583Y-84085969D01*
X144278772Y-84099054D01*
X144283649Y-84112683D01*
X144287166Y-84126724D01*
X144289290Y-84141042D01*
X144290000Y-84155500D01*
X144290000Y-84500500D01*
X144289290Y-84514958D01*
X144287166Y-84529276D01*
X144283649Y-84543317D01*
X144278772Y-84556946D01*
X144272583Y-84570031D01*
X144265142Y-84582447D01*
X144256519Y-84594073D01*
X144246798Y-84604798D01*
X144236073Y-84614519D01*
X144224447Y-84623142D01*
X144212031Y-84630583D01*
X144198946Y-84636772D01*
X144185317Y-84641649D01*
X144171276Y-84645166D01*
X144156958Y-84647290D01*
X144142500Y-84648000D01*
X143847500Y-84648000D01*
X143833042Y-84647290D01*
X143818724Y-84645166D01*
X143804683Y-84641649D01*
X143791054Y-84636772D01*
X143777969Y-84630583D01*
X143765553Y-84623142D01*
X143753927Y-84614519D01*
X143743202Y-84604798D01*
X143733481Y-84594073D01*
X143724858Y-84582447D01*
X143717417Y-84570031D01*
X143711228Y-84556946D01*
X143706351Y-84543317D01*
X143702834Y-84529276D01*
X143700710Y-84514958D01*
X143700000Y-84500500D01*
X143700000Y-84155500D01*
X143700710Y-84141042D01*
X143702834Y-84126724D01*
X143706351Y-84112683D01*
X143711228Y-84099054D01*
X143717417Y-84085969D01*
X143724858Y-84073553D01*
X143733481Y-84061927D01*
X143743202Y-84051202D01*
X143753927Y-84041481D01*
X143765553Y-84032858D01*
X143777969Y-84025417D01*
X143791054Y-84019228D01*
X143804683Y-84014351D01*
X143818724Y-84010834D01*
X143833042Y-84008710D01*
X143847500Y-84008000D01*
X144142500Y-84008000D01*
X144156958Y-84008710D01*
G37*
G36*
X143186958Y-84008710D02*
G01*
X143201276Y-84010834D01*
X143215317Y-84014351D01*
X143228946Y-84019228D01*
X143242031Y-84025417D01*
X143254447Y-84032858D01*
X143266073Y-84041481D01*
X143276798Y-84051202D01*
X143286519Y-84061927D01*
X143295142Y-84073553D01*
X143302583Y-84085969D01*
X143308772Y-84099054D01*
X143313649Y-84112683D01*
X143317166Y-84126724D01*
X143319290Y-84141042D01*
X143320000Y-84155500D01*
X143320000Y-84500500D01*
X143319290Y-84514958D01*
X143317166Y-84529276D01*
X143313649Y-84543317D01*
X143308772Y-84556946D01*
X143302583Y-84570031D01*
X143295142Y-84582447D01*
X143286519Y-84594073D01*
X143276798Y-84604798D01*
X143266073Y-84614519D01*
X143254447Y-84623142D01*
X143242031Y-84630583D01*
X143228946Y-84636772D01*
X143215317Y-84641649D01*
X143201276Y-84645166D01*
X143186958Y-84647290D01*
X143172500Y-84648000D01*
X142877500Y-84648000D01*
X142863042Y-84647290D01*
X142848724Y-84645166D01*
X142834683Y-84641649D01*
X142821054Y-84636772D01*
X142807969Y-84630583D01*
X142795553Y-84623142D01*
X142783927Y-84614519D01*
X142773202Y-84604798D01*
X142763481Y-84594073D01*
X142754858Y-84582447D01*
X142747417Y-84570031D01*
X142741228Y-84556946D01*
X142736351Y-84543317D01*
X142732834Y-84529276D01*
X142730710Y-84514958D01*
X142730000Y-84500500D01*
X142730000Y-84155500D01*
X142730710Y-84141042D01*
X142732834Y-84126724D01*
X142736351Y-84112683D01*
X142741228Y-84099054D01*
X142747417Y-84085969D01*
X142754858Y-84073553D01*
X142763481Y-84061927D01*
X142773202Y-84051202D01*
X142783927Y-84041481D01*
X142795553Y-84032858D01*
X142807969Y-84025417D01*
X142821054Y-84019228D01*
X142834683Y-84014351D01*
X142848724Y-84010834D01*
X142863042Y-84008710D01*
X142877500Y-84008000D01*
X143172500Y-84008000D01*
X143186958Y-84008710D01*
G37*
G36*
X113953958Y-75880710D02*
G01*
X113968276Y-75882834D01*
X113982317Y-75886351D01*
X113995946Y-75891228D01*
X114009031Y-75897417D01*
X114021447Y-75904858D01*
X114033073Y-75913481D01*
X114043798Y-75923202D01*
X114053519Y-75933927D01*
X114062142Y-75945553D01*
X114069583Y-75957969D01*
X114075772Y-75971054D01*
X114080649Y-75984683D01*
X114084166Y-75998724D01*
X114086290Y-76013042D01*
X114087000Y-76027500D01*
X114087000Y-76372500D01*
X114086290Y-76386958D01*
X114084166Y-76401276D01*
X114080649Y-76415317D01*
X114075772Y-76428946D01*
X114069583Y-76442031D01*
X114062142Y-76454447D01*
X114053519Y-76466073D01*
X114043798Y-76476798D01*
X114033073Y-76486519D01*
X114021447Y-76495142D01*
X114009031Y-76502583D01*
X113995946Y-76508772D01*
X113982317Y-76513649D01*
X113968276Y-76517166D01*
X113953958Y-76519290D01*
X113939500Y-76520000D01*
X113644500Y-76520000D01*
X113630042Y-76519290D01*
X113615724Y-76517166D01*
X113601683Y-76513649D01*
X113588054Y-76508772D01*
X113574969Y-76502583D01*
X113562553Y-76495142D01*
X113550927Y-76486519D01*
X113540202Y-76476798D01*
X113530481Y-76466073D01*
X113521858Y-76454447D01*
X113514417Y-76442031D01*
X113508228Y-76428946D01*
X113503351Y-76415317D01*
X113499834Y-76401276D01*
X113497710Y-76386958D01*
X113497000Y-76372500D01*
X113497000Y-76027500D01*
X113497710Y-76013042D01*
X113499834Y-75998724D01*
X113503351Y-75984683D01*
X113508228Y-75971054D01*
X113514417Y-75957969D01*
X113521858Y-75945553D01*
X113530481Y-75933927D01*
X113540202Y-75923202D01*
X113550927Y-75913481D01*
X113562553Y-75904858D01*
X113574969Y-75897417D01*
X113588054Y-75891228D01*
X113601683Y-75886351D01*
X113615724Y-75882834D01*
X113630042Y-75880710D01*
X113644500Y-75880000D01*
X113939500Y-75880000D01*
X113953958Y-75880710D01*
G37*
G36*
X114923958Y-75880710D02*
G01*
X114938276Y-75882834D01*
X114952317Y-75886351D01*
X114965946Y-75891228D01*
X114979031Y-75897417D01*
X114991447Y-75904858D01*
X115003073Y-75913481D01*
X115013798Y-75923202D01*
X115023519Y-75933927D01*
X115032142Y-75945553D01*
X115039583Y-75957969D01*
X115045772Y-75971054D01*
X115050649Y-75984683D01*
X115054166Y-75998724D01*
X115056290Y-76013042D01*
X115057000Y-76027500D01*
X115057000Y-76372500D01*
X115056290Y-76386958D01*
X115054166Y-76401276D01*
X115050649Y-76415317D01*
X115045772Y-76428946D01*
X115039583Y-76442031D01*
X115032142Y-76454447D01*
X115023519Y-76466073D01*
X115013798Y-76476798D01*
X115003073Y-76486519D01*
X114991447Y-76495142D01*
X114979031Y-76502583D01*
X114965946Y-76508772D01*
X114952317Y-76513649D01*
X114938276Y-76517166D01*
X114923958Y-76519290D01*
X114909500Y-76520000D01*
X114614500Y-76520000D01*
X114600042Y-76519290D01*
X114585724Y-76517166D01*
X114571683Y-76513649D01*
X114558054Y-76508772D01*
X114544969Y-76502583D01*
X114532553Y-76495142D01*
X114520927Y-76486519D01*
X114510202Y-76476798D01*
X114500481Y-76466073D01*
X114491858Y-76454447D01*
X114484417Y-76442031D01*
X114478228Y-76428946D01*
X114473351Y-76415317D01*
X114469834Y-76401276D01*
X114467710Y-76386958D01*
X114467000Y-76372500D01*
X114467000Y-76027500D01*
X114467710Y-76013042D01*
X114469834Y-75998724D01*
X114473351Y-75984683D01*
X114478228Y-75971054D01*
X114484417Y-75957969D01*
X114491858Y-75945553D01*
X114500481Y-75933927D01*
X114510202Y-75923202D01*
X114520927Y-75913481D01*
X114532553Y-75904858D01*
X114544969Y-75897417D01*
X114558054Y-75891228D01*
X114571683Y-75886351D01*
X114585724Y-75882834D01*
X114600042Y-75880710D01*
X114614500Y-75880000D01*
X114909500Y-75880000D01*
X114923958Y-75880710D01*
G37*
G36*
X113976958Y-73920710D02*
G01*
X113991276Y-73922834D01*
X114005317Y-73926351D01*
X114018946Y-73931228D01*
X114032031Y-73937417D01*
X114044447Y-73944858D01*
X114056073Y-73953481D01*
X114066798Y-73963202D01*
X114076519Y-73973927D01*
X114085142Y-73985553D01*
X114092583Y-73997969D01*
X114098772Y-74011054D01*
X114103649Y-74024683D01*
X114107166Y-74038724D01*
X114109290Y-74053042D01*
X114110000Y-74067500D01*
X114110000Y-74412500D01*
X114109290Y-74426958D01*
X114107166Y-74441276D01*
X114103649Y-74455317D01*
X114098772Y-74468946D01*
X114092583Y-74482031D01*
X114085142Y-74494447D01*
X114076519Y-74506073D01*
X114066798Y-74516798D01*
X114056073Y-74526519D01*
X114044447Y-74535142D01*
X114032031Y-74542583D01*
X114018946Y-74548772D01*
X114005317Y-74553649D01*
X113991276Y-74557166D01*
X113976958Y-74559290D01*
X113962500Y-74560000D01*
X113667500Y-74560000D01*
X113653042Y-74559290D01*
X113638724Y-74557166D01*
X113624683Y-74553649D01*
X113611054Y-74548772D01*
X113597969Y-74542583D01*
X113585553Y-74535142D01*
X113573927Y-74526519D01*
X113563202Y-74516798D01*
X113553481Y-74506073D01*
X113544858Y-74494447D01*
X113537417Y-74482031D01*
X113531228Y-74468946D01*
X113526351Y-74455317D01*
X113522834Y-74441276D01*
X113520710Y-74426958D01*
X113520000Y-74412500D01*
X113520000Y-74067500D01*
X113520710Y-74053042D01*
X113522834Y-74038724D01*
X113526351Y-74024683D01*
X113531228Y-74011054D01*
X113537417Y-73997969D01*
X113544858Y-73985553D01*
X113553481Y-73973927D01*
X113563202Y-73963202D01*
X113573927Y-73953481D01*
X113585553Y-73944858D01*
X113597969Y-73937417D01*
X113611054Y-73931228D01*
X113624683Y-73926351D01*
X113638724Y-73922834D01*
X113653042Y-73920710D01*
X113667500Y-73920000D01*
X113962500Y-73920000D01*
X113976958Y-73920710D01*
G37*
G36*
X114946958Y-73920710D02*
G01*
X114961276Y-73922834D01*
X114975317Y-73926351D01*
X114988946Y-73931228D01*
X115002031Y-73937417D01*
X115014447Y-73944858D01*
X115026073Y-73953481D01*
X115036798Y-73963202D01*
X115046519Y-73973927D01*
X115055142Y-73985553D01*
X115062583Y-73997969D01*
X115068772Y-74011054D01*
X115073649Y-74024683D01*
X115077166Y-74038724D01*
X115079290Y-74053042D01*
X115080000Y-74067500D01*
X115080000Y-74412500D01*
X115079290Y-74426958D01*
X115077166Y-74441276D01*
X115073649Y-74455317D01*
X115068772Y-74468946D01*
X115062583Y-74482031D01*
X115055142Y-74494447D01*
X115046519Y-74506073D01*
X115036798Y-74516798D01*
X115026073Y-74526519D01*
X115014447Y-74535142D01*
X115002031Y-74542583D01*
X114988946Y-74548772D01*
X114975317Y-74553649D01*
X114961276Y-74557166D01*
X114946958Y-74559290D01*
X114932500Y-74560000D01*
X114637500Y-74560000D01*
X114623042Y-74559290D01*
X114608724Y-74557166D01*
X114594683Y-74553649D01*
X114581054Y-74548772D01*
X114567969Y-74542583D01*
X114555553Y-74535142D01*
X114543927Y-74526519D01*
X114533202Y-74516798D01*
X114523481Y-74506073D01*
X114514858Y-74494447D01*
X114507417Y-74482031D01*
X114501228Y-74468946D01*
X114496351Y-74455317D01*
X114492834Y-74441276D01*
X114490710Y-74426958D01*
X114490000Y-74412500D01*
X114490000Y-74067500D01*
X114490710Y-74053042D01*
X114492834Y-74038724D01*
X114496351Y-74024683D01*
X114501228Y-74011054D01*
X114507417Y-73997969D01*
X114514858Y-73985553D01*
X114523481Y-73973927D01*
X114533202Y-73963202D01*
X114543927Y-73953481D01*
X114555553Y-73944858D01*
X114567969Y-73937417D01*
X114581054Y-73931228D01*
X114594683Y-73926351D01*
X114608724Y-73922834D01*
X114623042Y-73920710D01*
X114637500Y-73920000D01*
X114932500Y-73920000D01*
X114946958Y-73920710D01*
G37*
G36*
X118042958Y-55354710D02*
G01*
X118057276Y-55356834D01*
X118071317Y-55360351D01*
X118084946Y-55365228D01*
X118098031Y-55371417D01*
X118110447Y-55378858D01*
X118122073Y-55387481D01*
X118132798Y-55397202D01*
X118142519Y-55407927D01*
X118151142Y-55419553D01*
X118158583Y-55431969D01*
X118164772Y-55445054D01*
X118169649Y-55458683D01*
X118173166Y-55472724D01*
X118175290Y-55487042D01*
X118176000Y-55501500D01*
X118176000Y-55796500D01*
X118175290Y-55810958D01*
X118173166Y-55825276D01*
X118169649Y-55839317D01*
X118164772Y-55852946D01*
X118158583Y-55866031D01*
X118151142Y-55878447D01*
X118142519Y-55890073D01*
X118132798Y-55900798D01*
X118122073Y-55910519D01*
X118110447Y-55919142D01*
X118098031Y-55926583D01*
X118084946Y-55932772D01*
X118071317Y-55937649D01*
X118057276Y-55941166D01*
X118042958Y-55943290D01*
X118028500Y-55944000D01*
X117683500Y-55944000D01*
X117669042Y-55943290D01*
X117654724Y-55941166D01*
X117640683Y-55937649D01*
X117627054Y-55932772D01*
X117613969Y-55926583D01*
X117601553Y-55919142D01*
X117589927Y-55910519D01*
X117579202Y-55900798D01*
X117569481Y-55890073D01*
X117560858Y-55878447D01*
X117553417Y-55866031D01*
X117547228Y-55852946D01*
X117542351Y-55839317D01*
X117538834Y-55825276D01*
X117536710Y-55810958D01*
X117536000Y-55796500D01*
X117536000Y-55501500D01*
X117536710Y-55487042D01*
X117538834Y-55472724D01*
X117542351Y-55458683D01*
X117547228Y-55445054D01*
X117553417Y-55431969D01*
X117560858Y-55419553D01*
X117569481Y-55407927D01*
X117579202Y-55397202D01*
X117589927Y-55387481D01*
X117601553Y-55378858D01*
X117613969Y-55371417D01*
X117627054Y-55365228D01*
X117640683Y-55360351D01*
X117654724Y-55356834D01*
X117669042Y-55354710D01*
X117683500Y-55354000D01*
X118028500Y-55354000D01*
X118042958Y-55354710D01*
G37*
G36*
X118042958Y-56324710D02*
G01*
X118057276Y-56326834D01*
X118071317Y-56330351D01*
X118084946Y-56335228D01*
X118098031Y-56341417D01*
X118110447Y-56348858D01*
X118122073Y-56357481D01*
X118132798Y-56367202D01*
X118142519Y-56377927D01*
X118151142Y-56389553D01*
X118158583Y-56401969D01*
X118164772Y-56415054D01*
X118169649Y-56428683D01*
X118173166Y-56442724D01*
X118175290Y-56457042D01*
X118176000Y-56471500D01*
X118176000Y-56766500D01*
X118175290Y-56780958D01*
X118173166Y-56795276D01*
X118169649Y-56809317D01*
X118164772Y-56822946D01*
X118158583Y-56836031D01*
X118151142Y-56848447D01*
X118142519Y-56860073D01*
X118132798Y-56870798D01*
X118122073Y-56880519D01*
X118110447Y-56889142D01*
X118098031Y-56896583D01*
X118084946Y-56902772D01*
X118071317Y-56907649D01*
X118057276Y-56911166D01*
X118042958Y-56913290D01*
X118028500Y-56914000D01*
X117683500Y-56914000D01*
X117669042Y-56913290D01*
X117654724Y-56911166D01*
X117640683Y-56907649D01*
X117627054Y-56902772D01*
X117613969Y-56896583D01*
X117601553Y-56889142D01*
X117589927Y-56880519D01*
X117579202Y-56870798D01*
X117569481Y-56860073D01*
X117560858Y-56848447D01*
X117553417Y-56836031D01*
X117547228Y-56822946D01*
X117542351Y-56809317D01*
X117538834Y-56795276D01*
X117536710Y-56780958D01*
X117536000Y-56766500D01*
X117536000Y-56471500D01*
X117536710Y-56457042D01*
X117538834Y-56442724D01*
X117542351Y-56428683D01*
X117547228Y-56415054D01*
X117553417Y-56401969D01*
X117560858Y-56389553D01*
X117569481Y-56377927D01*
X117579202Y-56367202D01*
X117589927Y-56357481D01*
X117601553Y-56348858D01*
X117613969Y-56341417D01*
X117627054Y-56335228D01*
X117640683Y-56330351D01*
X117654724Y-56326834D01*
X117669042Y-56324710D01*
X117683500Y-56324000D01*
X118028500Y-56324000D01*
X118042958Y-56324710D01*
G37*
G36*
X120074958Y-55354710D02*
G01*
X120089276Y-55356834D01*
X120103317Y-55360351D01*
X120116946Y-55365228D01*
X120130031Y-55371417D01*
X120142447Y-55378858D01*
X120154073Y-55387481D01*
X120164798Y-55397202D01*
X120174519Y-55407927D01*
X120183142Y-55419553D01*
X120190583Y-55431969D01*
X120196772Y-55445054D01*
X120201649Y-55458683D01*
X120205166Y-55472724D01*
X120207290Y-55487042D01*
X120208000Y-55501500D01*
X120208000Y-55796500D01*
X120207290Y-55810958D01*
X120205166Y-55825276D01*
X120201649Y-55839317D01*
X120196772Y-55852946D01*
X120190583Y-55866031D01*
X120183142Y-55878447D01*
X120174519Y-55890073D01*
X120164798Y-55900798D01*
X120154073Y-55910519D01*
X120142447Y-55919142D01*
X120130031Y-55926583D01*
X120116946Y-55932772D01*
X120103317Y-55937649D01*
X120089276Y-55941166D01*
X120074958Y-55943290D01*
X120060500Y-55944000D01*
X119715500Y-55944000D01*
X119701042Y-55943290D01*
X119686724Y-55941166D01*
X119672683Y-55937649D01*
X119659054Y-55932772D01*
X119645969Y-55926583D01*
X119633553Y-55919142D01*
X119621927Y-55910519D01*
X119611202Y-55900798D01*
X119601481Y-55890073D01*
X119592858Y-55878447D01*
X119585417Y-55866031D01*
X119579228Y-55852946D01*
X119574351Y-55839317D01*
X119570834Y-55825276D01*
X119568710Y-55810958D01*
X119568000Y-55796500D01*
X119568000Y-55501500D01*
X119568710Y-55487042D01*
X119570834Y-55472724D01*
X119574351Y-55458683D01*
X119579228Y-55445054D01*
X119585417Y-55431969D01*
X119592858Y-55419553D01*
X119601481Y-55407927D01*
X119611202Y-55397202D01*
X119621927Y-55387481D01*
X119633553Y-55378858D01*
X119645969Y-55371417D01*
X119659054Y-55365228D01*
X119672683Y-55360351D01*
X119686724Y-55356834D01*
X119701042Y-55354710D01*
X119715500Y-55354000D01*
X120060500Y-55354000D01*
X120074958Y-55354710D01*
G37*
G36*
X120074958Y-56324710D02*
G01*
X120089276Y-56326834D01*
X120103317Y-56330351D01*
X120116946Y-56335228D01*
X120130031Y-56341417D01*
X120142447Y-56348858D01*
X120154073Y-56357481D01*
X120164798Y-56367202D01*
X120174519Y-56377927D01*
X120183142Y-56389553D01*
X120190583Y-56401969D01*
X120196772Y-56415054D01*
X120201649Y-56428683D01*
X120205166Y-56442724D01*
X120207290Y-56457042D01*
X120208000Y-56471500D01*
X120208000Y-56766500D01*
X120207290Y-56780958D01*
X120205166Y-56795276D01*
X120201649Y-56809317D01*
X120196772Y-56822946D01*
X120190583Y-56836031D01*
X120183142Y-56848447D01*
X120174519Y-56860073D01*
X120164798Y-56870798D01*
X120154073Y-56880519D01*
X120142447Y-56889142D01*
X120130031Y-56896583D01*
X120116946Y-56902772D01*
X120103317Y-56907649D01*
X120089276Y-56911166D01*
X120074958Y-56913290D01*
X120060500Y-56914000D01*
X119715500Y-56914000D01*
X119701042Y-56913290D01*
X119686724Y-56911166D01*
X119672683Y-56907649D01*
X119659054Y-56902772D01*
X119645969Y-56896583D01*
X119633553Y-56889142D01*
X119621927Y-56880519D01*
X119611202Y-56870798D01*
X119601481Y-56860073D01*
X119592858Y-56848447D01*
X119585417Y-56836031D01*
X119579228Y-56822946D01*
X119574351Y-56809317D01*
X119570834Y-56795276D01*
X119568710Y-56780958D01*
X119568000Y-56766500D01*
X119568000Y-56471500D01*
X119568710Y-56457042D01*
X119570834Y-56442724D01*
X119574351Y-56428683D01*
X119579228Y-56415054D01*
X119585417Y-56401969D01*
X119592858Y-56389553D01*
X119601481Y-56377927D01*
X119611202Y-56367202D01*
X119621927Y-56357481D01*
X119633553Y-56348858D01*
X119645969Y-56341417D01*
X119659054Y-56335228D01*
X119672683Y-56330351D01*
X119686724Y-56326834D01*
X119701042Y-56324710D01*
X119715500Y-56324000D01*
X120060500Y-56324000D01*
X120074958Y-56324710D01*
G37*
G36*
X116978958Y-75880710D02*
G01*
X116993276Y-75882834D01*
X117007317Y-75886351D01*
X117020946Y-75891228D01*
X117034031Y-75897417D01*
X117046447Y-75904858D01*
X117058073Y-75913481D01*
X117068798Y-75923202D01*
X117078519Y-75933927D01*
X117087142Y-75945553D01*
X117094583Y-75957969D01*
X117100772Y-75971054D01*
X117105649Y-75984683D01*
X117109166Y-75998724D01*
X117111290Y-76013042D01*
X117112000Y-76027500D01*
X117112000Y-76372500D01*
X117111290Y-76386958D01*
X117109166Y-76401276D01*
X117105649Y-76415317D01*
X117100772Y-76428946D01*
X117094583Y-76442031D01*
X117087142Y-76454447D01*
X117078519Y-76466073D01*
X117068798Y-76476798D01*
X117058073Y-76486519D01*
X117046447Y-76495142D01*
X117034031Y-76502583D01*
X117020946Y-76508772D01*
X117007317Y-76513649D01*
X116993276Y-76517166D01*
X116978958Y-76519290D01*
X116964500Y-76520000D01*
X116669500Y-76520000D01*
X116655042Y-76519290D01*
X116640724Y-76517166D01*
X116626683Y-76513649D01*
X116613054Y-76508772D01*
X116599969Y-76502583D01*
X116587553Y-76495142D01*
X116575927Y-76486519D01*
X116565202Y-76476798D01*
X116555481Y-76466073D01*
X116546858Y-76454447D01*
X116539417Y-76442031D01*
X116533228Y-76428946D01*
X116528351Y-76415317D01*
X116524834Y-76401276D01*
X116522710Y-76386958D01*
X116522000Y-76372500D01*
X116522000Y-76027500D01*
X116522710Y-76013042D01*
X116524834Y-75998724D01*
X116528351Y-75984683D01*
X116533228Y-75971054D01*
X116539417Y-75957969D01*
X116546858Y-75945553D01*
X116555481Y-75933927D01*
X116565202Y-75923202D01*
X116575927Y-75913481D01*
X116587553Y-75904858D01*
X116599969Y-75897417D01*
X116613054Y-75891228D01*
X116626683Y-75886351D01*
X116640724Y-75882834D01*
X116655042Y-75880710D01*
X116669500Y-75880000D01*
X116964500Y-75880000D01*
X116978958Y-75880710D01*
G37*
G36*
X116008958Y-75880710D02*
G01*
X116023276Y-75882834D01*
X116037317Y-75886351D01*
X116050946Y-75891228D01*
X116064031Y-75897417D01*
X116076447Y-75904858D01*
X116088073Y-75913481D01*
X116098798Y-75923202D01*
X116108519Y-75933927D01*
X116117142Y-75945553D01*
X116124583Y-75957969D01*
X116130772Y-75971054D01*
X116135649Y-75984683D01*
X116139166Y-75998724D01*
X116141290Y-76013042D01*
X116142000Y-76027500D01*
X116142000Y-76372500D01*
X116141290Y-76386958D01*
X116139166Y-76401276D01*
X116135649Y-76415317D01*
X116130772Y-76428946D01*
X116124583Y-76442031D01*
X116117142Y-76454447D01*
X116108519Y-76466073D01*
X116098798Y-76476798D01*
X116088073Y-76486519D01*
X116076447Y-76495142D01*
X116064031Y-76502583D01*
X116050946Y-76508772D01*
X116037317Y-76513649D01*
X116023276Y-76517166D01*
X116008958Y-76519290D01*
X115994500Y-76520000D01*
X115699500Y-76520000D01*
X115685042Y-76519290D01*
X115670724Y-76517166D01*
X115656683Y-76513649D01*
X115643054Y-76508772D01*
X115629969Y-76502583D01*
X115617553Y-76495142D01*
X115605927Y-76486519D01*
X115595202Y-76476798D01*
X115585481Y-76466073D01*
X115576858Y-76454447D01*
X115569417Y-76442031D01*
X115563228Y-76428946D01*
X115558351Y-76415317D01*
X115554834Y-76401276D01*
X115552710Y-76386958D01*
X115552000Y-76372500D01*
X115552000Y-76027500D01*
X115552710Y-76013042D01*
X115554834Y-75998724D01*
X115558351Y-75984683D01*
X115563228Y-75971054D01*
X115569417Y-75957969D01*
X115576858Y-75945553D01*
X115585481Y-75933927D01*
X115595202Y-75923202D01*
X115605927Y-75913481D01*
X115617553Y-75904858D01*
X115629969Y-75897417D01*
X115643054Y-75891228D01*
X115656683Y-75886351D01*
X115670724Y-75882834D01*
X115685042Y-75880710D01*
X115699500Y-75880000D01*
X115994500Y-75880000D01*
X116008958Y-75880710D01*
G37*
G36*
X118042958Y-58356710D02*
G01*
X118057276Y-58358834D01*
X118071317Y-58362351D01*
X118084946Y-58367228D01*
X118098031Y-58373417D01*
X118110447Y-58380858D01*
X118122073Y-58389481D01*
X118132798Y-58399202D01*
X118142519Y-58409927D01*
X118151142Y-58421553D01*
X118158583Y-58433969D01*
X118164772Y-58447054D01*
X118169649Y-58460683D01*
X118173166Y-58474724D01*
X118175290Y-58489042D01*
X118176000Y-58503500D01*
X118176000Y-58798500D01*
X118175290Y-58812958D01*
X118173166Y-58827276D01*
X118169649Y-58841317D01*
X118164772Y-58854946D01*
X118158583Y-58868031D01*
X118151142Y-58880447D01*
X118142519Y-58892073D01*
X118132798Y-58902798D01*
X118122073Y-58912519D01*
X118110447Y-58921142D01*
X118098031Y-58928583D01*
X118084946Y-58934772D01*
X118071317Y-58939649D01*
X118057276Y-58943166D01*
X118042958Y-58945290D01*
X118028500Y-58946000D01*
X117683500Y-58946000D01*
X117669042Y-58945290D01*
X117654724Y-58943166D01*
X117640683Y-58939649D01*
X117627054Y-58934772D01*
X117613969Y-58928583D01*
X117601553Y-58921142D01*
X117589927Y-58912519D01*
X117579202Y-58902798D01*
X117569481Y-58892073D01*
X117560858Y-58880447D01*
X117553417Y-58868031D01*
X117547228Y-58854946D01*
X117542351Y-58841317D01*
X117538834Y-58827276D01*
X117536710Y-58812958D01*
X117536000Y-58798500D01*
X117536000Y-58503500D01*
X117536710Y-58489042D01*
X117538834Y-58474724D01*
X117542351Y-58460683D01*
X117547228Y-58447054D01*
X117553417Y-58433969D01*
X117560858Y-58421553D01*
X117569481Y-58409927D01*
X117579202Y-58399202D01*
X117589927Y-58389481D01*
X117601553Y-58380858D01*
X117613969Y-58373417D01*
X117627054Y-58367228D01*
X117640683Y-58362351D01*
X117654724Y-58358834D01*
X117669042Y-58356710D01*
X117683500Y-58356000D01*
X118028500Y-58356000D01*
X118042958Y-58356710D01*
G37*
G36*
X118042958Y-57386710D02*
G01*
X118057276Y-57388834D01*
X118071317Y-57392351D01*
X118084946Y-57397228D01*
X118098031Y-57403417D01*
X118110447Y-57410858D01*
X118122073Y-57419481D01*
X118132798Y-57429202D01*
X118142519Y-57439927D01*
X118151142Y-57451553D01*
X118158583Y-57463969D01*
X118164772Y-57477054D01*
X118169649Y-57490683D01*
X118173166Y-57504724D01*
X118175290Y-57519042D01*
X118176000Y-57533500D01*
X118176000Y-57828500D01*
X118175290Y-57842958D01*
X118173166Y-57857276D01*
X118169649Y-57871317D01*
X118164772Y-57884946D01*
X118158583Y-57898031D01*
X118151142Y-57910447D01*
X118142519Y-57922073D01*
X118132798Y-57932798D01*
X118122073Y-57942519D01*
X118110447Y-57951142D01*
X118098031Y-57958583D01*
X118084946Y-57964772D01*
X118071317Y-57969649D01*
X118057276Y-57973166D01*
X118042958Y-57975290D01*
X118028500Y-57976000D01*
X117683500Y-57976000D01*
X117669042Y-57975290D01*
X117654724Y-57973166D01*
X117640683Y-57969649D01*
X117627054Y-57964772D01*
X117613969Y-57958583D01*
X117601553Y-57951142D01*
X117589927Y-57942519D01*
X117579202Y-57932798D01*
X117569481Y-57922073D01*
X117560858Y-57910447D01*
X117553417Y-57898031D01*
X117547228Y-57884946D01*
X117542351Y-57871317D01*
X117538834Y-57857276D01*
X117536710Y-57842958D01*
X117536000Y-57828500D01*
X117536000Y-57533500D01*
X117536710Y-57519042D01*
X117538834Y-57504724D01*
X117542351Y-57490683D01*
X117547228Y-57477054D01*
X117553417Y-57463969D01*
X117560858Y-57451553D01*
X117569481Y-57439927D01*
X117579202Y-57429202D01*
X117589927Y-57419481D01*
X117601553Y-57410858D01*
X117613969Y-57403417D01*
X117627054Y-57397228D01*
X117640683Y-57392351D01*
X117654724Y-57388834D01*
X117669042Y-57386710D01*
X117683500Y-57386000D01*
X118028500Y-57386000D01*
X118042958Y-57386710D01*
G37*
G36*
X116978958Y-73920710D02*
G01*
X116993276Y-73922834D01*
X117007317Y-73926351D01*
X117020946Y-73931228D01*
X117034031Y-73937417D01*
X117046447Y-73944858D01*
X117058073Y-73953481D01*
X117068798Y-73963202D01*
X117078519Y-73973927D01*
X117087142Y-73985553D01*
X117094583Y-73997969D01*
X117100772Y-74011054D01*
X117105649Y-74024683D01*
X117109166Y-74038724D01*
X117111290Y-74053042D01*
X117112000Y-74067500D01*
X117112000Y-74412500D01*
X117111290Y-74426958D01*
X117109166Y-74441276D01*
X117105649Y-74455317D01*
X117100772Y-74468946D01*
X117094583Y-74482031D01*
X117087142Y-74494447D01*
X117078519Y-74506073D01*
X117068798Y-74516798D01*
X117058073Y-74526519D01*
X117046447Y-74535142D01*
X117034031Y-74542583D01*
X117020946Y-74548772D01*
X117007317Y-74553649D01*
X116993276Y-74557166D01*
X116978958Y-74559290D01*
X116964500Y-74560000D01*
X116669500Y-74560000D01*
X116655042Y-74559290D01*
X116640724Y-74557166D01*
X116626683Y-74553649D01*
X116613054Y-74548772D01*
X116599969Y-74542583D01*
X116587553Y-74535142D01*
X116575927Y-74526519D01*
X116565202Y-74516798D01*
X116555481Y-74506073D01*
X116546858Y-74494447D01*
X116539417Y-74482031D01*
X116533228Y-74468946D01*
X116528351Y-74455317D01*
X116524834Y-74441276D01*
X116522710Y-74426958D01*
X116522000Y-74412500D01*
X116522000Y-74067500D01*
X116522710Y-74053042D01*
X116524834Y-74038724D01*
X116528351Y-74024683D01*
X116533228Y-74011054D01*
X116539417Y-73997969D01*
X116546858Y-73985553D01*
X116555481Y-73973927D01*
X116565202Y-73963202D01*
X116575927Y-73953481D01*
X116587553Y-73944858D01*
X116599969Y-73937417D01*
X116613054Y-73931228D01*
X116626683Y-73926351D01*
X116640724Y-73922834D01*
X116655042Y-73920710D01*
X116669500Y-73920000D01*
X116964500Y-73920000D01*
X116978958Y-73920710D01*
G37*
G36*
X116008958Y-73920710D02*
G01*
X116023276Y-73922834D01*
X116037317Y-73926351D01*
X116050946Y-73931228D01*
X116064031Y-73937417D01*
X116076447Y-73944858D01*
X116088073Y-73953481D01*
X116098798Y-73963202D01*
X116108519Y-73973927D01*
X116117142Y-73985553D01*
X116124583Y-73997969D01*
X116130772Y-74011054D01*
X116135649Y-74024683D01*
X116139166Y-74038724D01*
X116141290Y-74053042D01*
X116142000Y-74067500D01*
X116142000Y-74412500D01*
X116141290Y-74426958D01*
X116139166Y-74441276D01*
X116135649Y-74455317D01*
X116130772Y-74468946D01*
X116124583Y-74482031D01*
X116117142Y-74494447D01*
X116108519Y-74506073D01*
X116098798Y-74516798D01*
X116088073Y-74526519D01*
X116076447Y-74535142D01*
X116064031Y-74542583D01*
X116050946Y-74548772D01*
X116037317Y-74553649D01*
X116023276Y-74557166D01*
X116008958Y-74559290D01*
X115994500Y-74560000D01*
X115699500Y-74560000D01*
X115685042Y-74559290D01*
X115670724Y-74557166D01*
X115656683Y-74553649D01*
X115643054Y-74548772D01*
X115629969Y-74542583D01*
X115617553Y-74535142D01*
X115605927Y-74526519D01*
X115595202Y-74516798D01*
X115585481Y-74506073D01*
X115576858Y-74494447D01*
X115569417Y-74482031D01*
X115563228Y-74468946D01*
X115558351Y-74455317D01*
X115554834Y-74441276D01*
X115552710Y-74426958D01*
X115552000Y-74412500D01*
X115552000Y-74067500D01*
X115552710Y-74053042D01*
X115554834Y-74038724D01*
X115558351Y-74024683D01*
X115563228Y-74011054D01*
X115569417Y-73997969D01*
X115576858Y-73985553D01*
X115585481Y-73973927D01*
X115595202Y-73963202D01*
X115605927Y-73953481D01*
X115617553Y-73944858D01*
X115629969Y-73937417D01*
X115643054Y-73931228D01*
X115656683Y-73926351D01*
X115670724Y-73922834D01*
X115685042Y-73920710D01*
X115699500Y-73920000D01*
X115994500Y-73920000D01*
X116008958Y-73920710D01*
G37*
G36*
X120074958Y-58379710D02*
G01*
X120089276Y-58381834D01*
X120103317Y-58385351D01*
X120116946Y-58390228D01*
X120130031Y-58396417D01*
X120142447Y-58403858D01*
X120154073Y-58412481D01*
X120164798Y-58422202D01*
X120174519Y-58432927D01*
X120183142Y-58444553D01*
X120190583Y-58456969D01*
X120196772Y-58470054D01*
X120201649Y-58483683D01*
X120205166Y-58497724D01*
X120207290Y-58512042D01*
X120208000Y-58526500D01*
X120208000Y-58821500D01*
X120207290Y-58835958D01*
X120205166Y-58850276D01*
X120201649Y-58864317D01*
X120196772Y-58877946D01*
X120190583Y-58891031D01*
X120183142Y-58903447D01*
X120174519Y-58915073D01*
X120164798Y-58925798D01*
X120154073Y-58935519D01*
X120142447Y-58944142D01*
X120130031Y-58951583D01*
X120116946Y-58957772D01*
X120103317Y-58962649D01*
X120089276Y-58966166D01*
X120074958Y-58968290D01*
X120060500Y-58969000D01*
X119715500Y-58969000D01*
X119701042Y-58968290D01*
X119686724Y-58966166D01*
X119672683Y-58962649D01*
X119659054Y-58957772D01*
X119645969Y-58951583D01*
X119633553Y-58944142D01*
X119621927Y-58935519D01*
X119611202Y-58925798D01*
X119601481Y-58915073D01*
X119592858Y-58903447D01*
X119585417Y-58891031D01*
X119579228Y-58877946D01*
X119574351Y-58864317D01*
X119570834Y-58850276D01*
X119568710Y-58835958D01*
X119568000Y-58821500D01*
X119568000Y-58526500D01*
X119568710Y-58512042D01*
X119570834Y-58497724D01*
X119574351Y-58483683D01*
X119579228Y-58470054D01*
X119585417Y-58456969D01*
X119592858Y-58444553D01*
X119601481Y-58432927D01*
X119611202Y-58422202D01*
X119621927Y-58412481D01*
X119633553Y-58403858D01*
X119645969Y-58396417D01*
X119659054Y-58390228D01*
X119672683Y-58385351D01*
X119686724Y-58381834D01*
X119701042Y-58379710D01*
X119715500Y-58379000D01*
X120060500Y-58379000D01*
X120074958Y-58379710D01*
G37*
G36*
X120074958Y-57409710D02*
G01*
X120089276Y-57411834D01*
X120103317Y-57415351D01*
X120116946Y-57420228D01*
X120130031Y-57426417D01*
X120142447Y-57433858D01*
X120154073Y-57442481D01*
X120164798Y-57452202D01*
X120174519Y-57462927D01*
X120183142Y-57474553D01*
X120190583Y-57486969D01*
X120196772Y-57500054D01*
X120201649Y-57513683D01*
X120205166Y-57527724D01*
X120207290Y-57542042D01*
X120208000Y-57556500D01*
X120208000Y-57851500D01*
X120207290Y-57865958D01*
X120205166Y-57880276D01*
X120201649Y-57894317D01*
X120196772Y-57907946D01*
X120190583Y-57921031D01*
X120183142Y-57933447D01*
X120174519Y-57945073D01*
X120164798Y-57955798D01*
X120154073Y-57965519D01*
X120142447Y-57974142D01*
X120130031Y-57981583D01*
X120116946Y-57987772D01*
X120103317Y-57992649D01*
X120089276Y-57996166D01*
X120074958Y-57998290D01*
X120060500Y-57999000D01*
X119715500Y-57999000D01*
X119701042Y-57998290D01*
X119686724Y-57996166D01*
X119672683Y-57992649D01*
X119659054Y-57987772D01*
X119645969Y-57981583D01*
X119633553Y-57974142D01*
X119621927Y-57965519D01*
X119611202Y-57955798D01*
X119601481Y-57945073D01*
X119592858Y-57933447D01*
X119585417Y-57921031D01*
X119579228Y-57907946D01*
X119574351Y-57894317D01*
X119570834Y-57880276D01*
X119568710Y-57865958D01*
X119568000Y-57851500D01*
X119568000Y-57556500D01*
X119568710Y-57542042D01*
X119570834Y-57527724D01*
X119574351Y-57513683D01*
X119579228Y-57500054D01*
X119585417Y-57486969D01*
X119592858Y-57474553D01*
X119601481Y-57462927D01*
X119611202Y-57452202D01*
X119621927Y-57442481D01*
X119633553Y-57433858D01*
X119645969Y-57426417D01*
X119659054Y-57420228D01*
X119672683Y-57415351D01*
X119686724Y-57411834D01*
X119701042Y-57409710D01*
X119715500Y-57409000D01*
X120060500Y-57409000D01*
X120074958Y-57409710D01*
G37*
G36*
X135520958Y-60132710D02*
G01*
X135535276Y-60134834D01*
X135549317Y-60138351D01*
X135562946Y-60143228D01*
X135576031Y-60149417D01*
X135588447Y-60156858D01*
X135600073Y-60165481D01*
X135610798Y-60175202D01*
X135620519Y-60185927D01*
X135629142Y-60197553D01*
X135636583Y-60209969D01*
X135642772Y-60223054D01*
X135647649Y-60236683D01*
X135651166Y-60250724D01*
X135653290Y-60265042D01*
X135654000Y-60279500D01*
X135654000Y-60624500D01*
X135653290Y-60638958D01*
X135651166Y-60653276D01*
X135647649Y-60667317D01*
X135642772Y-60680946D01*
X135636583Y-60694031D01*
X135629142Y-60706447D01*
X135620519Y-60718073D01*
X135610798Y-60728798D01*
X135600073Y-60738519D01*
X135588447Y-60747142D01*
X135576031Y-60754583D01*
X135562946Y-60760772D01*
X135549317Y-60765649D01*
X135535276Y-60769166D01*
X135520958Y-60771290D01*
X135506500Y-60772000D01*
X135211500Y-60772000D01*
X135197042Y-60771290D01*
X135182724Y-60769166D01*
X135168683Y-60765649D01*
X135155054Y-60760772D01*
X135141969Y-60754583D01*
X135129553Y-60747142D01*
X135117927Y-60738519D01*
X135107202Y-60728798D01*
X135097481Y-60718073D01*
X135088858Y-60706447D01*
X135081417Y-60694031D01*
X135075228Y-60680946D01*
X135070351Y-60667317D01*
X135066834Y-60653276D01*
X135064710Y-60638958D01*
X135064000Y-60624500D01*
X135064000Y-60279500D01*
X135064710Y-60265042D01*
X135066834Y-60250724D01*
X135070351Y-60236683D01*
X135075228Y-60223054D01*
X135081417Y-60209969D01*
X135088858Y-60197553D01*
X135097481Y-60185927D01*
X135107202Y-60175202D01*
X135117927Y-60165481D01*
X135129553Y-60156858D01*
X135141969Y-60149417D01*
X135155054Y-60143228D01*
X135168683Y-60138351D01*
X135182724Y-60134834D01*
X135197042Y-60132710D01*
X135211500Y-60132000D01*
X135506500Y-60132000D01*
X135520958Y-60132710D01*
G37*
G36*
X134550958Y-60132710D02*
G01*
X134565276Y-60134834D01*
X134579317Y-60138351D01*
X134592946Y-60143228D01*
X134606031Y-60149417D01*
X134618447Y-60156858D01*
X134630073Y-60165481D01*
X134640798Y-60175202D01*
X134650519Y-60185927D01*
X134659142Y-60197553D01*
X134666583Y-60209969D01*
X134672772Y-60223054D01*
X134677649Y-60236683D01*
X134681166Y-60250724D01*
X134683290Y-60265042D01*
X134684000Y-60279500D01*
X134684000Y-60624500D01*
X134683290Y-60638958D01*
X134681166Y-60653276D01*
X134677649Y-60667317D01*
X134672772Y-60680946D01*
X134666583Y-60694031D01*
X134659142Y-60706447D01*
X134650519Y-60718073D01*
X134640798Y-60728798D01*
X134630073Y-60738519D01*
X134618447Y-60747142D01*
X134606031Y-60754583D01*
X134592946Y-60760772D01*
X134579317Y-60765649D01*
X134565276Y-60769166D01*
X134550958Y-60771290D01*
X134536500Y-60772000D01*
X134241500Y-60772000D01*
X134227042Y-60771290D01*
X134212724Y-60769166D01*
X134198683Y-60765649D01*
X134185054Y-60760772D01*
X134171969Y-60754583D01*
X134159553Y-60747142D01*
X134147927Y-60738519D01*
X134137202Y-60728798D01*
X134127481Y-60718073D01*
X134118858Y-60706447D01*
X134111417Y-60694031D01*
X134105228Y-60680946D01*
X134100351Y-60667317D01*
X134096834Y-60653276D01*
X134094710Y-60638958D01*
X134094000Y-60624500D01*
X134094000Y-60279500D01*
X134094710Y-60265042D01*
X134096834Y-60250724D01*
X134100351Y-60236683D01*
X134105228Y-60223054D01*
X134111417Y-60209969D01*
X134118858Y-60197553D01*
X134127481Y-60185927D01*
X134137202Y-60175202D01*
X134147927Y-60165481D01*
X134159553Y-60156858D01*
X134171969Y-60149417D01*
X134185054Y-60143228D01*
X134198683Y-60138351D01*
X134212724Y-60134834D01*
X134227042Y-60132710D01*
X134241500Y-60132000D01*
X134536500Y-60132000D01*
X134550958Y-60132710D01*
G37*
G36*
X137473958Y-62212710D02*
G01*
X137488276Y-62214834D01*
X137502317Y-62218351D01*
X137515946Y-62223228D01*
X137529031Y-62229417D01*
X137541447Y-62236858D01*
X137553073Y-62245481D01*
X137563798Y-62255202D01*
X137573519Y-62265927D01*
X137582142Y-62277553D01*
X137589583Y-62289969D01*
X137595772Y-62303054D01*
X137600649Y-62316683D01*
X137604166Y-62330724D01*
X137606290Y-62345042D01*
X137607000Y-62359500D01*
X137607000Y-62654500D01*
X137606290Y-62668958D01*
X137604166Y-62683276D01*
X137600649Y-62697317D01*
X137595772Y-62710946D01*
X137589583Y-62724031D01*
X137582142Y-62736447D01*
X137573519Y-62748073D01*
X137563798Y-62758798D01*
X137553073Y-62768519D01*
X137541447Y-62777142D01*
X137529031Y-62784583D01*
X137515946Y-62790772D01*
X137502317Y-62795649D01*
X137488276Y-62799166D01*
X137473958Y-62801290D01*
X137459500Y-62802000D01*
X137114500Y-62802000D01*
X137100042Y-62801290D01*
X137085724Y-62799166D01*
X137071683Y-62795649D01*
X137058054Y-62790772D01*
X137044969Y-62784583D01*
X137032553Y-62777142D01*
X137020927Y-62768519D01*
X137010202Y-62758798D01*
X137000481Y-62748073D01*
X136991858Y-62736447D01*
X136984417Y-62724031D01*
X136978228Y-62710946D01*
X136973351Y-62697317D01*
X136969834Y-62683276D01*
X136967710Y-62668958D01*
X136967000Y-62654500D01*
X136967000Y-62359500D01*
X136967710Y-62345042D01*
X136969834Y-62330724D01*
X136973351Y-62316683D01*
X136978228Y-62303054D01*
X136984417Y-62289969D01*
X136991858Y-62277553D01*
X137000481Y-62265927D01*
X137010202Y-62255202D01*
X137020927Y-62245481D01*
X137032553Y-62236858D01*
X137044969Y-62229417D01*
X137058054Y-62223228D01*
X137071683Y-62218351D01*
X137085724Y-62214834D01*
X137100042Y-62212710D01*
X137114500Y-62212000D01*
X137459500Y-62212000D01*
X137473958Y-62212710D01*
G37*
G36*
X137473958Y-63182710D02*
G01*
X137488276Y-63184834D01*
X137502317Y-63188351D01*
X137515946Y-63193228D01*
X137529031Y-63199417D01*
X137541447Y-63206858D01*
X137553073Y-63215481D01*
X137563798Y-63225202D01*
X137573519Y-63235927D01*
X137582142Y-63247553D01*
X137589583Y-63259969D01*
X137595772Y-63273054D01*
X137600649Y-63286683D01*
X137604166Y-63300724D01*
X137606290Y-63315042D01*
X137607000Y-63329500D01*
X137607000Y-63624500D01*
X137606290Y-63638958D01*
X137604166Y-63653276D01*
X137600649Y-63667317D01*
X137595772Y-63680946D01*
X137589583Y-63694031D01*
X137582142Y-63706447D01*
X137573519Y-63718073D01*
X137563798Y-63728798D01*
X137553073Y-63738519D01*
X137541447Y-63747142D01*
X137529031Y-63754583D01*
X137515946Y-63760772D01*
X137502317Y-63765649D01*
X137488276Y-63769166D01*
X137473958Y-63771290D01*
X137459500Y-63772000D01*
X137114500Y-63772000D01*
X137100042Y-63771290D01*
X137085724Y-63769166D01*
X137071683Y-63765649D01*
X137058054Y-63760772D01*
X137044969Y-63754583D01*
X137032553Y-63747142D01*
X137020927Y-63738519D01*
X137010202Y-63728798D01*
X137000481Y-63718073D01*
X136991858Y-63706447D01*
X136984417Y-63694031D01*
X136978228Y-63680946D01*
X136973351Y-63667317D01*
X136969834Y-63653276D01*
X136967710Y-63638958D01*
X136967000Y-63624500D01*
X136967000Y-63329500D01*
X136967710Y-63315042D01*
X136969834Y-63300724D01*
X136973351Y-63286683D01*
X136978228Y-63273054D01*
X136984417Y-63259969D01*
X136991858Y-63247553D01*
X137000481Y-63235927D01*
X137010202Y-63225202D01*
X137020927Y-63215481D01*
X137032553Y-63206858D01*
X137044969Y-63199417D01*
X137058054Y-63193228D01*
X137071683Y-63188351D01*
X137085724Y-63184834D01*
X137100042Y-63182710D01*
X137114500Y-63182000D01*
X137459500Y-63182000D01*
X137473958Y-63182710D01*
G37*
G36*
X134710958Y-76690710D02*
G01*
X134725276Y-76692834D01*
X134739317Y-76696351D01*
X134752946Y-76701228D01*
X134766031Y-76707417D01*
X134778447Y-76714858D01*
X134790073Y-76723481D01*
X134800798Y-76733202D01*
X134810519Y-76743927D01*
X134819142Y-76755553D01*
X134826583Y-76767969D01*
X134832772Y-76781054D01*
X134837649Y-76794683D01*
X134841166Y-76808724D01*
X134843290Y-76823042D01*
X134844000Y-76837500D01*
X134844000Y-77182500D01*
X134843290Y-77196958D01*
X134841166Y-77211276D01*
X134837649Y-77225317D01*
X134832772Y-77238946D01*
X134826583Y-77252031D01*
X134819142Y-77264447D01*
X134810519Y-77276073D01*
X134800798Y-77286798D01*
X134790073Y-77296519D01*
X134778447Y-77305142D01*
X134766031Y-77312583D01*
X134752946Y-77318772D01*
X134739317Y-77323649D01*
X134725276Y-77327166D01*
X134710958Y-77329290D01*
X134696500Y-77330000D01*
X134401500Y-77330000D01*
X134387042Y-77329290D01*
X134372724Y-77327166D01*
X134358683Y-77323649D01*
X134345054Y-77318772D01*
X134331969Y-77312583D01*
X134319553Y-77305142D01*
X134307927Y-77296519D01*
X134297202Y-77286798D01*
X134287481Y-77276073D01*
X134278858Y-77264447D01*
X134271417Y-77252031D01*
X134265228Y-77238946D01*
X134260351Y-77225317D01*
X134256834Y-77211276D01*
X134254710Y-77196958D01*
X134254000Y-77182500D01*
X134254000Y-76837500D01*
X134254710Y-76823042D01*
X134256834Y-76808724D01*
X134260351Y-76794683D01*
X134265228Y-76781054D01*
X134271417Y-76767969D01*
X134278858Y-76755553D01*
X134287481Y-76743927D01*
X134297202Y-76733202D01*
X134307927Y-76723481D01*
X134319553Y-76714858D01*
X134331969Y-76707417D01*
X134345054Y-76701228D01*
X134358683Y-76696351D01*
X134372724Y-76692834D01*
X134387042Y-76690710D01*
X134401500Y-76690000D01*
X134696500Y-76690000D01*
X134710958Y-76690710D01*
G37*
G36*
X133740958Y-76690710D02*
G01*
X133755276Y-76692834D01*
X133769317Y-76696351D01*
X133782946Y-76701228D01*
X133796031Y-76707417D01*
X133808447Y-76714858D01*
X133820073Y-76723481D01*
X133830798Y-76733202D01*
X133840519Y-76743927D01*
X133849142Y-76755553D01*
X133856583Y-76767969D01*
X133862772Y-76781054D01*
X133867649Y-76794683D01*
X133871166Y-76808724D01*
X133873290Y-76823042D01*
X133874000Y-76837500D01*
X133874000Y-77182500D01*
X133873290Y-77196958D01*
X133871166Y-77211276D01*
X133867649Y-77225317D01*
X133862772Y-77238946D01*
X133856583Y-77252031D01*
X133849142Y-77264447D01*
X133840519Y-77276073D01*
X133830798Y-77286798D01*
X133820073Y-77296519D01*
X133808447Y-77305142D01*
X133796031Y-77312583D01*
X133782946Y-77318772D01*
X133769317Y-77323649D01*
X133755276Y-77327166D01*
X133740958Y-77329290D01*
X133726500Y-77330000D01*
X133431500Y-77330000D01*
X133417042Y-77329290D01*
X133402724Y-77327166D01*
X133388683Y-77323649D01*
X133375054Y-77318772D01*
X133361969Y-77312583D01*
X133349553Y-77305142D01*
X133337927Y-77296519D01*
X133327202Y-77286798D01*
X133317481Y-77276073D01*
X133308858Y-77264447D01*
X133301417Y-77252031D01*
X133295228Y-77238946D01*
X133290351Y-77225317D01*
X133286834Y-77211276D01*
X133284710Y-77196958D01*
X133284000Y-77182500D01*
X133284000Y-76837500D01*
X133284710Y-76823042D01*
X133286834Y-76808724D01*
X133290351Y-76794683D01*
X133295228Y-76781054D01*
X133301417Y-76767969D01*
X133308858Y-76755553D01*
X133317481Y-76743927D01*
X133327202Y-76733202D01*
X133337927Y-76723481D01*
X133349553Y-76714858D01*
X133361969Y-76707417D01*
X133375054Y-76701228D01*
X133388683Y-76696351D01*
X133402724Y-76692834D01*
X133417042Y-76690710D01*
X133431500Y-76690000D01*
X133726500Y-76690000D01*
X133740958Y-76690710D01*
G37*
G36*
X137854958Y-79692710D02*
G01*
X137869276Y-79694834D01*
X137883317Y-79698351D01*
X137896946Y-79703228D01*
X137910031Y-79709417D01*
X137922447Y-79716858D01*
X137934073Y-79725481D01*
X137944798Y-79735202D01*
X137954519Y-79745927D01*
X137963142Y-79757553D01*
X137970583Y-79769969D01*
X137976772Y-79783054D01*
X137981649Y-79796683D01*
X137985166Y-79810724D01*
X137987290Y-79825042D01*
X137988000Y-79839500D01*
X137988000Y-80134500D01*
X137987290Y-80148958D01*
X137985166Y-80163276D01*
X137981649Y-80177317D01*
X137976772Y-80190946D01*
X137970583Y-80204031D01*
X137963142Y-80216447D01*
X137954519Y-80228073D01*
X137944798Y-80238798D01*
X137934073Y-80248519D01*
X137922447Y-80257142D01*
X137910031Y-80264583D01*
X137896946Y-80270772D01*
X137883317Y-80275649D01*
X137869276Y-80279166D01*
X137854958Y-80281290D01*
X137840500Y-80282000D01*
X137495500Y-80282000D01*
X137481042Y-80281290D01*
X137466724Y-80279166D01*
X137452683Y-80275649D01*
X137439054Y-80270772D01*
X137425969Y-80264583D01*
X137413553Y-80257142D01*
X137401927Y-80248519D01*
X137391202Y-80238798D01*
X137381481Y-80228073D01*
X137372858Y-80216447D01*
X137365417Y-80204031D01*
X137359228Y-80190946D01*
X137354351Y-80177317D01*
X137350834Y-80163276D01*
X137348710Y-80148958D01*
X137348000Y-80134500D01*
X137348000Y-79839500D01*
X137348710Y-79825042D01*
X137350834Y-79810724D01*
X137354351Y-79796683D01*
X137359228Y-79783054D01*
X137365417Y-79769969D01*
X137372858Y-79757553D01*
X137381481Y-79745927D01*
X137391202Y-79735202D01*
X137401927Y-79725481D01*
X137413553Y-79716858D01*
X137425969Y-79709417D01*
X137439054Y-79703228D01*
X137452683Y-79698351D01*
X137466724Y-79694834D01*
X137481042Y-79692710D01*
X137495500Y-79692000D01*
X137840500Y-79692000D01*
X137854958Y-79692710D01*
G37*
G36*
X137854958Y-78722710D02*
G01*
X137869276Y-78724834D01*
X137883317Y-78728351D01*
X137896946Y-78733228D01*
X137910031Y-78739417D01*
X137922447Y-78746858D01*
X137934073Y-78755481D01*
X137944798Y-78765202D01*
X137954519Y-78775927D01*
X137963142Y-78787553D01*
X137970583Y-78799969D01*
X137976772Y-78813054D01*
X137981649Y-78826683D01*
X137985166Y-78840724D01*
X137987290Y-78855042D01*
X137988000Y-78869500D01*
X137988000Y-79164500D01*
X137987290Y-79178958D01*
X137985166Y-79193276D01*
X137981649Y-79207317D01*
X137976772Y-79220946D01*
X137970583Y-79234031D01*
X137963142Y-79246447D01*
X137954519Y-79258073D01*
X137944798Y-79268798D01*
X137934073Y-79278519D01*
X137922447Y-79287142D01*
X137910031Y-79294583D01*
X137896946Y-79300772D01*
X137883317Y-79305649D01*
X137869276Y-79309166D01*
X137854958Y-79311290D01*
X137840500Y-79312000D01*
X137495500Y-79312000D01*
X137481042Y-79311290D01*
X137466724Y-79309166D01*
X137452683Y-79305649D01*
X137439054Y-79300772D01*
X137425969Y-79294583D01*
X137413553Y-79287142D01*
X137401927Y-79278519D01*
X137391202Y-79268798D01*
X137381481Y-79258073D01*
X137372858Y-79246447D01*
X137365417Y-79234031D01*
X137359228Y-79220946D01*
X137354351Y-79207317D01*
X137350834Y-79193276D01*
X137348710Y-79178958D01*
X137348000Y-79164500D01*
X137348000Y-78869500D01*
X137348710Y-78855042D01*
X137350834Y-78840724D01*
X137354351Y-78826683D01*
X137359228Y-78813054D01*
X137365417Y-78799969D01*
X137372858Y-78787553D01*
X137381481Y-78775927D01*
X137391202Y-78765202D01*
X137401927Y-78755481D01*
X137413553Y-78746858D01*
X137425969Y-78739417D01*
X137439054Y-78733228D01*
X137452683Y-78728351D01*
X137466724Y-78724834D01*
X137481042Y-78722710D01*
X137495500Y-78722000D01*
X137840500Y-78722000D01*
X137854958Y-78722710D01*
G37*
G36*
X129980958Y-64244710D02*
G01*
X129995276Y-64246834D01*
X130009317Y-64250351D01*
X130022946Y-64255228D01*
X130036031Y-64261417D01*
X130048447Y-64268858D01*
X130060073Y-64277481D01*
X130070798Y-64287202D01*
X130080519Y-64297927D01*
X130089142Y-64309553D01*
X130096583Y-64321969D01*
X130102772Y-64335054D01*
X130107649Y-64348683D01*
X130111166Y-64362724D01*
X130113290Y-64377042D01*
X130114000Y-64391500D01*
X130114000Y-64686500D01*
X130113290Y-64700958D01*
X130111166Y-64715276D01*
X130107649Y-64729317D01*
X130102772Y-64742946D01*
X130096583Y-64756031D01*
X130089142Y-64768447D01*
X130080519Y-64780073D01*
X130070798Y-64790798D01*
X130060073Y-64800519D01*
X130048447Y-64809142D01*
X130036031Y-64816583D01*
X130022946Y-64822772D01*
X130009317Y-64827649D01*
X129995276Y-64831166D01*
X129980958Y-64833290D01*
X129966500Y-64834000D01*
X129621500Y-64834000D01*
X129607042Y-64833290D01*
X129592724Y-64831166D01*
X129578683Y-64827649D01*
X129565054Y-64822772D01*
X129551969Y-64816583D01*
X129539553Y-64809142D01*
X129527927Y-64800519D01*
X129517202Y-64790798D01*
X129507481Y-64780073D01*
X129498858Y-64768447D01*
X129491417Y-64756031D01*
X129485228Y-64742946D01*
X129480351Y-64729317D01*
X129476834Y-64715276D01*
X129474710Y-64700958D01*
X129474000Y-64686500D01*
X129474000Y-64391500D01*
X129474710Y-64377042D01*
X129476834Y-64362724D01*
X129480351Y-64348683D01*
X129485228Y-64335054D01*
X129491417Y-64321969D01*
X129498858Y-64309553D01*
X129507481Y-64297927D01*
X129517202Y-64287202D01*
X129527927Y-64277481D01*
X129539553Y-64268858D01*
X129551969Y-64261417D01*
X129565054Y-64255228D01*
X129578683Y-64250351D01*
X129592724Y-64246834D01*
X129607042Y-64244710D01*
X129621500Y-64244000D01*
X129966500Y-64244000D01*
X129980958Y-64244710D01*
G37*
G36*
X129980958Y-65214710D02*
G01*
X129995276Y-65216834D01*
X130009317Y-65220351D01*
X130022946Y-65225228D01*
X130036031Y-65231417D01*
X130048447Y-65238858D01*
X130060073Y-65247481D01*
X130070798Y-65257202D01*
X130080519Y-65267927D01*
X130089142Y-65279553D01*
X130096583Y-65291969D01*
X130102772Y-65305054D01*
X130107649Y-65318683D01*
X130111166Y-65332724D01*
X130113290Y-65347042D01*
X130114000Y-65361500D01*
X130114000Y-65656500D01*
X130113290Y-65670958D01*
X130111166Y-65685276D01*
X130107649Y-65699317D01*
X130102772Y-65712946D01*
X130096583Y-65726031D01*
X130089142Y-65738447D01*
X130080519Y-65750073D01*
X130070798Y-65760798D01*
X130060073Y-65770519D01*
X130048447Y-65779142D01*
X130036031Y-65786583D01*
X130022946Y-65792772D01*
X130009317Y-65797649D01*
X129995276Y-65801166D01*
X129980958Y-65803290D01*
X129966500Y-65804000D01*
X129621500Y-65804000D01*
X129607042Y-65803290D01*
X129592724Y-65801166D01*
X129578683Y-65797649D01*
X129565054Y-65792772D01*
X129551969Y-65786583D01*
X129539553Y-65779142D01*
X129527927Y-65770519D01*
X129517202Y-65760798D01*
X129507481Y-65750073D01*
X129498858Y-65738447D01*
X129491417Y-65726031D01*
X129485228Y-65712946D01*
X129480351Y-65699317D01*
X129476834Y-65685276D01*
X129474710Y-65670958D01*
X129474000Y-65656500D01*
X129474000Y-65361500D01*
X129474710Y-65347042D01*
X129476834Y-65332724D01*
X129480351Y-65318683D01*
X129485228Y-65305054D01*
X129491417Y-65291969D01*
X129498858Y-65279553D01*
X129507481Y-65267927D01*
X129517202Y-65257202D01*
X129527927Y-65247481D01*
X129539553Y-65238858D01*
X129551969Y-65231417D01*
X129565054Y-65225228D01*
X129578683Y-65220351D01*
X129592724Y-65216834D01*
X129607042Y-65214710D01*
X129621500Y-65214000D01*
X129966500Y-65214000D01*
X129980958Y-65214710D01*
G37*
G36*
X144133958Y-66228710D02*
G01*
X144148276Y-66230834D01*
X144162317Y-66234351D01*
X144175946Y-66239228D01*
X144189031Y-66245417D01*
X144201447Y-66252858D01*
X144213073Y-66261481D01*
X144223798Y-66271202D01*
X144233519Y-66281927D01*
X144242142Y-66293553D01*
X144249583Y-66305969D01*
X144255772Y-66319054D01*
X144260649Y-66332683D01*
X144264166Y-66346724D01*
X144266290Y-66361042D01*
X144267000Y-66375500D01*
X144267000Y-66720500D01*
X144266290Y-66734958D01*
X144264166Y-66749276D01*
X144260649Y-66763317D01*
X144255772Y-66776946D01*
X144249583Y-66790031D01*
X144242142Y-66802447D01*
X144233519Y-66814073D01*
X144223798Y-66824798D01*
X144213073Y-66834519D01*
X144201447Y-66843142D01*
X144189031Y-66850583D01*
X144175946Y-66856772D01*
X144162317Y-66861649D01*
X144148276Y-66865166D01*
X144133958Y-66867290D01*
X144119500Y-66868000D01*
X143824500Y-66868000D01*
X143810042Y-66867290D01*
X143795724Y-66865166D01*
X143781683Y-66861649D01*
X143768054Y-66856772D01*
X143754969Y-66850583D01*
X143742553Y-66843142D01*
X143730927Y-66834519D01*
X143720202Y-66824798D01*
X143710481Y-66814073D01*
X143701858Y-66802447D01*
X143694417Y-66790031D01*
X143688228Y-66776946D01*
X143683351Y-66763317D01*
X143679834Y-66749276D01*
X143677710Y-66734958D01*
X143677000Y-66720500D01*
X143677000Y-66375500D01*
X143677710Y-66361042D01*
X143679834Y-66346724D01*
X143683351Y-66332683D01*
X143688228Y-66319054D01*
X143694417Y-66305969D01*
X143701858Y-66293553D01*
X143710481Y-66281927D01*
X143720202Y-66271202D01*
X143730927Y-66261481D01*
X143742553Y-66252858D01*
X143754969Y-66245417D01*
X143768054Y-66239228D01*
X143781683Y-66234351D01*
X143795724Y-66230834D01*
X143810042Y-66228710D01*
X143824500Y-66228000D01*
X144119500Y-66228000D01*
X144133958Y-66228710D01*
G37*
G36*
X143163958Y-66228710D02*
G01*
X143178276Y-66230834D01*
X143192317Y-66234351D01*
X143205946Y-66239228D01*
X143219031Y-66245417D01*
X143231447Y-66252858D01*
X143243073Y-66261481D01*
X143253798Y-66271202D01*
X143263519Y-66281927D01*
X143272142Y-66293553D01*
X143279583Y-66305969D01*
X143285772Y-66319054D01*
X143290649Y-66332683D01*
X143294166Y-66346724D01*
X143296290Y-66361042D01*
X143297000Y-66375500D01*
X143297000Y-66720500D01*
X143296290Y-66734958D01*
X143294166Y-66749276D01*
X143290649Y-66763317D01*
X143285772Y-66776946D01*
X143279583Y-66790031D01*
X143272142Y-66802447D01*
X143263519Y-66814073D01*
X143253798Y-66824798D01*
X143243073Y-66834519D01*
X143231447Y-66843142D01*
X143219031Y-66850583D01*
X143205946Y-66856772D01*
X143192317Y-66861649D01*
X143178276Y-66865166D01*
X143163958Y-66867290D01*
X143149500Y-66868000D01*
X142854500Y-66868000D01*
X142840042Y-66867290D01*
X142825724Y-66865166D01*
X142811683Y-66861649D01*
X142798054Y-66856772D01*
X142784969Y-66850583D01*
X142772553Y-66843142D01*
X142760927Y-66834519D01*
X142750202Y-66824798D01*
X142740481Y-66814073D01*
X142731858Y-66802447D01*
X142724417Y-66790031D01*
X142718228Y-66776946D01*
X142713351Y-66763317D01*
X142709834Y-66749276D01*
X142707710Y-66734958D01*
X142707000Y-66720500D01*
X142707000Y-66375500D01*
X142707710Y-66361042D01*
X142709834Y-66346724D01*
X142713351Y-66332683D01*
X142718228Y-66319054D01*
X142724417Y-66305969D01*
X142731858Y-66293553D01*
X142740481Y-66281927D01*
X142750202Y-66271202D01*
X142760927Y-66261481D01*
X142772553Y-66252858D01*
X142784969Y-66245417D01*
X142798054Y-66239228D01*
X142811683Y-66234351D01*
X142825724Y-66230834D01*
X142840042Y-66228710D01*
X142854500Y-66228000D01*
X143149500Y-66228000D01*
X143163958Y-66228710D01*
G37*
G36*
X143186958Y-67244710D02*
G01*
X143201276Y-67246834D01*
X143215317Y-67250351D01*
X143228946Y-67255228D01*
X143242031Y-67261417D01*
X143254447Y-67268858D01*
X143266073Y-67277481D01*
X143276798Y-67287202D01*
X143286519Y-67297927D01*
X143295142Y-67309553D01*
X143302583Y-67321969D01*
X143308772Y-67335054D01*
X143313649Y-67348683D01*
X143317166Y-67362724D01*
X143319290Y-67377042D01*
X143320000Y-67391500D01*
X143320000Y-67736500D01*
X143319290Y-67750958D01*
X143317166Y-67765276D01*
X143313649Y-67779317D01*
X143308772Y-67792946D01*
X143302583Y-67806031D01*
X143295142Y-67818447D01*
X143286519Y-67830073D01*
X143276798Y-67840798D01*
X143266073Y-67850519D01*
X143254447Y-67859142D01*
X143242031Y-67866583D01*
X143228946Y-67872772D01*
X143215317Y-67877649D01*
X143201276Y-67881166D01*
X143186958Y-67883290D01*
X143172500Y-67884000D01*
X142877500Y-67884000D01*
X142863042Y-67883290D01*
X142848724Y-67881166D01*
X142834683Y-67877649D01*
X142821054Y-67872772D01*
X142807969Y-67866583D01*
X142795553Y-67859142D01*
X142783927Y-67850519D01*
X142773202Y-67840798D01*
X142763481Y-67830073D01*
X142754858Y-67818447D01*
X142747417Y-67806031D01*
X142741228Y-67792946D01*
X142736351Y-67779317D01*
X142732834Y-67765276D01*
X142730710Y-67750958D01*
X142730000Y-67736500D01*
X142730000Y-67391500D01*
X142730710Y-67377042D01*
X142732834Y-67362724D01*
X142736351Y-67348683D01*
X142741228Y-67335054D01*
X142747417Y-67321969D01*
X142754858Y-67309553D01*
X142763481Y-67297927D01*
X142773202Y-67287202D01*
X142783927Y-67277481D01*
X142795553Y-67268858D01*
X142807969Y-67261417D01*
X142821054Y-67255228D01*
X142834683Y-67250351D01*
X142848724Y-67246834D01*
X142863042Y-67244710D01*
X142877500Y-67244000D01*
X143172500Y-67244000D01*
X143186958Y-67244710D01*
G37*
G36*
X144156958Y-67244710D02*
G01*
X144171276Y-67246834D01*
X144185317Y-67250351D01*
X144198946Y-67255228D01*
X144212031Y-67261417D01*
X144224447Y-67268858D01*
X144236073Y-67277481D01*
X144246798Y-67287202D01*
X144256519Y-67297927D01*
X144265142Y-67309553D01*
X144272583Y-67321969D01*
X144278772Y-67335054D01*
X144283649Y-67348683D01*
X144287166Y-67362724D01*
X144289290Y-67377042D01*
X144290000Y-67391500D01*
X144290000Y-67736500D01*
X144289290Y-67750958D01*
X144287166Y-67765276D01*
X144283649Y-67779317D01*
X144278772Y-67792946D01*
X144272583Y-67806031D01*
X144265142Y-67818447D01*
X144256519Y-67830073D01*
X144246798Y-67840798D01*
X144236073Y-67850519D01*
X144224447Y-67859142D01*
X144212031Y-67866583D01*
X144198946Y-67872772D01*
X144185317Y-67877649D01*
X144171276Y-67881166D01*
X144156958Y-67883290D01*
X144142500Y-67884000D01*
X143847500Y-67884000D01*
X143833042Y-67883290D01*
X143818724Y-67881166D01*
X143804683Y-67877649D01*
X143791054Y-67872772D01*
X143777969Y-67866583D01*
X143765553Y-67859142D01*
X143753927Y-67850519D01*
X143743202Y-67840798D01*
X143733481Y-67830073D01*
X143724858Y-67818447D01*
X143717417Y-67806031D01*
X143711228Y-67792946D01*
X143706351Y-67779317D01*
X143702834Y-67765276D01*
X143700710Y-67750958D01*
X143700000Y-67736500D01*
X143700000Y-67391500D01*
X143700710Y-67377042D01*
X143702834Y-67362724D01*
X143706351Y-67348683D01*
X143711228Y-67335054D01*
X143717417Y-67321969D01*
X143724858Y-67309553D01*
X143733481Y-67297927D01*
X143743202Y-67287202D01*
X143753927Y-67277481D01*
X143765553Y-67268858D01*
X143777969Y-67261417D01*
X143791054Y-67255228D01*
X143804683Y-67250351D01*
X143818724Y-67246834D01*
X143833042Y-67244710D01*
X143847500Y-67244000D01*
X144142500Y-67244000D01*
X144156958Y-67244710D01*
G37*
G36*
X131504958Y-82740710D02*
G01*
X131519276Y-82742834D01*
X131533317Y-82746351D01*
X131546946Y-82751228D01*
X131560031Y-82757417D01*
X131572447Y-82764858D01*
X131584073Y-82773481D01*
X131594798Y-82783202D01*
X131604519Y-82793927D01*
X131613142Y-82805553D01*
X131620583Y-82817969D01*
X131626772Y-82831054D01*
X131631649Y-82844683D01*
X131635166Y-82858724D01*
X131637290Y-82873042D01*
X131638000Y-82887500D01*
X131638000Y-83182500D01*
X131637290Y-83196958D01*
X131635166Y-83211276D01*
X131631649Y-83225317D01*
X131626772Y-83238946D01*
X131620583Y-83252031D01*
X131613142Y-83264447D01*
X131604519Y-83276073D01*
X131594798Y-83286798D01*
X131584073Y-83296519D01*
X131572447Y-83305142D01*
X131560031Y-83312583D01*
X131546946Y-83318772D01*
X131533317Y-83323649D01*
X131519276Y-83327166D01*
X131504958Y-83329290D01*
X131490500Y-83330000D01*
X131145500Y-83330000D01*
X131131042Y-83329290D01*
X131116724Y-83327166D01*
X131102683Y-83323649D01*
X131089054Y-83318772D01*
X131075969Y-83312583D01*
X131063553Y-83305142D01*
X131051927Y-83296519D01*
X131041202Y-83286798D01*
X131031481Y-83276073D01*
X131022858Y-83264447D01*
X131015417Y-83252031D01*
X131009228Y-83238946D01*
X131004351Y-83225317D01*
X131000834Y-83211276D01*
X130998710Y-83196958D01*
X130998000Y-83182500D01*
X130998000Y-82887500D01*
X130998710Y-82873042D01*
X131000834Y-82858724D01*
X131004351Y-82844683D01*
X131009228Y-82831054D01*
X131015417Y-82817969D01*
X131022858Y-82805553D01*
X131031481Y-82793927D01*
X131041202Y-82783202D01*
X131051927Y-82773481D01*
X131063553Y-82764858D01*
X131075969Y-82757417D01*
X131089054Y-82751228D01*
X131102683Y-82746351D01*
X131116724Y-82742834D01*
X131131042Y-82740710D01*
X131145500Y-82740000D01*
X131490500Y-82740000D01*
X131504958Y-82740710D01*
G37*
G36*
X131504958Y-81770710D02*
G01*
X131519276Y-81772834D01*
X131533317Y-81776351D01*
X131546946Y-81781228D01*
X131560031Y-81787417D01*
X131572447Y-81794858D01*
X131584073Y-81803481D01*
X131594798Y-81813202D01*
X131604519Y-81823927D01*
X131613142Y-81835553D01*
X131620583Y-81847969D01*
X131626772Y-81861054D01*
X131631649Y-81874683D01*
X131635166Y-81888724D01*
X131637290Y-81903042D01*
X131638000Y-81917500D01*
X131638000Y-82212500D01*
X131637290Y-82226958D01*
X131635166Y-82241276D01*
X131631649Y-82255317D01*
X131626772Y-82268946D01*
X131620583Y-82282031D01*
X131613142Y-82294447D01*
X131604519Y-82306073D01*
X131594798Y-82316798D01*
X131584073Y-82326519D01*
X131572447Y-82335142D01*
X131560031Y-82342583D01*
X131546946Y-82348772D01*
X131533317Y-82353649D01*
X131519276Y-82357166D01*
X131504958Y-82359290D01*
X131490500Y-82360000D01*
X131145500Y-82360000D01*
X131131042Y-82359290D01*
X131116724Y-82357166D01*
X131102683Y-82353649D01*
X131089054Y-82348772D01*
X131075969Y-82342583D01*
X131063553Y-82335142D01*
X131051927Y-82326519D01*
X131041202Y-82316798D01*
X131031481Y-82306073D01*
X131022858Y-82294447D01*
X131015417Y-82282031D01*
X131009228Y-82268946D01*
X131004351Y-82255317D01*
X131000834Y-82241276D01*
X130998710Y-82226958D01*
X130998000Y-82212500D01*
X130998000Y-81917500D01*
X130998710Y-81903042D01*
X131000834Y-81888724D01*
X131004351Y-81874683D01*
X131009228Y-81861054D01*
X131015417Y-81847969D01*
X131022858Y-81835553D01*
X131031481Y-81823927D01*
X131041202Y-81813202D01*
X131051927Y-81803481D01*
X131063553Y-81794858D01*
X131075969Y-81787417D01*
X131089054Y-81781228D01*
X131102683Y-81776351D01*
X131116724Y-81772834D01*
X131131042Y-81770710D01*
X131145500Y-81770000D01*
X131490500Y-81770000D01*
X131504958Y-81770710D01*
G37*
G36*
X143186958Y-82992710D02*
G01*
X143201276Y-82994834D01*
X143215317Y-82998351D01*
X143228946Y-83003228D01*
X143242031Y-83009417D01*
X143254447Y-83016858D01*
X143266073Y-83025481D01*
X143276798Y-83035202D01*
X143286519Y-83045927D01*
X143295142Y-83057553D01*
X143302583Y-83069969D01*
X143308772Y-83083054D01*
X143313649Y-83096683D01*
X143317166Y-83110724D01*
X143319290Y-83125042D01*
X143320000Y-83139500D01*
X143320000Y-83484500D01*
X143319290Y-83498958D01*
X143317166Y-83513276D01*
X143313649Y-83527317D01*
X143308772Y-83540946D01*
X143302583Y-83554031D01*
X143295142Y-83566447D01*
X143286519Y-83578073D01*
X143276798Y-83588798D01*
X143266073Y-83598519D01*
X143254447Y-83607142D01*
X143242031Y-83614583D01*
X143228946Y-83620772D01*
X143215317Y-83625649D01*
X143201276Y-83629166D01*
X143186958Y-83631290D01*
X143172500Y-83632000D01*
X142877500Y-83632000D01*
X142863042Y-83631290D01*
X142848724Y-83629166D01*
X142834683Y-83625649D01*
X142821054Y-83620772D01*
X142807969Y-83614583D01*
X142795553Y-83607142D01*
X142783927Y-83598519D01*
X142773202Y-83588798D01*
X142763481Y-83578073D01*
X142754858Y-83566447D01*
X142747417Y-83554031D01*
X142741228Y-83540946D01*
X142736351Y-83527317D01*
X142732834Y-83513276D01*
X142730710Y-83498958D01*
X142730000Y-83484500D01*
X142730000Y-83139500D01*
X142730710Y-83125042D01*
X142732834Y-83110724D01*
X142736351Y-83096683D01*
X142741228Y-83083054D01*
X142747417Y-83069969D01*
X142754858Y-83057553D01*
X142763481Y-83045927D01*
X142773202Y-83035202D01*
X142783927Y-83025481D01*
X142795553Y-83016858D01*
X142807969Y-83009417D01*
X142821054Y-83003228D01*
X142834683Y-82998351D01*
X142848724Y-82994834D01*
X142863042Y-82992710D01*
X142877500Y-82992000D01*
X143172500Y-82992000D01*
X143186958Y-82992710D01*
G37*
G36*
X144156958Y-82992710D02*
G01*
X144171276Y-82994834D01*
X144185317Y-82998351D01*
X144198946Y-83003228D01*
X144212031Y-83009417D01*
X144224447Y-83016858D01*
X144236073Y-83025481D01*
X144246798Y-83035202D01*
X144256519Y-83045927D01*
X144265142Y-83057553D01*
X144272583Y-83069969D01*
X144278772Y-83083054D01*
X144283649Y-83096683D01*
X144287166Y-83110724D01*
X144289290Y-83125042D01*
X144290000Y-83139500D01*
X144290000Y-83484500D01*
X144289290Y-83498958D01*
X144287166Y-83513276D01*
X144283649Y-83527317D01*
X144278772Y-83540946D01*
X144272583Y-83554031D01*
X144265142Y-83566447D01*
X144256519Y-83578073D01*
X144246798Y-83588798D01*
X144236073Y-83598519D01*
X144224447Y-83607142D01*
X144212031Y-83614583D01*
X144198946Y-83620772D01*
X144185317Y-83625649D01*
X144171276Y-83629166D01*
X144156958Y-83631290D01*
X144142500Y-83632000D01*
X143847500Y-83632000D01*
X143833042Y-83631290D01*
X143818724Y-83629166D01*
X143804683Y-83625649D01*
X143791054Y-83620772D01*
X143777969Y-83614583D01*
X143765553Y-83607142D01*
X143753927Y-83598519D01*
X143743202Y-83588798D01*
X143733481Y-83578073D01*
X143724858Y-83566447D01*
X143717417Y-83554031D01*
X143711228Y-83540946D01*
X143706351Y-83527317D01*
X143702834Y-83513276D01*
X143700710Y-83498958D01*
X143700000Y-83484500D01*
X143700000Y-83139500D01*
X143700710Y-83125042D01*
X143702834Y-83110724D01*
X143706351Y-83096683D01*
X143711228Y-83083054D01*
X143717417Y-83069969D01*
X143724858Y-83057553D01*
X143733481Y-83045927D01*
X143743202Y-83035202D01*
X143753927Y-83025481D01*
X143765553Y-83016858D01*
X143777969Y-83009417D01*
X143791054Y-83003228D01*
X143804683Y-82998351D01*
X143818724Y-82994834D01*
X143833042Y-82992710D01*
X143847500Y-82992000D01*
X144142500Y-82992000D01*
X144156958Y-82992710D01*
G37*
D14*
X135677000Y-61992000D03*
X135677000Y-62492000D03*
X135677000Y-62992000D03*
X135677000Y-63492000D03*
X135677000Y-63992000D03*
X131277000Y-63992000D03*
X131277000Y-63492000D03*
X131277000Y-62992000D03*
X131277000Y-62492000D03*
X131277000Y-61992000D03*
X131404000Y-78502000D03*
X131404000Y-79002000D03*
X131404000Y-79502000D03*
X131404000Y-80002000D03*
X131404000Y-80502000D03*
X135804000Y-80502000D03*
X135804000Y-80002000D03*
X135804000Y-79502000D03*
X135804000Y-79002000D03*
X135804000Y-78502000D03*
D10*
G36*
X149236958Y-79690710D02*
G01*
X149251276Y-79692834D01*
X149265317Y-79696351D01*
X149278946Y-79701228D01*
X149292031Y-79707417D01*
X149304447Y-79714858D01*
X149316073Y-79723481D01*
X149326798Y-79733202D01*
X149336519Y-79743927D01*
X149345142Y-79755553D01*
X149352583Y-79767969D01*
X149358772Y-79781054D01*
X149363649Y-79794683D01*
X149367166Y-79808724D01*
X149369290Y-79823042D01*
X149370000Y-79837500D01*
X149370000Y-80182500D01*
X149369290Y-80196958D01*
X149367166Y-80211276D01*
X149363649Y-80225317D01*
X149358772Y-80238946D01*
X149352583Y-80252031D01*
X149345142Y-80264447D01*
X149336519Y-80276073D01*
X149326798Y-80286798D01*
X149316073Y-80296519D01*
X149304447Y-80305142D01*
X149292031Y-80312583D01*
X149278946Y-80318772D01*
X149265317Y-80323649D01*
X149251276Y-80327166D01*
X149236958Y-80329290D01*
X149222500Y-80330000D01*
X148927500Y-80330000D01*
X148913042Y-80329290D01*
X148898724Y-80327166D01*
X148884683Y-80323649D01*
X148871054Y-80318772D01*
X148857969Y-80312583D01*
X148845553Y-80305142D01*
X148833927Y-80296519D01*
X148823202Y-80286798D01*
X148813481Y-80276073D01*
X148804858Y-80264447D01*
X148797417Y-80252031D01*
X148791228Y-80238946D01*
X148786351Y-80225317D01*
X148782834Y-80211276D01*
X148780710Y-80196958D01*
X148780000Y-80182500D01*
X148780000Y-79837500D01*
X148780710Y-79823042D01*
X148782834Y-79808724D01*
X148786351Y-79794683D01*
X148791228Y-79781054D01*
X148797417Y-79767969D01*
X148804858Y-79755553D01*
X148813481Y-79743927D01*
X148823202Y-79733202D01*
X148833927Y-79723481D01*
X148845553Y-79714858D01*
X148857969Y-79707417D01*
X148871054Y-79701228D01*
X148884683Y-79696351D01*
X148898724Y-79692834D01*
X148913042Y-79690710D01*
X148927500Y-79690000D01*
X149222500Y-79690000D01*
X149236958Y-79690710D01*
G37*
G36*
X148266958Y-79690710D02*
G01*
X148281276Y-79692834D01*
X148295317Y-79696351D01*
X148308946Y-79701228D01*
X148322031Y-79707417D01*
X148334447Y-79714858D01*
X148346073Y-79723481D01*
X148356798Y-79733202D01*
X148366519Y-79743927D01*
X148375142Y-79755553D01*
X148382583Y-79767969D01*
X148388772Y-79781054D01*
X148393649Y-79794683D01*
X148397166Y-79808724D01*
X148399290Y-79823042D01*
X148400000Y-79837500D01*
X148400000Y-80182500D01*
X148399290Y-80196958D01*
X148397166Y-80211276D01*
X148393649Y-80225317D01*
X148388772Y-80238946D01*
X148382583Y-80252031D01*
X148375142Y-80264447D01*
X148366519Y-80276073D01*
X148356798Y-80286798D01*
X148346073Y-80296519D01*
X148334447Y-80305142D01*
X148322031Y-80312583D01*
X148308946Y-80318772D01*
X148295317Y-80323649D01*
X148281276Y-80327166D01*
X148266958Y-80329290D01*
X148252500Y-80330000D01*
X147957500Y-80330000D01*
X147943042Y-80329290D01*
X147928724Y-80327166D01*
X147914683Y-80323649D01*
X147901054Y-80318772D01*
X147887969Y-80312583D01*
X147875553Y-80305142D01*
X147863927Y-80296519D01*
X147853202Y-80286798D01*
X147843481Y-80276073D01*
X147834858Y-80264447D01*
X147827417Y-80252031D01*
X147821228Y-80238946D01*
X147816351Y-80225317D01*
X147812834Y-80211276D01*
X147810710Y-80196958D01*
X147810000Y-80182500D01*
X147810000Y-79837500D01*
X147810710Y-79823042D01*
X147812834Y-79808724D01*
X147816351Y-79794683D01*
X147821228Y-79781054D01*
X147827417Y-79767969D01*
X147834858Y-79755553D01*
X147843481Y-79743927D01*
X147853202Y-79733202D01*
X147863927Y-79723481D01*
X147875553Y-79714858D01*
X147887969Y-79707417D01*
X147901054Y-79701228D01*
X147914683Y-79696351D01*
X147928724Y-79692834D01*
X147943042Y-79690710D01*
X147957500Y-79690000D01*
X148252500Y-79690000D01*
X148266958Y-79690710D01*
G37*
G36*
X149236958Y-78420710D02*
G01*
X149251276Y-78422834D01*
X149265317Y-78426351D01*
X149278946Y-78431228D01*
X149292031Y-78437417D01*
X149304447Y-78444858D01*
X149316073Y-78453481D01*
X149326798Y-78463202D01*
X149336519Y-78473927D01*
X149345142Y-78485553D01*
X149352583Y-78497969D01*
X149358772Y-78511054D01*
X149363649Y-78524683D01*
X149367166Y-78538724D01*
X149369290Y-78553042D01*
X149370000Y-78567500D01*
X149370000Y-78912500D01*
X149369290Y-78926958D01*
X149367166Y-78941276D01*
X149363649Y-78955317D01*
X149358772Y-78968946D01*
X149352583Y-78982031D01*
X149345142Y-78994447D01*
X149336519Y-79006073D01*
X149326798Y-79016798D01*
X149316073Y-79026519D01*
X149304447Y-79035142D01*
X149292031Y-79042583D01*
X149278946Y-79048772D01*
X149265317Y-79053649D01*
X149251276Y-79057166D01*
X149236958Y-79059290D01*
X149222500Y-79060000D01*
X148927500Y-79060000D01*
X148913042Y-79059290D01*
X148898724Y-79057166D01*
X148884683Y-79053649D01*
X148871054Y-79048772D01*
X148857969Y-79042583D01*
X148845553Y-79035142D01*
X148833927Y-79026519D01*
X148823202Y-79016798D01*
X148813481Y-79006073D01*
X148804858Y-78994447D01*
X148797417Y-78982031D01*
X148791228Y-78968946D01*
X148786351Y-78955317D01*
X148782834Y-78941276D01*
X148780710Y-78926958D01*
X148780000Y-78912500D01*
X148780000Y-78567500D01*
X148780710Y-78553042D01*
X148782834Y-78538724D01*
X148786351Y-78524683D01*
X148791228Y-78511054D01*
X148797417Y-78497969D01*
X148804858Y-78485553D01*
X148813481Y-78473927D01*
X148823202Y-78463202D01*
X148833927Y-78453481D01*
X148845553Y-78444858D01*
X148857969Y-78437417D01*
X148871054Y-78431228D01*
X148884683Y-78426351D01*
X148898724Y-78422834D01*
X148913042Y-78420710D01*
X148927500Y-78420000D01*
X149222500Y-78420000D01*
X149236958Y-78420710D01*
G37*
G36*
X148266958Y-78420710D02*
G01*
X148281276Y-78422834D01*
X148295317Y-78426351D01*
X148308946Y-78431228D01*
X148322031Y-78437417D01*
X148334447Y-78444858D01*
X148346073Y-78453481D01*
X148356798Y-78463202D01*
X148366519Y-78473927D01*
X148375142Y-78485553D01*
X148382583Y-78497969D01*
X148388772Y-78511054D01*
X148393649Y-78524683D01*
X148397166Y-78538724D01*
X148399290Y-78553042D01*
X148400000Y-78567500D01*
X148400000Y-78912500D01*
X148399290Y-78926958D01*
X148397166Y-78941276D01*
X148393649Y-78955317D01*
X148388772Y-78968946D01*
X148382583Y-78982031D01*
X148375142Y-78994447D01*
X148366519Y-79006073D01*
X148356798Y-79016798D01*
X148346073Y-79026519D01*
X148334447Y-79035142D01*
X148322031Y-79042583D01*
X148308946Y-79048772D01*
X148295317Y-79053649D01*
X148281276Y-79057166D01*
X148266958Y-79059290D01*
X148252500Y-79060000D01*
X147957500Y-79060000D01*
X147943042Y-79059290D01*
X147928724Y-79057166D01*
X147914683Y-79053649D01*
X147901054Y-79048772D01*
X147887969Y-79042583D01*
X147875553Y-79035142D01*
X147863927Y-79026519D01*
X147853202Y-79016798D01*
X147843481Y-79006073D01*
X147834858Y-78994447D01*
X147827417Y-78982031D01*
X147821228Y-78968946D01*
X147816351Y-78955317D01*
X147812834Y-78941276D01*
X147810710Y-78926958D01*
X147810000Y-78912500D01*
X147810000Y-78567500D01*
X147810710Y-78553042D01*
X147812834Y-78538724D01*
X147816351Y-78524683D01*
X147821228Y-78511054D01*
X147827417Y-78497969D01*
X147834858Y-78485553D01*
X147843481Y-78473927D01*
X147853202Y-78463202D01*
X147863927Y-78453481D01*
X147875553Y-78444858D01*
X147887969Y-78437417D01*
X147901054Y-78431228D01*
X147914683Y-78426351D01*
X147928724Y-78422834D01*
X147943042Y-78420710D01*
X147957500Y-78420000D01*
X148252500Y-78420000D01*
X148266958Y-78420710D01*
G37*
G36*
X148266958Y-96200710D02*
G01*
X148281276Y-96202834D01*
X148295317Y-96206351D01*
X148308946Y-96211228D01*
X148322031Y-96217417D01*
X148334447Y-96224858D01*
X148346073Y-96233481D01*
X148356798Y-96243202D01*
X148366519Y-96253927D01*
X148375142Y-96265553D01*
X148382583Y-96277969D01*
X148388772Y-96291054D01*
X148393649Y-96304683D01*
X148397166Y-96318724D01*
X148399290Y-96333042D01*
X148400000Y-96347500D01*
X148400000Y-96692500D01*
X148399290Y-96706958D01*
X148397166Y-96721276D01*
X148393649Y-96735317D01*
X148388772Y-96748946D01*
X148382583Y-96762031D01*
X148375142Y-96774447D01*
X148366519Y-96786073D01*
X148356798Y-96796798D01*
X148346073Y-96806519D01*
X148334447Y-96815142D01*
X148322031Y-96822583D01*
X148308946Y-96828772D01*
X148295317Y-96833649D01*
X148281276Y-96837166D01*
X148266958Y-96839290D01*
X148252500Y-96840000D01*
X147957500Y-96840000D01*
X147943042Y-96839290D01*
X147928724Y-96837166D01*
X147914683Y-96833649D01*
X147901054Y-96828772D01*
X147887969Y-96822583D01*
X147875553Y-96815142D01*
X147863927Y-96806519D01*
X147853202Y-96796798D01*
X147843481Y-96786073D01*
X147834858Y-96774447D01*
X147827417Y-96762031D01*
X147821228Y-96748946D01*
X147816351Y-96735317D01*
X147812834Y-96721276D01*
X147810710Y-96706958D01*
X147810000Y-96692500D01*
X147810000Y-96347500D01*
X147810710Y-96333042D01*
X147812834Y-96318724D01*
X147816351Y-96304683D01*
X147821228Y-96291054D01*
X147827417Y-96277969D01*
X147834858Y-96265553D01*
X147843481Y-96253927D01*
X147853202Y-96243202D01*
X147863927Y-96233481D01*
X147875553Y-96224858D01*
X147887969Y-96217417D01*
X147901054Y-96211228D01*
X147914683Y-96206351D01*
X147928724Y-96202834D01*
X147943042Y-96200710D01*
X147957500Y-96200000D01*
X148252500Y-96200000D01*
X148266958Y-96200710D01*
G37*
G36*
X149236958Y-96200710D02*
G01*
X149251276Y-96202834D01*
X149265317Y-96206351D01*
X149278946Y-96211228D01*
X149292031Y-96217417D01*
X149304447Y-96224858D01*
X149316073Y-96233481D01*
X149326798Y-96243202D01*
X149336519Y-96253927D01*
X149345142Y-96265553D01*
X149352583Y-96277969D01*
X149358772Y-96291054D01*
X149363649Y-96304683D01*
X149367166Y-96318724D01*
X149369290Y-96333042D01*
X149370000Y-96347500D01*
X149370000Y-96692500D01*
X149369290Y-96706958D01*
X149367166Y-96721276D01*
X149363649Y-96735317D01*
X149358772Y-96748946D01*
X149352583Y-96762031D01*
X149345142Y-96774447D01*
X149336519Y-96786073D01*
X149326798Y-96796798D01*
X149316073Y-96806519D01*
X149304447Y-96815142D01*
X149292031Y-96822583D01*
X149278946Y-96828772D01*
X149265317Y-96833649D01*
X149251276Y-96837166D01*
X149236958Y-96839290D01*
X149222500Y-96840000D01*
X148927500Y-96840000D01*
X148913042Y-96839290D01*
X148898724Y-96837166D01*
X148884683Y-96833649D01*
X148871054Y-96828772D01*
X148857969Y-96822583D01*
X148845553Y-96815142D01*
X148833927Y-96806519D01*
X148823202Y-96796798D01*
X148813481Y-96786073D01*
X148804858Y-96774447D01*
X148797417Y-96762031D01*
X148791228Y-96748946D01*
X148786351Y-96735317D01*
X148782834Y-96721276D01*
X148780710Y-96706958D01*
X148780000Y-96692500D01*
X148780000Y-96347500D01*
X148780710Y-96333042D01*
X148782834Y-96318724D01*
X148786351Y-96304683D01*
X148791228Y-96291054D01*
X148797417Y-96277969D01*
X148804858Y-96265553D01*
X148813481Y-96253927D01*
X148823202Y-96243202D01*
X148833927Y-96233481D01*
X148845553Y-96224858D01*
X148857969Y-96217417D01*
X148871054Y-96211228D01*
X148884683Y-96206351D01*
X148898724Y-96202834D01*
X148913042Y-96200710D01*
X148927500Y-96200000D01*
X149222500Y-96200000D01*
X149236958Y-96200710D01*
G37*
G36*
X148266958Y-94930710D02*
G01*
X148281276Y-94932834D01*
X148295317Y-94936351D01*
X148308946Y-94941228D01*
X148322031Y-94947417D01*
X148334447Y-94954858D01*
X148346073Y-94963481D01*
X148356798Y-94973202D01*
X148366519Y-94983927D01*
X148375142Y-94995553D01*
X148382583Y-95007969D01*
X148388772Y-95021054D01*
X148393649Y-95034683D01*
X148397166Y-95048724D01*
X148399290Y-95063042D01*
X148400000Y-95077500D01*
X148400000Y-95422500D01*
X148399290Y-95436958D01*
X148397166Y-95451276D01*
X148393649Y-95465317D01*
X148388772Y-95478946D01*
X148382583Y-95492031D01*
X148375142Y-95504447D01*
X148366519Y-95516073D01*
X148356798Y-95526798D01*
X148346073Y-95536519D01*
X148334447Y-95545142D01*
X148322031Y-95552583D01*
X148308946Y-95558772D01*
X148295317Y-95563649D01*
X148281276Y-95567166D01*
X148266958Y-95569290D01*
X148252500Y-95570000D01*
X147957500Y-95570000D01*
X147943042Y-95569290D01*
X147928724Y-95567166D01*
X147914683Y-95563649D01*
X147901054Y-95558772D01*
X147887969Y-95552583D01*
X147875553Y-95545142D01*
X147863927Y-95536519D01*
X147853202Y-95526798D01*
X147843481Y-95516073D01*
X147834858Y-95504447D01*
X147827417Y-95492031D01*
X147821228Y-95478946D01*
X147816351Y-95465317D01*
X147812834Y-95451276D01*
X147810710Y-95436958D01*
X147810000Y-95422500D01*
X147810000Y-95077500D01*
X147810710Y-95063042D01*
X147812834Y-95048724D01*
X147816351Y-95034683D01*
X147821228Y-95021054D01*
X147827417Y-95007969D01*
X147834858Y-94995553D01*
X147843481Y-94983927D01*
X147853202Y-94973202D01*
X147863927Y-94963481D01*
X147875553Y-94954858D01*
X147887969Y-94947417D01*
X147901054Y-94941228D01*
X147914683Y-94936351D01*
X147928724Y-94932834D01*
X147943042Y-94930710D01*
X147957500Y-94930000D01*
X148252500Y-94930000D01*
X148266958Y-94930710D01*
G37*
G36*
X149236958Y-94930710D02*
G01*
X149251276Y-94932834D01*
X149265317Y-94936351D01*
X149278946Y-94941228D01*
X149292031Y-94947417D01*
X149304447Y-94954858D01*
X149316073Y-94963481D01*
X149326798Y-94973202D01*
X149336519Y-94983927D01*
X149345142Y-94995553D01*
X149352583Y-95007969D01*
X149358772Y-95021054D01*
X149363649Y-95034683D01*
X149367166Y-95048724D01*
X149369290Y-95063042D01*
X149370000Y-95077500D01*
X149370000Y-95422500D01*
X149369290Y-95436958D01*
X149367166Y-95451276D01*
X149363649Y-95465317D01*
X149358772Y-95478946D01*
X149352583Y-95492031D01*
X149345142Y-95504447D01*
X149336519Y-95516073D01*
X149326798Y-95526798D01*
X149316073Y-95536519D01*
X149304447Y-95545142D01*
X149292031Y-95552583D01*
X149278946Y-95558772D01*
X149265317Y-95563649D01*
X149251276Y-95567166D01*
X149236958Y-95569290D01*
X149222500Y-95570000D01*
X148927500Y-95570000D01*
X148913042Y-95569290D01*
X148898724Y-95567166D01*
X148884683Y-95563649D01*
X148871054Y-95558772D01*
X148857969Y-95552583D01*
X148845553Y-95545142D01*
X148833927Y-95536519D01*
X148823202Y-95526798D01*
X148813481Y-95516073D01*
X148804858Y-95504447D01*
X148797417Y-95492031D01*
X148791228Y-95478946D01*
X148786351Y-95465317D01*
X148782834Y-95451276D01*
X148780710Y-95436958D01*
X148780000Y-95422500D01*
X148780000Y-95077500D01*
X148780710Y-95063042D01*
X148782834Y-95048724D01*
X148786351Y-95034683D01*
X148791228Y-95021054D01*
X148797417Y-95007969D01*
X148804858Y-94995553D01*
X148813481Y-94983927D01*
X148823202Y-94973202D01*
X148833927Y-94963481D01*
X148845553Y-94954858D01*
X148857969Y-94947417D01*
X148871054Y-94941228D01*
X148884683Y-94936351D01*
X148898724Y-94932834D01*
X148913042Y-94930710D01*
X148927500Y-94930000D01*
X149222500Y-94930000D01*
X149236958Y-94930710D01*
G37*
D15*
X146130000Y-78740000D03*
X146130000Y-79690000D03*
X146130000Y-77790000D03*
X143430000Y-77790000D03*
X143430000Y-78740000D03*
X143430000Y-79690000D03*
X143430000Y-96200000D03*
X143430000Y-95250000D03*
X143430000Y-94300000D03*
X146130000Y-94300000D03*
X146130000Y-96200000D03*
X146130000Y-95250000D03*
D10*
G36*
X143188958Y-98234710D02*
G01*
X143203276Y-98236834D01*
X143217317Y-98240351D01*
X143230946Y-98245228D01*
X143244031Y-98251417D01*
X143256447Y-98258858D01*
X143268073Y-98267481D01*
X143278798Y-98277202D01*
X143288519Y-98287927D01*
X143297142Y-98299553D01*
X143304583Y-98311969D01*
X143310772Y-98325054D01*
X143315649Y-98338683D01*
X143319166Y-98352724D01*
X143321290Y-98367042D01*
X143322000Y-98381500D01*
X143322000Y-98676500D01*
X143321290Y-98690958D01*
X143319166Y-98705276D01*
X143315649Y-98719317D01*
X143310772Y-98732946D01*
X143304583Y-98746031D01*
X143297142Y-98758447D01*
X143288519Y-98770073D01*
X143278798Y-98780798D01*
X143268073Y-98790519D01*
X143256447Y-98799142D01*
X143244031Y-98806583D01*
X143230946Y-98812772D01*
X143217317Y-98817649D01*
X143203276Y-98821166D01*
X143188958Y-98823290D01*
X143174500Y-98824000D01*
X142829500Y-98824000D01*
X142815042Y-98823290D01*
X142800724Y-98821166D01*
X142786683Y-98817649D01*
X142773054Y-98812772D01*
X142759969Y-98806583D01*
X142747553Y-98799142D01*
X142735927Y-98790519D01*
X142725202Y-98780798D01*
X142715481Y-98770073D01*
X142706858Y-98758447D01*
X142699417Y-98746031D01*
X142693228Y-98732946D01*
X142688351Y-98719317D01*
X142684834Y-98705276D01*
X142682710Y-98690958D01*
X142682000Y-98676500D01*
X142682000Y-98381500D01*
X142682710Y-98367042D01*
X142684834Y-98352724D01*
X142688351Y-98338683D01*
X142693228Y-98325054D01*
X142699417Y-98311969D01*
X142706858Y-98299553D01*
X142715481Y-98287927D01*
X142725202Y-98277202D01*
X142735927Y-98267481D01*
X142747553Y-98258858D01*
X142759969Y-98251417D01*
X142773054Y-98245228D01*
X142786683Y-98240351D01*
X142800724Y-98236834D01*
X142815042Y-98234710D01*
X142829500Y-98234000D01*
X143174500Y-98234000D01*
X143188958Y-98234710D01*
G37*
G36*
X143188958Y-97264710D02*
G01*
X143203276Y-97266834D01*
X143217317Y-97270351D01*
X143230946Y-97275228D01*
X143244031Y-97281417D01*
X143256447Y-97288858D01*
X143268073Y-97297481D01*
X143278798Y-97307202D01*
X143288519Y-97317927D01*
X143297142Y-97329553D01*
X143304583Y-97341969D01*
X143310772Y-97355054D01*
X143315649Y-97368683D01*
X143319166Y-97382724D01*
X143321290Y-97397042D01*
X143322000Y-97411500D01*
X143322000Y-97706500D01*
X143321290Y-97720958D01*
X143319166Y-97735276D01*
X143315649Y-97749317D01*
X143310772Y-97762946D01*
X143304583Y-97776031D01*
X143297142Y-97788447D01*
X143288519Y-97800073D01*
X143278798Y-97810798D01*
X143268073Y-97820519D01*
X143256447Y-97829142D01*
X143244031Y-97836583D01*
X143230946Y-97842772D01*
X143217317Y-97847649D01*
X143203276Y-97851166D01*
X143188958Y-97853290D01*
X143174500Y-97854000D01*
X142829500Y-97854000D01*
X142815042Y-97853290D01*
X142800724Y-97851166D01*
X142786683Y-97847649D01*
X142773054Y-97842772D01*
X142759969Y-97836583D01*
X142747553Y-97829142D01*
X142735927Y-97820519D01*
X142725202Y-97810798D01*
X142715481Y-97800073D01*
X142706858Y-97788447D01*
X142699417Y-97776031D01*
X142693228Y-97762946D01*
X142688351Y-97749317D01*
X142684834Y-97735276D01*
X142682710Y-97720958D01*
X142682000Y-97706500D01*
X142682000Y-97411500D01*
X142682710Y-97397042D01*
X142684834Y-97382724D01*
X142688351Y-97368683D01*
X142693228Y-97355054D01*
X142699417Y-97341969D01*
X142706858Y-97329553D01*
X142715481Y-97317927D01*
X142725202Y-97307202D01*
X142735927Y-97297481D01*
X142747553Y-97288858D01*
X142759969Y-97281417D01*
X142773054Y-97275228D01*
X142786683Y-97270351D01*
X142800724Y-97266834D01*
X142815042Y-97264710D01*
X142829500Y-97264000D01*
X143174500Y-97264000D01*
X143188958Y-97264710D01*
G37*
G36*
X145474958Y-80754710D02*
G01*
X145489276Y-80756834D01*
X145503317Y-80760351D01*
X145516946Y-80765228D01*
X145530031Y-80771417D01*
X145542447Y-80778858D01*
X145554073Y-80787481D01*
X145564798Y-80797202D01*
X145574519Y-80807927D01*
X145583142Y-80819553D01*
X145590583Y-80831969D01*
X145596772Y-80845054D01*
X145601649Y-80858683D01*
X145605166Y-80872724D01*
X145607290Y-80887042D01*
X145608000Y-80901500D01*
X145608000Y-81196500D01*
X145607290Y-81210958D01*
X145605166Y-81225276D01*
X145601649Y-81239317D01*
X145596772Y-81252946D01*
X145590583Y-81266031D01*
X145583142Y-81278447D01*
X145574519Y-81290073D01*
X145564798Y-81300798D01*
X145554073Y-81310519D01*
X145542447Y-81319142D01*
X145530031Y-81326583D01*
X145516946Y-81332772D01*
X145503317Y-81337649D01*
X145489276Y-81341166D01*
X145474958Y-81343290D01*
X145460500Y-81344000D01*
X145115500Y-81344000D01*
X145101042Y-81343290D01*
X145086724Y-81341166D01*
X145072683Y-81337649D01*
X145059054Y-81332772D01*
X145045969Y-81326583D01*
X145033553Y-81319142D01*
X145021927Y-81310519D01*
X145011202Y-81300798D01*
X145001481Y-81290073D01*
X144992858Y-81278447D01*
X144985417Y-81266031D01*
X144979228Y-81252946D01*
X144974351Y-81239317D01*
X144970834Y-81225276D01*
X144968710Y-81210958D01*
X144968000Y-81196500D01*
X144968000Y-80901500D01*
X144968710Y-80887042D01*
X144970834Y-80872724D01*
X144974351Y-80858683D01*
X144979228Y-80845054D01*
X144985417Y-80831969D01*
X144992858Y-80819553D01*
X145001481Y-80807927D01*
X145011202Y-80797202D01*
X145021927Y-80787481D01*
X145033553Y-80778858D01*
X145045969Y-80771417D01*
X145059054Y-80765228D01*
X145072683Y-80760351D01*
X145086724Y-80756834D01*
X145101042Y-80754710D01*
X145115500Y-80754000D01*
X145460500Y-80754000D01*
X145474958Y-80754710D01*
G37*
G36*
X145474958Y-81724710D02*
G01*
X145489276Y-81726834D01*
X145503317Y-81730351D01*
X145516946Y-81735228D01*
X145530031Y-81741417D01*
X145542447Y-81748858D01*
X145554073Y-81757481D01*
X145564798Y-81767202D01*
X145574519Y-81777927D01*
X145583142Y-81789553D01*
X145590583Y-81801969D01*
X145596772Y-81815054D01*
X145601649Y-81828683D01*
X145605166Y-81842724D01*
X145607290Y-81857042D01*
X145608000Y-81871500D01*
X145608000Y-82166500D01*
X145607290Y-82180958D01*
X145605166Y-82195276D01*
X145601649Y-82209317D01*
X145596772Y-82222946D01*
X145590583Y-82236031D01*
X145583142Y-82248447D01*
X145574519Y-82260073D01*
X145564798Y-82270798D01*
X145554073Y-82280519D01*
X145542447Y-82289142D01*
X145530031Y-82296583D01*
X145516946Y-82302772D01*
X145503317Y-82307649D01*
X145489276Y-82311166D01*
X145474958Y-82313290D01*
X145460500Y-82314000D01*
X145115500Y-82314000D01*
X145101042Y-82313290D01*
X145086724Y-82311166D01*
X145072683Y-82307649D01*
X145059054Y-82302772D01*
X145045969Y-82296583D01*
X145033553Y-82289142D01*
X145021927Y-82280519D01*
X145011202Y-82270798D01*
X145001481Y-82260073D01*
X144992858Y-82248447D01*
X144985417Y-82236031D01*
X144979228Y-82222946D01*
X144974351Y-82209317D01*
X144970834Y-82195276D01*
X144968710Y-82180958D01*
X144968000Y-82166500D01*
X144968000Y-81871500D01*
X144968710Y-81857042D01*
X144970834Y-81842724D01*
X144974351Y-81828683D01*
X144979228Y-81815054D01*
X144985417Y-81801969D01*
X144992858Y-81789553D01*
X145001481Y-81777927D01*
X145011202Y-81767202D01*
X145021927Y-81757481D01*
X145033553Y-81748858D01*
X145045969Y-81741417D01*
X145059054Y-81735228D01*
X145072683Y-81730351D01*
X145086724Y-81726834D01*
X145101042Y-81724710D01*
X145115500Y-81724000D01*
X145460500Y-81724000D01*
X145474958Y-81724710D01*
G37*
G36*
X145728958Y-98234710D02*
G01*
X145743276Y-98236834D01*
X145757317Y-98240351D01*
X145770946Y-98245228D01*
X145784031Y-98251417D01*
X145796447Y-98258858D01*
X145808073Y-98267481D01*
X145818798Y-98277202D01*
X145828519Y-98287927D01*
X145837142Y-98299553D01*
X145844583Y-98311969D01*
X145850772Y-98325054D01*
X145855649Y-98338683D01*
X145859166Y-98352724D01*
X145861290Y-98367042D01*
X145862000Y-98381500D01*
X145862000Y-98676500D01*
X145861290Y-98690958D01*
X145859166Y-98705276D01*
X145855649Y-98719317D01*
X145850772Y-98732946D01*
X145844583Y-98746031D01*
X145837142Y-98758447D01*
X145828519Y-98770073D01*
X145818798Y-98780798D01*
X145808073Y-98790519D01*
X145796447Y-98799142D01*
X145784031Y-98806583D01*
X145770946Y-98812772D01*
X145757317Y-98817649D01*
X145743276Y-98821166D01*
X145728958Y-98823290D01*
X145714500Y-98824000D01*
X145369500Y-98824000D01*
X145355042Y-98823290D01*
X145340724Y-98821166D01*
X145326683Y-98817649D01*
X145313054Y-98812772D01*
X145299969Y-98806583D01*
X145287553Y-98799142D01*
X145275927Y-98790519D01*
X145265202Y-98780798D01*
X145255481Y-98770073D01*
X145246858Y-98758447D01*
X145239417Y-98746031D01*
X145233228Y-98732946D01*
X145228351Y-98719317D01*
X145224834Y-98705276D01*
X145222710Y-98690958D01*
X145222000Y-98676500D01*
X145222000Y-98381500D01*
X145222710Y-98367042D01*
X145224834Y-98352724D01*
X145228351Y-98338683D01*
X145233228Y-98325054D01*
X145239417Y-98311969D01*
X145246858Y-98299553D01*
X145255481Y-98287927D01*
X145265202Y-98277202D01*
X145275927Y-98267481D01*
X145287553Y-98258858D01*
X145299969Y-98251417D01*
X145313054Y-98245228D01*
X145326683Y-98240351D01*
X145340724Y-98236834D01*
X145355042Y-98234710D01*
X145369500Y-98234000D01*
X145714500Y-98234000D01*
X145728958Y-98234710D01*
G37*
G36*
X145728958Y-97264710D02*
G01*
X145743276Y-97266834D01*
X145757317Y-97270351D01*
X145770946Y-97275228D01*
X145784031Y-97281417D01*
X145796447Y-97288858D01*
X145808073Y-97297481D01*
X145818798Y-97307202D01*
X145828519Y-97317927D01*
X145837142Y-97329553D01*
X145844583Y-97341969D01*
X145850772Y-97355054D01*
X145855649Y-97368683D01*
X145859166Y-97382724D01*
X145861290Y-97397042D01*
X145862000Y-97411500D01*
X145862000Y-97706500D01*
X145861290Y-97720958D01*
X145859166Y-97735276D01*
X145855649Y-97749317D01*
X145850772Y-97762946D01*
X145844583Y-97776031D01*
X145837142Y-97788447D01*
X145828519Y-97800073D01*
X145818798Y-97810798D01*
X145808073Y-97820519D01*
X145796447Y-97829142D01*
X145784031Y-97836583D01*
X145770946Y-97842772D01*
X145757317Y-97847649D01*
X145743276Y-97851166D01*
X145728958Y-97853290D01*
X145714500Y-97854000D01*
X145369500Y-97854000D01*
X145355042Y-97853290D01*
X145340724Y-97851166D01*
X145326683Y-97847649D01*
X145313054Y-97842772D01*
X145299969Y-97836583D01*
X145287553Y-97829142D01*
X145275927Y-97820519D01*
X145265202Y-97810798D01*
X145255481Y-97800073D01*
X145246858Y-97788447D01*
X145239417Y-97776031D01*
X145233228Y-97762946D01*
X145228351Y-97749317D01*
X145224834Y-97735276D01*
X145222710Y-97720958D01*
X145222000Y-97706500D01*
X145222000Y-97411500D01*
X145222710Y-97397042D01*
X145224834Y-97382724D01*
X145228351Y-97368683D01*
X145233228Y-97355054D01*
X145239417Y-97341969D01*
X145246858Y-97329553D01*
X145255481Y-97317927D01*
X145265202Y-97307202D01*
X145275927Y-97297481D01*
X145287553Y-97288858D01*
X145299969Y-97281417D01*
X145313054Y-97275228D01*
X145326683Y-97270351D01*
X145340724Y-97266834D01*
X145355042Y-97264710D01*
X145369500Y-97264000D01*
X145714500Y-97264000D01*
X145728958Y-97264710D01*
G37*
M02*
