M48
; DRILL file {KiCad (5.1.5)-3} date 01/07/2022 00:55:36
; FORMAT={-:-/ absolute / metric / decimal}
; #@! TF.CreationDate,2022-07-01T00:55:36+09:00
; #@! TF.GenerationSoftware,Kicad,Pcbnew,(5.1.5)-3
FMAT,2
METRIC
T1C0.400
T2C0.500
T3C0.750
T4C0.800
T5C1.000
T6C1.200
T7C2.000
T8C0.650
%
G90
G05
T1
X95.25Y-67.818
X96.012Y-63.246
X96.272Y-67.366
X97.034Y-63.556
X110.236Y-57.15
X110.617Y-70.993
X110.998Y-59.436
X112.014Y-69.596
X112.014Y-80.264
X112.014Y-81.915
X113.284Y-75.184
X113.538Y-77.216
X113.919Y-80.264
X113.919Y-81.915
X114.3Y-51.435
X114.554Y-61.214
X115.062Y-64.008
X115.443Y-56.642
X115.57Y-58.928
X115.57Y-81.28
X117.094Y-70.739
X117.094Y-73.406
X117.348Y-75.184
X117.602Y-68.834
X117.602Y-93.218
X117.729Y-89.535
X117.856Y-58.674
X118.11Y-51.435
X119.126Y-61.722
X119.634Y-91.694
X119.761Y-76.962
X119.761Y-80.899
X119.888Y-58.674
X120.015Y-87.249
X120.65Y-61.722
X120.65Y-77.978
X120.65Y-80.01
X120.65Y-98.552
X121.285Y-70.866
X121.808Y-71.859
X121.92Y-51.435
X122.174Y-62.484
X122.428Y-77.978
X122.428Y-80.01
X122.936Y-81.153
X122.936Y-85.367
X122.936Y-91.948
X123.444Y-76.454
X123.444Y-87.122
X124.079Y-77.978
X124.333Y-66.167
X124.333Y-67.564
X124.46Y-57.15
X124.714Y-86.36
X124.714Y-92.964
X124.824Y-64.801
X124.968Y-85.344
X124.968Y-90.678
X125.222Y-69.977
X125.73Y-51.435
X125.984Y-62.23
X125.984Y-74.422
X126.126Y-71.859
X126.238Y-55.88
X127.0Y-68.58
X127.0Y-70.485
X127.127Y-96.393
X127.127Y-98.044
X127.254Y-64.262
X127.254Y-76.2
X127.254Y-91.44
X127.396Y-73.891
X127.762Y-80.772
X128.016Y-66.929
X128.016Y-74.93
X128.143Y-71.755
X128.143Y-84.497
X128.27Y-63.246
X128.27Y-96.393
X128.27Y-98.044
X128.524Y-79.733
X128.524Y-81.534
X128.778Y-60.706
X128.778Y-87.122
X128.884Y-64.2
X129.54Y-51.435
X130.302Y-82.296
X130.556Y-90.678
X130.81Y-74.041
X131.064Y-65.532
X131.064Y-93.218
X131.191Y-68.58
X131.191Y-71.755
X131.826Y-96.012
X132.461Y-69.342
X132.461Y-70.485
X132.461Y-76.2
X132.461Y-83.312
X132.588Y-85.217
X132.588Y-86.233
X132.588Y-90.678
X133.35Y-51.435
X133.477Y-68.834
X133.477Y-69.977
X133.477Y-70.993
X133.604Y-76.962
X133.604Y-85.217
X133.604Y-86.233
X133.604Y-87.249
X134.112Y-72.009
X134.389Y-60.452
X134.62Y-68.834
X134.62Y-69.977
X134.62Y-70.993
X134.747Y-85.471
X134.747Y-86.487
X134.747Y-87.503
X135.128Y-72.009
X135.382Y-76.962
X135.382Y-88.519
X135.763Y-68.834
X135.763Y-69.977
X135.763Y-70.993
X135.89Y-85.471
X135.89Y-86.487
X135.89Y-87.503
X136.525Y-60.452
X137.16Y-51.435
X137.922Y-93.472
X139.446Y-94.742
X141.478Y-95.059
X141.478Y-99.314
X141.986Y-85.598
X141.986Y-86.614
X141.986Y-87.63
X142.113Y-69.215
X142.113Y-70.231
X142.113Y-71.247
X142.494Y-72.136
X142.621Y-88.646
X143.002Y-98.529
X143.129Y-85.598
X143.129Y-86.614
X143.129Y-87.63
X143.256Y-69.215
X143.256Y-70.231
X143.256Y-71.247
X143.383Y-75.565
X143.51Y-92.075
X143.637Y-72.136
X143.891Y-88.646
X143.995Y-67.564
X143.995Y-84.328
X144.145Y-51.435
X144.272Y-85.598
X144.272Y-86.614
X144.272Y-87.63
X144.399Y-69.215
X144.399Y-70.231
X144.399Y-71.247
X144.78Y-72.517
X144.78Y-89.408
X146.05Y-84.328
X146.05Y-92.075
X146.177Y-75.565
X146.304Y-67.818
X146.812Y-85.344
X147.066Y-68.834
X148.59Y-51.435
X152.908Y-99.06
X154.305Y-51.435
X156.21Y-99.06
X158.115Y-51.435
X159.004Y-84.328
X159.004Y-88.9
X159.004Y-93.472
X159.004Y-95.758
X159.385Y-99.06
X159.512Y-58.928
X159.512Y-60.96
X160.782Y-58.928
X160.782Y-60.96
X160.782Y-62.992
X160.782Y-66.548
X161.036Y-71.12
X161.036Y-75.438
X161.29Y-80.01
X162.052Y-58.928
X162.052Y-60.96
X162.052Y-62.992
X163.195Y-55.245
X163.195Y-58.928
X163.195Y-62.992
X163.195Y-66.675
X163.195Y-71.12
X163.195Y-75.565
X163.195Y-80.01
X163.195Y-84.455
X163.195Y-88.9
X163.195Y-93.345
X163.195Y-95.885
X163.322Y-60.96
T3
X127.22Y-53.83
X129.22Y-53.83
X131.22Y-53.83
X133.22Y-53.83
X135.22Y-53.83
X137.22Y-53.83
X112.23Y-72.24
X112.23Y-74.24
X112.23Y-76.24
X112.23Y-78.24
X131.89Y-98.298
X133.89Y-98.298
X135.89Y-98.298
X137.89Y-98.298
X112.22Y-83.33
X112.22Y-85.33
X112.22Y-87.33
X112.22Y-89.33
X112.22Y-91.33
X112.22Y-93.33
X115.92Y-53.84
X117.92Y-53.84
X119.92Y-53.84
X121.92Y-53.84
T4
X121.666Y-78.994
T5
X156.21Y-67.525
X156.21Y-78.525
X94.24Y-70.73
X96.78Y-70.73
X99.32Y-70.73
X156.21Y-84.035
X156.21Y-95.035
X110.998Y-62.738
X110.998Y-65.278
X110.998Y-67.818
T6
X141.22Y-51.83
X152.22Y-51.83
T7
X111.22Y-52.33
X111.22Y-98.33
X162.22Y-52.33
X162.22Y-98.33
X144.22Y-61.83
X149.22Y-61.83
X151.21Y-70.525
X151.21Y-75.525
X151.21Y-87.035
X151.21Y-92.035
T8
X100.38Y-65.63
T2
G00X92.29Y-58.73
M15
G01X92.29Y-58.13
M16
G05
G00X92.65Y-64.68
M15
G01X92.65Y-64.08
M16
G05
G00X100.91Y-64.68
M15
G01X100.91Y-64.08
M16
G05
G00X101.27Y-58.73
M15
G01X101.27Y-58.13
M16
G05
T8
G00X93.33Y-65.63
M15
G01X93.03Y-65.63
M16
G05
T0
M30
