G04 #@! TF.GenerationSoftware,KiCad,Pcbnew,(5.1.5)-3*
G04 #@! TF.CreationDate,2022-07-01T00:55:21+09:00*
G04 #@! TF.ProjectId,RP_MD,52505f4d-442e-46b6-9963-61645f706362,rev?*
G04 #@! TF.SameCoordinates,Original*
G04 #@! TF.FileFunction,Legend,Bot*
G04 #@! TF.FilePolarity,Positive*
%FSLAX46Y46*%
G04 Gerber Fmt 4.6, Leading zero omitted, Abs format (unit mm)*
G04 Created by KiCad (PCBNEW (5.1.5)-3) date 2022-07-01 00:55:21*
%MOMM*%
%LPD*%
G04 APERTURE LIST*
%ADD10C,0.150000*%
%ADD11C,0.120000*%
G04 APERTURE END LIST*
D10*
X120776976Y-70762880D02*
X121253166Y-70762880D01*
X121300785Y-71239071D01*
X121253166Y-71191452D01*
X121157928Y-71143833D01*
X120919833Y-71143833D01*
X120824595Y-71191452D01*
X120776976Y-71239071D01*
X120729357Y-71334309D01*
X120729357Y-71572404D01*
X120776976Y-71667642D01*
X120824595Y-71715261D01*
X120919833Y-71762880D01*
X121157928Y-71762880D01*
X121253166Y-71715261D01*
X121300785Y-71667642D01*
X120443642Y-70762880D02*
X120110309Y-71762880D01*
X119776976Y-70762880D01*
X122697690Y-68095880D02*
X122078642Y-68095880D01*
X122411976Y-68476833D01*
X122269119Y-68476833D01*
X122173880Y-68524452D01*
X122126261Y-68572071D01*
X122078642Y-68667309D01*
X122078642Y-68905404D01*
X122126261Y-69000642D01*
X122173880Y-69048261D01*
X122269119Y-69095880D01*
X122554833Y-69095880D01*
X122650071Y-69048261D01*
X122697690Y-69000642D01*
X121650071Y-69000642D02*
X121602452Y-69048261D01*
X121650071Y-69095880D01*
X121697690Y-69048261D01*
X121650071Y-69000642D01*
X121650071Y-69095880D01*
X121269119Y-68095880D02*
X120650071Y-68095880D01*
X120983404Y-68476833D01*
X120840547Y-68476833D01*
X120745309Y-68524452D01*
X120697690Y-68572071D01*
X120650071Y-68667309D01*
X120650071Y-68905404D01*
X120697690Y-69000642D01*
X120745309Y-69048261D01*
X120840547Y-69095880D01*
X121126261Y-69095880D01*
X121221500Y-69048261D01*
X121269119Y-69000642D01*
X120364357Y-68095880D02*
X120031023Y-69095880D01*
X119697690Y-68095880D01*
X122070880Y-61722023D02*
X122070880Y-61245833D01*
X122547071Y-61198214D01*
X122499452Y-61245833D01*
X122451833Y-61341071D01*
X122451833Y-61579166D01*
X122499452Y-61674404D01*
X122547071Y-61722023D01*
X122642309Y-61769642D01*
X122880404Y-61769642D01*
X122975642Y-61722023D01*
X123023261Y-61674404D01*
X123070880Y-61579166D01*
X123070880Y-61341071D01*
X123023261Y-61245833D01*
X122975642Y-61198214D01*
X122070880Y-62055357D02*
X123070880Y-62388690D01*
X122070880Y-62722023D01*
X124420380Y-61198309D02*
X124420380Y-61817357D01*
X124801333Y-61484023D01*
X124801333Y-61626880D01*
X124848952Y-61722119D01*
X124896571Y-61769738D01*
X124991809Y-61817357D01*
X125229904Y-61817357D01*
X125325142Y-61769738D01*
X125372761Y-61722119D01*
X125420380Y-61626880D01*
X125420380Y-61341166D01*
X125372761Y-61245928D01*
X125325142Y-61198309D01*
X125325142Y-62245928D02*
X125372761Y-62293547D01*
X125420380Y-62245928D01*
X125372761Y-62198309D01*
X125325142Y-62245928D01*
X125420380Y-62245928D01*
X124420380Y-62626880D02*
X124420380Y-63245928D01*
X124801333Y-62912595D01*
X124801333Y-63055452D01*
X124848952Y-63150690D01*
X124896571Y-63198309D01*
X124991809Y-63245928D01*
X125229904Y-63245928D01*
X125325142Y-63198309D01*
X125372761Y-63150690D01*
X125420380Y-63055452D01*
X125420380Y-62769738D01*
X125372761Y-62674500D01*
X125325142Y-62626880D01*
X124420380Y-63531642D02*
X125420380Y-63864976D01*
X124420380Y-64198309D01*
D11*
X124719000Y-100118000D02*
X124719000Y-99268000D01*
X114549000Y-100118000D02*
X124719000Y-100118000D01*
X114549000Y-99268000D02*
X114549000Y-100118000D01*
X124719000Y-94898000D02*
X122394000Y-94898000D01*
X124719000Y-95748000D02*
X124719000Y-94898000D01*
X116874000Y-94898000D02*
X116874000Y-92508000D01*
X114549000Y-94898000D02*
X116874000Y-94898000D01*
X114549000Y-95748000D02*
X114549000Y-94898000D01*
X125616000Y-97474500D02*
X126816000Y-97474500D01*
X125616000Y-93474500D02*
X125616000Y-97474500D01*
X130416000Y-97474500D02*
X130416000Y-94774500D01*
X129216000Y-97474500D02*
X130416000Y-97474500D01*
X116170000Y-68160000D02*
X113370000Y-68160000D01*
X113370000Y-68160000D02*
X113370000Y-70160000D01*
X113370000Y-70160000D02*
X116170000Y-70160000D01*
X116170000Y-70160000D02*
X116170000Y-68160000D01*
X125460000Y-57780000D02*
X125460000Y-54980000D01*
X125460000Y-54980000D02*
X123460000Y-54980000D01*
X123460000Y-54980000D02*
X123460000Y-57780000D01*
X123460000Y-57780000D02*
X125460000Y-57780000D01*
X116170000Y-70700000D02*
X113370000Y-70700000D01*
X113370000Y-70700000D02*
X113370000Y-72700000D01*
X113370000Y-72700000D02*
X116170000Y-72700000D01*
X116170000Y-72700000D02*
X116170000Y-70700000D01*
X122920000Y-57780000D02*
X122920000Y-54980000D01*
X122920000Y-54980000D02*
X120920000Y-54980000D01*
X120920000Y-54980000D02*
X120920000Y-57780000D01*
X120920000Y-57780000D02*
X122920000Y-57780000D01*
D10*
X135152000Y-61317000D02*
X135152000Y-61542000D01*
X131802000Y-61317000D02*
X131802000Y-61617000D01*
X131802000Y-64667000D02*
X131802000Y-64367000D01*
X135152000Y-64667000D02*
X135152000Y-64367000D01*
X135152000Y-61317000D02*
X131802000Y-61317000D01*
X135152000Y-64667000D02*
X131802000Y-64667000D01*
X135152000Y-61542000D02*
X136377000Y-61542000D01*
X135279000Y-78052000D02*
X136504000Y-78052000D01*
X135279000Y-81177000D02*
X131929000Y-81177000D01*
X135279000Y-77827000D02*
X131929000Y-77827000D01*
X135279000Y-81177000D02*
X135279000Y-80877000D01*
X131929000Y-81177000D02*
X131929000Y-80877000D01*
X131929000Y-77827000D02*
X131929000Y-78127000D01*
X135279000Y-77827000D02*
X135279000Y-78052000D01*
D11*
X145680000Y-80350000D02*
X142730000Y-80350000D01*
X143880000Y-77130000D02*
X145680000Y-77130000D01*
X143880000Y-93640000D02*
X145680000Y-93640000D01*
X145680000Y-96860000D02*
X142730000Y-96860000D01*
D10*
X116157333Y-92670380D02*
X116157333Y-93384666D01*
X116204952Y-93527523D01*
X116300190Y-93622761D01*
X116443047Y-93670380D01*
X116538285Y-93670380D01*
X115633523Y-93670380D02*
X115443047Y-93670380D01*
X115347809Y-93622761D01*
X115300190Y-93575142D01*
X115204952Y-93432285D01*
X115157333Y-93241809D01*
X115157333Y-92860857D01*
X115204952Y-92765619D01*
X115252571Y-92718000D01*
X115347809Y-92670380D01*
X115538285Y-92670380D01*
X115633523Y-92718000D01*
X115681142Y-92765619D01*
X115728761Y-92860857D01*
X115728761Y-93098952D01*
X115681142Y-93194190D01*
X115633523Y-93241809D01*
X115538285Y-93289428D01*
X115347809Y-93289428D01*
X115252571Y-93241809D01*
X115204952Y-93194190D01*
X115157333Y-93098952D01*
X129105595Y-91908380D02*
X129105595Y-92717904D01*
X129057976Y-92813142D01*
X129010357Y-92860761D01*
X128915119Y-92908380D01*
X128724642Y-92908380D01*
X128629404Y-92860761D01*
X128581785Y-92813142D01*
X128534166Y-92717904D01*
X128534166Y-91908380D01*
X127534166Y-92908380D02*
X128105595Y-92908380D01*
X127819880Y-92908380D02*
X127819880Y-91908380D01*
X127915119Y-92051238D01*
X128010357Y-92146476D01*
X128105595Y-92194095D01*
X126915119Y-91908380D02*
X126819880Y-91908380D01*
X126724642Y-91956000D01*
X126677023Y-92003619D01*
X126629404Y-92098857D01*
X126581785Y-92289333D01*
X126581785Y-92527428D01*
X126629404Y-92717904D01*
X126677023Y-92813142D01*
X126724642Y-92860761D01*
X126819880Y-92908380D01*
X126915119Y-92908380D01*
X127010357Y-92860761D01*
X127057976Y-92813142D01*
X127105595Y-92717904D01*
X127153214Y-92527428D01*
X127153214Y-92289333D01*
X127105595Y-92098857D01*
X127057976Y-92003619D01*
X127010357Y-91956000D01*
X126915119Y-91908380D01*
X125356857Y-92305142D02*
X125404476Y-92352761D01*
X125547333Y-92400380D01*
X125642571Y-92400380D01*
X125785428Y-92352761D01*
X125880666Y-92257523D01*
X125928285Y-92162285D01*
X125975904Y-91971809D01*
X125975904Y-91828952D01*
X125928285Y-91638476D01*
X125880666Y-91543238D01*
X125785428Y-91448000D01*
X125642571Y-91400380D01*
X125547333Y-91400380D01*
X125404476Y-91448000D01*
X125356857Y-91495619D01*
X124975904Y-91495619D02*
X124928285Y-91448000D01*
X124833047Y-91400380D01*
X124594952Y-91400380D01*
X124499714Y-91448000D01*
X124452095Y-91495619D01*
X124404476Y-91590857D01*
X124404476Y-91686095D01*
X124452095Y-91828952D01*
X125023523Y-92400380D01*
X124404476Y-92400380D01*
X123547333Y-91400380D02*
X123737809Y-91400380D01*
X123833047Y-91448000D01*
X123880666Y-91495619D01*
X123975904Y-91638476D01*
X124023523Y-91828952D01*
X124023523Y-92209904D01*
X123975904Y-92305142D01*
X123928285Y-92352761D01*
X123833047Y-92400380D01*
X123642571Y-92400380D01*
X123547333Y-92352761D01*
X123499714Y-92305142D01*
X123452095Y-92209904D01*
X123452095Y-91971809D01*
X123499714Y-91876571D01*
X123547333Y-91828952D01*
X123642571Y-91781333D01*
X123833047Y-91781333D01*
X123928285Y-91828952D01*
X123975904Y-91876571D01*
X124023523Y-91971809D01*
X132881642Y-93083142D02*
X132929261Y-93035523D01*
X132976880Y-92892666D01*
X132976880Y-92797428D01*
X132929261Y-92654571D01*
X132834023Y-92559333D01*
X132738785Y-92511714D01*
X132548309Y-92464095D01*
X132405452Y-92464095D01*
X132214976Y-92511714D01*
X132119738Y-92559333D01*
X132024500Y-92654571D01*
X131976880Y-92797428D01*
X131976880Y-92892666D01*
X132024500Y-93035523D01*
X132072119Y-93083142D01*
X132072119Y-93464095D02*
X132024500Y-93511714D01*
X131976880Y-93606952D01*
X131976880Y-93845047D01*
X132024500Y-93940285D01*
X132072119Y-93987904D01*
X132167357Y-94035523D01*
X132262595Y-94035523D01*
X132405452Y-93987904D01*
X132976880Y-93416476D01*
X132976880Y-94035523D01*
X132072119Y-94416476D02*
X132024500Y-94464095D01*
X131976880Y-94559333D01*
X131976880Y-94797428D01*
X132024500Y-94892666D01*
X132072119Y-94940285D01*
X132167357Y-94987904D01*
X132262595Y-94987904D01*
X132405452Y-94940285D01*
X132976880Y-94368857D01*
X132976880Y-94987904D01*
X141041357Y-84907380D02*
X141374690Y-84431190D01*
X141612785Y-84907380D02*
X141612785Y-83907380D01*
X141231833Y-83907380D01*
X141136595Y-83955000D01*
X141088976Y-84002619D01*
X141041357Y-84097857D01*
X141041357Y-84240714D01*
X141088976Y-84335952D01*
X141136595Y-84383571D01*
X141231833Y-84431190D01*
X141612785Y-84431190D01*
X140088976Y-84907380D02*
X140660404Y-84907380D01*
X140374690Y-84907380D02*
X140374690Y-83907380D01*
X140469928Y-84050238D01*
X140565166Y-84145476D01*
X140660404Y-84193095D01*
X139184214Y-83907380D02*
X139660404Y-83907380D01*
X139708023Y-84383571D01*
X139660404Y-84335952D01*
X139565166Y-84288333D01*
X139327071Y-84288333D01*
X139231833Y-84335952D01*
X139184214Y-84383571D01*
X139136595Y-84478809D01*
X139136595Y-84716904D01*
X139184214Y-84812142D01*
X139231833Y-84859761D01*
X139327071Y-84907380D01*
X139565166Y-84907380D01*
X139660404Y-84859761D01*
X139708023Y-84812142D01*
X118498857Y-69095880D02*
X118832190Y-68619690D01*
X119070285Y-69095880D02*
X119070285Y-68095880D01*
X118689333Y-68095880D01*
X118594095Y-68143500D01*
X118546476Y-68191119D01*
X118498857Y-68286357D01*
X118498857Y-68429214D01*
X118546476Y-68524452D01*
X118594095Y-68572071D01*
X118689333Y-68619690D01*
X119070285Y-68619690D01*
X118165523Y-68095880D02*
X117546476Y-68095880D01*
X117879809Y-68476833D01*
X117736952Y-68476833D01*
X117641714Y-68524452D01*
X117594095Y-68572071D01*
X117546476Y-68667309D01*
X117546476Y-68905404D01*
X117594095Y-69000642D01*
X117641714Y-69048261D01*
X117736952Y-69095880D01*
X118022666Y-69095880D01*
X118117904Y-69048261D01*
X118165523Y-69000642D01*
X117070285Y-69095880D02*
X116879809Y-69095880D01*
X116784571Y-69048261D01*
X116736952Y-69000642D01*
X116641714Y-68857785D01*
X116594095Y-68667309D01*
X116594095Y-68286357D01*
X116641714Y-68191119D01*
X116689333Y-68143500D01*
X116784571Y-68095880D01*
X116975047Y-68095880D01*
X117070285Y-68143500D01*
X117117904Y-68191119D01*
X117165523Y-68286357D01*
X117165523Y-68524452D01*
X117117904Y-68619690D01*
X117070285Y-68667309D01*
X116975047Y-68714928D01*
X116784571Y-68714928D01*
X116689333Y-68667309D01*
X116641714Y-68619690D01*
X116594095Y-68524452D01*
X125420380Y-58729642D02*
X124944190Y-58396309D01*
X125420380Y-58158214D02*
X124420380Y-58158214D01*
X124420380Y-58539166D01*
X124468000Y-58634404D01*
X124515619Y-58682023D01*
X124610857Y-58729642D01*
X124753714Y-58729642D01*
X124848952Y-58682023D01*
X124896571Y-58634404D01*
X124944190Y-58539166D01*
X124944190Y-58158214D01*
X124420380Y-59062976D02*
X124420380Y-59682023D01*
X124801333Y-59348690D01*
X124801333Y-59491547D01*
X124848952Y-59586785D01*
X124896571Y-59634404D01*
X124991809Y-59682023D01*
X125229904Y-59682023D01*
X125325142Y-59634404D01*
X125372761Y-59586785D01*
X125420380Y-59491547D01*
X125420380Y-59205833D01*
X125372761Y-59110595D01*
X125325142Y-59062976D01*
X124848952Y-60253452D02*
X124801333Y-60158214D01*
X124753714Y-60110595D01*
X124658476Y-60062976D01*
X124610857Y-60062976D01*
X124515619Y-60110595D01*
X124468000Y-60158214D01*
X124420380Y-60253452D01*
X124420380Y-60443928D01*
X124468000Y-60539166D01*
X124515619Y-60586785D01*
X124610857Y-60634404D01*
X124658476Y-60634404D01*
X124753714Y-60586785D01*
X124801333Y-60539166D01*
X124848952Y-60443928D01*
X124848952Y-60253452D01*
X124896571Y-60158214D01*
X124944190Y-60110595D01*
X125039428Y-60062976D01*
X125229904Y-60062976D01*
X125325142Y-60110595D01*
X125372761Y-60158214D01*
X125420380Y-60253452D01*
X125420380Y-60443928D01*
X125372761Y-60539166D01*
X125325142Y-60586785D01*
X125229904Y-60634404D01*
X125039428Y-60634404D01*
X124944190Y-60586785D01*
X124896571Y-60539166D01*
X124848952Y-60443928D01*
X118435357Y-71762880D02*
X118768690Y-71286690D01*
X119006785Y-71762880D02*
X119006785Y-70762880D01*
X118625833Y-70762880D01*
X118530595Y-70810500D01*
X118482976Y-70858119D01*
X118435357Y-70953357D01*
X118435357Y-71096214D01*
X118482976Y-71191452D01*
X118530595Y-71239071D01*
X118625833Y-71286690D01*
X119006785Y-71286690D01*
X118102023Y-70762880D02*
X117482976Y-70762880D01*
X117816309Y-71143833D01*
X117673452Y-71143833D01*
X117578214Y-71191452D01*
X117530595Y-71239071D01*
X117482976Y-71334309D01*
X117482976Y-71572404D01*
X117530595Y-71667642D01*
X117578214Y-71715261D01*
X117673452Y-71762880D01*
X117959166Y-71762880D01*
X118054404Y-71715261D01*
X118102023Y-71667642D01*
X117149642Y-70762880D02*
X116482976Y-70762880D01*
X116911547Y-71762880D01*
X123007380Y-58729642D02*
X122531190Y-58396309D01*
X123007380Y-58158214D02*
X122007380Y-58158214D01*
X122007380Y-58539166D01*
X122055000Y-58634404D01*
X122102619Y-58682023D01*
X122197857Y-58729642D01*
X122340714Y-58729642D01*
X122435952Y-58682023D01*
X122483571Y-58634404D01*
X122531190Y-58539166D01*
X122531190Y-58158214D01*
X122007380Y-59062976D02*
X122007380Y-59682023D01*
X122388333Y-59348690D01*
X122388333Y-59491547D01*
X122435952Y-59586785D01*
X122483571Y-59634404D01*
X122578809Y-59682023D01*
X122816904Y-59682023D01*
X122912142Y-59634404D01*
X122959761Y-59586785D01*
X123007380Y-59491547D01*
X123007380Y-59205833D01*
X122959761Y-59110595D01*
X122912142Y-59062976D01*
X122007380Y-60539166D02*
X122007380Y-60348690D01*
X122055000Y-60253452D01*
X122102619Y-60205833D01*
X122245476Y-60110595D01*
X122435952Y-60062976D01*
X122816904Y-60062976D01*
X122912142Y-60110595D01*
X122959761Y-60158214D01*
X123007380Y-60253452D01*
X123007380Y-60443928D01*
X122959761Y-60539166D01*
X122912142Y-60586785D01*
X122816904Y-60634404D01*
X122578809Y-60634404D01*
X122483571Y-60586785D01*
X122435952Y-60539166D01*
X122388333Y-60443928D01*
X122388333Y-60253452D01*
X122435952Y-60158214D01*
X122483571Y-60110595D01*
X122578809Y-60062976D01*
X115577857Y-77858880D02*
X115911190Y-77382690D01*
X116149285Y-77858880D02*
X116149285Y-76858880D01*
X115768333Y-76858880D01*
X115673095Y-76906500D01*
X115625476Y-76954119D01*
X115577857Y-77049357D01*
X115577857Y-77192214D01*
X115625476Y-77287452D01*
X115673095Y-77335071D01*
X115768333Y-77382690D01*
X116149285Y-77382690D01*
X115244523Y-76858880D02*
X114625476Y-76858880D01*
X114958809Y-77239833D01*
X114815952Y-77239833D01*
X114720714Y-77287452D01*
X114673095Y-77335071D01*
X114625476Y-77430309D01*
X114625476Y-77668404D01*
X114673095Y-77763642D01*
X114720714Y-77811261D01*
X114815952Y-77858880D01*
X115101666Y-77858880D01*
X115196904Y-77811261D01*
X115244523Y-77763642D01*
X113720714Y-76858880D02*
X114196904Y-76858880D01*
X114244523Y-77335071D01*
X114196904Y-77287452D01*
X114101666Y-77239833D01*
X113863571Y-77239833D01*
X113768333Y-77287452D01*
X113720714Y-77335071D01*
X113673095Y-77430309D01*
X113673095Y-77668404D01*
X113720714Y-77763642D01*
X113768333Y-77811261D01*
X113863571Y-77858880D01*
X114101666Y-77858880D01*
X114196904Y-77811261D01*
X114244523Y-77763642D01*
X119451357Y-74747380D02*
X119784690Y-74271190D01*
X120022785Y-74747380D02*
X120022785Y-73747380D01*
X119641833Y-73747380D01*
X119546595Y-73795000D01*
X119498976Y-73842619D01*
X119451357Y-73937857D01*
X119451357Y-74080714D01*
X119498976Y-74175952D01*
X119546595Y-74223571D01*
X119641833Y-74271190D01*
X120022785Y-74271190D01*
X119118023Y-73747380D02*
X118498976Y-73747380D01*
X118832309Y-74128333D01*
X118689452Y-74128333D01*
X118594214Y-74175952D01*
X118546595Y-74223571D01*
X118498976Y-74318809D01*
X118498976Y-74556904D01*
X118546595Y-74652142D01*
X118594214Y-74699761D01*
X118689452Y-74747380D01*
X118975166Y-74747380D01*
X119070404Y-74699761D01*
X119118023Y-74652142D01*
X117641833Y-74080714D02*
X117641833Y-74747380D01*
X117879928Y-73699761D02*
X118118023Y-74414047D01*
X117498976Y-74414047D01*
X117165380Y-55745142D02*
X116689190Y-55411809D01*
X117165380Y-55173714D02*
X116165380Y-55173714D01*
X116165380Y-55554666D01*
X116213000Y-55649904D01*
X116260619Y-55697523D01*
X116355857Y-55745142D01*
X116498714Y-55745142D01*
X116593952Y-55697523D01*
X116641571Y-55649904D01*
X116689190Y-55554666D01*
X116689190Y-55173714D01*
X116165380Y-56078476D02*
X116165380Y-56697523D01*
X116546333Y-56364190D01*
X116546333Y-56507047D01*
X116593952Y-56602285D01*
X116641571Y-56649904D01*
X116736809Y-56697523D01*
X116974904Y-56697523D01*
X117070142Y-56649904D01*
X117117761Y-56602285D01*
X117165380Y-56507047D01*
X117165380Y-56221333D01*
X117117761Y-56126095D01*
X117070142Y-56078476D01*
X116165380Y-57030857D02*
X116165380Y-57649904D01*
X116546333Y-57316571D01*
X116546333Y-57459428D01*
X116593952Y-57554666D01*
X116641571Y-57602285D01*
X116736809Y-57649904D01*
X116974904Y-57649904D01*
X117070142Y-57602285D01*
X117117761Y-57554666D01*
X117165380Y-57459428D01*
X117165380Y-57173714D01*
X117117761Y-57078476D01*
X117070142Y-57030857D01*
X120657857Y-60269380D02*
X120991190Y-59793190D01*
X121229285Y-60269380D02*
X121229285Y-59269380D01*
X120848333Y-59269380D01*
X120753095Y-59317000D01*
X120705476Y-59364619D01*
X120657857Y-59459857D01*
X120657857Y-59602714D01*
X120705476Y-59697952D01*
X120753095Y-59745571D01*
X120848333Y-59793190D01*
X121229285Y-59793190D01*
X120324523Y-59269380D02*
X119705476Y-59269380D01*
X120038809Y-59650333D01*
X119895952Y-59650333D01*
X119800714Y-59697952D01*
X119753095Y-59745571D01*
X119705476Y-59840809D01*
X119705476Y-60078904D01*
X119753095Y-60174142D01*
X119800714Y-60221761D01*
X119895952Y-60269380D01*
X120181666Y-60269380D01*
X120276904Y-60221761D01*
X120324523Y-60174142D01*
X119324523Y-59364619D02*
X119276904Y-59317000D01*
X119181666Y-59269380D01*
X118943571Y-59269380D01*
X118848333Y-59317000D01*
X118800714Y-59364619D01*
X118753095Y-59459857D01*
X118753095Y-59555095D01*
X118800714Y-59697952D01*
X119372142Y-60269380D01*
X118753095Y-60269380D01*
X118371857Y-77795380D02*
X118705190Y-77319190D01*
X118943285Y-77795380D02*
X118943285Y-76795380D01*
X118562333Y-76795380D01*
X118467095Y-76843000D01*
X118419476Y-76890619D01*
X118371857Y-76985857D01*
X118371857Y-77128714D01*
X118419476Y-77223952D01*
X118467095Y-77271571D01*
X118562333Y-77319190D01*
X118943285Y-77319190D01*
X118038523Y-76795380D02*
X117419476Y-76795380D01*
X117752809Y-77176333D01*
X117609952Y-77176333D01*
X117514714Y-77223952D01*
X117467095Y-77271571D01*
X117419476Y-77366809D01*
X117419476Y-77604904D01*
X117467095Y-77700142D01*
X117514714Y-77747761D01*
X117609952Y-77795380D01*
X117895666Y-77795380D01*
X117990904Y-77747761D01*
X118038523Y-77700142D01*
X116467095Y-77795380D02*
X117038523Y-77795380D01*
X116752809Y-77795380D02*
X116752809Y-76795380D01*
X116848047Y-76938238D01*
X116943285Y-77033476D01*
X117038523Y-77081095D01*
X117138380Y-58793142D02*
X116662190Y-58459809D01*
X117138380Y-58221714D02*
X116138380Y-58221714D01*
X116138380Y-58602666D01*
X116186000Y-58697904D01*
X116233619Y-58745523D01*
X116328857Y-58793142D01*
X116471714Y-58793142D01*
X116566952Y-58745523D01*
X116614571Y-58697904D01*
X116662190Y-58602666D01*
X116662190Y-58221714D01*
X116138380Y-59126476D02*
X116138380Y-59745523D01*
X116519333Y-59412190D01*
X116519333Y-59555047D01*
X116566952Y-59650285D01*
X116614571Y-59697904D01*
X116709809Y-59745523D01*
X116947904Y-59745523D01*
X117043142Y-59697904D01*
X117090761Y-59650285D01*
X117138380Y-59555047D01*
X117138380Y-59269333D01*
X117090761Y-59174095D01*
X117043142Y-59126476D01*
X116138380Y-60364571D02*
X116138380Y-60459809D01*
X116186000Y-60555047D01*
X116233619Y-60602666D01*
X116328857Y-60650285D01*
X116519333Y-60697904D01*
X116757428Y-60697904D01*
X116947904Y-60650285D01*
X117043142Y-60602666D01*
X117090761Y-60555047D01*
X117138380Y-60459809D01*
X117138380Y-60364571D01*
X117090761Y-60269333D01*
X117043142Y-60221714D01*
X116947904Y-60174095D01*
X116757428Y-60126476D01*
X116519333Y-60126476D01*
X116328857Y-60174095D01*
X116233619Y-60221714D01*
X116186000Y-60269333D01*
X116138380Y-60364571D01*
X122372357Y-74683880D02*
X122705690Y-74207690D01*
X122943785Y-74683880D02*
X122943785Y-73683880D01*
X122562833Y-73683880D01*
X122467595Y-73731500D01*
X122419976Y-73779119D01*
X122372357Y-73874357D01*
X122372357Y-74017214D01*
X122419976Y-74112452D01*
X122467595Y-74160071D01*
X122562833Y-74207690D01*
X122943785Y-74207690D01*
X121991404Y-73779119D02*
X121943785Y-73731500D01*
X121848547Y-73683880D01*
X121610452Y-73683880D01*
X121515214Y-73731500D01*
X121467595Y-73779119D01*
X121419976Y-73874357D01*
X121419976Y-73969595D01*
X121467595Y-74112452D01*
X122039023Y-74683880D01*
X121419976Y-74683880D01*
X120943785Y-74683880D02*
X120753309Y-74683880D01*
X120658071Y-74636261D01*
X120610452Y-74588642D01*
X120515214Y-74445785D01*
X120467595Y-74255309D01*
X120467595Y-73874357D01*
X120515214Y-73779119D01*
X120562833Y-73731500D01*
X120658071Y-73683880D01*
X120848547Y-73683880D01*
X120943785Y-73731500D01*
X120991404Y-73779119D01*
X121039023Y-73874357D01*
X121039023Y-74112452D01*
X120991404Y-74207690D01*
X120943785Y-74255309D01*
X120848547Y-74302928D01*
X120658071Y-74302928D01*
X120562833Y-74255309D01*
X120515214Y-74207690D01*
X120467595Y-74112452D01*
X120657857Y-61539380D02*
X120991190Y-61063190D01*
X121229285Y-61539380D02*
X121229285Y-60539380D01*
X120848333Y-60539380D01*
X120753095Y-60587000D01*
X120705476Y-60634619D01*
X120657857Y-60729857D01*
X120657857Y-60872714D01*
X120705476Y-60967952D01*
X120753095Y-61015571D01*
X120848333Y-61063190D01*
X121229285Y-61063190D01*
X120276904Y-60634619D02*
X120229285Y-60587000D01*
X120134047Y-60539380D01*
X119895952Y-60539380D01*
X119800714Y-60587000D01*
X119753095Y-60634619D01*
X119705476Y-60729857D01*
X119705476Y-60825095D01*
X119753095Y-60967952D01*
X120324523Y-61539380D01*
X119705476Y-61539380D01*
X119134047Y-60967952D02*
X119229285Y-60920333D01*
X119276904Y-60872714D01*
X119324523Y-60777476D01*
X119324523Y-60729857D01*
X119276904Y-60634619D01*
X119229285Y-60587000D01*
X119134047Y-60539380D01*
X118943571Y-60539380D01*
X118848333Y-60587000D01*
X118800714Y-60634619D01*
X118753095Y-60729857D01*
X118753095Y-60777476D01*
X118800714Y-60872714D01*
X118848333Y-60920333D01*
X118943571Y-60967952D01*
X119134047Y-60967952D01*
X119229285Y-61015571D01*
X119276904Y-61063190D01*
X119324523Y-61158428D01*
X119324523Y-61348904D01*
X119276904Y-61444142D01*
X119229285Y-61491761D01*
X119134047Y-61539380D01*
X118943571Y-61539380D01*
X118848333Y-61491761D01*
X118800714Y-61444142D01*
X118753095Y-61348904D01*
X118753095Y-61158428D01*
X118800714Y-61063190D01*
X118848333Y-61015571D01*
X118943571Y-60967952D01*
X135040666Y-59602642D02*
X135088285Y-59650261D01*
X135231142Y-59697880D01*
X135326380Y-59697880D01*
X135469238Y-59650261D01*
X135564476Y-59555023D01*
X135612095Y-59459785D01*
X135659714Y-59269309D01*
X135659714Y-59126452D01*
X135612095Y-58935976D01*
X135564476Y-58840738D01*
X135469238Y-58745500D01*
X135326380Y-58697880D01*
X135231142Y-58697880D01*
X135088285Y-58745500D01*
X135040666Y-58793119D01*
X134088285Y-59697880D02*
X134659714Y-59697880D01*
X134374000Y-59697880D02*
X134374000Y-58697880D01*
X134469238Y-58840738D01*
X134564476Y-58935976D01*
X134659714Y-58983595D01*
X138814142Y-62825333D02*
X138861761Y-62777714D01*
X138909380Y-62634857D01*
X138909380Y-62539619D01*
X138861761Y-62396761D01*
X138766523Y-62301523D01*
X138671285Y-62253904D01*
X138480809Y-62206285D01*
X138337952Y-62206285D01*
X138147476Y-62253904D01*
X138052238Y-62301523D01*
X137957000Y-62396761D01*
X137909380Y-62539619D01*
X137909380Y-62634857D01*
X137957000Y-62777714D01*
X138004619Y-62825333D01*
X138004619Y-63206285D02*
X137957000Y-63253904D01*
X137909380Y-63349142D01*
X137909380Y-63587238D01*
X137957000Y-63682476D01*
X138004619Y-63730095D01*
X138099857Y-63777714D01*
X138195095Y-63777714D01*
X138337952Y-63730095D01*
X138909380Y-63158666D01*
X138909380Y-63777714D01*
X135135857Y-76112642D02*
X135183476Y-76160261D01*
X135326333Y-76207880D01*
X135421571Y-76207880D01*
X135564428Y-76160261D01*
X135659666Y-76065023D01*
X135707285Y-75969785D01*
X135754904Y-75779309D01*
X135754904Y-75636452D01*
X135707285Y-75445976D01*
X135659666Y-75350738D01*
X135564428Y-75255500D01*
X135421571Y-75207880D01*
X135326333Y-75207880D01*
X135183476Y-75255500D01*
X135135857Y-75303119D01*
X134754904Y-75303119D02*
X134707285Y-75255500D01*
X134612047Y-75207880D01*
X134373952Y-75207880D01*
X134278714Y-75255500D01*
X134231095Y-75303119D01*
X134183476Y-75398357D01*
X134183476Y-75493595D01*
X134231095Y-75636452D01*
X134802523Y-76207880D01*
X134183476Y-76207880D01*
X133564428Y-75207880D02*
X133469190Y-75207880D01*
X133373952Y-75255500D01*
X133326333Y-75303119D01*
X133278714Y-75398357D01*
X133231095Y-75588833D01*
X133231095Y-75826928D01*
X133278714Y-76017404D01*
X133326333Y-76112642D01*
X133373952Y-76160261D01*
X133469190Y-76207880D01*
X133564428Y-76207880D01*
X133659666Y-76160261D01*
X133707285Y-76112642D01*
X133754904Y-76017404D01*
X133802523Y-75826928D01*
X133802523Y-75588833D01*
X133754904Y-75398357D01*
X133707285Y-75303119D01*
X133659666Y-75255500D01*
X133564428Y-75207880D01*
X139195142Y-78859142D02*
X139242761Y-78811523D01*
X139290380Y-78668666D01*
X139290380Y-78573428D01*
X139242761Y-78430571D01*
X139147523Y-78335333D01*
X139052285Y-78287714D01*
X138861809Y-78240095D01*
X138718952Y-78240095D01*
X138528476Y-78287714D01*
X138433238Y-78335333D01*
X138338000Y-78430571D01*
X138290380Y-78573428D01*
X138290380Y-78668666D01*
X138338000Y-78811523D01*
X138385619Y-78859142D01*
X138385619Y-79240095D02*
X138338000Y-79287714D01*
X138290380Y-79382952D01*
X138290380Y-79621047D01*
X138338000Y-79716285D01*
X138385619Y-79763904D01*
X138480857Y-79811523D01*
X138576095Y-79811523D01*
X138718952Y-79763904D01*
X139290380Y-79192476D01*
X139290380Y-79811523D01*
X139290380Y-80763904D02*
X139290380Y-80192476D01*
X139290380Y-80478190D02*
X138290380Y-80478190D01*
X138433238Y-80382952D01*
X138528476Y-80287714D01*
X138576095Y-80192476D01*
X129076380Y-64857333D02*
X128600190Y-64524000D01*
X129076380Y-64285904D02*
X128076380Y-64285904D01*
X128076380Y-64666857D01*
X128124000Y-64762095D01*
X128171619Y-64809714D01*
X128266857Y-64857333D01*
X128409714Y-64857333D01*
X128504952Y-64809714D01*
X128552571Y-64762095D01*
X128600190Y-64666857D01*
X128600190Y-64285904D01*
X129076380Y-65809714D02*
X129076380Y-65238285D01*
X129076380Y-65524000D02*
X128076380Y-65524000D01*
X128219238Y-65428761D01*
X128314476Y-65333523D01*
X128362095Y-65238285D01*
X141644666Y-66873380D02*
X141978000Y-66397190D01*
X142216095Y-66873380D02*
X142216095Y-65873380D01*
X141835142Y-65873380D01*
X141739904Y-65921000D01*
X141692285Y-65968619D01*
X141644666Y-66063857D01*
X141644666Y-66206714D01*
X141692285Y-66301952D01*
X141739904Y-66349571D01*
X141835142Y-66397190D01*
X142216095Y-66397190D01*
X141263714Y-65968619D02*
X141216095Y-65921000D01*
X141120857Y-65873380D01*
X140882761Y-65873380D01*
X140787523Y-65921000D01*
X140739904Y-65968619D01*
X140692285Y-66063857D01*
X140692285Y-66159095D01*
X140739904Y-66301952D01*
X141311333Y-66873380D01*
X140692285Y-66873380D01*
X141644666Y-68143380D02*
X141978000Y-67667190D01*
X142216095Y-68143380D02*
X142216095Y-67143380D01*
X141835142Y-67143380D01*
X141739904Y-67191000D01*
X141692285Y-67238619D01*
X141644666Y-67333857D01*
X141644666Y-67476714D01*
X141692285Y-67571952D01*
X141739904Y-67619571D01*
X141835142Y-67667190D01*
X142216095Y-67667190D01*
X141311333Y-67143380D02*
X140692285Y-67143380D01*
X141025619Y-67524333D01*
X140882761Y-67524333D01*
X140787523Y-67571952D01*
X140739904Y-67619571D01*
X140692285Y-67714809D01*
X140692285Y-67952904D01*
X140739904Y-68048142D01*
X140787523Y-68095761D01*
X140882761Y-68143380D01*
X141168476Y-68143380D01*
X141263714Y-68095761D01*
X141311333Y-68048142D01*
X130600380Y-81907142D02*
X130124190Y-81573809D01*
X130600380Y-81335714D02*
X129600380Y-81335714D01*
X129600380Y-81716666D01*
X129648000Y-81811904D01*
X129695619Y-81859523D01*
X129790857Y-81907142D01*
X129933714Y-81907142D01*
X130028952Y-81859523D01*
X130076571Y-81811904D01*
X130124190Y-81716666D01*
X130124190Y-81335714D01*
X130600380Y-82859523D02*
X130600380Y-82288095D01*
X130600380Y-82573809D02*
X129600380Y-82573809D01*
X129743238Y-82478571D01*
X129838476Y-82383333D01*
X129886095Y-82288095D01*
X129600380Y-83192857D02*
X129600380Y-83811904D01*
X129981333Y-83478571D01*
X129981333Y-83621428D01*
X130028952Y-83716666D01*
X130076571Y-83764285D01*
X130171809Y-83811904D01*
X130409904Y-83811904D01*
X130505142Y-83764285D01*
X130552761Y-83716666D01*
X130600380Y-83621428D01*
X130600380Y-83335714D01*
X130552761Y-83240476D01*
X130505142Y-83192857D01*
X141041357Y-83637380D02*
X141374690Y-83161190D01*
X141612785Y-83637380D02*
X141612785Y-82637380D01*
X141231833Y-82637380D01*
X141136595Y-82685000D01*
X141088976Y-82732619D01*
X141041357Y-82827857D01*
X141041357Y-82970714D01*
X141088976Y-83065952D01*
X141136595Y-83113571D01*
X141231833Y-83161190D01*
X141612785Y-83161190D01*
X140088976Y-83637380D02*
X140660404Y-83637380D01*
X140374690Y-83637380D02*
X140374690Y-82637380D01*
X140469928Y-82780238D01*
X140565166Y-82875476D01*
X140660404Y-82923095D01*
X139231833Y-82970714D02*
X139231833Y-83637380D01*
X139469928Y-82589761D02*
X139708023Y-83304047D01*
X139088976Y-83304047D01*
X133540404Y-59844380D02*
X133540404Y-60653904D01*
X133492785Y-60749142D01*
X133445166Y-60796761D01*
X133349928Y-60844380D01*
X133159452Y-60844380D01*
X133064214Y-60796761D01*
X133016595Y-60749142D01*
X132968976Y-60653904D01*
X132968976Y-59844380D01*
X131968976Y-60844380D02*
X132540404Y-60844380D01*
X132254690Y-60844380D02*
X132254690Y-59844380D01*
X132349928Y-59987238D01*
X132445166Y-60082476D01*
X132540404Y-60130095D01*
X132587904Y-76414380D02*
X132587904Y-77223904D01*
X132540285Y-77319142D01*
X132492666Y-77366761D01*
X132397428Y-77414380D01*
X132206952Y-77414380D01*
X132111714Y-77366761D01*
X132064095Y-77319142D01*
X132016476Y-77223904D01*
X132016476Y-76414380D01*
X131111714Y-76414380D02*
X131302190Y-76414380D01*
X131397428Y-76462000D01*
X131445047Y-76509619D01*
X131540285Y-76652476D01*
X131587904Y-76842952D01*
X131587904Y-77223904D01*
X131540285Y-77319142D01*
X131492666Y-77366761D01*
X131397428Y-77414380D01*
X131206952Y-77414380D01*
X131111714Y-77366761D01*
X131064095Y-77319142D01*
X131016476Y-77223904D01*
X131016476Y-76985809D01*
X131064095Y-76890571D01*
X131111714Y-76842952D01*
X131206952Y-76795333D01*
X131397428Y-76795333D01*
X131492666Y-76842952D01*
X131540285Y-76890571D01*
X131587904Y-76985809D01*
X151772857Y-80462380D02*
X152106190Y-79986190D01*
X152344285Y-80462380D02*
X152344285Y-79462380D01*
X151963333Y-79462380D01*
X151868095Y-79510000D01*
X151820476Y-79557619D01*
X151772857Y-79652857D01*
X151772857Y-79795714D01*
X151820476Y-79890952D01*
X151868095Y-79938571D01*
X151963333Y-79986190D01*
X152344285Y-79986190D01*
X151391904Y-79557619D02*
X151344285Y-79510000D01*
X151249047Y-79462380D01*
X151010952Y-79462380D01*
X150915714Y-79510000D01*
X150868095Y-79557619D01*
X150820476Y-79652857D01*
X150820476Y-79748095D01*
X150868095Y-79890952D01*
X151439523Y-80462380D01*
X150820476Y-80462380D01*
X150201428Y-79462380D02*
X150106190Y-79462380D01*
X150010952Y-79510000D01*
X149963333Y-79557619D01*
X149915714Y-79652857D01*
X149868095Y-79843333D01*
X149868095Y-80081428D01*
X149915714Y-80271904D01*
X149963333Y-80367142D01*
X150010952Y-80414761D01*
X150106190Y-80462380D01*
X150201428Y-80462380D01*
X150296666Y-80414761D01*
X150344285Y-80367142D01*
X150391904Y-80271904D01*
X150439523Y-80081428D01*
X150439523Y-79843333D01*
X150391904Y-79652857D01*
X150344285Y-79557619D01*
X150296666Y-79510000D01*
X150201428Y-79462380D01*
X151709357Y-79128880D02*
X152042690Y-78652690D01*
X152280785Y-79128880D02*
X152280785Y-78128880D01*
X151899833Y-78128880D01*
X151804595Y-78176500D01*
X151756976Y-78224119D01*
X151709357Y-78319357D01*
X151709357Y-78462214D01*
X151756976Y-78557452D01*
X151804595Y-78605071D01*
X151899833Y-78652690D01*
X152280785Y-78652690D01*
X151328404Y-78224119D02*
X151280785Y-78176500D01*
X151185547Y-78128880D01*
X150947452Y-78128880D01*
X150852214Y-78176500D01*
X150804595Y-78224119D01*
X150756976Y-78319357D01*
X150756976Y-78414595D01*
X150804595Y-78557452D01*
X151376023Y-79128880D01*
X150756976Y-79128880D01*
X149804595Y-79128880D02*
X150376023Y-79128880D01*
X150090309Y-79128880D02*
X150090309Y-78128880D01*
X150185547Y-78271738D01*
X150280785Y-78366976D01*
X150376023Y-78414595D01*
X152026857Y-97035880D02*
X152360190Y-96559690D01*
X152598285Y-97035880D02*
X152598285Y-96035880D01*
X152217333Y-96035880D01*
X152122095Y-96083500D01*
X152074476Y-96131119D01*
X152026857Y-96226357D01*
X152026857Y-96369214D01*
X152074476Y-96464452D01*
X152122095Y-96512071D01*
X152217333Y-96559690D01*
X152598285Y-96559690D01*
X151645904Y-96131119D02*
X151598285Y-96083500D01*
X151503047Y-96035880D01*
X151264952Y-96035880D01*
X151169714Y-96083500D01*
X151122095Y-96131119D01*
X151074476Y-96226357D01*
X151074476Y-96321595D01*
X151122095Y-96464452D01*
X151693523Y-97035880D01*
X151074476Y-97035880D01*
X150693523Y-96131119D02*
X150645904Y-96083500D01*
X150550666Y-96035880D01*
X150312571Y-96035880D01*
X150217333Y-96083500D01*
X150169714Y-96131119D01*
X150122095Y-96226357D01*
X150122095Y-96321595D01*
X150169714Y-96464452D01*
X150741142Y-97035880D01*
X150122095Y-97035880D01*
X152026857Y-95702380D02*
X152360190Y-95226190D01*
X152598285Y-95702380D02*
X152598285Y-94702380D01*
X152217333Y-94702380D01*
X152122095Y-94750000D01*
X152074476Y-94797619D01*
X152026857Y-94892857D01*
X152026857Y-95035714D01*
X152074476Y-95130952D01*
X152122095Y-95178571D01*
X152217333Y-95226190D01*
X152598285Y-95226190D01*
X151645904Y-94797619D02*
X151598285Y-94750000D01*
X151503047Y-94702380D01*
X151264952Y-94702380D01*
X151169714Y-94750000D01*
X151122095Y-94797619D01*
X151074476Y-94892857D01*
X151074476Y-94988095D01*
X151122095Y-95130952D01*
X151693523Y-95702380D01*
X151074476Y-95702380D01*
X150741142Y-94702380D02*
X150122095Y-94702380D01*
X150455428Y-95083333D01*
X150312571Y-95083333D01*
X150217333Y-95130952D01*
X150169714Y-95178571D01*
X150122095Y-95273809D01*
X150122095Y-95511904D01*
X150169714Y-95607142D01*
X150217333Y-95654761D01*
X150312571Y-95702380D01*
X150598285Y-95702380D01*
X150693523Y-95654761D01*
X150741142Y-95607142D01*
X145541904Y-81092380D02*
X145541904Y-81901904D01*
X145494285Y-81997142D01*
X145446666Y-82044761D01*
X145351428Y-82092380D01*
X145160952Y-82092380D01*
X145065714Y-82044761D01*
X145018095Y-81997142D01*
X144970476Y-81901904D01*
X144970476Y-81092380D01*
X144541904Y-81187619D02*
X144494285Y-81140000D01*
X144399047Y-81092380D01*
X144160952Y-81092380D01*
X144065714Y-81140000D01*
X144018095Y-81187619D01*
X143970476Y-81282857D01*
X143970476Y-81378095D01*
X144018095Y-81520952D01*
X144589523Y-82092380D01*
X143970476Y-82092380D01*
X145541904Y-97602380D02*
X145541904Y-98411904D01*
X145494285Y-98507142D01*
X145446666Y-98554761D01*
X145351428Y-98602380D01*
X145160952Y-98602380D01*
X145065714Y-98554761D01*
X145018095Y-98507142D01*
X144970476Y-98411904D01*
X144970476Y-97602380D01*
X144589523Y-97602380D02*
X143922857Y-97602380D01*
X144351428Y-98602380D01*
X141930380Y-97401142D02*
X141454190Y-97067809D01*
X141930380Y-96829714D02*
X140930380Y-96829714D01*
X140930380Y-97210666D01*
X140978000Y-97305904D01*
X141025619Y-97353523D01*
X141120857Y-97401142D01*
X141263714Y-97401142D01*
X141358952Y-97353523D01*
X141406571Y-97305904D01*
X141454190Y-97210666D01*
X141454190Y-96829714D01*
X141263714Y-98258285D02*
X141930380Y-98258285D01*
X140882761Y-98020190D02*
X141597047Y-97782095D01*
X141597047Y-98401142D01*
X141025619Y-98734476D02*
X140978000Y-98782095D01*
X140930380Y-98877333D01*
X140930380Y-99115428D01*
X140978000Y-99210666D01*
X141025619Y-99258285D01*
X141120857Y-99305904D01*
X141216095Y-99305904D01*
X141358952Y-99258285D01*
X141930380Y-98686857D01*
X141930380Y-99305904D01*
X146100857Y-82176857D02*
X146053238Y-82224476D01*
X146005619Y-82367333D01*
X146005619Y-82462571D01*
X146053238Y-82605428D01*
X146148476Y-82700666D01*
X146243714Y-82748285D01*
X146434190Y-82795904D01*
X146577047Y-82795904D01*
X146767523Y-82748285D01*
X146862761Y-82700666D01*
X146958000Y-82605428D01*
X147005619Y-82462571D01*
X147005619Y-82367333D01*
X146958000Y-82224476D01*
X146910380Y-82176857D01*
X146910380Y-81795904D02*
X146958000Y-81748285D01*
X147005619Y-81653047D01*
X147005619Y-81414952D01*
X146958000Y-81319714D01*
X146910380Y-81272095D01*
X146815142Y-81224476D01*
X146719904Y-81224476D01*
X146577047Y-81272095D01*
X146005619Y-81843523D01*
X146005619Y-81224476D01*
X147005619Y-80891142D02*
X147005619Y-80224476D01*
X146005619Y-80653047D01*
X147069142Y-97401142D02*
X147116761Y-97353523D01*
X147164380Y-97210666D01*
X147164380Y-97115428D01*
X147116761Y-96972571D01*
X147021523Y-96877333D01*
X146926285Y-96829714D01*
X146735809Y-96782095D01*
X146592952Y-96782095D01*
X146402476Y-96829714D01*
X146307238Y-96877333D01*
X146212000Y-96972571D01*
X146164380Y-97115428D01*
X146164380Y-97210666D01*
X146212000Y-97353523D01*
X146259619Y-97401142D01*
X146259619Y-97782095D02*
X146212000Y-97829714D01*
X146164380Y-97924952D01*
X146164380Y-98163047D01*
X146212000Y-98258285D01*
X146259619Y-98305904D01*
X146354857Y-98353523D01*
X146450095Y-98353523D01*
X146592952Y-98305904D01*
X147164380Y-97734476D01*
X147164380Y-98353523D01*
X146592952Y-98924952D02*
X146545333Y-98829714D01*
X146497714Y-98782095D01*
X146402476Y-98734476D01*
X146354857Y-98734476D01*
X146259619Y-98782095D01*
X146212000Y-98829714D01*
X146164380Y-98924952D01*
X146164380Y-99115428D01*
X146212000Y-99210666D01*
X146259619Y-99258285D01*
X146354857Y-99305904D01*
X146402476Y-99305904D01*
X146497714Y-99258285D01*
X146545333Y-99210666D01*
X146592952Y-99115428D01*
X146592952Y-98924952D01*
X146640571Y-98829714D01*
X146688190Y-98782095D01*
X146783428Y-98734476D01*
X146973904Y-98734476D01*
X147069142Y-98782095D01*
X147116761Y-98829714D01*
X147164380Y-98924952D01*
X147164380Y-99115428D01*
X147116761Y-99210666D01*
X147069142Y-99258285D01*
X146973904Y-99305904D01*
X146783428Y-99305904D01*
X146688190Y-99258285D01*
X146640571Y-99210666D01*
X146592952Y-99115428D01*
M02*
