G04 #@! TF.GenerationSoftware,KiCad,Pcbnew,(6.0.6)*
G04 #@! TF.CreationDate,2022-09-05T23:03:05+09:00*
G04 #@! TF.ProjectId,RP_MD,52505f4d-442e-46b6-9963-61645f706362,rev?*
G04 #@! TF.SameCoordinates,Original*
G04 #@! TF.FileFunction,Legend,Top*
G04 #@! TF.FilePolarity,Positive*
%FSLAX46Y46*%
G04 Gerber Fmt 4.6, Leading zero omitted, Abs format (unit mm)*
G04 Created by KiCad (PCBNEW (6.0.6)) date 2022-09-05 23:03:05*
%MOMM*%
%LPD*%
G01*
G04 APERTURE LIST*
%ADD10C,0.120000*%
%ADD11C,0.150000*%
G04 APERTURE END LIST*
D10*
X113220000Y-52330000D02*
G75*
G03*
X113220000Y-52330000I-2000000J0D01*
G01*
X164220000Y-98330000D02*
G75*
G03*
X164220000Y-98330000I-2000000J0D01*
G01*
X113220000Y-98330000D02*
G75*
G03*
X113220000Y-98330000I-2000000J0D01*
G01*
X164220000Y-52330000D02*
G75*
G03*
X164220000Y-52330000I-2000000J0D01*
G01*
D11*
X115181071Y-76747309D02*
X115181071Y-76413976D01*
X115704880Y-76271119D02*
X115704880Y-76747309D01*
X114704880Y-76747309D01*
X114704880Y-76271119D01*
X115704880Y-75842547D02*
X114704880Y-75842547D01*
X115704880Y-75271119D01*
X114704880Y-75271119D01*
X115609642Y-74223500D02*
X115657261Y-74271119D01*
X115704880Y-74413976D01*
X115704880Y-74509214D01*
X115657261Y-74652071D01*
X115562023Y-74747309D01*
X115466785Y-74794928D01*
X115276309Y-74842547D01*
X115133452Y-74842547D01*
X114942976Y-74794928D01*
X114847738Y-74747309D01*
X114752500Y-74652071D01*
X114704880Y-74509214D01*
X114704880Y-74413976D01*
X114752500Y-74271119D01*
X114800119Y-74223500D01*
X114800119Y-73842547D02*
X114752500Y-73794928D01*
X114704880Y-73699690D01*
X114704880Y-73461595D01*
X114752500Y-73366357D01*
X114800119Y-73318738D01*
X114895357Y-73271119D01*
X114990595Y-73271119D01*
X115133452Y-73318738D01*
X115704880Y-73890166D01*
X115704880Y-73271119D01*
X115419166Y-72128261D02*
X115419166Y-71652071D01*
X115704880Y-72223500D02*
X114704880Y-71890166D01*
X115704880Y-71556833D01*
X115181071Y-70890166D02*
X115228690Y-70747309D01*
X115276309Y-70699690D01*
X115371547Y-70652071D01*
X115514404Y-70652071D01*
X115609642Y-70699690D01*
X115657261Y-70747309D01*
X115704880Y-70842547D01*
X115704880Y-71223500D01*
X114704880Y-71223500D01*
X114704880Y-70890166D01*
X114752500Y-70794928D01*
X114800119Y-70747309D01*
X114895357Y-70699690D01*
X114990595Y-70699690D01*
X115085833Y-70747309D01*
X115133452Y-70794928D01*
X115181071Y-70890166D01*
X115181071Y-71223500D01*
X115308071Y-88336023D02*
X115308071Y-88002690D01*
X115831880Y-87859833D02*
X115831880Y-88336023D01*
X114831880Y-88336023D01*
X114831880Y-87859833D01*
X115831880Y-87431261D02*
X114831880Y-87431261D01*
X115831880Y-86859833D01*
X114831880Y-86859833D01*
X115736642Y-85812214D02*
X115784261Y-85859833D01*
X115831880Y-86002690D01*
X115831880Y-86097928D01*
X115784261Y-86240785D01*
X115689023Y-86336023D01*
X115593785Y-86383642D01*
X115403309Y-86431261D01*
X115260452Y-86431261D01*
X115069976Y-86383642D01*
X114974738Y-86336023D01*
X114879500Y-86240785D01*
X114831880Y-86097928D01*
X114831880Y-86002690D01*
X114879500Y-85859833D01*
X114927119Y-85812214D01*
X114927119Y-85431261D02*
X114879500Y-85383642D01*
X114831880Y-85288404D01*
X114831880Y-85050309D01*
X114879500Y-84955071D01*
X114927119Y-84907452D01*
X115022357Y-84859833D01*
X115117595Y-84859833D01*
X115260452Y-84907452D01*
X115831880Y-85478880D01*
X115831880Y-84859833D01*
X115927119Y-84669357D02*
X115927119Y-83907452D01*
X115784261Y-83716976D02*
X115831880Y-83574119D01*
X115831880Y-83336023D01*
X115784261Y-83240785D01*
X115736642Y-83193166D01*
X115641404Y-83145547D01*
X115546166Y-83145547D01*
X115450928Y-83193166D01*
X115403309Y-83240785D01*
X115355690Y-83336023D01*
X115308071Y-83526500D01*
X115260452Y-83621738D01*
X115212833Y-83669357D01*
X115117595Y-83716976D01*
X115022357Y-83716976D01*
X114927119Y-83669357D01*
X114879500Y-83621738D01*
X114831880Y-83526500D01*
X114831880Y-83288404D01*
X114879500Y-83145547D01*
X115831880Y-82716976D02*
X114831880Y-82716976D01*
X114831880Y-82336023D01*
X114879500Y-82240785D01*
X114927119Y-82193166D01*
X115022357Y-82145547D01*
X115165214Y-82145547D01*
X115260452Y-82193166D01*
X115308071Y-82240785D01*
X115355690Y-82336023D01*
X115355690Y-82716976D01*
X115831880Y-81716976D02*
X114831880Y-81716976D01*
X133596261Y-94749880D02*
X133262928Y-94273690D01*
X133024833Y-94749880D02*
X133024833Y-93749880D01*
X133405785Y-93749880D01*
X133501023Y-93797500D01*
X133548642Y-93845119D01*
X133596261Y-93940357D01*
X133596261Y-94083214D01*
X133548642Y-94178452D01*
X133501023Y-94226071D01*
X133405785Y-94273690D01*
X133024833Y-94273690D01*
X133977214Y-94702261D02*
X134120071Y-94749880D01*
X134358166Y-94749880D01*
X134453404Y-94702261D01*
X134501023Y-94654642D01*
X134548642Y-94559404D01*
X134548642Y-94464166D01*
X134501023Y-94368928D01*
X134453404Y-94321309D01*
X134358166Y-94273690D01*
X134167690Y-94226071D01*
X134072452Y-94178452D01*
X134024833Y-94130833D01*
X133977214Y-94035595D01*
X133977214Y-93940357D01*
X134024833Y-93845119D01*
X134072452Y-93797500D01*
X134167690Y-93749880D01*
X134405785Y-93749880D01*
X134548642Y-93797500D01*
X135405785Y-94083214D02*
X135405785Y-94749880D01*
X135167690Y-93702261D02*
X134929595Y-94416547D01*
X135548642Y-94416547D01*
X136072452Y-94178452D02*
X135977214Y-94130833D01*
X135929595Y-94083214D01*
X135881976Y-93987976D01*
X135881976Y-93940357D01*
X135929595Y-93845119D01*
X135977214Y-93797500D01*
X136072452Y-93749880D01*
X136262928Y-93749880D01*
X136358166Y-93797500D01*
X136405785Y-93845119D01*
X136453404Y-93940357D01*
X136453404Y-93987976D01*
X136405785Y-94083214D01*
X136358166Y-94130833D01*
X136262928Y-94178452D01*
X136072452Y-94178452D01*
X135977214Y-94226071D01*
X135929595Y-94273690D01*
X135881976Y-94368928D01*
X135881976Y-94559404D01*
X135929595Y-94654642D01*
X135977214Y-94702261D01*
X136072452Y-94749880D01*
X136262928Y-94749880D01*
X136358166Y-94702261D01*
X136405785Y-94654642D01*
X136453404Y-94559404D01*
X136453404Y-94368928D01*
X136405785Y-94273690D01*
X136358166Y-94226071D01*
X136262928Y-94178452D01*
X137358166Y-93749880D02*
X136881976Y-93749880D01*
X136834357Y-94226071D01*
X136881976Y-94178452D01*
X136977214Y-94130833D01*
X137215309Y-94130833D01*
X137310547Y-94178452D01*
X137358166Y-94226071D01*
X137405785Y-94321309D01*
X137405785Y-94559404D01*
X137358166Y-94654642D01*
X137310547Y-94702261D01*
X137215309Y-94749880D01*
X136977214Y-94749880D01*
X136881976Y-94702261D01*
X136834357Y-94654642D01*
X117054690Y-56888071D02*
X117388023Y-56888071D01*
X117530880Y-57411880D02*
X117054690Y-57411880D01*
X117054690Y-56411880D01*
X117530880Y-56411880D01*
X117959452Y-57411880D02*
X117959452Y-56411880D01*
X118530880Y-57411880D01*
X118530880Y-56411880D01*
X119578500Y-57316642D02*
X119530880Y-57364261D01*
X119388023Y-57411880D01*
X119292785Y-57411880D01*
X119149928Y-57364261D01*
X119054690Y-57269023D01*
X119007071Y-57173785D01*
X118959452Y-56983309D01*
X118959452Y-56840452D01*
X119007071Y-56649976D01*
X119054690Y-56554738D01*
X119149928Y-56459500D01*
X119292785Y-56411880D01*
X119388023Y-56411880D01*
X119530880Y-56459500D01*
X119578500Y-56507119D01*
X120530880Y-57411880D02*
X119959452Y-57411880D01*
X120245166Y-57411880D02*
X120245166Y-56411880D01*
X120149928Y-56554738D01*
X120054690Y-56649976D01*
X119959452Y-56697595D01*
X121673738Y-57126166D02*
X122149928Y-57126166D01*
X121578500Y-57411880D02*
X121911833Y-56411880D01*
X122245166Y-57411880D01*
X122911833Y-56888071D02*
X123054690Y-56935690D01*
X123102309Y-56983309D01*
X123149928Y-57078547D01*
X123149928Y-57221404D01*
X123102309Y-57316642D01*
X123054690Y-57364261D01*
X122959452Y-57411880D01*
X122578500Y-57411880D01*
X122578500Y-56411880D01*
X122911833Y-56411880D01*
X123007071Y-56459500D01*
X123054690Y-56507119D01*
X123102309Y-56602357D01*
X123102309Y-56697595D01*
X123054690Y-56792833D01*
X123007071Y-56840452D01*
X122911833Y-56888071D01*
X122578500Y-56888071D01*
X143462952Y-96187880D02*
X143129619Y-95711690D01*
X142891523Y-96187880D02*
X142891523Y-95187880D01*
X143272476Y-95187880D01*
X143367714Y-95235500D01*
X143415333Y-95283119D01*
X143462952Y-95378357D01*
X143462952Y-95521214D01*
X143415333Y-95616452D01*
X143367714Y-95664071D01*
X143272476Y-95711690D01*
X142891523Y-95711690D01*
X143891523Y-96187880D02*
X143891523Y-95187880D01*
X144272476Y-95187880D01*
X144367714Y-95235500D01*
X144415333Y-95283119D01*
X144462952Y-95378357D01*
X144462952Y-95521214D01*
X144415333Y-95616452D01*
X144367714Y-95664071D01*
X144272476Y-95711690D01*
X143891523Y-95711690D01*
X145653428Y-96187880D02*
X145653428Y-95187880D01*
X145986761Y-95902166D01*
X146320095Y-95187880D01*
X146320095Y-96187880D01*
X146796285Y-96187880D02*
X146796285Y-95187880D01*
X147034380Y-95187880D01*
X147177238Y-95235500D01*
X147272476Y-95330738D01*
X147320095Y-95425976D01*
X147367714Y-95616452D01*
X147367714Y-95759309D01*
X147320095Y-95949785D01*
X147272476Y-96045023D01*
X147177238Y-96140261D01*
X147034380Y-96187880D01*
X146796285Y-96187880D01*
X148415333Y-95187880D02*
X148748666Y-96187880D01*
X149082000Y-95187880D01*
X149796285Y-96140261D02*
X149701047Y-96187880D01*
X149510571Y-96187880D01*
X149415333Y-96140261D01*
X149367714Y-96045023D01*
X149367714Y-95664071D01*
X149415333Y-95568833D01*
X149510571Y-95521214D01*
X149701047Y-95521214D01*
X149796285Y-95568833D01*
X149843904Y-95664071D01*
X149843904Y-95759309D01*
X149367714Y-95854547D01*
X150272476Y-96187880D02*
X150272476Y-95521214D01*
X150272476Y-95711690D02*
X150320095Y-95616452D01*
X150367714Y-95568833D01*
X150462952Y-95521214D01*
X150558190Y-95521214D01*
X150891523Y-96092642D02*
X150939142Y-96140261D01*
X150891523Y-96187880D01*
X150843904Y-96140261D01*
X150891523Y-96092642D01*
X150891523Y-96187880D01*
X151891523Y-96187880D02*
X151320095Y-96187880D01*
X151605809Y-96187880D02*
X151605809Y-95187880D01*
X151510571Y-95330738D01*
X151415333Y-95425976D01*
X151320095Y-95473595D01*
X152320095Y-96092642D02*
X152367714Y-96140261D01*
X152320095Y-96187880D01*
X152272476Y-96140261D01*
X152320095Y-96092642D01*
X152320095Y-96187880D01*
X152748666Y-95283119D02*
X152796285Y-95235500D01*
X152891523Y-95187880D01*
X153129619Y-95187880D01*
X153224857Y-95235500D01*
X153272476Y-95283119D01*
X153320095Y-95378357D01*
X153320095Y-95473595D01*
X153272476Y-95616452D01*
X152701047Y-96187880D01*
X153320095Y-96187880D01*
X143843904Y-97797880D02*
X143843904Y-96797880D01*
X143843904Y-97750261D02*
X143748666Y-97797880D01*
X143558190Y-97797880D01*
X143462952Y-97750261D01*
X143415333Y-97702642D01*
X143367714Y-97607404D01*
X143367714Y-97321690D01*
X143415333Y-97226452D01*
X143462952Y-97178833D01*
X143558190Y-97131214D01*
X143748666Y-97131214D01*
X143843904Y-97178833D01*
X144701047Y-97750261D02*
X144605809Y-97797880D01*
X144415333Y-97797880D01*
X144320095Y-97750261D01*
X144272476Y-97655023D01*
X144272476Y-97274071D01*
X144320095Y-97178833D01*
X144415333Y-97131214D01*
X144605809Y-97131214D01*
X144701047Y-97178833D01*
X144748666Y-97274071D01*
X144748666Y-97369309D01*
X144272476Y-97464547D01*
X145129619Y-97750261D02*
X145224857Y-97797880D01*
X145415333Y-97797880D01*
X145510571Y-97750261D01*
X145558190Y-97655023D01*
X145558190Y-97607404D01*
X145510571Y-97512166D01*
X145415333Y-97464547D01*
X145272476Y-97464547D01*
X145177238Y-97416928D01*
X145129619Y-97321690D01*
X145129619Y-97274071D01*
X145177238Y-97178833D01*
X145272476Y-97131214D01*
X145415333Y-97131214D01*
X145510571Y-97178833D01*
X145986761Y-97797880D02*
X145986761Y-97131214D01*
X145986761Y-96797880D02*
X145939142Y-96845500D01*
X145986761Y-96893119D01*
X146034380Y-96845500D01*
X145986761Y-96797880D01*
X145986761Y-96893119D01*
X146891523Y-97131214D02*
X146891523Y-97940738D01*
X146843904Y-98035976D01*
X146796285Y-98083595D01*
X146701047Y-98131214D01*
X146558190Y-98131214D01*
X146462952Y-98083595D01*
X146891523Y-97750261D02*
X146796285Y-97797880D01*
X146605809Y-97797880D01*
X146510571Y-97750261D01*
X146462952Y-97702642D01*
X146415333Y-97607404D01*
X146415333Y-97321690D01*
X146462952Y-97226452D01*
X146510571Y-97178833D01*
X146605809Y-97131214D01*
X146796285Y-97131214D01*
X146891523Y-97178833D01*
X147367714Y-97131214D02*
X147367714Y-97797880D01*
X147367714Y-97226452D02*
X147415333Y-97178833D01*
X147510571Y-97131214D01*
X147653428Y-97131214D01*
X147748666Y-97178833D01*
X147796285Y-97274071D01*
X147796285Y-97797880D01*
X148653428Y-97750261D02*
X148558190Y-97797880D01*
X148367714Y-97797880D01*
X148272476Y-97750261D01*
X148224857Y-97655023D01*
X148224857Y-97274071D01*
X148272476Y-97178833D01*
X148367714Y-97131214D01*
X148558190Y-97131214D01*
X148653428Y-97178833D01*
X148701047Y-97274071D01*
X148701047Y-97369309D01*
X148224857Y-97464547D01*
X149558190Y-97797880D02*
X149558190Y-96797880D01*
X149558190Y-97750261D02*
X149462952Y-97797880D01*
X149272476Y-97797880D01*
X149177238Y-97750261D01*
X149129619Y-97702642D01*
X149082000Y-97607404D01*
X149082000Y-97321690D01*
X149129619Y-97226452D01*
X149177238Y-97178833D01*
X149272476Y-97131214D01*
X149462952Y-97131214D01*
X149558190Y-97178833D01*
X150796285Y-97797880D02*
X150796285Y-96797880D01*
X150796285Y-97178833D02*
X150891523Y-97131214D01*
X151082000Y-97131214D01*
X151177238Y-97178833D01*
X151224857Y-97226452D01*
X151272476Y-97321690D01*
X151272476Y-97607404D01*
X151224857Y-97702642D01*
X151177238Y-97750261D01*
X151082000Y-97797880D01*
X150891523Y-97797880D01*
X150796285Y-97750261D01*
X151605809Y-97131214D02*
X151843904Y-97797880D01*
X152082000Y-97131214D02*
X151843904Y-97797880D01*
X151748666Y-98035976D01*
X151701047Y-98083595D01*
X151605809Y-98131214D01*
X144034380Y-99407880D02*
X144034380Y-98741214D01*
X144034380Y-98836452D02*
X144082000Y-98788833D01*
X144177238Y-98741214D01*
X144320095Y-98741214D01*
X144415333Y-98788833D01*
X144462952Y-98884071D01*
X144462952Y-99407880D01*
X144462952Y-98884071D02*
X144510571Y-98788833D01*
X144605809Y-98741214D01*
X144748666Y-98741214D01*
X144843904Y-98788833D01*
X144891523Y-98884071D01*
X144891523Y-99407880D01*
X145367714Y-99407880D02*
X145367714Y-98741214D01*
X145367714Y-98836452D02*
X145415333Y-98788833D01*
X145510571Y-98741214D01*
X145653428Y-98741214D01*
X145748666Y-98788833D01*
X145796285Y-98884071D01*
X145796285Y-99407880D01*
X145796285Y-98884071D02*
X145843904Y-98788833D01*
X145939142Y-98741214D01*
X146082000Y-98741214D01*
X146177238Y-98788833D01*
X146224857Y-98884071D01*
X146224857Y-99407880D01*
X147129619Y-99407880D02*
X147129619Y-98884071D01*
X147082000Y-98788833D01*
X146986761Y-98741214D01*
X146796285Y-98741214D01*
X146701047Y-98788833D01*
X147129619Y-99360261D02*
X147034380Y-99407880D01*
X146796285Y-99407880D01*
X146701047Y-99360261D01*
X146653428Y-99265023D01*
X146653428Y-99169785D01*
X146701047Y-99074547D01*
X146796285Y-99026928D01*
X147034380Y-99026928D01*
X147129619Y-98979309D01*
X148034380Y-99407880D02*
X148034380Y-98884071D01*
X147986761Y-98788833D01*
X147891523Y-98741214D01*
X147701047Y-98741214D01*
X147605809Y-98788833D01*
X148034380Y-99360261D02*
X147939142Y-99407880D01*
X147701047Y-99407880D01*
X147605809Y-99360261D01*
X147558190Y-99265023D01*
X147558190Y-99169785D01*
X147605809Y-99074547D01*
X147701047Y-99026928D01*
X147939142Y-99026928D01*
X148034380Y-98979309D01*
X148510571Y-99407880D02*
X148510571Y-98407880D01*
X148605809Y-99026928D02*
X148891523Y-99407880D01*
X148891523Y-98741214D02*
X148510571Y-99122166D01*
X149320095Y-99407880D02*
X149320095Y-98407880D01*
X149415333Y-99026928D02*
X149701047Y-99407880D01*
X149701047Y-98741214D02*
X149320095Y-99122166D01*
X150034380Y-98741214D02*
X150272476Y-99407880D01*
X150510571Y-98741214D02*
X150272476Y-99407880D01*
X150177238Y-99645976D01*
X150129619Y-99693595D01*
X150034380Y-99741214D01*
X150796285Y-98741214D02*
X151034380Y-99407880D01*
X151272476Y-98741214D02*
X151034380Y-99407880D01*
X150939142Y-99645976D01*
X150891523Y-99693595D01*
X150796285Y-99741214D01*
X151653428Y-99407880D02*
X151653428Y-98741214D01*
X151653428Y-98407880D02*
X151605809Y-98455500D01*
X151653428Y-98503119D01*
X151701047Y-98455500D01*
X151653428Y-98407880D01*
X151653428Y-98503119D01*
X152129619Y-99407880D02*
X152129619Y-98741214D01*
X152129619Y-98407880D02*
X152082000Y-98455500D01*
X152129619Y-98503119D01*
X152177238Y-98455500D01*
X152129619Y-98407880D01*
X152129619Y-98503119D01*
X113498380Y-60420000D02*
X114498380Y-60181904D01*
X113784095Y-59991428D01*
X114498380Y-59800952D01*
X113498380Y-59562857D01*
X114498380Y-58610476D02*
X114022190Y-58943809D01*
X114498380Y-59181904D02*
X113498380Y-59181904D01*
X113498380Y-58800952D01*
X113546000Y-58705714D01*
X113593619Y-58658095D01*
X113688857Y-58610476D01*
X113831714Y-58610476D01*
X113926952Y-58658095D01*
X113974571Y-58705714D01*
X114022190Y-58800952D01*
X114022190Y-59181904D01*
X114498380Y-58181904D02*
X113498380Y-58181904D01*
X113498380Y-57848571D02*
X113498380Y-57277142D01*
X114498380Y-57562857D02*
X113498380Y-57562857D01*
X113974571Y-56943809D02*
X113974571Y-56610476D01*
X114498380Y-56467619D02*
X114498380Y-56943809D01*
X113498380Y-56943809D01*
X113498380Y-56467619D01*
X154979976Y-81160880D02*
X154979976Y-80160880D01*
X155313309Y-80875166D01*
X155646642Y-80160880D01*
X155646642Y-81160880D01*
X156265690Y-81160880D02*
X156170452Y-81113261D01*
X156122833Y-81065642D01*
X156075214Y-80970404D01*
X156075214Y-80684690D01*
X156122833Y-80589452D01*
X156170452Y-80541833D01*
X156265690Y-80494214D01*
X156408547Y-80494214D01*
X156503785Y-80541833D01*
X156551404Y-80589452D01*
X156599023Y-80684690D01*
X156599023Y-80970404D01*
X156551404Y-81065642D01*
X156503785Y-81113261D01*
X156408547Y-81160880D01*
X156265690Y-81160880D01*
X156884738Y-80494214D02*
X157265690Y-80494214D01*
X157027595Y-80160880D02*
X157027595Y-81018023D01*
X157075214Y-81113261D01*
X157170452Y-81160880D01*
X157265690Y-81160880D01*
X157741880Y-81160880D02*
X157646642Y-81113261D01*
X157599023Y-81065642D01*
X157551404Y-80970404D01*
X157551404Y-80684690D01*
X157599023Y-80589452D01*
X157646642Y-80541833D01*
X157741880Y-80494214D01*
X157884738Y-80494214D01*
X157979976Y-80541833D01*
X158027595Y-80589452D01*
X158075214Y-80684690D01*
X158075214Y-80970404D01*
X158027595Y-81065642D01*
X157979976Y-81113261D01*
X157884738Y-81160880D01*
X157741880Y-81160880D01*
X158503785Y-81160880D02*
X158503785Y-80494214D01*
X158503785Y-80684690D02*
X158551404Y-80589452D01*
X158599023Y-80541833D01*
X158694261Y-80494214D01*
X158789500Y-80494214D01*
X159646642Y-81160880D02*
X159075214Y-81160880D01*
X159360928Y-81160880D02*
X159360928Y-80160880D01*
X159265690Y-80303738D01*
X159170452Y-80398976D01*
X159075214Y-80446595D01*
X126515904Y-94178380D02*
X126182571Y-93702190D01*
X125944476Y-94178380D02*
X125944476Y-93178380D01*
X126325428Y-93178380D01*
X126420666Y-93226000D01*
X126468285Y-93273619D01*
X126515904Y-93368857D01*
X126515904Y-93511714D01*
X126468285Y-93606952D01*
X126420666Y-93654571D01*
X126325428Y-93702190D01*
X125944476Y-93702190D01*
X126944476Y-93178380D02*
X126944476Y-93987904D01*
X126992095Y-94083142D01*
X127039714Y-94130761D01*
X127134952Y-94178380D01*
X127325428Y-94178380D01*
X127420666Y-94130761D01*
X127468285Y-94083142D01*
X127515904Y-93987904D01*
X127515904Y-93178380D01*
X127992095Y-94178380D02*
X127992095Y-93178380D01*
X128563523Y-94178380D01*
X128563523Y-93178380D01*
X130865976Y-56761071D02*
X131199309Y-56761071D01*
X131342166Y-57284880D02*
X130865976Y-57284880D01*
X130865976Y-56284880D01*
X131342166Y-56284880D01*
X131770738Y-57284880D02*
X131770738Y-56284880D01*
X132342166Y-57284880D01*
X132342166Y-56284880D01*
X133389785Y-57189642D02*
X133342166Y-57237261D01*
X133199309Y-57284880D01*
X133104071Y-57284880D01*
X132961214Y-57237261D01*
X132865976Y-57142023D01*
X132818357Y-57046785D01*
X132770738Y-56856309D01*
X132770738Y-56713452D01*
X132818357Y-56522976D01*
X132865976Y-56427738D01*
X132961214Y-56332500D01*
X133104071Y-56284880D01*
X133199309Y-56284880D01*
X133342166Y-56332500D01*
X133389785Y-56380119D01*
X134342166Y-57284880D02*
X133770738Y-57284880D01*
X134056452Y-57284880D02*
X134056452Y-56284880D01*
X133961214Y-56427738D01*
X133865976Y-56522976D01*
X133770738Y-56570595D01*
X134532642Y-57380119D02*
X135294547Y-57380119D01*
X135485023Y-57237261D02*
X135627880Y-57284880D01*
X135865976Y-57284880D01*
X135961214Y-57237261D01*
X136008833Y-57189642D01*
X136056452Y-57094404D01*
X136056452Y-56999166D01*
X136008833Y-56903928D01*
X135961214Y-56856309D01*
X135865976Y-56808690D01*
X135675500Y-56761071D01*
X135580261Y-56713452D01*
X135532642Y-56665833D01*
X135485023Y-56570595D01*
X135485023Y-56475357D01*
X135532642Y-56380119D01*
X135580261Y-56332500D01*
X135675500Y-56284880D01*
X135913595Y-56284880D01*
X136056452Y-56332500D01*
X136485023Y-57284880D02*
X136485023Y-56284880D01*
X136865976Y-56284880D01*
X136961214Y-56332500D01*
X137008833Y-56380119D01*
X137056452Y-56475357D01*
X137056452Y-56618214D01*
X137008833Y-56713452D01*
X136961214Y-56761071D01*
X136865976Y-56808690D01*
X136485023Y-56808690D01*
X137485023Y-57284880D02*
X137485023Y-56284880D01*
X154979976Y-97670880D02*
X154979976Y-96670880D01*
X155313309Y-97385166D01*
X155646642Y-96670880D01*
X155646642Y-97670880D01*
X156265690Y-97670880D02*
X156170452Y-97623261D01*
X156122833Y-97575642D01*
X156075214Y-97480404D01*
X156075214Y-97194690D01*
X156122833Y-97099452D01*
X156170452Y-97051833D01*
X156265690Y-97004214D01*
X156408547Y-97004214D01*
X156503785Y-97051833D01*
X156551404Y-97099452D01*
X156599023Y-97194690D01*
X156599023Y-97480404D01*
X156551404Y-97575642D01*
X156503785Y-97623261D01*
X156408547Y-97670880D01*
X156265690Y-97670880D01*
X156884738Y-97004214D02*
X157265690Y-97004214D01*
X157027595Y-96670880D02*
X157027595Y-97528023D01*
X157075214Y-97623261D01*
X157170452Y-97670880D01*
X157265690Y-97670880D01*
X157741880Y-97670880D02*
X157646642Y-97623261D01*
X157599023Y-97575642D01*
X157551404Y-97480404D01*
X157551404Y-97194690D01*
X157599023Y-97099452D01*
X157646642Y-97051833D01*
X157741880Y-97004214D01*
X157884738Y-97004214D01*
X157979976Y-97051833D01*
X158027595Y-97099452D01*
X158075214Y-97194690D01*
X158075214Y-97480404D01*
X158027595Y-97575642D01*
X157979976Y-97623261D01*
X157884738Y-97670880D01*
X157741880Y-97670880D01*
X158503785Y-97670880D02*
X158503785Y-97004214D01*
X158503785Y-97194690D02*
X158551404Y-97099452D01*
X158599023Y-97051833D01*
X158694261Y-97004214D01*
X158789500Y-97004214D01*
X159075214Y-96766119D02*
X159122833Y-96718500D01*
X159218071Y-96670880D01*
X159456166Y-96670880D01*
X159551404Y-96718500D01*
X159599023Y-96766119D01*
X159646642Y-96861357D01*
X159646642Y-96956595D01*
X159599023Y-97099452D01*
X159027595Y-97670880D01*
X159646642Y-97670880D01*
X154057695Y-52342980D02*
X154391028Y-53342980D01*
X154724361Y-52342980D01*
X155057695Y-53342980D02*
X155057695Y-52676314D01*
X155057695Y-52342980D02*
X155010076Y-52390600D01*
X155057695Y-52438219D01*
X155105314Y-52390600D01*
X155057695Y-52342980D01*
X155057695Y-52438219D01*
X155533885Y-52676314D02*
X155533885Y-53342980D01*
X155533885Y-52771552D02*
X155581504Y-52723933D01*
X155676742Y-52676314D01*
X155819600Y-52676314D01*
X155914838Y-52723933D01*
X155962457Y-52819171D01*
X155962457Y-53342980D01*
X156295790Y-52962028D02*
X156343409Y-52914409D01*
X156438647Y-52866790D01*
X156629123Y-52962028D01*
X156724361Y-52914409D01*
X156771980Y-52866790D01*
X157105314Y-52438219D02*
X157152933Y-52390600D01*
X157248171Y-52342980D01*
X157486266Y-52342980D01*
X157581504Y-52390600D01*
X157629123Y-52438219D01*
X157676742Y-52533457D01*
X157676742Y-52628695D01*
X157629123Y-52771552D01*
X157057695Y-53342980D01*
X157676742Y-53342980D01*
X158533885Y-52676314D02*
X158533885Y-53342980D01*
X158295790Y-52295361D02*
X158057695Y-53009647D01*
X158676742Y-53009647D01*
X158914838Y-52342980D02*
X159248171Y-53342980D01*
X159581504Y-52342980D01*
X155581504Y-53952980D02*
X156200552Y-53952980D01*
X155867219Y-54333933D01*
X156010076Y-54333933D01*
X156105314Y-54381552D01*
X156152933Y-54429171D01*
X156200552Y-54524409D01*
X156200552Y-54762504D01*
X156152933Y-54857742D01*
X156105314Y-54905361D01*
X156010076Y-54952980D01*
X155724361Y-54952980D01*
X155629123Y-54905361D01*
X155581504Y-54857742D01*
X156819600Y-53952980D02*
X156914838Y-53952980D01*
X157010076Y-54000600D01*
X157057695Y-54048219D01*
X157105314Y-54143457D01*
X157152933Y-54333933D01*
X157152933Y-54572028D01*
X157105314Y-54762504D01*
X157057695Y-54857742D01*
X157010076Y-54905361D01*
X156914838Y-54952980D01*
X156819600Y-54952980D01*
X156724361Y-54905361D01*
X156676742Y-54857742D01*
X156629123Y-54762504D01*
X156581504Y-54572028D01*
X156581504Y-54333933D01*
X156629123Y-54143457D01*
X156676742Y-54048219D01*
X156724361Y-54000600D01*
X156819600Y-53952980D01*
X157533885Y-54667266D02*
X158010076Y-54667266D01*
X157438647Y-54952980D02*
X157771980Y-53952980D01*
X158105314Y-54952980D01*
X117324142Y-72556666D02*
X117371761Y-72604285D01*
X117419380Y-72747142D01*
X117419380Y-72842380D01*
X117371761Y-72985238D01*
X117276523Y-73080476D01*
X117181285Y-73128095D01*
X116990809Y-73175714D01*
X116847952Y-73175714D01*
X116657476Y-73128095D01*
X116562238Y-73080476D01*
X116467000Y-72985238D01*
X116419380Y-72842380D01*
X116419380Y-72747142D01*
X116467000Y-72604285D01*
X116514619Y-72556666D01*
X116419380Y-71699523D02*
X116419380Y-71890000D01*
X116467000Y-71985238D01*
X116514619Y-72032857D01*
X116657476Y-72128095D01*
X116847952Y-72175714D01*
X117228904Y-72175714D01*
X117324142Y-72128095D01*
X117371761Y-72080476D01*
X117419380Y-71985238D01*
X117419380Y-71794761D01*
X117371761Y-71699523D01*
X117324142Y-71651904D01*
X117228904Y-71604285D01*
X116990809Y-71604285D01*
X116895571Y-71651904D01*
X116847952Y-71699523D01*
X116800333Y-71794761D01*
X116800333Y-71985238D01*
X116847952Y-72080476D01*
X116895571Y-72128095D01*
X116990809Y-72175714D01*
X117451142Y-80494166D02*
X117498761Y-80541785D01*
X117546380Y-80684642D01*
X117546380Y-80779880D01*
X117498761Y-80922738D01*
X117403523Y-81017976D01*
X117308285Y-81065595D01*
X117117809Y-81113214D01*
X116974952Y-81113214D01*
X116784476Y-81065595D01*
X116689238Y-81017976D01*
X116594000Y-80922738D01*
X116546380Y-80779880D01*
X116546380Y-80684642D01*
X116594000Y-80541785D01*
X116641619Y-80494166D01*
X116546380Y-80160833D02*
X116546380Y-79494166D01*
X117546380Y-79922738D01*
X119991142Y-71540666D02*
X120038761Y-71588285D01*
X120086380Y-71731142D01*
X120086380Y-71826380D01*
X120038761Y-71969238D01*
X119943523Y-72064476D01*
X119848285Y-72112095D01*
X119657809Y-72159714D01*
X119514952Y-72159714D01*
X119324476Y-72112095D01*
X119229238Y-72064476D01*
X119134000Y-71969238D01*
X119086380Y-71826380D01*
X119086380Y-71731142D01*
X119134000Y-71588285D01*
X119181619Y-71540666D01*
X119514952Y-70969238D02*
X119467333Y-71064476D01*
X119419714Y-71112095D01*
X119324476Y-71159714D01*
X119276857Y-71159714D01*
X119181619Y-71112095D01*
X119134000Y-71064476D01*
X119086380Y-70969238D01*
X119086380Y-70778761D01*
X119134000Y-70683523D01*
X119181619Y-70635904D01*
X119276857Y-70588285D01*
X119324476Y-70588285D01*
X119419714Y-70635904D01*
X119467333Y-70683523D01*
X119514952Y-70778761D01*
X119514952Y-70969238D01*
X119562571Y-71064476D01*
X119610190Y-71112095D01*
X119705428Y-71159714D01*
X119895904Y-71159714D01*
X119991142Y-71112095D01*
X120038761Y-71064476D01*
X120086380Y-70969238D01*
X120086380Y-70778761D01*
X120038761Y-70683523D01*
X119991142Y-70635904D01*
X119895904Y-70588285D01*
X119705428Y-70588285D01*
X119610190Y-70635904D01*
X119562571Y-70683523D01*
X119514952Y-70778761D01*
X124055142Y-63285666D02*
X124102761Y-63333285D01*
X124150380Y-63476142D01*
X124150380Y-63571380D01*
X124102761Y-63714238D01*
X124007523Y-63809476D01*
X123912285Y-63857095D01*
X123721809Y-63904714D01*
X123578952Y-63904714D01*
X123388476Y-63857095D01*
X123293238Y-63809476D01*
X123198000Y-63714238D01*
X123150380Y-63571380D01*
X123150380Y-63476142D01*
X123198000Y-63333285D01*
X123245619Y-63285666D01*
X124150380Y-62809476D02*
X124150380Y-62619000D01*
X124102761Y-62523761D01*
X124055142Y-62476142D01*
X123912285Y-62380904D01*
X123721809Y-62333285D01*
X123340857Y-62333285D01*
X123245619Y-62380904D01*
X123198000Y-62428523D01*
X123150380Y-62523761D01*
X123150380Y-62714238D01*
X123198000Y-62809476D01*
X123245619Y-62857095D01*
X123340857Y-62904714D01*
X123578952Y-62904714D01*
X123674190Y-62857095D01*
X123721809Y-62809476D01*
X123769428Y-62714238D01*
X123769428Y-62523761D01*
X123721809Y-62428523D01*
X123674190Y-62380904D01*
X123578952Y-62333285D01*
X118594142Y-72016857D02*
X118641761Y-72064476D01*
X118689380Y-72207333D01*
X118689380Y-72302571D01*
X118641761Y-72445428D01*
X118546523Y-72540666D01*
X118451285Y-72588285D01*
X118260809Y-72635904D01*
X118117952Y-72635904D01*
X117927476Y-72588285D01*
X117832238Y-72540666D01*
X117737000Y-72445428D01*
X117689380Y-72302571D01*
X117689380Y-72207333D01*
X117737000Y-72064476D01*
X117784619Y-72016857D01*
X118689380Y-71064476D02*
X118689380Y-71635904D01*
X118689380Y-71350190D02*
X117689380Y-71350190D01*
X117832238Y-71445428D01*
X117927476Y-71540666D01*
X117975095Y-71635904D01*
X117689380Y-70445428D02*
X117689380Y-70350190D01*
X117737000Y-70254952D01*
X117784619Y-70207333D01*
X117879857Y-70159714D01*
X118070333Y-70112095D01*
X118308428Y-70112095D01*
X118498904Y-70159714D01*
X118594142Y-70207333D01*
X118641761Y-70254952D01*
X118689380Y-70350190D01*
X118689380Y-70445428D01*
X118641761Y-70540666D01*
X118594142Y-70588285D01*
X118498904Y-70635904D01*
X118308428Y-70683523D01*
X118070333Y-70683523D01*
X117879857Y-70635904D01*
X117784619Y-70588285D01*
X117737000Y-70540666D01*
X117689380Y-70445428D01*
X125452142Y-63253857D02*
X125499761Y-63301476D01*
X125547380Y-63444333D01*
X125547380Y-63539571D01*
X125499761Y-63682428D01*
X125404523Y-63777666D01*
X125309285Y-63825285D01*
X125118809Y-63872904D01*
X124975952Y-63872904D01*
X124785476Y-63825285D01*
X124690238Y-63777666D01*
X124595000Y-63682428D01*
X124547380Y-63539571D01*
X124547380Y-63444333D01*
X124595000Y-63301476D01*
X124642619Y-63253857D01*
X125547380Y-62301476D02*
X125547380Y-62872904D01*
X125547380Y-62587190D02*
X124547380Y-62587190D01*
X124690238Y-62682428D01*
X124785476Y-62777666D01*
X124833095Y-62872904D01*
X125547380Y-61349095D02*
X125547380Y-61920523D01*
X125547380Y-61634809D02*
X124547380Y-61634809D01*
X124690238Y-61730047D01*
X124785476Y-61825285D01*
X124833095Y-61920523D01*
X121277142Y-84431142D02*
X121229523Y-84478761D01*
X121086666Y-84526380D01*
X120991428Y-84526380D01*
X120848571Y-84478761D01*
X120753333Y-84383523D01*
X120705714Y-84288285D01*
X120658095Y-84097809D01*
X120658095Y-83954952D01*
X120705714Y-83764476D01*
X120753333Y-83669238D01*
X120848571Y-83574000D01*
X120991428Y-83526380D01*
X121086666Y-83526380D01*
X121229523Y-83574000D01*
X121277142Y-83621619D01*
X122229523Y-84526380D02*
X121658095Y-84526380D01*
X121943809Y-84526380D02*
X121943809Y-83526380D01*
X121848571Y-83669238D01*
X121753333Y-83764476D01*
X121658095Y-83812095D01*
X122610476Y-83621619D02*
X122658095Y-83574000D01*
X122753333Y-83526380D01*
X122991428Y-83526380D01*
X123086666Y-83574000D01*
X123134285Y-83621619D01*
X123181904Y-83716857D01*
X123181904Y-83812095D01*
X123134285Y-83954952D01*
X122562857Y-84526380D01*
X123181904Y-84526380D01*
X126849142Y-69349857D02*
X126896761Y-69397476D01*
X126944380Y-69540333D01*
X126944380Y-69635571D01*
X126896761Y-69778428D01*
X126801523Y-69873666D01*
X126706285Y-69921285D01*
X126515809Y-69968904D01*
X126372952Y-69968904D01*
X126182476Y-69921285D01*
X126087238Y-69873666D01*
X125992000Y-69778428D01*
X125944380Y-69635571D01*
X125944380Y-69540333D01*
X125992000Y-69397476D01*
X126039619Y-69349857D01*
X126944380Y-68397476D02*
X126944380Y-68968904D01*
X126944380Y-68683190D02*
X125944380Y-68683190D01*
X126087238Y-68778428D01*
X126182476Y-68873666D01*
X126230095Y-68968904D01*
X126277714Y-67540333D02*
X126944380Y-67540333D01*
X125896761Y-67778428D02*
X126611047Y-68016523D01*
X126611047Y-67397476D01*
X128119142Y-69349857D02*
X128166761Y-69397476D01*
X128214380Y-69540333D01*
X128214380Y-69635571D01*
X128166761Y-69778428D01*
X128071523Y-69873666D01*
X127976285Y-69921285D01*
X127785809Y-69968904D01*
X127642952Y-69968904D01*
X127452476Y-69921285D01*
X127357238Y-69873666D01*
X127262000Y-69778428D01*
X127214380Y-69635571D01*
X127214380Y-69540333D01*
X127262000Y-69397476D01*
X127309619Y-69349857D01*
X128214380Y-68397476D02*
X128214380Y-68968904D01*
X128214380Y-68683190D02*
X127214380Y-68683190D01*
X127357238Y-68778428D01*
X127452476Y-68873666D01*
X127500095Y-68968904D01*
X127214380Y-67492714D02*
X127214380Y-67968904D01*
X127690571Y-68016523D01*
X127642952Y-67968904D01*
X127595333Y-67873666D01*
X127595333Y-67635571D01*
X127642952Y-67540333D01*
X127690571Y-67492714D01*
X127785809Y-67445095D01*
X128023904Y-67445095D01*
X128119142Y-67492714D01*
X128166761Y-67540333D01*
X128214380Y-67635571D01*
X128214380Y-67873666D01*
X128166761Y-67968904D01*
X128119142Y-68016523D01*
X117959142Y-85605857D02*
X118006761Y-85653476D01*
X118054380Y-85796333D01*
X118054380Y-85891571D01*
X118006761Y-86034428D01*
X117911523Y-86129666D01*
X117816285Y-86177285D01*
X117625809Y-86224904D01*
X117482952Y-86224904D01*
X117292476Y-86177285D01*
X117197238Y-86129666D01*
X117102000Y-86034428D01*
X117054380Y-85891571D01*
X117054380Y-85796333D01*
X117102000Y-85653476D01*
X117149619Y-85605857D01*
X118054380Y-84653476D02*
X118054380Y-85224904D01*
X118054380Y-84939190D02*
X117054380Y-84939190D01*
X117197238Y-85034428D01*
X117292476Y-85129666D01*
X117340095Y-85224904D01*
X117482952Y-84082047D02*
X117435333Y-84177285D01*
X117387714Y-84224904D01*
X117292476Y-84272523D01*
X117244857Y-84272523D01*
X117149619Y-84224904D01*
X117102000Y-84177285D01*
X117054380Y-84082047D01*
X117054380Y-83891571D01*
X117102000Y-83796333D01*
X117149619Y-83748714D01*
X117244857Y-83701095D01*
X117292476Y-83701095D01*
X117387714Y-83748714D01*
X117435333Y-83796333D01*
X117482952Y-83891571D01*
X117482952Y-84082047D01*
X117530571Y-84177285D01*
X117578190Y-84224904D01*
X117673428Y-84272523D01*
X117863904Y-84272523D01*
X117959142Y-84224904D01*
X118006761Y-84177285D01*
X118054380Y-84082047D01*
X118054380Y-83891571D01*
X118006761Y-83796333D01*
X117959142Y-83748714D01*
X117863904Y-83701095D01*
X117673428Y-83701095D01*
X117578190Y-83748714D01*
X117530571Y-83796333D01*
X117482952Y-83891571D01*
X125579142Y-90812857D02*
X125626761Y-90860476D01*
X125674380Y-91003333D01*
X125674380Y-91098571D01*
X125626761Y-91241428D01*
X125531523Y-91336666D01*
X125436285Y-91384285D01*
X125245809Y-91431904D01*
X125102952Y-91431904D01*
X124912476Y-91384285D01*
X124817238Y-91336666D01*
X124722000Y-91241428D01*
X124674380Y-91098571D01*
X124674380Y-91003333D01*
X124722000Y-90860476D01*
X124769619Y-90812857D01*
X125674380Y-89860476D02*
X125674380Y-90431904D01*
X125674380Y-90146190D02*
X124674380Y-90146190D01*
X124817238Y-90241428D01*
X124912476Y-90336666D01*
X124960095Y-90431904D01*
X125674380Y-89384285D02*
X125674380Y-89193809D01*
X125626761Y-89098571D01*
X125579142Y-89050952D01*
X125436285Y-88955714D01*
X125245809Y-88908095D01*
X124864857Y-88908095D01*
X124769619Y-88955714D01*
X124722000Y-89003333D01*
X124674380Y-89098571D01*
X124674380Y-89289047D01*
X124722000Y-89384285D01*
X124769619Y-89431904D01*
X124864857Y-89479523D01*
X125102952Y-89479523D01*
X125198190Y-89431904D01*
X125245809Y-89384285D01*
X125293428Y-89289047D01*
X125293428Y-89098571D01*
X125245809Y-89003333D01*
X125198190Y-88955714D01*
X125102952Y-88908095D01*
X138814142Y-63158666D02*
X138861761Y-63206285D01*
X138909380Y-63349142D01*
X138909380Y-63444380D01*
X138861761Y-63587238D01*
X138766523Y-63682476D01*
X138671285Y-63730095D01*
X138480809Y-63777714D01*
X138337952Y-63777714D01*
X138147476Y-63730095D01*
X138052238Y-63682476D01*
X137957000Y-63587238D01*
X137909380Y-63444380D01*
X137909380Y-63349142D01*
X137957000Y-63206285D01*
X138004619Y-63158666D01*
X138242714Y-62301523D02*
X138909380Y-62301523D01*
X137861761Y-62539619D02*
X138576047Y-62777714D01*
X138576047Y-62158666D01*
X139195142Y-80144857D02*
X139242761Y-80192476D01*
X139290380Y-80335333D01*
X139290380Y-80430571D01*
X139242761Y-80573428D01*
X139147523Y-80668666D01*
X139052285Y-80716285D01*
X138861809Y-80763904D01*
X138718952Y-80763904D01*
X138528476Y-80716285D01*
X138433238Y-80668666D01*
X138338000Y-80573428D01*
X138290380Y-80430571D01*
X138290380Y-80335333D01*
X138338000Y-80192476D01*
X138385619Y-80144857D01*
X138385619Y-79763904D02*
X138338000Y-79716285D01*
X138290380Y-79621047D01*
X138290380Y-79382952D01*
X138338000Y-79287714D01*
X138385619Y-79240095D01*
X138480857Y-79192476D01*
X138576095Y-79192476D01*
X138718952Y-79240095D01*
X139290380Y-79811523D01*
X139290380Y-79192476D01*
X138290380Y-78859142D02*
X138290380Y-78240095D01*
X138671333Y-78573428D01*
X138671333Y-78430571D01*
X138718952Y-78335333D01*
X138766571Y-78287714D01*
X138861809Y-78240095D01*
X139099904Y-78240095D01*
X139195142Y-78287714D01*
X139242761Y-78335333D01*
X139290380Y-78430571D01*
X139290380Y-78716285D01*
X139242761Y-78811523D01*
X139195142Y-78859142D01*
X134358142Y-76176142D02*
X134310523Y-76223761D01*
X134167666Y-76271380D01*
X134072428Y-76271380D01*
X133929571Y-76223761D01*
X133834333Y-76128523D01*
X133786714Y-76033285D01*
X133739095Y-75842809D01*
X133739095Y-75699952D01*
X133786714Y-75509476D01*
X133834333Y-75414238D01*
X133929571Y-75319000D01*
X134072428Y-75271380D01*
X134167666Y-75271380D01*
X134310523Y-75319000D01*
X134358142Y-75366619D01*
X134739095Y-75366619D02*
X134786714Y-75319000D01*
X134881952Y-75271380D01*
X135120047Y-75271380D01*
X135215285Y-75319000D01*
X135262904Y-75366619D01*
X135310523Y-75461857D01*
X135310523Y-75557095D01*
X135262904Y-75699952D01*
X134691476Y-76271380D01*
X135310523Y-76271380D01*
X136167666Y-75604714D02*
X136167666Y-76271380D01*
X135929571Y-75223761D02*
X135691476Y-75938047D01*
X136310523Y-75938047D01*
X130278142Y-72524857D02*
X130325761Y-72572476D01*
X130373380Y-72715333D01*
X130373380Y-72810571D01*
X130325761Y-72953428D01*
X130230523Y-73048666D01*
X130135285Y-73096285D01*
X129944809Y-73143904D01*
X129801952Y-73143904D01*
X129611476Y-73096285D01*
X129516238Y-73048666D01*
X129421000Y-72953428D01*
X129373380Y-72810571D01*
X129373380Y-72715333D01*
X129421000Y-72572476D01*
X129468619Y-72524857D01*
X129468619Y-72143904D02*
X129421000Y-72096285D01*
X129373380Y-72001047D01*
X129373380Y-71762952D01*
X129421000Y-71667714D01*
X129468619Y-71620095D01*
X129563857Y-71572476D01*
X129659095Y-71572476D01*
X129801952Y-71620095D01*
X130373380Y-72191523D01*
X130373380Y-71572476D01*
X129373380Y-70667714D02*
X129373380Y-71143904D01*
X129849571Y-71191523D01*
X129801952Y-71143904D01*
X129754333Y-71048666D01*
X129754333Y-70810571D01*
X129801952Y-70715333D01*
X129849571Y-70667714D01*
X129944809Y-70620095D01*
X130182904Y-70620095D01*
X130278142Y-70667714D01*
X130325761Y-70715333D01*
X130373380Y-70810571D01*
X130373380Y-71048666D01*
X130325761Y-71143904D01*
X130278142Y-71191523D01*
X137458380Y-65698666D02*
X136982190Y-66032000D01*
X137458380Y-66270095D02*
X136458380Y-66270095D01*
X136458380Y-65889142D01*
X136506000Y-65793904D01*
X136553619Y-65746285D01*
X136648857Y-65698666D01*
X136791714Y-65698666D01*
X136886952Y-65746285D01*
X136934571Y-65793904D01*
X136982190Y-65889142D01*
X136982190Y-66270095D01*
X136458380Y-64793904D02*
X136458380Y-65270095D01*
X136934571Y-65317714D01*
X136886952Y-65270095D01*
X136839333Y-65174857D01*
X136839333Y-64936761D01*
X136886952Y-64841523D01*
X136934571Y-64793904D01*
X137029809Y-64746285D01*
X137267904Y-64746285D01*
X137363142Y-64793904D01*
X137410761Y-64841523D01*
X137458380Y-64936761D01*
X137458380Y-65174857D01*
X137410761Y-65270095D01*
X137363142Y-65317714D01*
X133945333Y-68397380D02*
X133612000Y-67921190D01*
X133373904Y-68397380D02*
X133373904Y-67397380D01*
X133754857Y-67397380D01*
X133850095Y-67445000D01*
X133897714Y-67492619D01*
X133945333Y-67587857D01*
X133945333Y-67730714D01*
X133897714Y-67825952D01*
X133850095Y-67873571D01*
X133754857Y-67921190D01*
X133373904Y-67921190D01*
X134802476Y-67397380D02*
X134612000Y-67397380D01*
X134516761Y-67445000D01*
X134469142Y-67492619D01*
X134373904Y-67635476D01*
X134326285Y-67825952D01*
X134326285Y-68206904D01*
X134373904Y-68302142D01*
X134421523Y-68349761D01*
X134516761Y-68397380D01*
X134707238Y-68397380D01*
X134802476Y-68349761D01*
X134850095Y-68302142D01*
X134897714Y-68206904D01*
X134897714Y-67968809D01*
X134850095Y-67873571D01*
X134802476Y-67825952D01*
X134707238Y-67778333D01*
X134516761Y-67778333D01*
X134421523Y-67825952D01*
X134373904Y-67873571D01*
X134326285Y-67968809D01*
X129076380Y-61380666D02*
X128600190Y-61714000D01*
X129076380Y-61952095D02*
X128076380Y-61952095D01*
X128076380Y-61571142D01*
X128124000Y-61475904D01*
X128171619Y-61428285D01*
X128266857Y-61380666D01*
X128409714Y-61380666D01*
X128504952Y-61428285D01*
X128552571Y-61475904D01*
X128600190Y-61571142D01*
X128600190Y-61952095D01*
X128076380Y-61047333D02*
X128076380Y-60380666D01*
X129076380Y-60809238D01*
X115259333Y-62555380D02*
X114926000Y-62079190D01*
X114687904Y-62555380D02*
X114687904Y-61555380D01*
X115068857Y-61555380D01*
X115164095Y-61603000D01*
X115211714Y-61650619D01*
X115259333Y-61745857D01*
X115259333Y-61888714D01*
X115211714Y-61983952D01*
X115164095Y-62031571D01*
X115068857Y-62079190D01*
X114687904Y-62079190D01*
X115830761Y-61983952D02*
X115735523Y-61936333D01*
X115687904Y-61888714D01*
X115640285Y-61793476D01*
X115640285Y-61745857D01*
X115687904Y-61650619D01*
X115735523Y-61603000D01*
X115830761Y-61555380D01*
X116021238Y-61555380D01*
X116116476Y-61603000D01*
X116164095Y-61650619D01*
X116211714Y-61745857D01*
X116211714Y-61793476D01*
X116164095Y-61888714D01*
X116116476Y-61936333D01*
X116021238Y-61983952D01*
X115830761Y-61983952D01*
X115735523Y-62031571D01*
X115687904Y-62079190D01*
X115640285Y-62174428D01*
X115640285Y-62364904D01*
X115687904Y-62460142D01*
X115735523Y-62507761D01*
X115830761Y-62555380D01*
X116021238Y-62555380D01*
X116116476Y-62507761D01*
X116164095Y-62460142D01*
X116211714Y-62364904D01*
X116211714Y-62174428D01*
X116164095Y-62079190D01*
X116116476Y-62031571D01*
X116021238Y-61983952D01*
X117545333Y-62536380D02*
X117212000Y-62060190D01*
X116973904Y-62536380D02*
X116973904Y-61536380D01*
X117354857Y-61536380D01*
X117450095Y-61584000D01*
X117497714Y-61631619D01*
X117545333Y-61726857D01*
X117545333Y-61869714D01*
X117497714Y-61964952D01*
X117450095Y-62012571D01*
X117354857Y-62060190D01*
X116973904Y-62060190D01*
X118021523Y-62536380D02*
X118212000Y-62536380D01*
X118307238Y-62488761D01*
X118354857Y-62441142D01*
X118450095Y-62298285D01*
X118497714Y-62107809D01*
X118497714Y-61726857D01*
X118450095Y-61631619D01*
X118402476Y-61584000D01*
X118307238Y-61536380D01*
X118116761Y-61536380D01*
X118021523Y-61584000D01*
X117973904Y-61631619D01*
X117926285Y-61726857D01*
X117926285Y-61964952D01*
X117973904Y-62060190D01*
X118021523Y-62107809D01*
X118116761Y-62155428D01*
X118307238Y-62155428D01*
X118402476Y-62107809D01*
X118450095Y-62060190D01*
X118497714Y-61964952D01*
X120594380Y-86748857D02*
X120118190Y-87082190D01*
X120594380Y-87320285D02*
X119594380Y-87320285D01*
X119594380Y-86939333D01*
X119642000Y-86844095D01*
X119689619Y-86796476D01*
X119784857Y-86748857D01*
X119927714Y-86748857D01*
X120022952Y-86796476D01*
X120070571Y-86844095D01*
X120118190Y-86939333D01*
X120118190Y-87320285D01*
X120594380Y-85796476D02*
X120594380Y-86367904D01*
X120594380Y-86082190D02*
X119594380Y-86082190D01*
X119737238Y-86177428D01*
X119832476Y-86272666D01*
X119880095Y-86367904D01*
X119689619Y-85415523D02*
X119642000Y-85367904D01*
X119594380Y-85272666D01*
X119594380Y-85034571D01*
X119642000Y-84939333D01*
X119689619Y-84891714D01*
X119784857Y-84844095D01*
X119880095Y-84844095D01*
X120022952Y-84891714D01*
X120594380Y-85463142D01*
X120594380Y-84844095D01*
X137485380Y-83319857D02*
X137009190Y-83653190D01*
X137485380Y-83891285D02*
X136485380Y-83891285D01*
X136485380Y-83510333D01*
X136533000Y-83415095D01*
X136580619Y-83367476D01*
X136675857Y-83319857D01*
X136818714Y-83319857D01*
X136913952Y-83367476D01*
X136961571Y-83415095D01*
X137009190Y-83510333D01*
X137009190Y-83891285D01*
X137485380Y-82367476D02*
X137485380Y-82938904D01*
X137485380Y-82653190D02*
X136485380Y-82653190D01*
X136628238Y-82748428D01*
X136723476Y-82843666D01*
X136771095Y-82938904D01*
X136485380Y-82034142D02*
X136485380Y-81367476D01*
X137485380Y-81796047D01*
X132961142Y-85034380D02*
X132627809Y-84558190D01*
X132389714Y-85034380D02*
X132389714Y-84034380D01*
X132770666Y-84034380D01*
X132865904Y-84082000D01*
X132913523Y-84129619D01*
X132961142Y-84224857D01*
X132961142Y-84367714D01*
X132913523Y-84462952D01*
X132865904Y-84510571D01*
X132770666Y-84558190D01*
X132389714Y-84558190D01*
X133913523Y-85034380D02*
X133342095Y-85034380D01*
X133627809Y-85034380D02*
X133627809Y-84034380D01*
X133532571Y-84177238D01*
X133437333Y-84272476D01*
X133342095Y-84320095D01*
X134484952Y-84462952D02*
X134389714Y-84415333D01*
X134342095Y-84367714D01*
X134294476Y-84272476D01*
X134294476Y-84224857D01*
X134342095Y-84129619D01*
X134389714Y-84082000D01*
X134484952Y-84034380D01*
X134675428Y-84034380D01*
X134770666Y-84082000D01*
X134818285Y-84129619D01*
X134865904Y-84224857D01*
X134865904Y-84272476D01*
X134818285Y-84367714D01*
X134770666Y-84415333D01*
X134675428Y-84462952D01*
X134484952Y-84462952D01*
X134389714Y-84510571D01*
X134342095Y-84558190D01*
X134294476Y-84653428D01*
X134294476Y-84843904D01*
X134342095Y-84939142D01*
X134389714Y-84986761D01*
X134484952Y-85034380D01*
X134675428Y-85034380D01*
X134770666Y-84986761D01*
X134818285Y-84939142D01*
X134865904Y-84843904D01*
X134865904Y-84653428D01*
X134818285Y-84558190D01*
X134770666Y-84510571D01*
X134675428Y-84462952D01*
X130754380Y-76842857D02*
X130278190Y-77176190D01*
X130754380Y-77414285D02*
X129754380Y-77414285D01*
X129754380Y-77033333D01*
X129802000Y-76938095D01*
X129849619Y-76890476D01*
X129944857Y-76842857D01*
X130087714Y-76842857D01*
X130182952Y-76890476D01*
X130230571Y-76938095D01*
X130278190Y-77033333D01*
X130278190Y-77414285D01*
X130754380Y-75890476D02*
X130754380Y-76461904D01*
X130754380Y-76176190D02*
X129754380Y-76176190D01*
X129897238Y-76271428D01*
X129992476Y-76366666D01*
X130040095Y-76461904D01*
X130754380Y-75414285D02*
X130754380Y-75223809D01*
X130706761Y-75128571D01*
X130659142Y-75080952D01*
X130516285Y-74985714D01*
X130325809Y-74938095D01*
X129944857Y-74938095D01*
X129849619Y-74985714D01*
X129802000Y-75033333D01*
X129754380Y-75128571D01*
X129754380Y-75319047D01*
X129802000Y-75414285D01*
X129849619Y-75461904D01*
X129944857Y-75509523D01*
X130182952Y-75509523D01*
X130278190Y-75461904D01*
X130325809Y-75414285D01*
X130373428Y-75319047D01*
X130373428Y-75128571D01*
X130325809Y-75033333D01*
X130278190Y-74985714D01*
X130182952Y-74938095D01*
X132842095Y-81554380D02*
X132842095Y-82363904D01*
X132889714Y-82459142D01*
X132937333Y-82506761D01*
X133032571Y-82554380D01*
X133223047Y-82554380D01*
X133318285Y-82506761D01*
X133365904Y-82459142D01*
X133413523Y-82363904D01*
X133413523Y-81554380D01*
X134032571Y-81982952D02*
X133937333Y-81935333D01*
X133889714Y-81887714D01*
X133842095Y-81792476D01*
X133842095Y-81744857D01*
X133889714Y-81649619D01*
X133937333Y-81602000D01*
X134032571Y-81554380D01*
X134223047Y-81554380D01*
X134318285Y-81602000D01*
X134365904Y-81649619D01*
X134413523Y-81744857D01*
X134413523Y-81792476D01*
X134365904Y-81887714D01*
X134318285Y-81935333D01*
X134223047Y-81982952D01*
X134032571Y-81982952D01*
X133937333Y-82030571D01*
X133889714Y-82078190D01*
X133842095Y-82173428D01*
X133842095Y-82363904D01*
X133889714Y-82459142D01*
X133937333Y-82506761D01*
X134032571Y-82554380D01*
X134223047Y-82554380D01*
X134318285Y-82506761D01*
X134365904Y-82459142D01*
X134413523Y-82363904D01*
X134413523Y-82173428D01*
X134365904Y-82078190D01*
X134318285Y-82030571D01*
X134223047Y-81982952D01*
X140533380Y-92844857D02*
X140057190Y-93178190D01*
X140533380Y-93416285D02*
X139533380Y-93416285D01*
X139533380Y-93035333D01*
X139581000Y-92940095D01*
X139628619Y-92892476D01*
X139723857Y-92844857D01*
X139866714Y-92844857D01*
X139961952Y-92892476D01*
X140009571Y-92940095D01*
X140057190Y-93035333D01*
X140057190Y-93416285D01*
X140533380Y-91892476D02*
X140533380Y-92463904D01*
X140533380Y-92178190D02*
X139533380Y-92178190D01*
X139676238Y-92273428D01*
X139771476Y-92368666D01*
X139819095Y-92463904D01*
X139533380Y-91035333D02*
X139533380Y-91225809D01*
X139581000Y-91321047D01*
X139628619Y-91368666D01*
X139771476Y-91463904D01*
X139961952Y-91511523D01*
X140342904Y-91511523D01*
X140438142Y-91463904D01*
X140485761Y-91416285D01*
X140533380Y-91321047D01*
X140533380Y-91130571D01*
X140485761Y-91035333D01*
X140438142Y-90987714D01*
X140342904Y-90940095D01*
X140104809Y-90940095D01*
X140009571Y-90987714D01*
X139961952Y-91035333D01*
X139914333Y-91130571D01*
X139914333Y-91321047D01*
X139961952Y-91416285D01*
X140009571Y-91463904D01*
X140104809Y-91511523D01*
X120919095Y-73319380D02*
X120919095Y-74128904D01*
X120966714Y-74224142D01*
X121014333Y-74271761D01*
X121109571Y-74319380D01*
X121300047Y-74319380D01*
X121395285Y-74271761D01*
X121442904Y-74224142D01*
X121490523Y-74128904D01*
X121490523Y-73319380D01*
X122442904Y-73319380D02*
X121966714Y-73319380D01*
X121919095Y-73795571D01*
X121966714Y-73747952D01*
X122061952Y-73700333D01*
X122300047Y-73700333D01*
X122395285Y-73747952D01*
X122442904Y-73795571D01*
X122490523Y-73890809D01*
X122490523Y-74128904D01*
X122442904Y-74224142D01*
X122395285Y-74271761D01*
X122300047Y-74319380D01*
X122061952Y-74319380D01*
X121966714Y-74271761D01*
X121919095Y-74224142D01*
X125547380Y-69349857D02*
X125071190Y-69683190D01*
X125547380Y-69921285D02*
X124547380Y-69921285D01*
X124547380Y-69540333D01*
X124595000Y-69445095D01*
X124642619Y-69397476D01*
X124737857Y-69349857D01*
X124880714Y-69349857D01*
X124975952Y-69397476D01*
X125023571Y-69445095D01*
X125071190Y-69540333D01*
X125071190Y-69921285D01*
X125547380Y-68397476D02*
X125547380Y-68968904D01*
X125547380Y-68683190D02*
X124547380Y-68683190D01*
X124690238Y-68778428D01*
X124785476Y-68873666D01*
X124833095Y-68968904D01*
X124547380Y-67778428D02*
X124547380Y-67683190D01*
X124595000Y-67587952D01*
X124642619Y-67540333D01*
X124737857Y-67492714D01*
X124928333Y-67445095D01*
X125166428Y-67445095D01*
X125356904Y-67492714D01*
X125452142Y-67540333D01*
X125499761Y-67587952D01*
X125547380Y-67683190D01*
X125547380Y-67778428D01*
X125499761Y-67873666D01*
X125452142Y-67921285D01*
X125356904Y-67968904D01*
X125166428Y-68016523D01*
X124928333Y-68016523D01*
X124737857Y-67968904D01*
X124642619Y-67921285D01*
X124595000Y-67873666D01*
X124547380Y-67778428D01*
X124150380Y-69349857D02*
X123674190Y-69683190D01*
X124150380Y-69921285D02*
X123150380Y-69921285D01*
X123150380Y-69540333D01*
X123198000Y-69445095D01*
X123245619Y-69397476D01*
X123340857Y-69349857D01*
X123483714Y-69349857D01*
X123578952Y-69397476D01*
X123626571Y-69445095D01*
X123674190Y-69540333D01*
X123674190Y-69921285D01*
X124150380Y-68397476D02*
X124150380Y-68968904D01*
X124150380Y-68683190D02*
X123150380Y-68683190D01*
X123293238Y-68778428D01*
X123388476Y-68873666D01*
X123436095Y-68968904D01*
X124150380Y-67445095D02*
X124150380Y-68016523D01*
X124150380Y-67730809D02*
X123150380Y-67730809D01*
X123293238Y-67826047D01*
X123388476Y-67921285D01*
X123436095Y-68016523D01*
X160599523Y-79097142D02*
X160551904Y-79144761D01*
X160409047Y-79192380D01*
X160313809Y-79192380D01*
X160170952Y-79144761D01*
X160075714Y-79049523D01*
X160028095Y-78954285D01*
X159980476Y-78763809D01*
X159980476Y-78620952D01*
X160028095Y-78430476D01*
X160075714Y-78335238D01*
X160170952Y-78240000D01*
X160313809Y-78192380D01*
X160409047Y-78192380D01*
X160551904Y-78240000D01*
X160599523Y-78287619D01*
X161028095Y-79192380D02*
X161028095Y-78192380D01*
X161599523Y-79192380D01*
X161599523Y-78192380D01*
X162028095Y-78287619D02*
X162075714Y-78240000D01*
X162170952Y-78192380D01*
X162409047Y-78192380D01*
X162504285Y-78240000D01*
X162551904Y-78287619D01*
X162599523Y-78382857D01*
X162599523Y-78478095D01*
X162551904Y-78620952D01*
X161980476Y-79192380D01*
X162599523Y-79192380D01*
X117292380Y-93702095D02*
X116292380Y-93702095D01*
X116292380Y-93464000D01*
X116340000Y-93321142D01*
X116435238Y-93225904D01*
X116530476Y-93178285D01*
X116720952Y-93130666D01*
X116863809Y-93130666D01*
X117054285Y-93178285D01*
X117149523Y-93225904D01*
X117244761Y-93321142D01*
X117292380Y-93464000D01*
X117292380Y-93702095D01*
X116387619Y-92749714D02*
X116340000Y-92702095D01*
X116292380Y-92606857D01*
X116292380Y-92368761D01*
X116340000Y-92273523D01*
X116387619Y-92225904D01*
X116482857Y-92178285D01*
X116578095Y-92178285D01*
X116720952Y-92225904D01*
X117292380Y-92797333D01*
X117292380Y-92178285D01*
X115490666Y-51522380D02*
X115490666Y-52236666D01*
X115443047Y-52379523D01*
X115347809Y-52474761D01*
X115204952Y-52522380D01*
X115109714Y-52522380D01*
X116395428Y-51522380D02*
X116204952Y-51522380D01*
X116109714Y-51570000D01*
X116062095Y-51617619D01*
X115966857Y-51760476D01*
X115919238Y-51950952D01*
X115919238Y-52331904D01*
X115966857Y-52427142D01*
X116014476Y-52474761D01*
X116109714Y-52522380D01*
X116300190Y-52522380D01*
X116395428Y-52474761D01*
X116443047Y-52427142D01*
X116490666Y-52331904D01*
X116490666Y-52093809D01*
X116443047Y-51998571D01*
X116395428Y-51950952D01*
X116300190Y-51903333D01*
X116109714Y-51903333D01*
X116014476Y-51950952D01*
X115966857Y-51998571D01*
X115919238Y-52093809D01*
X117292380Y-91066857D02*
X116816190Y-91400190D01*
X117292380Y-91638285D02*
X116292380Y-91638285D01*
X116292380Y-91257333D01*
X116340000Y-91162095D01*
X116387619Y-91114476D01*
X116482857Y-91066857D01*
X116625714Y-91066857D01*
X116720952Y-91114476D01*
X116768571Y-91162095D01*
X116816190Y-91257333D01*
X116816190Y-91638285D01*
X116387619Y-90685904D02*
X116340000Y-90638285D01*
X116292380Y-90543047D01*
X116292380Y-90304952D01*
X116340000Y-90209714D01*
X116387619Y-90162095D01*
X116482857Y-90114476D01*
X116578095Y-90114476D01*
X116720952Y-90162095D01*
X117292380Y-90733523D01*
X117292380Y-90114476D01*
X116292380Y-89781142D02*
X116292380Y-89114476D01*
X117292380Y-89543047D01*
X118427666Y-94194261D02*
X118570523Y-94241880D01*
X118808619Y-94241880D01*
X118903857Y-94194261D01*
X118951476Y-94146642D01*
X118999095Y-94051404D01*
X118999095Y-93956166D01*
X118951476Y-93860928D01*
X118903857Y-93813309D01*
X118808619Y-93765690D01*
X118618142Y-93718071D01*
X118522904Y-93670452D01*
X118475285Y-93622833D01*
X118427666Y-93527595D01*
X118427666Y-93432357D01*
X118475285Y-93337119D01*
X118522904Y-93289500D01*
X118618142Y-93241880D01*
X118856238Y-93241880D01*
X118999095Y-93289500D01*
X119332428Y-93241880D02*
X119570523Y-94241880D01*
X119761000Y-93527595D01*
X119951476Y-94241880D01*
X120189571Y-93241880D01*
X121094333Y-94241880D02*
X120522904Y-94241880D01*
X120808619Y-94241880D02*
X120808619Y-93241880D01*
X120713380Y-93384738D01*
X120618142Y-93479976D01*
X120522904Y-93527595D01*
X122174166Y-94194261D02*
X122317023Y-94241880D01*
X122555119Y-94241880D01*
X122650357Y-94194261D01*
X122697976Y-94146642D01*
X122745595Y-94051404D01*
X122745595Y-93956166D01*
X122697976Y-93860928D01*
X122650357Y-93813309D01*
X122555119Y-93765690D01*
X122364642Y-93718071D01*
X122269404Y-93670452D01*
X122221785Y-93622833D01*
X122174166Y-93527595D01*
X122174166Y-93432357D01*
X122221785Y-93337119D01*
X122269404Y-93289500D01*
X122364642Y-93241880D01*
X122602738Y-93241880D01*
X122745595Y-93289500D01*
X123078928Y-93241880D02*
X123317023Y-94241880D01*
X123507500Y-93527595D01*
X123697976Y-94241880D01*
X123936071Y-93241880D01*
X124269404Y-93337119D02*
X124317023Y-93289500D01*
X124412261Y-93241880D01*
X124650357Y-93241880D01*
X124745595Y-93289500D01*
X124793214Y-93337119D01*
X124840833Y-93432357D01*
X124840833Y-93527595D01*
X124793214Y-93670452D01*
X124221785Y-94241880D01*
X124840833Y-94241880D01*
X127658761Y-98551833D02*
X127706380Y-98408976D01*
X127706380Y-98170880D01*
X127658761Y-98075642D01*
X127611142Y-98028023D01*
X127515904Y-97980404D01*
X127420666Y-97980404D01*
X127325428Y-98028023D01*
X127277809Y-98075642D01*
X127230190Y-98170880D01*
X127182571Y-98361357D01*
X127134952Y-98456595D01*
X127087333Y-98504214D01*
X126992095Y-98551833D01*
X126896857Y-98551833D01*
X126801619Y-98504214D01*
X126754000Y-98456595D01*
X126706380Y-98361357D01*
X126706380Y-98123261D01*
X126754000Y-97980404D01*
X126706380Y-97647071D02*
X127706380Y-97408976D01*
X126992095Y-97218500D01*
X127706380Y-97028023D01*
X126706380Y-96789928D01*
X127039714Y-95980404D02*
X127706380Y-95980404D01*
X126658761Y-96218500D02*
X127373047Y-96456595D01*
X127373047Y-95837547D01*
X160599523Y-95607142D02*
X160551904Y-95654761D01*
X160409047Y-95702380D01*
X160313809Y-95702380D01*
X160170952Y-95654761D01*
X160075714Y-95559523D01*
X160028095Y-95464285D01*
X159980476Y-95273809D01*
X159980476Y-95130952D01*
X160028095Y-94940476D01*
X160075714Y-94845238D01*
X160170952Y-94750000D01*
X160313809Y-94702380D01*
X160409047Y-94702380D01*
X160551904Y-94750000D01*
X160599523Y-94797619D01*
X161028095Y-95702380D02*
X161028095Y-94702380D01*
X161599523Y-95702380D01*
X161599523Y-94702380D01*
X161980476Y-94702380D02*
X162599523Y-94702380D01*
X162266190Y-95083333D01*
X162409047Y-95083333D01*
X162504285Y-95130952D01*
X162551904Y-95178571D01*
X162599523Y-95273809D01*
X162599523Y-95511904D01*
X162551904Y-95607142D01*
X162504285Y-95654761D01*
X162409047Y-95702380D01*
X162123333Y-95702380D01*
X162028095Y-95654761D01*
X161980476Y-95607142D01*
X120823809Y-91884190D02*
X120823809Y-92360380D01*
X120490476Y-91360380D02*
X120823809Y-91884190D01*
X121157142Y-91360380D01*
X122014285Y-92360380D02*
X121442857Y-92360380D01*
X121728571Y-92360380D02*
X121728571Y-91360380D01*
X121633333Y-91503238D01*
X121538095Y-91598476D01*
X121442857Y-91646095D01*
X113149380Y-65931333D02*
X113863666Y-65931333D01*
X114006523Y-65978952D01*
X114101761Y-66074190D01*
X114149380Y-66217047D01*
X114149380Y-66312285D01*
X113149380Y-65550380D02*
X113149380Y-64883714D01*
X114149380Y-65312285D01*
X144613333Y-78637380D02*
X144280000Y-78161190D01*
X144041904Y-78637380D02*
X144041904Y-77637380D01*
X144422857Y-77637380D01*
X144518095Y-77685000D01*
X144565714Y-77732619D01*
X144613333Y-77827857D01*
X144613333Y-77970714D01*
X144565714Y-78065952D01*
X144518095Y-78113571D01*
X144422857Y-78161190D01*
X144041904Y-78161190D01*
X145470476Y-77970714D02*
X145470476Y-78637380D01*
X145232380Y-77589761D02*
X144994285Y-78304047D01*
X145613333Y-78304047D01*
X119634095Y-62698380D02*
X119634095Y-63507904D01*
X119681714Y-63603142D01*
X119729333Y-63650761D01*
X119824571Y-63698380D01*
X120015047Y-63698380D01*
X120110285Y-63650761D01*
X120157904Y-63603142D01*
X120205523Y-63507904D01*
X120205523Y-62698380D01*
X121110285Y-63031714D02*
X121110285Y-63698380D01*
X120872190Y-62650761D02*
X120634095Y-63365047D01*
X121253142Y-63365047D01*
X133469142Y-73350380D02*
X133135809Y-72874190D01*
X132897714Y-73350380D02*
X132897714Y-72350380D01*
X133278666Y-72350380D01*
X133373904Y-72398000D01*
X133421523Y-72445619D01*
X133469142Y-72540857D01*
X133469142Y-72683714D01*
X133421523Y-72778952D01*
X133373904Y-72826571D01*
X133278666Y-72874190D01*
X132897714Y-72874190D01*
X134326285Y-72683714D02*
X134326285Y-73350380D01*
X134088190Y-72302761D02*
X133850095Y-73017047D01*
X134469142Y-73017047D01*
X135040571Y-72350380D02*
X135135809Y-72350380D01*
X135231047Y-72398000D01*
X135278666Y-72445619D01*
X135326285Y-72540857D01*
X135373904Y-72731333D01*
X135373904Y-72969428D01*
X135326285Y-73159904D01*
X135278666Y-73255142D01*
X135231047Y-73302761D01*
X135135809Y-73350380D01*
X135040571Y-73350380D01*
X134945333Y-73302761D01*
X134897714Y-73255142D01*
X134850095Y-73159904D01*
X134802476Y-72969428D01*
X134802476Y-72731333D01*
X134850095Y-72540857D01*
X134897714Y-72445619D01*
X134945333Y-72398000D01*
X135040571Y-72350380D01*
X130675142Y-74366380D02*
X130341809Y-73890190D01*
X130103714Y-74366380D02*
X130103714Y-73366380D01*
X130484666Y-73366380D01*
X130579904Y-73414000D01*
X130627523Y-73461619D01*
X130675142Y-73556857D01*
X130675142Y-73699714D01*
X130627523Y-73794952D01*
X130579904Y-73842571D01*
X130484666Y-73890190D01*
X130103714Y-73890190D01*
X131532285Y-73699714D02*
X131532285Y-74366380D01*
X131294190Y-73318761D02*
X131056095Y-74033047D01*
X131675142Y-74033047D01*
X132579904Y-74366380D02*
X132008476Y-74366380D01*
X132294190Y-74366380D02*
X132294190Y-73366380D01*
X132198952Y-73509238D01*
X132103714Y-73604476D01*
X132008476Y-73652095D01*
X129008142Y-73413857D02*
X129055761Y-73461476D01*
X129103380Y-73604333D01*
X129103380Y-73699571D01*
X129055761Y-73842428D01*
X128960523Y-73937666D01*
X128865285Y-73985285D01*
X128674809Y-74032904D01*
X128531952Y-74032904D01*
X128341476Y-73985285D01*
X128246238Y-73937666D01*
X128151000Y-73842428D01*
X128103380Y-73699571D01*
X128103380Y-73604333D01*
X128151000Y-73461476D01*
X128198619Y-73413857D01*
X129103380Y-72461476D02*
X129103380Y-73032904D01*
X129103380Y-72747190D02*
X128103380Y-72747190D01*
X128246238Y-72842428D01*
X128341476Y-72937666D01*
X128389095Y-73032904D01*
X128103380Y-71604333D02*
X128103380Y-71794809D01*
X128151000Y-71890047D01*
X128198619Y-71937666D01*
X128341476Y-72032904D01*
X128531952Y-72080523D01*
X128912904Y-72080523D01*
X129008142Y-72032904D01*
X129055761Y-71985285D01*
X129103380Y-71890047D01*
X129103380Y-71699571D01*
X129055761Y-71604333D01*
X129008142Y-71556714D01*
X128912904Y-71509095D01*
X128674809Y-71509095D01*
X128579571Y-71556714D01*
X128531952Y-71604333D01*
X128484333Y-71699571D01*
X128484333Y-71890047D01*
X128531952Y-71985285D01*
X128579571Y-72032904D01*
X128674809Y-72080523D01*
X129008142Y-77477857D02*
X129055761Y-77525476D01*
X129103380Y-77668333D01*
X129103380Y-77763571D01*
X129055761Y-77906428D01*
X128960523Y-78001666D01*
X128865285Y-78049285D01*
X128674809Y-78096904D01*
X128531952Y-78096904D01*
X128341476Y-78049285D01*
X128246238Y-78001666D01*
X128151000Y-77906428D01*
X128103380Y-77763571D01*
X128103380Y-77668333D01*
X128151000Y-77525476D01*
X128198619Y-77477857D01*
X129103380Y-76525476D02*
X129103380Y-77096904D01*
X129103380Y-76811190D02*
X128103380Y-76811190D01*
X128246238Y-76906428D01*
X128341476Y-77001666D01*
X128389095Y-77096904D01*
X128103380Y-76192142D02*
X128103380Y-75525476D01*
X129103380Y-75954047D01*
X111688761Y-58709333D02*
X111736380Y-58566476D01*
X111736380Y-58328380D01*
X111688761Y-58233142D01*
X111641142Y-58185523D01*
X111545904Y-58137904D01*
X111450666Y-58137904D01*
X111355428Y-58185523D01*
X111307809Y-58233142D01*
X111260190Y-58328380D01*
X111212571Y-58518857D01*
X111164952Y-58614095D01*
X111117333Y-58661714D01*
X111022095Y-58709333D01*
X110926857Y-58709333D01*
X110831619Y-58661714D01*
X110784000Y-58614095D01*
X110736380Y-58518857D01*
X110736380Y-58280761D01*
X110784000Y-58137904D01*
X110736380Y-57804571D02*
X111736380Y-57566476D01*
X111022095Y-57376000D01*
X111736380Y-57185523D01*
X110736380Y-56947428D01*
X110736380Y-56661714D02*
X110736380Y-56042666D01*
X111117333Y-56376000D01*
X111117333Y-56233142D01*
X111164952Y-56137904D01*
X111212571Y-56090285D01*
X111307809Y-56042666D01*
X111545904Y-56042666D01*
X111641142Y-56090285D01*
X111688761Y-56137904D01*
X111736380Y-56233142D01*
X111736380Y-56518857D01*
X111688761Y-56614095D01*
X111641142Y-56661714D01*
X110156666Y-93940380D02*
X110156666Y-94654666D01*
X110109047Y-94797523D01*
X110013809Y-94892761D01*
X109870952Y-94940380D01*
X109775714Y-94940380D01*
X111109047Y-93940380D02*
X110632857Y-93940380D01*
X110585238Y-94416571D01*
X110632857Y-94368952D01*
X110728095Y-94321333D01*
X110966190Y-94321333D01*
X111061428Y-94368952D01*
X111109047Y-94416571D01*
X111156666Y-94511809D01*
X111156666Y-94749904D01*
X111109047Y-94845142D01*
X111061428Y-94892761D01*
X110966190Y-94940380D01*
X110728095Y-94940380D01*
X110632857Y-94892761D01*
X110585238Y-94845142D01*
X126920666Y-51268380D02*
X126920666Y-51982666D01*
X126873047Y-52125523D01*
X126777809Y-52220761D01*
X126634952Y-52268380D01*
X126539714Y-52268380D01*
X127825428Y-51601714D02*
X127825428Y-52268380D01*
X127587333Y-51220761D02*
X127349238Y-51935047D01*
X127968285Y-51935047D01*
X151741142Y-65063666D02*
X151788761Y-65111285D01*
X151836380Y-65254142D01*
X151836380Y-65349380D01*
X151788761Y-65492238D01*
X151693523Y-65587476D01*
X151598285Y-65635095D01*
X151407809Y-65682714D01*
X151264952Y-65682714D01*
X151074476Y-65635095D01*
X150979238Y-65587476D01*
X150884000Y-65492238D01*
X150836380Y-65349380D01*
X150836380Y-65254142D01*
X150884000Y-65111285D01*
X150931619Y-65063666D01*
X150836380Y-64730333D02*
X150836380Y-64111285D01*
X151217333Y-64444619D01*
X151217333Y-64301761D01*
X151264952Y-64206523D01*
X151312571Y-64158904D01*
X151407809Y-64111285D01*
X151645904Y-64111285D01*
X151741142Y-64158904D01*
X151788761Y-64206523D01*
X151836380Y-64301761D01*
X151836380Y-64587476D01*
X151788761Y-64682714D01*
X151741142Y-64730333D01*
X134707333Y-59639142D02*
X134659714Y-59686761D01*
X134516857Y-59734380D01*
X134421619Y-59734380D01*
X134278761Y-59686761D01*
X134183523Y-59591523D01*
X134135904Y-59496285D01*
X134088285Y-59305809D01*
X134088285Y-59162952D01*
X134135904Y-58972476D01*
X134183523Y-58877238D01*
X134278761Y-58782000D01*
X134421619Y-58734380D01*
X134516857Y-58734380D01*
X134659714Y-58782000D01*
X134707333Y-58829619D01*
X135612095Y-58734380D02*
X135135904Y-58734380D01*
X135088285Y-59210571D01*
X135135904Y-59162952D01*
X135231142Y-59115333D01*
X135469238Y-59115333D01*
X135564476Y-59162952D01*
X135612095Y-59210571D01*
X135659714Y-59305809D01*
X135659714Y-59543904D01*
X135612095Y-59639142D01*
X135564476Y-59686761D01*
X135469238Y-59734380D01*
X135231142Y-59734380D01*
X135135904Y-59686761D01*
X135088285Y-59639142D01*
X132715095Y-65044380D02*
X132715095Y-65853904D01*
X132762714Y-65949142D01*
X132810333Y-65996761D01*
X132905571Y-66044380D01*
X133096047Y-66044380D01*
X133191285Y-65996761D01*
X133238904Y-65949142D01*
X133286523Y-65853904D01*
X133286523Y-65044380D01*
X133667476Y-65044380D02*
X134286523Y-65044380D01*
X133953190Y-65425333D01*
X134096047Y-65425333D01*
X134191285Y-65472952D01*
X134238904Y-65520571D01*
X134286523Y-65615809D01*
X134286523Y-65853904D01*
X134238904Y-65949142D01*
X134191285Y-65996761D01*
X134096047Y-66044380D01*
X133810333Y-66044380D01*
X133715095Y-65996761D01*
X133667476Y-65949142D01*
X115768380Y-91066857D02*
X115292190Y-91400190D01*
X115768380Y-91638285D02*
X114768380Y-91638285D01*
X114768380Y-91257333D01*
X114816000Y-91162095D01*
X114863619Y-91114476D01*
X114958857Y-91066857D01*
X115101714Y-91066857D01*
X115196952Y-91114476D01*
X115244571Y-91162095D01*
X115292190Y-91257333D01*
X115292190Y-91638285D01*
X114863619Y-90685904D02*
X114816000Y-90638285D01*
X114768380Y-90543047D01*
X114768380Y-90304952D01*
X114816000Y-90209714D01*
X114863619Y-90162095D01*
X114958857Y-90114476D01*
X115054095Y-90114476D01*
X115196952Y-90162095D01*
X115768380Y-90733523D01*
X115768380Y-90114476D01*
X114768380Y-89257333D02*
X114768380Y-89447809D01*
X114816000Y-89543047D01*
X114863619Y-89590666D01*
X115006476Y-89685904D01*
X115196952Y-89733523D01*
X115577904Y-89733523D01*
X115673142Y-89685904D01*
X115720761Y-89638285D01*
X115768380Y-89543047D01*
X115768380Y-89352571D01*
X115720761Y-89257333D01*
X115673142Y-89209714D01*
X115577904Y-89162095D01*
X115339809Y-89162095D01*
X115244571Y-89209714D01*
X115196952Y-89257333D01*
X115149333Y-89352571D01*
X115149333Y-89543047D01*
X115196952Y-89638285D01*
X115244571Y-89685904D01*
X115339809Y-89733523D01*
X124325142Y-84431142D02*
X124277523Y-84478761D01*
X124134666Y-84526380D01*
X124039428Y-84526380D01*
X123896571Y-84478761D01*
X123801333Y-84383523D01*
X123753714Y-84288285D01*
X123706095Y-84097809D01*
X123706095Y-83954952D01*
X123753714Y-83764476D01*
X123801333Y-83669238D01*
X123896571Y-83574000D01*
X124039428Y-83526380D01*
X124134666Y-83526380D01*
X124277523Y-83574000D01*
X124325142Y-83621619D01*
X125277523Y-84526380D02*
X124706095Y-84526380D01*
X124991809Y-84526380D02*
X124991809Y-83526380D01*
X124896571Y-83669238D01*
X124801333Y-83764476D01*
X124706095Y-83812095D01*
X125610857Y-83526380D02*
X126229904Y-83526380D01*
X125896571Y-83907333D01*
X126039428Y-83907333D01*
X126134666Y-83954952D01*
X126182285Y-84002571D01*
X126229904Y-84097809D01*
X126229904Y-84335904D01*
X126182285Y-84431142D01*
X126134666Y-84478761D01*
X126039428Y-84526380D01*
X125753714Y-84526380D01*
X125658476Y-84478761D01*
X125610857Y-84431142D01*
X115768380Y-93702095D02*
X114768380Y-93702095D01*
X114768380Y-93464000D01*
X114816000Y-93321142D01*
X114911238Y-93225904D01*
X115006476Y-93178285D01*
X115196952Y-93130666D01*
X115339809Y-93130666D01*
X115530285Y-93178285D01*
X115625523Y-93225904D01*
X115720761Y-93321142D01*
X115768380Y-93464000D01*
X115768380Y-93702095D01*
X115768380Y-92178285D02*
X115768380Y-92749714D01*
X115768380Y-92464000D02*
X114768380Y-92464000D01*
X114911238Y-92559238D01*
X115006476Y-92654476D01*
X115054095Y-92749714D01*
X141930380Y-96242095D02*
X140930380Y-96242095D01*
X140930380Y-96004000D01*
X140978000Y-95861142D01*
X141073238Y-95765904D01*
X141168476Y-95718285D01*
X141358952Y-95670666D01*
X141501809Y-95670666D01*
X141692285Y-95718285D01*
X141787523Y-95765904D01*
X141882761Y-95861142D01*
X141930380Y-96004000D01*
X141930380Y-96242095D01*
X140930380Y-95337333D02*
X140930380Y-94718285D01*
X141311333Y-95051619D01*
X141311333Y-94908761D01*
X141358952Y-94813523D01*
X141406571Y-94765904D01*
X141501809Y-94718285D01*
X141739904Y-94718285D01*
X141835142Y-94765904D01*
X141882761Y-94813523D01*
X141930380Y-94908761D01*
X141930380Y-95194476D01*
X141882761Y-95289714D01*
X141835142Y-95337333D01*
X110156666Y-78954380D02*
X110156666Y-79668666D01*
X110109047Y-79811523D01*
X110013809Y-79906761D01*
X109870952Y-79954380D01*
X109775714Y-79954380D01*
X110537619Y-78954380D02*
X111156666Y-78954380D01*
X110823333Y-79335333D01*
X110966190Y-79335333D01*
X111061428Y-79382952D01*
X111109047Y-79430571D01*
X111156666Y-79525809D01*
X111156666Y-79763904D01*
X111109047Y-79859142D01*
X111061428Y-79906761D01*
X110966190Y-79954380D01*
X110680476Y-79954380D01*
X110585238Y-79906761D01*
X110537619Y-79859142D01*
X141225542Y-55706876D02*
X141273161Y-55754495D01*
X141320780Y-55897352D01*
X141320780Y-55992590D01*
X141273161Y-56135447D01*
X141177923Y-56230685D01*
X141082685Y-56278304D01*
X140892209Y-56325923D01*
X140749352Y-56325923D01*
X140558876Y-56278304D01*
X140463638Y-56230685D01*
X140368400Y-56135447D01*
X140320780Y-55992590D01*
X140320780Y-55897352D01*
X140368400Y-55754495D01*
X140416019Y-55706876D01*
X141320780Y-55278304D02*
X140320780Y-55278304D01*
X141320780Y-54706876D01*
X140320780Y-54706876D01*
X141320780Y-53706876D02*
X141320780Y-54278304D01*
X141320780Y-53992590D02*
X140320780Y-53992590D01*
X140463638Y-54087828D01*
X140558876Y-54183066D01*
X140606495Y-54278304D01*
X131786380Y-89915904D02*
X132595904Y-89915904D01*
X132691142Y-89868285D01*
X132738761Y-89820666D01*
X132786380Y-89725428D01*
X132786380Y-89534952D01*
X132738761Y-89439714D01*
X132691142Y-89392095D01*
X132595904Y-89344476D01*
X131786380Y-89344476D01*
X132786380Y-88820666D02*
X132786380Y-88630190D01*
X132738761Y-88534952D01*
X132691142Y-88487333D01*
X132548285Y-88392095D01*
X132357809Y-88344476D01*
X131976857Y-88344476D01*
X131881619Y-88392095D01*
X131834000Y-88439714D01*
X131786380Y-88534952D01*
X131786380Y-88725428D01*
X131834000Y-88820666D01*
X131881619Y-88868285D01*
X131976857Y-88915904D01*
X132214952Y-88915904D01*
X132310190Y-88868285D01*
X132357809Y-88820666D01*
X132405428Y-88725428D01*
X132405428Y-88534952D01*
X132357809Y-88439714D01*
X132310190Y-88392095D01*
X132214952Y-88344476D01*
X138096666Y-95972380D02*
X138096666Y-96686666D01*
X138049047Y-96829523D01*
X137953809Y-96924761D01*
X137810952Y-96972380D01*
X137715714Y-96972380D01*
X138525238Y-96067619D02*
X138572857Y-96020000D01*
X138668095Y-95972380D01*
X138906190Y-95972380D01*
X139001428Y-96020000D01*
X139049047Y-96067619D01*
X139096666Y-96162857D01*
X139096666Y-96258095D01*
X139049047Y-96400952D01*
X138477619Y-96972380D01*
X139096666Y-96972380D01*
X147732761Y-64357619D02*
X147637523Y-64310000D01*
X147542285Y-64214761D01*
X147399428Y-64071904D01*
X147304190Y-64024285D01*
X147208952Y-64024285D01*
X147256571Y-64262380D02*
X147161333Y-64214761D01*
X147066095Y-64119523D01*
X147018476Y-63929047D01*
X147018476Y-63595714D01*
X147066095Y-63405238D01*
X147161333Y-63310000D01*
X147256571Y-63262380D01*
X147447047Y-63262380D01*
X147542285Y-63310000D01*
X147637523Y-63405238D01*
X147685142Y-63595714D01*
X147685142Y-63929047D01*
X147637523Y-64119523D01*
X147542285Y-64214761D01*
X147447047Y-64262380D01*
X147256571Y-64262380D01*
X148637523Y-64262380D02*
X148066095Y-64262380D01*
X148351809Y-64262380D02*
X148351809Y-63262380D01*
X148256571Y-63405238D01*
X148161333Y-63500476D01*
X148066095Y-63548095D01*
X139223761Y-89955619D02*
X139128523Y-89908000D01*
X139033285Y-89812761D01*
X138890428Y-89669904D01*
X138795190Y-89622285D01*
X138699952Y-89622285D01*
X138747571Y-89860380D02*
X138652333Y-89812761D01*
X138557095Y-89717523D01*
X138509476Y-89527047D01*
X138509476Y-89193714D01*
X138557095Y-89003238D01*
X138652333Y-88908000D01*
X138747571Y-88860380D01*
X138938047Y-88860380D01*
X139033285Y-88908000D01*
X139128523Y-89003238D01*
X139176142Y-89193714D01*
X139176142Y-89527047D01*
X139128523Y-89717523D01*
X139033285Y-89812761D01*
X138938047Y-89860380D01*
X138747571Y-89860380D01*
X139747571Y-89288952D02*
X139652333Y-89241333D01*
X139604714Y-89193714D01*
X139557095Y-89098476D01*
X139557095Y-89050857D01*
X139604714Y-88955619D01*
X139652333Y-88908000D01*
X139747571Y-88860380D01*
X139938047Y-88860380D01*
X140033285Y-88908000D01*
X140080904Y-88955619D01*
X140128523Y-89050857D01*
X140128523Y-89098476D01*
X140080904Y-89193714D01*
X140033285Y-89241333D01*
X139938047Y-89288952D01*
X139747571Y-89288952D01*
X139652333Y-89336571D01*
X139604714Y-89384190D01*
X139557095Y-89479428D01*
X139557095Y-89669904D01*
X139604714Y-89765142D01*
X139652333Y-89812761D01*
X139747571Y-89860380D01*
X139938047Y-89860380D01*
X140033285Y-89812761D01*
X140080904Y-89765142D01*
X140128523Y-89669904D01*
X140128523Y-89479428D01*
X140080904Y-89384190D01*
X140033285Y-89336571D01*
X139938047Y-89288952D01*
X147986761Y-80557619D02*
X147891523Y-80510000D01*
X147796285Y-80414761D01*
X147653428Y-80271904D01*
X147558190Y-80224285D01*
X147462952Y-80224285D01*
X147510571Y-80462380D02*
X147415333Y-80414761D01*
X147320095Y-80319523D01*
X147272476Y-80129047D01*
X147272476Y-79795714D01*
X147320095Y-79605238D01*
X147415333Y-79510000D01*
X147510571Y-79462380D01*
X147701047Y-79462380D01*
X147796285Y-79510000D01*
X147891523Y-79605238D01*
X147939142Y-79795714D01*
X147939142Y-80129047D01*
X147891523Y-80319523D01*
X147796285Y-80414761D01*
X147701047Y-80462380D01*
X147510571Y-80462380D01*
X148843904Y-79462380D02*
X148367714Y-79462380D01*
X148320095Y-79938571D01*
X148367714Y-79890952D01*
X148462952Y-79843333D01*
X148701047Y-79843333D01*
X148796285Y-79890952D01*
X148843904Y-79938571D01*
X148891523Y-80033809D01*
X148891523Y-80271904D01*
X148843904Y-80367142D01*
X148796285Y-80414761D01*
X148701047Y-80462380D01*
X148462952Y-80462380D01*
X148367714Y-80414761D01*
X148320095Y-80367142D01*
X146335761Y-89955619D02*
X146240523Y-89908000D01*
X146145285Y-89812761D01*
X146002428Y-89669904D01*
X145907190Y-89622285D01*
X145811952Y-89622285D01*
X145859571Y-89860380D02*
X145764333Y-89812761D01*
X145669095Y-89717523D01*
X145621476Y-89527047D01*
X145621476Y-89193714D01*
X145669095Y-89003238D01*
X145764333Y-88908000D01*
X145859571Y-88860380D01*
X146050047Y-88860380D01*
X146145285Y-88908000D01*
X146240523Y-89003238D01*
X146288142Y-89193714D01*
X146288142Y-89527047D01*
X146240523Y-89717523D01*
X146145285Y-89812761D01*
X146050047Y-89860380D01*
X145859571Y-89860380D01*
X147145285Y-88860380D02*
X146954809Y-88860380D01*
X146859571Y-88908000D01*
X146811952Y-88955619D01*
X146716714Y-89098476D01*
X146669095Y-89288952D01*
X146669095Y-89669904D01*
X146716714Y-89765142D01*
X146764333Y-89812761D01*
X146859571Y-89860380D01*
X147050047Y-89860380D01*
X147145285Y-89812761D01*
X147192904Y-89765142D01*
X147240523Y-89669904D01*
X147240523Y-89431809D01*
X147192904Y-89336571D01*
X147145285Y-89288952D01*
X147050047Y-89241333D01*
X146859571Y-89241333D01*
X146764333Y-89288952D01*
X146716714Y-89336571D01*
X146669095Y-89431809D01*
X139096761Y-73572619D02*
X139001523Y-73525000D01*
X138906285Y-73429761D01*
X138763428Y-73286904D01*
X138668190Y-73239285D01*
X138572952Y-73239285D01*
X138620571Y-73477380D02*
X138525333Y-73429761D01*
X138430095Y-73334523D01*
X138382476Y-73144047D01*
X138382476Y-72810714D01*
X138430095Y-72620238D01*
X138525333Y-72525000D01*
X138620571Y-72477380D01*
X138811047Y-72477380D01*
X138906285Y-72525000D01*
X139001523Y-72620238D01*
X139049142Y-72810714D01*
X139049142Y-73144047D01*
X139001523Y-73334523D01*
X138906285Y-73429761D01*
X138811047Y-73477380D01*
X138620571Y-73477380D01*
X139906285Y-72810714D02*
X139906285Y-73477380D01*
X139668190Y-72429761D02*
X139430095Y-73144047D01*
X140049142Y-73144047D01*
X140493761Y-64357619D02*
X140398523Y-64310000D01*
X140303285Y-64214761D01*
X140160428Y-64071904D01*
X140065190Y-64024285D01*
X139969952Y-64024285D01*
X140017571Y-64262380D02*
X139922333Y-64214761D01*
X139827095Y-64119523D01*
X139779476Y-63929047D01*
X139779476Y-63595714D01*
X139827095Y-63405238D01*
X139922333Y-63310000D01*
X140017571Y-63262380D01*
X140208047Y-63262380D01*
X140303285Y-63310000D01*
X140398523Y-63405238D01*
X140446142Y-63595714D01*
X140446142Y-63929047D01*
X140398523Y-64119523D01*
X140303285Y-64214761D01*
X140208047Y-64262380D01*
X140017571Y-64262380D01*
X140779476Y-63262380D02*
X141398523Y-63262380D01*
X141065190Y-63643333D01*
X141208047Y-63643333D01*
X141303285Y-63690952D01*
X141350904Y-63738571D01*
X141398523Y-63833809D01*
X141398523Y-64071904D01*
X141350904Y-64167142D01*
X141303285Y-64214761D01*
X141208047Y-64262380D01*
X140922333Y-64262380D01*
X140827095Y-64214761D01*
X140779476Y-64167142D01*
X146081761Y-73572619D02*
X145986523Y-73525000D01*
X145891285Y-73429761D01*
X145748428Y-73286904D01*
X145653190Y-73239285D01*
X145557952Y-73239285D01*
X145605571Y-73477380D02*
X145510333Y-73429761D01*
X145415095Y-73334523D01*
X145367476Y-73144047D01*
X145367476Y-72810714D01*
X145415095Y-72620238D01*
X145510333Y-72525000D01*
X145605571Y-72477380D01*
X145796047Y-72477380D01*
X145891285Y-72525000D01*
X145986523Y-72620238D01*
X146034142Y-72810714D01*
X146034142Y-73144047D01*
X145986523Y-73334523D01*
X145891285Y-73429761D01*
X145796047Y-73477380D01*
X145605571Y-73477380D01*
X146415095Y-72572619D02*
X146462714Y-72525000D01*
X146557952Y-72477380D01*
X146796047Y-72477380D01*
X146891285Y-72525000D01*
X146938904Y-72572619D01*
X146986523Y-72667857D01*
X146986523Y-72763095D01*
X146938904Y-72905952D01*
X146367476Y-73477380D01*
X146986523Y-73477380D01*
X141001761Y-80557619D02*
X140906523Y-80510000D01*
X140811285Y-80414761D01*
X140668428Y-80271904D01*
X140573190Y-80224285D01*
X140477952Y-80224285D01*
X140525571Y-80462380D02*
X140430333Y-80414761D01*
X140335095Y-80319523D01*
X140287476Y-80129047D01*
X140287476Y-79795714D01*
X140335095Y-79605238D01*
X140430333Y-79510000D01*
X140525571Y-79462380D01*
X140716047Y-79462380D01*
X140811285Y-79510000D01*
X140906523Y-79605238D01*
X140954142Y-79795714D01*
X140954142Y-80129047D01*
X140906523Y-80319523D01*
X140811285Y-80414761D01*
X140716047Y-80462380D01*
X140525571Y-80462380D01*
X141287476Y-79462380D02*
X141954142Y-79462380D01*
X141525571Y-80462380D01*
X135279000Y-77827000D02*
X131929000Y-77827000D01*
X135279000Y-81177000D02*
X135279000Y-80952000D01*
X131929000Y-77827000D02*
X131929000Y-78127000D01*
X131929000Y-81177000D02*
X131929000Y-80877000D01*
X135279000Y-81177000D02*
X131929000Y-81177000D01*
X135279000Y-80952000D02*
X136504000Y-80952000D01*
X135279000Y-77827000D02*
X135279000Y-78127000D01*
D10*
X146832064Y-93785000D02*
X142727936Y-93785000D01*
X146832064Y-90365000D02*
X142727936Y-90365000D01*
X125531000Y-81667000D02*
X125531000Y-82667000D01*
X117931000Y-81667000D02*
X117931000Y-82667000D01*
X117931000Y-76067000D02*
X117931000Y-75067000D01*
X125531000Y-82667000D02*
X124481000Y-82667000D01*
X117931000Y-82667000D02*
X118881000Y-82667000D01*
X125531000Y-75067000D02*
X125531000Y-76067000D01*
X117931000Y-75067000D02*
X118881000Y-75067000D01*
X124481000Y-75067000D02*
X125531000Y-75067000D01*
X117681000Y-74617000D02*
G75*
G03*
X117681000Y-74617000I-250000J0D01*
G01*
X157480000Y-79675000D02*
X157480000Y-77775000D01*
X157480000Y-68275000D02*
X157480000Y-66375000D01*
X154940000Y-79675000D02*
X157480000Y-79675000D01*
X165100000Y-68275000D02*
X157480000Y-68275000D01*
X157480000Y-66375000D02*
X154940000Y-66375000D01*
X157480000Y-77775000D02*
X165100000Y-77775000D01*
X165100000Y-77775000D02*
X165100000Y-68275000D01*
X154940000Y-66375000D02*
X154940000Y-79675000D01*
X116105000Y-99950000D02*
X117575000Y-99950000D01*
X116105000Y-97490000D02*
X116105000Y-99950000D01*
X117575000Y-99950000D02*
X117575000Y-97490000D01*
X116820000Y-52040000D02*
X116820000Y-51540000D01*
X123980000Y-55650000D02*
X123980000Y-50930000D01*
X116920000Y-51540000D02*
X116920000Y-52040000D01*
X113860000Y-54340000D02*
X114470000Y-54340000D01*
X119020000Y-52040000D02*
X118820000Y-52040000D01*
X122220000Y-55650000D02*
X122220000Y-55850000D01*
X113860000Y-55650000D02*
X123980000Y-55650000D01*
X113860000Y-50930000D02*
X113860000Y-55650000D01*
X120820000Y-52040000D02*
X120820000Y-51540000D01*
X123980000Y-53040000D02*
X123370000Y-53040000D01*
X123980000Y-54340000D02*
X123370000Y-54340000D01*
X117020000Y-51540000D02*
X117020000Y-52040000D01*
X122220000Y-55750000D02*
X122520000Y-55750000D01*
X121020000Y-51540000D02*
X121020000Y-52040000D01*
X123370000Y-55040000D02*
X123370000Y-51540000D01*
X123370000Y-51540000D02*
X114470000Y-51540000D01*
X113860000Y-53040000D02*
X114470000Y-53040000D01*
X120920000Y-51540000D02*
X120920000Y-52040000D01*
X118820000Y-52040000D02*
X118820000Y-51540000D01*
X118920000Y-51540000D02*
X118920000Y-52040000D01*
X124280000Y-55950000D02*
X124280000Y-54700000D01*
X114470000Y-55040000D02*
X116420000Y-55040000D01*
X122220000Y-55850000D02*
X122520000Y-55850000D01*
X122520000Y-55850000D02*
X122520000Y-55650000D01*
X123980000Y-50930000D02*
X113860000Y-50930000D01*
X121420000Y-55040000D02*
X123370000Y-55040000D01*
X116420000Y-55040000D02*
X116420000Y-55650000D01*
X114470000Y-51540000D02*
X114470000Y-55040000D01*
X123030000Y-55950000D02*
X124280000Y-55950000D01*
X119020000Y-51540000D02*
X119020000Y-52040000D01*
X121020000Y-52040000D02*
X120820000Y-52040000D01*
X121420000Y-55650000D02*
X121420000Y-55040000D01*
X117020000Y-52040000D02*
X116820000Y-52040000D01*
X117950000Y-99530000D02*
X118070000Y-99530000D01*
X118070000Y-95130000D02*
X117950000Y-95130000D01*
X119080000Y-99530000D02*
X120220000Y-99530000D01*
X121230000Y-99530000D02*
X121350000Y-99530000D01*
X121350000Y-99530000D02*
X121350000Y-95130000D01*
X120220000Y-95130000D02*
X119080000Y-95130000D01*
X117950000Y-95130000D02*
X117950000Y-99530000D01*
X121350000Y-95130000D02*
X121230000Y-95130000D01*
X121760000Y-95130000D02*
X121760000Y-99530000D01*
X125160000Y-99530000D02*
X125160000Y-95130000D01*
X124030000Y-95130000D02*
X122890000Y-95130000D01*
X121760000Y-99530000D02*
X121880000Y-99530000D01*
X125040000Y-99530000D02*
X125160000Y-99530000D01*
X122890000Y-99530000D02*
X124030000Y-99530000D01*
X121880000Y-95130000D02*
X121760000Y-95130000D01*
X125160000Y-95130000D02*
X125040000Y-95130000D01*
X125554000Y-95130000D02*
X125554000Y-99530000D01*
X125554000Y-99530000D02*
X125674000Y-99530000D01*
X128954000Y-99530000D02*
X128954000Y-95130000D01*
X128954000Y-95130000D02*
X128834000Y-95130000D01*
X127824000Y-95130000D02*
X126684000Y-95130000D01*
X128834000Y-99530000D02*
X128954000Y-99530000D01*
X126684000Y-99530000D02*
X127824000Y-99530000D01*
X125674000Y-95130000D02*
X125554000Y-95130000D01*
X157480000Y-84785000D02*
X157480000Y-82885000D01*
X157480000Y-82885000D02*
X154940000Y-82885000D01*
X157480000Y-96185000D02*
X157480000Y-94285000D01*
X154940000Y-82885000D02*
X154940000Y-96185000D01*
X157480000Y-94285000D02*
X165100000Y-94285000D01*
X165100000Y-94285000D02*
X165100000Y-84785000D01*
X165100000Y-84785000D02*
X157480000Y-84785000D01*
X154940000Y-96185000D02*
X157480000Y-96185000D01*
X118800000Y-87808000D02*
X123800000Y-87808000D01*
X123800000Y-91008000D02*
X118800000Y-91008000D01*
X109668000Y-64008000D02*
X109668000Y-69148000D01*
X112328000Y-61408000D02*
X112328000Y-62738000D01*
X110998000Y-61408000D02*
X112328000Y-61408000D01*
X112328000Y-64008000D02*
X112328000Y-69148000D01*
X109668000Y-64008000D02*
X112328000Y-64008000D01*
X109668000Y-69148000D02*
X112328000Y-69148000D01*
X146832064Y-73855000D02*
X142727936Y-73855000D01*
X146832064Y-77275000D02*
X142727936Y-77275000D01*
X118982000Y-64250000D02*
X115532000Y-64250000D01*
X118982000Y-69370000D02*
X117032000Y-69370000D01*
X118982000Y-69370000D02*
X120932000Y-69370000D01*
X118982000Y-64250000D02*
X120932000Y-64250000D01*
X111822000Y-55204000D02*
X110682000Y-55204000D01*
X110682000Y-59604000D02*
X111822000Y-59604000D01*
X112952000Y-55204000D02*
X112832000Y-55204000D01*
X109672000Y-55204000D02*
X109552000Y-55204000D01*
X112832000Y-59604000D02*
X112952000Y-59604000D01*
X112952000Y-59604000D02*
X112952000Y-55204000D01*
X109552000Y-59604000D02*
X109672000Y-59604000D01*
X109552000Y-55204000D02*
X109552000Y-59604000D01*
X113420000Y-94780000D02*
X113420000Y-92830000D01*
X110420000Y-86230000D02*
X110420000Y-86430000D01*
X109920000Y-94780000D02*
X113420000Y-94780000D01*
X109920000Y-81880000D02*
X109920000Y-94780000D01*
X110420000Y-86430000D02*
X109920000Y-86430000D01*
X109920000Y-90230000D02*
X110420000Y-90230000D01*
X109920000Y-86230000D02*
X110420000Y-86230000D01*
X109920000Y-92330000D02*
X110420000Y-92330000D01*
X110420000Y-90430000D02*
X109920000Y-90430000D01*
X114230000Y-82730000D02*
X114030000Y-82730000D01*
X112720000Y-81270000D02*
X112720000Y-81880000D01*
X111420000Y-81270000D02*
X111420000Y-81880000D01*
X114130000Y-83030000D02*
X114130000Y-82730000D01*
X109920000Y-88330000D02*
X110420000Y-88330000D01*
X109310000Y-81270000D02*
X109310000Y-95390000D01*
X114230000Y-83030000D02*
X114230000Y-82730000D01*
X113420000Y-81880000D02*
X109920000Y-81880000D01*
X110420000Y-84430000D02*
X109920000Y-84430000D01*
X110420000Y-88230000D02*
X110420000Y-88430000D01*
X110420000Y-84230000D02*
X110420000Y-84430000D01*
X110420000Y-88430000D02*
X109920000Y-88430000D01*
X110420000Y-92430000D02*
X109920000Y-92430000D01*
X110420000Y-90230000D02*
X110420000Y-90430000D01*
X114030000Y-83830000D02*
X113420000Y-83830000D01*
X109920000Y-84330000D02*
X110420000Y-84330000D01*
X113420000Y-83830000D02*
X113420000Y-81880000D01*
X114030000Y-81270000D02*
X109310000Y-81270000D01*
X114330000Y-82220000D02*
X114330000Y-80970000D01*
X109920000Y-92230000D02*
X110420000Y-92230000D01*
X112720000Y-95390000D02*
X112720000Y-94780000D01*
X114030000Y-83030000D02*
X114230000Y-83030000D01*
X109920000Y-86330000D02*
X110420000Y-86330000D01*
X114030000Y-95390000D02*
X114030000Y-81270000D01*
X113420000Y-92830000D02*
X114030000Y-92830000D01*
X109310000Y-95390000D02*
X114030000Y-95390000D01*
X114330000Y-80970000D02*
X113080000Y-80970000D01*
X109920000Y-88230000D02*
X110420000Y-88230000D01*
X111420000Y-95390000D02*
X111420000Y-94780000D01*
X109920000Y-84230000D02*
X110420000Y-84230000D01*
X110420000Y-92230000D02*
X110420000Y-92430000D01*
X109920000Y-90330000D02*
X110420000Y-90330000D01*
X128320000Y-52030000D02*
X128120000Y-52030000D01*
X136720000Y-55030000D02*
X138670000Y-55030000D01*
X125160000Y-55640000D02*
X139280000Y-55640000D01*
X125160000Y-50920000D02*
X125160000Y-55640000D01*
X127720000Y-55030000D02*
X127720000Y-55640000D01*
X128320000Y-51530000D02*
X128320000Y-52030000D01*
X132320000Y-51530000D02*
X132320000Y-52030000D01*
X134320000Y-51530000D02*
X134320000Y-52030000D01*
X136320000Y-52030000D02*
X136120000Y-52030000D01*
X134220000Y-51530000D02*
X134220000Y-52030000D01*
X132320000Y-52030000D02*
X132120000Y-52030000D01*
X139280000Y-55640000D02*
X139280000Y-50920000D01*
X137520000Y-55640000D02*
X137520000Y-55840000D01*
X130120000Y-52030000D02*
X130120000Y-51530000D01*
X130320000Y-51530000D02*
X130320000Y-52030000D01*
X138330000Y-55940000D02*
X139580000Y-55940000D01*
X125160000Y-53030000D02*
X125770000Y-53030000D01*
X136320000Y-51530000D02*
X136320000Y-52030000D01*
X132220000Y-51530000D02*
X132220000Y-52030000D01*
X130320000Y-52030000D02*
X130120000Y-52030000D01*
X125160000Y-54330000D02*
X125770000Y-54330000D01*
X136220000Y-51530000D02*
X136220000Y-52030000D01*
X132120000Y-52030000D02*
X132120000Y-51530000D01*
X125770000Y-55030000D02*
X127720000Y-55030000D01*
X130220000Y-51530000D02*
X130220000Y-52030000D01*
X128220000Y-51530000D02*
X128220000Y-52030000D01*
X128120000Y-52030000D02*
X128120000Y-51530000D01*
X138670000Y-55030000D02*
X138670000Y-51530000D01*
X137820000Y-55840000D02*
X137820000Y-55640000D01*
X134120000Y-52030000D02*
X134120000Y-51530000D01*
X139280000Y-53030000D02*
X138670000Y-53030000D01*
X134320000Y-52030000D02*
X134120000Y-52030000D01*
X139280000Y-50920000D02*
X125160000Y-50920000D01*
X136120000Y-52030000D02*
X136120000Y-51530000D01*
X139280000Y-54330000D02*
X138670000Y-54330000D01*
X136720000Y-55640000D02*
X136720000Y-55030000D01*
X138670000Y-51530000D02*
X125770000Y-51530000D01*
X125770000Y-51530000D02*
X125770000Y-55030000D01*
X137520000Y-55840000D02*
X137820000Y-55840000D01*
X137520000Y-55740000D02*
X137820000Y-55740000D01*
X139580000Y-55940000D02*
X139580000Y-54690000D01*
X153524437Y-55570000D02*
X162980000Y-55570000D01*
X152460000Y-56634437D02*
X153524437Y-55570000D01*
X152460000Y-56634437D02*
X152460000Y-59320000D01*
X152460000Y-65025563D02*
X153524437Y-66090000D01*
X153524437Y-66090000D02*
X162980000Y-66090000D01*
X162980000Y-66090000D02*
X162980000Y-62340000D01*
X162980000Y-55570000D02*
X162980000Y-59320000D01*
X151595000Y-57445000D02*
X151595000Y-58695000D01*
X150970000Y-58070000D02*
X152220000Y-58070000D01*
X152460000Y-65025563D02*
X152460000Y-62340000D01*
D11*
X135152000Y-64667000D02*
X131802000Y-64667000D01*
X135152000Y-64442000D02*
X136377000Y-64442000D01*
X135152000Y-61317000D02*
X135152000Y-61617000D01*
X135152000Y-64667000D02*
X135152000Y-64442000D01*
X131802000Y-61317000D02*
X131802000Y-61617000D01*
X131802000Y-64667000D02*
X131802000Y-64367000D01*
X135152000Y-61317000D02*
X131802000Y-61317000D01*
D10*
X114073000Y-99958000D02*
X115543000Y-99958000D01*
X115543000Y-99958000D02*
X115543000Y-97498000D01*
X114073000Y-97498000D02*
X114073000Y-99958000D01*
X140743000Y-99958000D02*
X142213000Y-99958000D01*
X140743000Y-97498000D02*
X140743000Y-99958000D01*
X142213000Y-99958000D02*
X142213000Y-97498000D01*
X114040000Y-72740000D02*
X113430000Y-72740000D01*
X110430000Y-75140000D02*
X110430000Y-75340000D01*
X114340000Y-71130000D02*
X114340000Y-69880000D01*
X109930000Y-79690000D02*
X113430000Y-79690000D01*
X112730000Y-70180000D02*
X112730000Y-70790000D01*
X112730000Y-80300000D02*
X112730000Y-79690000D01*
X109930000Y-75240000D02*
X110430000Y-75240000D01*
X114240000Y-71640000D02*
X114040000Y-71640000D01*
X114340000Y-69880000D02*
X113090000Y-69880000D01*
X113430000Y-70790000D02*
X109930000Y-70790000D01*
X114240000Y-71940000D02*
X114240000Y-71640000D01*
X109930000Y-70790000D02*
X109930000Y-79690000D01*
X110430000Y-77140000D02*
X110430000Y-77340000D01*
X110430000Y-75340000D02*
X109930000Y-75340000D01*
X113430000Y-79690000D02*
X113430000Y-77740000D01*
X111430000Y-80300000D02*
X111430000Y-79690000D01*
X109930000Y-73140000D02*
X110430000Y-73140000D01*
X111430000Y-70180000D02*
X111430000Y-70790000D01*
X109930000Y-75140000D02*
X110430000Y-75140000D01*
X110430000Y-77340000D02*
X109930000Y-77340000D01*
X109320000Y-80300000D02*
X114040000Y-80300000D01*
X109320000Y-70180000D02*
X109320000Y-80300000D01*
X113430000Y-72740000D02*
X113430000Y-70790000D01*
X113430000Y-77740000D02*
X114040000Y-77740000D01*
X109930000Y-77240000D02*
X110430000Y-77240000D01*
X114140000Y-71940000D02*
X114140000Y-71640000D01*
X110430000Y-73340000D02*
X109930000Y-73340000D01*
X110430000Y-73140000D02*
X110430000Y-73340000D01*
X109930000Y-77140000D02*
X110430000Y-77140000D01*
X114040000Y-70180000D02*
X109320000Y-70180000D01*
X114040000Y-80300000D02*
X114040000Y-70180000D01*
X109930000Y-73240000D02*
X110430000Y-73240000D01*
X114040000Y-71940000D02*
X114240000Y-71940000D01*
X141770000Y-57830000D02*
X151670000Y-57830000D01*
X151670000Y-48830000D02*
X151670000Y-50830000D01*
X141770000Y-48830000D02*
X151670000Y-48830000D01*
X151670000Y-50830000D02*
X153370000Y-50830000D01*
X153370000Y-52830000D02*
X151670000Y-52830000D01*
X141770000Y-50830000D02*
X141770000Y-48830000D01*
X151670000Y-52830000D02*
X151670000Y-57830000D01*
X153370000Y-50830000D02*
X153370000Y-52830000D01*
X141770000Y-50830000D02*
X140070000Y-50830000D01*
X140070000Y-52830000D02*
X141770000Y-52830000D01*
X141770000Y-57830000D02*
X141770000Y-52830000D01*
X140070000Y-52830000D02*
X140070000Y-50830000D01*
X131338000Y-87122000D02*
X131338000Y-83672000D01*
X126218000Y-87122000D02*
X126218000Y-89072000D01*
X126218000Y-87122000D02*
X126218000Y-85172000D01*
X131338000Y-87122000D02*
X131338000Y-89072000D01*
X132990000Y-96498000D02*
X132790000Y-96498000D01*
X134990000Y-96498000D02*
X134790000Y-96498000D01*
X138490000Y-100308000D02*
X138490000Y-100108000D01*
X139950000Y-95388000D02*
X129830000Y-95388000D01*
X137390000Y-99498000D02*
X139340000Y-99498000D01*
X129830000Y-95388000D02*
X129830000Y-100108000D01*
X129830000Y-100108000D02*
X139950000Y-100108000D01*
X129830000Y-97498000D02*
X130440000Y-97498000D01*
X138190000Y-100108000D02*
X138190000Y-100308000D01*
X132790000Y-96498000D02*
X132790000Y-95998000D01*
X136790000Y-96498000D02*
X136790000Y-95998000D01*
X130440000Y-95998000D02*
X130440000Y-99498000D01*
X138190000Y-100208000D02*
X138490000Y-100208000D01*
X138190000Y-100308000D02*
X138490000Y-100308000D01*
X139950000Y-98798000D02*
X139340000Y-98798000D01*
X139340000Y-99498000D02*
X139340000Y-95998000D01*
X134990000Y-95998000D02*
X134990000Y-96498000D01*
X137390000Y-100108000D02*
X137390000Y-99498000D01*
X136890000Y-95998000D02*
X136890000Y-96498000D01*
X130440000Y-99498000D02*
X132390000Y-99498000D01*
X140250000Y-100408000D02*
X140250000Y-99158000D01*
X139950000Y-100108000D02*
X139950000Y-95388000D01*
X139340000Y-95998000D02*
X130440000Y-95998000D01*
X136990000Y-95998000D02*
X136990000Y-96498000D01*
X132990000Y-95998000D02*
X132990000Y-96498000D01*
X139950000Y-97498000D02*
X139340000Y-97498000D01*
X139000000Y-100408000D02*
X140250000Y-100408000D01*
X132890000Y-95998000D02*
X132890000Y-96498000D01*
X129830000Y-98798000D02*
X130440000Y-98798000D01*
X132390000Y-99498000D02*
X132390000Y-100108000D01*
X134890000Y-95998000D02*
X134890000Y-96498000D01*
X136990000Y-96498000D02*
X136790000Y-96498000D01*
X134790000Y-96498000D02*
X134790000Y-95998000D01*
X146178000Y-68135000D02*
X146178000Y-65060000D01*
X149478000Y-68135000D02*
X149478000Y-65060000D01*
X149478000Y-68135000D02*
X149128000Y-68135000D01*
X146178000Y-68135000D02*
X146528000Y-68135000D01*
X137605000Y-85345000D02*
X140680000Y-85345000D01*
X137605000Y-88645000D02*
X140680000Y-88645000D01*
X137605000Y-88645000D02*
X137605000Y-88295000D01*
X137605000Y-85345000D02*
X137605000Y-85695000D01*
X146178000Y-84391000D02*
X146528000Y-84391000D01*
X146178000Y-84391000D02*
X146178000Y-81316000D01*
X149478000Y-84391000D02*
X149478000Y-81316000D01*
X149478000Y-84391000D02*
X149128000Y-84391000D01*
X144717000Y-85345000D02*
X144717000Y-85695000D01*
X144717000Y-88645000D02*
X144717000Y-88295000D01*
X144717000Y-85345000D02*
X147792000Y-85345000D01*
X144717000Y-88645000D02*
X147792000Y-88645000D01*
X137605000Y-72262000D02*
X137605000Y-71912000D01*
X137605000Y-68962000D02*
X140680000Y-68962000D01*
X137605000Y-72262000D02*
X140680000Y-72262000D01*
X137605000Y-68962000D02*
X137605000Y-69312000D01*
X142239000Y-68135000D02*
X141889000Y-68135000D01*
X138939000Y-68135000D02*
X138939000Y-65060000D01*
X138939000Y-68135000D02*
X139289000Y-68135000D01*
X142239000Y-68135000D02*
X142239000Y-65060000D01*
X144717000Y-68962000D02*
X147792000Y-68962000D01*
X144717000Y-72262000D02*
X147792000Y-72262000D01*
X144717000Y-68962000D02*
X144717000Y-69312000D01*
X144717000Y-72262000D02*
X144717000Y-71912000D01*
X142239000Y-84391000D02*
X142239000Y-81316000D01*
X138939000Y-84391000D02*
X139289000Y-84391000D01*
X138939000Y-84391000D02*
X138939000Y-81316000D01*
X142239000Y-84391000D02*
X141889000Y-84391000D01*
M02*
