G04 #@! TF.GenerationSoftware,KiCad,Pcbnew,(6.0.6)*
G04 #@! TF.CreationDate,2022-09-05T23:03:06+09:00*
G04 #@! TF.ProjectId,RP_MD,52505f4d-442e-46b6-9963-61645f706362,rev?*
G04 #@! TF.SameCoordinates,Original*
G04 #@! TF.FileFunction,Soldermask,Top*
G04 #@! TF.FilePolarity,Negative*
%FSLAX46Y46*%
G04 Gerber Fmt 4.6, Leading zero omitted, Abs format (unit mm)*
G04 Created by KiCad (PCBNEW (6.0.6)) date 2022-09-05 23:03:06*
%MOMM*%
%LPD*%
G01*
G04 APERTURE LIST*
G04 Aperture macros list*
%AMRoundRect*
0 Rectangle with rounded corners*
0 $1 Rounding radius*
0 $2 $3 $4 $5 $6 $7 $8 $9 X,Y pos of 4 corners*
0 Add a 4 corners polygon primitive as box body*
4,1,4,$2,$3,$4,$5,$6,$7,$8,$9,$2,$3,0*
0 Add four circle primitives for the rounded corners*
1,1,$1+$1,$2,$3*
1,1,$1+$1,$4,$5*
1,1,$1+$1,$6,$7*
1,1,$1+$1,$8,$9*
0 Add four rect primitives between the rounded corners*
20,1,$1+$1,$2,$3,$4,$5,0*
20,1,$1+$1,$4,$5,$6,$7,0*
20,1,$1+$1,$6,$7,$8,$9,0*
20,1,$1+$1,$8,$9,$2,$3,0*%
G04 Aperture macros list end*
%ADD10RoundRect,0.198500X-0.172500X0.147500X-0.172500X-0.147500X0.172500X-0.147500X0.172500X0.147500X0*%
%ADD11RoundRect,0.198500X-0.147500X-0.172500X0.147500X-0.172500X0.147500X0.172500X-0.147500X0.172500X0*%
%ADD12RoundRect,0.198500X0.172500X-0.147500X0.172500X0.147500X-0.172500X0.147500X-0.172500X-0.147500X0*%
%ADD13RoundRect,0.198500X0.147500X0.172500X-0.147500X0.172500X-0.147500X-0.172500X0.147500X-0.172500X0*%
%ADD14RoundRect,0.051000X0.700000X0.150000X-0.700000X0.150000X-0.700000X-0.150000X0.700000X-0.150000X0*%
%ADD15RoundRect,0.301000X0.425000X1.425000X-0.425000X1.425000X-0.425000X-1.425000X0.425000X-1.425000X0*%
%ADD16RoundRect,0.051000X-0.437500X-0.100000X0.437500X-0.100000X0.437500X0.100000X-0.437500X0.100000X0*%
%ADD17RoundRect,0.051000X0.100000X-0.437500X0.100000X0.437500X-0.100000X0.437500X-0.100000X-0.437500X0*%
%ADD18RoundRect,0.051000X0.437500X0.100000X-0.437500X0.100000X-0.437500X-0.100000X0.437500X-0.100000X0*%
%ADD19RoundRect,0.051000X-1.600000X-1.600000X1.600000X-1.600000X1.600000X1.600000X-1.600000X1.600000X0*%
%ADD20C,1.602000*%
%ADD21C,2.902000*%
%ADD22RoundRect,0.288500X0.237500X-0.287500X0.237500X0.287500X-0.237500X0.287500X-0.237500X-0.287500X0*%
%ADD23RoundRect,0.301000X0.350000X0.625000X-0.350000X0.625000X-0.350000X-0.625000X0.350000X-0.625000X0*%
%ADD24O,1.302000X1.852000*%
%ADD25RoundRect,0.051000X-0.325000X0.525000X-0.325000X-0.525000X0.325000X-0.525000X0.325000X0.525000X0*%
%ADD26RoundRect,0.051000X0.325000X-0.525000X0.325000X0.525000X-0.325000X0.525000X-0.325000X-0.525000X0*%
%ADD27RoundRect,0.051000X-0.900000X-1.200000X0.900000X-1.200000X0.900000X1.200000X-0.900000X1.200000X0*%
%ADD28RoundRect,0.051000X-0.850000X-0.850000X0.850000X-0.850000X0.850000X0.850000X-0.850000X0.850000X0*%
%ADD29O,1.802000X1.802000*%
%ADD30RoundRect,0.201000X-0.825000X-0.150000X0.825000X-0.150000X0.825000X0.150000X-0.825000X0.150000X0*%
%ADD31RoundRect,0.301000X-0.625000X0.350000X-0.625000X-0.350000X0.625000X-0.350000X0.625000X0.350000X0*%
%ADD32O,1.852000X1.302000*%
%ADD33RoundRect,0.301000X-1.750000X-1.000000X1.750000X-1.000000X1.750000X1.000000X-1.750000X1.000000X0*%
%ADD34C,2.102000*%
%ADD35RoundRect,0.201000X-0.150000X0.675000X-0.150000X-0.675000X0.150000X-0.675000X0.150000X0.675000X0*%
%ADD36RoundRect,0.051000X-0.200000X-0.350000X0.200000X-0.350000X0.200000X0.350000X-0.200000X0.350000X0*%
%ADD37RoundRect,0.051000X-0.200000X-0.300000X0.200000X-0.300000X0.200000X0.300000X-0.200000X0.300000X0*%
%ADD38RoundRect,0.051000X-1.325000X-1.050000X1.325000X-1.050000X1.325000X1.050000X-1.325000X1.050000X0*%
%ADD39RoundRect,0.051000X-0.350000X0.200000X-0.350000X-0.200000X0.350000X-0.200000X0.350000X0.200000X0*%
%ADD40RoundRect,0.051000X-0.300000X0.200000X-0.300000X-0.200000X0.300000X-0.200000X0.300000X0.200000X0*%
%ADD41RoundRect,0.051000X-1.050000X1.325000X-1.050000X-1.325000X1.050000X-1.325000X1.050000X1.325000X0*%
G04 APERTURE END LIST*
D10*
X117094000Y-73937000D03*
X117094000Y-74907000D03*
D11*
X114973000Y-80264000D03*
X115943000Y-80264000D03*
D12*
X121808000Y-71859000D03*
X121808000Y-70889000D03*
X123808000Y-65771000D03*
X123808000Y-64801000D03*
X120792000Y-71859000D03*
X120792000Y-70889000D03*
X124824000Y-65771000D03*
X124824000Y-64801000D03*
D10*
X122936000Y-85367000D03*
X122936000Y-86337000D03*
X125110000Y-70889000D03*
X125110000Y-71859000D03*
X126126000Y-70889000D03*
X126126000Y-71859000D03*
X117490000Y-87145000D03*
X117490000Y-88115000D03*
X125110000Y-87145000D03*
X125110000Y-88115000D03*
X137287000Y-62507000D03*
X137287000Y-63477000D03*
X137668000Y-79017000D03*
X137668000Y-79987000D03*
D11*
X133579000Y-77010000D03*
X134549000Y-77010000D03*
D10*
X127396000Y-72921000D03*
X127396000Y-73891000D03*
D12*
X138176000Y-66017000D03*
X138176000Y-65047000D03*
D13*
X136629000Y-68199000D03*
X135659000Y-68199000D03*
D12*
X129794000Y-61699000D03*
X129794000Y-60729000D03*
D13*
X115911000Y-63254000D03*
X114941000Y-63254000D03*
D11*
X117227000Y-63254000D03*
X118197000Y-63254000D03*
D12*
X121808000Y-87099000D03*
X121808000Y-86129000D03*
X138176000Y-82527000D03*
X138176000Y-81557000D03*
D13*
X136629000Y-84455000D03*
X135659000Y-84455000D03*
D11*
X131341000Y-76962000D03*
X132311000Y-76962000D03*
D14*
X135804000Y-80502000D03*
X135804000Y-80002000D03*
X135804000Y-79502000D03*
X135804000Y-79002000D03*
X135804000Y-78502000D03*
X131404000Y-78502000D03*
X131404000Y-79002000D03*
X131404000Y-79502000D03*
X131404000Y-80002000D03*
X131404000Y-80502000D03*
D15*
X147680000Y-92075000D03*
X141880000Y-92075000D03*
D16*
X118293500Y-76267000D03*
X118293500Y-76667000D03*
X118293500Y-77067000D03*
X118293500Y-77467000D03*
X118293500Y-77867000D03*
X118293500Y-78267000D03*
X118293500Y-78667000D03*
X118293500Y-79067000D03*
X118293500Y-79467000D03*
X118293500Y-79867000D03*
X118293500Y-80267000D03*
X118293500Y-80667000D03*
X118293500Y-81067000D03*
X118293500Y-81467000D03*
D17*
X119081000Y-82304500D03*
X119481000Y-82304500D03*
X119881000Y-82304500D03*
X120281000Y-82304500D03*
X120681000Y-82304500D03*
X121081000Y-82304500D03*
X121481000Y-82304500D03*
X121881000Y-82304500D03*
X122281000Y-82304500D03*
X122681000Y-82304500D03*
X123081000Y-82304500D03*
X123481000Y-82304500D03*
X123881000Y-82304500D03*
X124281000Y-82304500D03*
D18*
X125168500Y-81467000D03*
X125168500Y-81067000D03*
X125168500Y-80667000D03*
X125168500Y-80267000D03*
X125168500Y-79867000D03*
X125168500Y-79467000D03*
X125168500Y-79067000D03*
X125168500Y-78667000D03*
X125168500Y-78267000D03*
X125168500Y-77867000D03*
X125168500Y-77467000D03*
X125168500Y-77067000D03*
X125168500Y-76667000D03*
X125168500Y-76267000D03*
D17*
X124281000Y-75429500D03*
X123881000Y-75429500D03*
X123481000Y-75429500D03*
X123081000Y-75429500D03*
X122681000Y-75429500D03*
X122281000Y-75429500D03*
X121881000Y-75429500D03*
X121481000Y-75429500D03*
X121081000Y-75429500D03*
X120681000Y-75429500D03*
X120281000Y-75429500D03*
X119881000Y-75429500D03*
X119481000Y-75429500D03*
X119081000Y-75429500D03*
D19*
X121681000Y-78867000D03*
D10*
X123078000Y-70889000D03*
X123078000Y-71859000D03*
D12*
X124094000Y-71859000D03*
X124094000Y-70889000D03*
D20*
X156210000Y-67525000D03*
X156210000Y-78525000D03*
D21*
X151210000Y-70525000D03*
X151210000Y-75525000D03*
D22*
X116840000Y-99165000D03*
X116840000Y-97415000D03*
D23*
X121920000Y-53840000D03*
D24*
X119920000Y-53840000D03*
X117920000Y-53840000D03*
X115920000Y-53840000D03*
D12*
X116840000Y-95481000D03*
X116840000Y-94511000D03*
D25*
X120725000Y-99405000D03*
X120725000Y-95255000D03*
X118575000Y-95255000D03*
X118575000Y-99405000D03*
X124535000Y-99405000D03*
X124535000Y-95255000D03*
X122385000Y-95255000D03*
X122385000Y-99405000D03*
D26*
X126179000Y-99405000D03*
X126179000Y-95255000D03*
X128329000Y-95255000D03*
X128329000Y-99405000D03*
D20*
X156210000Y-95035000D03*
X156210000Y-84035000D03*
D21*
X151210000Y-87035000D03*
X151210000Y-92035000D03*
D27*
X119200000Y-89408000D03*
X123400000Y-89408000D03*
D28*
X110998000Y-62738000D03*
D29*
X110998000Y-65278000D03*
X110998000Y-67818000D03*
D15*
X147680000Y-75565000D03*
X141880000Y-75565000D03*
D30*
X116507000Y-64905000D03*
X116507000Y-66175000D03*
X116507000Y-67445000D03*
X116507000Y-68715000D03*
X121457000Y-68715000D03*
X121457000Y-67445000D03*
X121457000Y-66175000D03*
X121457000Y-64905000D03*
D11*
X133246000Y-73978000D03*
X134216000Y-73978000D03*
X132357000Y-74930000D03*
X133327000Y-74930000D03*
D10*
X126380000Y-73175000D03*
X126380000Y-74145000D03*
X128524000Y-78763000D03*
X128524000Y-79733000D03*
D26*
X110177000Y-59479000D03*
X110177000Y-55329000D03*
X112327000Y-59479000D03*
X112327000Y-55329000D03*
D31*
X112220000Y-83330000D03*
D32*
X112220000Y-85330000D03*
X112220000Y-87330000D03*
X112220000Y-89330000D03*
X112220000Y-91330000D03*
X112220000Y-93330000D03*
D23*
X137220000Y-53830000D03*
D24*
X135220000Y-53830000D03*
X133220000Y-53830000D03*
X131220000Y-53830000D03*
X129220000Y-53830000D03*
X127220000Y-53830000D03*
D33*
X153720000Y-60830000D03*
X161720000Y-60830000D03*
D11*
X134389000Y-60452000D03*
X135359000Y-60452000D03*
D14*
X135677000Y-63992000D03*
X135677000Y-63492000D03*
X135677000Y-62992000D03*
X135677000Y-62492000D03*
X135677000Y-61992000D03*
X131277000Y-61992000D03*
X131277000Y-62492000D03*
X131277000Y-62992000D03*
X131277000Y-63492000D03*
X131277000Y-63992000D03*
D12*
X115316000Y-95481000D03*
X115316000Y-94511000D03*
D10*
X123952000Y-85367000D03*
X123952000Y-86337000D03*
D22*
X114808000Y-99173000D03*
X114808000Y-97423000D03*
X141478000Y-99173000D03*
X141478000Y-97423000D03*
D31*
X112230000Y-72240000D03*
D32*
X112230000Y-74240000D03*
X112230000Y-76240000D03*
X112230000Y-78240000D03*
D34*
X152220000Y-51830000D03*
X141220000Y-51830000D03*
D21*
X144220000Y-61830000D03*
X149220000Y-61830000D03*
D35*
X130683000Y-84497000D03*
X129413000Y-84497000D03*
X128143000Y-84497000D03*
X126873000Y-84497000D03*
X126873000Y-89747000D03*
X128143000Y-89747000D03*
X129413000Y-89747000D03*
X130683000Y-89747000D03*
D23*
X137890000Y-98298000D03*
D24*
X135890000Y-98298000D03*
X133890000Y-98298000D03*
X131890000Y-98298000D03*
D36*
X146853000Y-68260000D03*
X148153000Y-68260000D03*
X147503000Y-68260000D03*
X148803000Y-68260000D03*
D37*
X148803000Y-64810000D03*
D38*
X147828000Y-66160000D03*
D37*
X148153000Y-64810000D03*
X147503000Y-64810000D03*
X146853000Y-64810000D03*
D39*
X137480000Y-86670000D03*
X137480000Y-86020000D03*
X137480000Y-87320000D03*
X137480000Y-87970000D03*
D40*
X140930000Y-86670000D03*
X140930000Y-87320000D03*
X140930000Y-86020000D03*
X140930000Y-87970000D03*
D41*
X139580000Y-86995000D03*
D36*
X146853000Y-84516000D03*
X147503000Y-84516000D03*
X148153000Y-84516000D03*
X148803000Y-84516000D03*
D38*
X147828000Y-82416000D03*
D37*
X148153000Y-81066000D03*
X147503000Y-81066000D03*
X146853000Y-81066000D03*
X148803000Y-81066000D03*
D39*
X144592000Y-86020000D03*
X144592000Y-86670000D03*
X144592000Y-87320000D03*
X144592000Y-87970000D03*
D41*
X146692000Y-86995000D03*
D40*
X148042000Y-86670000D03*
X148042000Y-87970000D03*
X148042000Y-87320000D03*
X148042000Y-86020000D03*
D39*
X137480000Y-69637000D03*
X137480000Y-70937000D03*
X137480000Y-70287000D03*
X137480000Y-71587000D03*
D40*
X140930000Y-70937000D03*
X140930000Y-70287000D03*
D41*
X139580000Y-70612000D03*
D40*
X140930000Y-71587000D03*
X140930000Y-69637000D03*
D36*
X139614000Y-68260000D03*
X140264000Y-68260000D03*
X140914000Y-68260000D03*
X141564000Y-68260000D03*
D37*
X140914000Y-64810000D03*
X140264000Y-64810000D03*
X141564000Y-64810000D03*
D38*
X140589000Y-66160000D03*
D37*
X139614000Y-64810000D03*
D39*
X144592000Y-69637000D03*
X144592000Y-70937000D03*
X144592000Y-70287000D03*
X144592000Y-71587000D03*
D41*
X146692000Y-70612000D03*
D40*
X148042000Y-69637000D03*
X148042000Y-70287000D03*
X148042000Y-71587000D03*
X148042000Y-70937000D03*
D36*
X139614000Y-84516000D03*
X140264000Y-84516000D03*
X140914000Y-84516000D03*
X141564000Y-84516000D03*
D38*
X140589000Y-82416000D03*
D37*
X140914000Y-81066000D03*
X139614000Y-81066000D03*
X140264000Y-81066000D03*
X141564000Y-81066000D03*
G36*
X141262840Y-87559418D02*
G01*
X141262507Y-87560660D01*
X141253291Y-87574452D01*
X141255031Y-87575615D01*
X141255916Y-87577409D01*
X141255455Y-87578560D01*
X141240922Y-87595952D01*
X141232296Y-87664670D01*
X141255082Y-87712288D01*
X141254928Y-87714282D01*
X141254389Y-87714814D01*
X141253291Y-87715548D01*
X141262507Y-87729340D01*
X141262638Y-87731336D01*
X141260975Y-87732447D01*
X141259733Y-87732114D01*
X141248738Y-87724767D01*
X141229801Y-87721000D01*
X140681000Y-87721000D01*
X140679268Y-87720000D01*
X140679000Y-87719000D01*
X140679000Y-87571000D01*
X140680000Y-87569268D01*
X140681000Y-87569000D01*
X141229801Y-87569000D01*
X141248738Y-87565233D01*
X141259733Y-87557886D01*
X141261729Y-87557755D01*
X141262840Y-87559418D01*
G37*
G36*
X137100267Y-87557886D02*
G01*
X137111262Y-87565233D01*
X137130199Y-87569000D01*
X137829801Y-87569000D01*
X137848738Y-87565233D01*
X137859733Y-87557886D01*
X137861729Y-87557755D01*
X137862840Y-87559418D01*
X137862507Y-87560660D01*
X137853291Y-87574452D01*
X137855031Y-87575615D01*
X137855916Y-87577409D01*
X137855455Y-87578560D01*
X137840922Y-87595952D01*
X137832296Y-87664670D01*
X137855082Y-87712288D01*
X137854928Y-87714282D01*
X137854389Y-87714814D01*
X137853291Y-87715548D01*
X137862507Y-87729340D01*
X137862638Y-87731336D01*
X137860975Y-87732447D01*
X137859733Y-87732114D01*
X137848738Y-87724767D01*
X137829801Y-87721000D01*
X137130199Y-87721000D01*
X137111262Y-87724767D01*
X137100267Y-87732114D01*
X137098271Y-87732245D01*
X137097160Y-87730582D01*
X137097493Y-87729340D01*
X137106709Y-87715548D01*
X137104969Y-87714385D01*
X137104084Y-87712591D01*
X137104545Y-87711440D01*
X137119078Y-87694048D01*
X137127704Y-87625330D01*
X137104918Y-87577712D01*
X137105072Y-87575718D01*
X137105611Y-87575186D01*
X137106709Y-87574452D01*
X137097493Y-87560660D01*
X137097362Y-87558664D01*
X137099025Y-87557553D01*
X137100267Y-87557886D01*
G37*
G36*
X148374840Y-87559418D02*
G01*
X148374507Y-87560660D01*
X148365291Y-87574452D01*
X148367031Y-87575615D01*
X148367916Y-87577409D01*
X148367455Y-87578560D01*
X148352922Y-87595952D01*
X148344296Y-87664670D01*
X148367082Y-87712288D01*
X148366928Y-87714282D01*
X148366389Y-87714814D01*
X148365291Y-87715548D01*
X148374507Y-87729340D01*
X148374638Y-87731336D01*
X148372975Y-87732447D01*
X148371733Y-87732114D01*
X148360738Y-87724767D01*
X148341801Y-87721000D01*
X147793000Y-87721000D01*
X147791268Y-87720000D01*
X147791000Y-87719000D01*
X147791000Y-87571000D01*
X147792000Y-87569268D01*
X147793000Y-87569000D01*
X148341801Y-87569000D01*
X148360738Y-87565233D01*
X148371733Y-87557886D01*
X148373729Y-87557755D01*
X148374840Y-87559418D01*
G37*
G36*
X144212267Y-87557886D02*
G01*
X144223262Y-87565233D01*
X144242199Y-87569000D01*
X144941801Y-87569000D01*
X144960738Y-87565233D01*
X144971733Y-87557886D01*
X144973729Y-87557755D01*
X144974840Y-87559418D01*
X144974507Y-87560660D01*
X144965291Y-87574452D01*
X144967031Y-87575615D01*
X144967916Y-87577409D01*
X144967455Y-87578560D01*
X144952922Y-87595952D01*
X144944296Y-87664670D01*
X144967082Y-87712288D01*
X144966928Y-87714282D01*
X144966389Y-87714814D01*
X144965291Y-87715548D01*
X144974507Y-87729340D01*
X144974638Y-87731336D01*
X144972975Y-87732447D01*
X144971733Y-87732114D01*
X144960738Y-87724767D01*
X144941801Y-87721000D01*
X144242199Y-87721000D01*
X144223262Y-87724767D01*
X144212267Y-87732114D01*
X144210271Y-87732245D01*
X144209160Y-87730582D01*
X144209493Y-87729340D01*
X144218709Y-87715548D01*
X144216969Y-87714385D01*
X144216084Y-87712591D01*
X144216545Y-87711440D01*
X144231078Y-87694048D01*
X144239704Y-87625330D01*
X144216918Y-87577712D01*
X144217072Y-87575718D01*
X144217611Y-87575186D01*
X144218709Y-87574452D01*
X144209493Y-87560660D01*
X144209362Y-87558664D01*
X144211025Y-87557553D01*
X144212267Y-87557886D01*
G37*
G36*
X144212267Y-86907886D02*
G01*
X144223262Y-86915233D01*
X144242199Y-86919000D01*
X144941801Y-86919000D01*
X144960738Y-86915233D01*
X144971733Y-86907886D01*
X144973729Y-86907755D01*
X144974840Y-86909418D01*
X144974507Y-86910660D01*
X144965291Y-86924452D01*
X144967031Y-86925615D01*
X144967916Y-86927409D01*
X144967455Y-86928560D01*
X144952922Y-86945952D01*
X144944296Y-87014670D01*
X144967082Y-87062288D01*
X144966928Y-87064282D01*
X144966389Y-87064814D01*
X144965291Y-87065548D01*
X144974507Y-87079340D01*
X144974638Y-87081336D01*
X144972975Y-87082447D01*
X144971733Y-87082114D01*
X144960738Y-87074767D01*
X144941801Y-87071000D01*
X144242199Y-87071000D01*
X144223262Y-87074767D01*
X144212267Y-87082114D01*
X144210271Y-87082245D01*
X144209160Y-87080582D01*
X144209493Y-87079340D01*
X144218709Y-87065548D01*
X144216969Y-87064385D01*
X144216084Y-87062591D01*
X144216545Y-87061440D01*
X144231078Y-87044048D01*
X144239704Y-86975330D01*
X144216918Y-86927712D01*
X144217072Y-86925718D01*
X144217611Y-86925186D01*
X144218709Y-86924452D01*
X144209493Y-86910660D01*
X144209362Y-86908664D01*
X144211025Y-86907553D01*
X144212267Y-86907886D01*
G37*
G36*
X137100267Y-86907886D02*
G01*
X137111262Y-86915233D01*
X137130199Y-86919000D01*
X137829801Y-86919000D01*
X137848738Y-86915233D01*
X137859733Y-86907886D01*
X137861729Y-86907755D01*
X137862840Y-86909418D01*
X137862507Y-86910660D01*
X137853291Y-86924452D01*
X137855031Y-86925615D01*
X137855916Y-86927409D01*
X137855455Y-86928560D01*
X137840922Y-86945952D01*
X137832296Y-87014670D01*
X137855082Y-87062288D01*
X137854928Y-87064282D01*
X137854389Y-87064814D01*
X137853291Y-87065548D01*
X137862507Y-87079340D01*
X137862638Y-87081336D01*
X137860975Y-87082447D01*
X137859733Y-87082114D01*
X137848738Y-87074767D01*
X137829801Y-87071000D01*
X137130199Y-87071000D01*
X137111262Y-87074767D01*
X137100267Y-87082114D01*
X137098271Y-87082245D01*
X137097160Y-87080582D01*
X137097493Y-87079340D01*
X137106709Y-87065548D01*
X137104969Y-87064385D01*
X137104084Y-87062591D01*
X137104545Y-87061440D01*
X137119078Y-87044048D01*
X137127704Y-86975330D01*
X137104918Y-86927712D01*
X137105072Y-86925718D01*
X137105611Y-86925186D01*
X137106709Y-86924452D01*
X137097493Y-86910660D01*
X137097362Y-86908664D01*
X137099025Y-86907553D01*
X137100267Y-86907886D01*
G37*
G36*
X141262840Y-86909418D02*
G01*
X141262507Y-86910660D01*
X141253291Y-86924452D01*
X141255031Y-86925615D01*
X141255916Y-86927409D01*
X141255455Y-86928560D01*
X141240922Y-86945952D01*
X141232296Y-87014670D01*
X141255082Y-87062288D01*
X141254928Y-87064282D01*
X141254389Y-87064814D01*
X141253291Y-87065548D01*
X141262507Y-87079340D01*
X141262638Y-87081336D01*
X141260975Y-87082447D01*
X141259733Y-87082114D01*
X141248738Y-87074767D01*
X141229801Y-87071000D01*
X140681000Y-87071000D01*
X140679268Y-87070000D01*
X140679000Y-87069000D01*
X140679000Y-86921000D01*
X140680000Y-86919268D01*
X140681000Y-86919000D01*
X141229801Y-86919000D01*
X141248738Y-86915233D01*
X141259733Y-86907886D01*
X141261729Y-86907755D01*
X141262840Y-86909418D01*
G37*
G36*
X148374840Y-86909418D02*
G01*
X148374507Y-86910660D01*
X148365291Y-86924452D01*
X148367031Y-86925615D01*
X148367916Y-86927409D01*
X148367455Y-86928560D01*
X148352922Y-86945952D01*
X148344296Y-87014670D01*
X148367082Y-87062288D01*
X148366928Y-87064282D01*
X148366389Y-87064814D01*
X148365291Y-87065548D01*
X148374507Y-87079340D01*
X148374638Y-87081336D01*
X148372975Y-87082447D01*
X148371733Y-87082114D01*
X148360738Y-87074767D01*
X148341801Y-87071000D01*
X147793000Y-87071000D01*
X147791268Y-87070000D01*
X147791000Y-87069000D01*
X147791000Y-86921000D01*
X147792000Y-86919268D01*
X147793000Y-86919000D01*
X148341801Y-86919000D01*
X148360738Y-86915233D01*
X148371733Y-86907886D01*
X148373729Y-86907755D01*
X148374840Y-86909418D01*
G37*
G36*
X144212267Y-86257886D02*
G01*
X144223262Y-86265233D01*
X144242199Y-86269000D01*
X144941801Y-86269000D01*
X144960738Y-86265233D01*
X144971733Y-86257886D01*
X144973729Y-86257755D01*
X144974840Y-86259418D01*
X144974507Y-86260660D01*
X144965291Y-86274452D01*
X144967031Y-86275615D01*
X144967916Y-86277409D01*
X144967455Y-86278560D01*
X144952922Y-86295952D01*
X144944296Y-86364670D01*
X144967082Y-86412288D01*
X144966928Y-86414282D01*
X144966389Y-86414814D01*
X144965291Y-86415548D01*
X144974507Y-86429340D01*
X144974638Y-86431336D01*
X144972975Y-86432447D01*
X144971733Y-86432114D01*
X144960738Y-86424767D01*
X144941801Y-86421000D01*
X144242199Y-86421000D01*
X144223262Y-86424767D01*
X144212267Y-86432114D01*
X144210271Y-86432245D01*
X144209160Y-86430582D01*
X144209493Y-86429340D01*
X144218709Y-86415548D01*
X144216969Y-86414385D01*
X144216084Y-86412591D01*
X144216545Y-86411440D01*
X144231078Y-86394048D01*
X144239704Y-86325330D01*
X144216918Y-86277712D01*
X144217072Y-86275718D01*
X144217611Y-86275186D01*
X144218709Y-86274452D01*
X144209493Y-86260660D01*
X144209362Y-86258664D01*
X144211025Y-86257553D01*
X144212267Y-86257886D01*
G37*
G36*
X137100267Y-86257886D02*
G01*
X137111262Y-86265233D01*
X137130199Y-86269000D01*
X137829801Y-86269000D01*
X137848738Y-86265233D01*
X137859733Y-86257886D01*
X137861729Y-86257755D01*
X137862840Y-86259418D01*
X137862507Y-86260660D01*
X137853291Y-86274452D01*
X137855031Y-86275615D01*
X137855916Y-86277409D01*
X137855455Y-86278560D01*
X137840922Y-86295952D01*
X137832296Y-86364670D01*
X137855082Y-86412288D01*
X137854928Y-86414282D01*
X137854389Y-86414814D01*
X137853291Y-86415548D01*
X137862507Y-86429340D01*
X137862638Y-86431336D01*
X137860975Y-86432447D01*
X137859733Y-86432114D01*
X137848738Y-86424767D01*
X137829801Y-86421000D01*
X137130199Y-86421000D01*
X137111262Y-86424767D01*
X137100267Y-86432114D01*
X137098271Y-86432245D01*
X137097160Y-86430582D01*
X137097493Y-86429340D01*
X137106709Y-86415548D01*
X137104969Y-86414385D01*
X137104084Y-86412591D01*
X137104545Y-86411440D01*
X137119078Y-86394048D01*
X137127704Y-86325330D01*
X137104918Y-86277712D01*
X137105072Y-86275718D01*
X137105611Y-86275186D01*
X137106709Y-86274452D01*
X137097493Y-86260660D01*
X137097362Y-86258664D01*
X137099025Y-86257553D01*
X137100267Y-86257886D01*
G37*
G36*
X141262840Y-86259418D02*
G01*
X141262507Y-86260660D01*
X141253291Y-86274452D01*
X141255031Y-86275615D01*
X141255916Y-86277409D01*
X141255455Y-86278560D01*
X141240922Y-86295952D01*
X141232296Y-86364670D01*
X141255082Y-86412288D01*
X141254928Y-86414282D01*
X141254389Y-86414814D01*
X141253291Y-86415548D01*
X141262507Y-86429340D01*
X141262638Y-86431336D01*
X141260975Y-86432447D01*
X141259733Y-86432114D01*
X141248738Y-86424767D01*
X141229801Y-86421000D01*
X140681000Y-86421000D01*
X140679268Y-86420000D01*
X140679000Y-86419000D01*
X140679000Y-86271000D01*
X140680000Y-86269268D01*
X140681000Y-86269000D01*
X141229801Y-86269000D01*
X141248738Y-86265233D01*
X141259733Y-86257886D01*
X141261729Y-86257755D01*
X141262840Y-86259418D01*
G37*
G36*
X148374840Y-86259418D02*
G01*
X148374507Y-86260660D01*
X148365291Y-86274452D01*
X148367031Y-86275615D01*
X148367916Y-86277409D01*
X148367455Y-86278560D01*
X148352922Y-86295952D01*
X148344296Y-86364670D01*
X148367082Y-86412288D01*
X148366928Y-86414282D01*
X148366389Y-86414814D01*
X148365291Y-86415548D01*
X148374507Y-86429340D01*
X148374638Y-86431336D01*
X148372975Y-86432447D01*
X148371733Y-86432114D01*
X148360738Y-86424767D01*
X148341801Y-86421000D01*
X147793000Y-86421000D01*
X147791268Y-86420000D01*
X147791000Y-86419000D01*
X147791000Y-86271000D01*
X147792000Y-86269268D01*
X147793000Y-86269000D01*
X148341801Y-86269000D01*
X148360738Y-86265233D01*
X148371733Y-86257886D01*
X148373729Y-86257755D01*
X148374840Y-86259418D01*
G37*
G36*
X147093660Y-84133493D02*
G01*
X147107452Y-84142709D01*
X147108615Y-84140969D01*
X147110409Y-84140084D01*
X147111560Y-84140545D01*
X147128952Y-84155078D01*
X147197670Y-84163704D01*
X147245288Y-84140918D01*
X147247282Y-84141072D01*
X147247814Y-84141611D01*
X147248548Y-84142709D01*
X147262340Y-84133493D01*
X147264336Y-84133362D01*
X147265447Y-84135025D01*
X147265114Y-84136267D01*
X147257767Y-84147262D01*
X147254000Y-84166199D01*
X147254000Y-84865801D01*
X147257767Y-84884738D01*
X147265114Y-84895733D01*
X147265245Y-84897729D01*
X147263582Y-84898840D01*
X147262340Y-84898507D01*
X147248548Y-84889291D01*
X147247385Y-84891031D01*
X147245591Y-84891916D01*
X147244440Y-84891455D01*
X147227048Y-84876922D01*
X147158330Y-84868296D01*
X147110712Y-84891082D01*
X147108718Y-84890928D01*
X147108186Y-84890389D01*
X147107452Y-84889291D01*
X147093660Y-84898507D01*
X147091664Y-84898638D01*
X147090553Y-84896975D01*
X147090886Y-84895733D01*
X147098233Y-84884738D01*
X147102000Y-84865801D01*
X147102000Y-84166199D01*
X147098233Y-84147262D01*
X147090886Y-84136267D01*
X147090755Y-84134271D01*
X147092418Y-84133160D01*
X147093660Y-84133493D01*
G37*
G36*
X140504660Y-84133493D02*
G01*
X140518452Y-84142709D01*
X140519615Y-84140969D01*
X140521409Y-84140084D01*
X140522560Y-84140545D01*
X140539952Y-84155078D01*
X140608670Y-84163704D01*
X140656288Y-84140918D01*
X140658282Y-84141072D01*
X140658814Y-84141611D01*
X140659548Y-84142709D01*
X140673340Y-84133493D01*
X140675336Y-84133362D01*
X140676447Y-84135025D01*
X140676114Y-84136267D01*
X140668767Y-84147262D01*
X140665000Y-84166199D01*
X140665000Y-84865801D01*
X140668767Y-84884738D01*
X140676114Y-84895733D01*
X140676245Y-84897729D01*
X140674582Y-84898840D01*
X140673340Y-84898507D01*
X140659548Y-84889291D01*
X140658385Y-84891031D01*
X140656591Y-84891916D01*
X140655440Y-84891455D01*
X140638048Y-84876922D01*
X140569330Y-84868296D01*
X140521712Y-84891082D01*
X140519718Y-84890928D01*
X140519186Y-84890389D01*
X140518452Y-84889291D01*
X140504660Y-84898507D01*
X140502664Y-84898638D01*
X140501553Y-84896975D01*
X140501886Y-84895733D01*
X140509233Y-84884738D01*
X140513000Y-84865801D01*
X140513000Y-84166199D01*
X140509233Y-84147262D01*
X140501886Y-84136267D01*
X140501755Y-84134271D01*
X140503418Y-84133160D01*
X140504660Y-84133493D01*
G37*
G36*
X141154660Y-84133493D02*
G01*
X141168452Y-84142709D01*
X141169615Y-84140969D01*
X141171409Y-84140084D01*
X141172560Y-84140545D01*
X141189952Y-84155078D01*
X141258670Y-84163704D01*
X141306288Y-84140918D01*
X141308282Y-84141072D01*
X141308814Y-84141611D01*
X141309548Y-84142709D01*
X141323340Y-84133493D01*
X141325336Y-84133362D01*
X141326447Y-84135025D01*
X141326114Y-84136267D01*
X141318767Y-84147262D01*
X141315000Y-84166199D01*
X141315000Y-84865801D01*
X141318767Y-84884738D01*
X141326114Y-84895733D01*
X141326245Y-84897729D01*
X141324582Y-84898840D01*
X141323340Y-84898507D01*
X141309548Y-84889291D01*
X141308385Y-84891031D01*
X141306591Y-84891916D01*
X141305440Y-84891455D01*
X141288048Y-84876922D01*
X141219330Y-84868296D01*
X141171712Y-84891082D01*
X141169718Y-84890928D01*
X141169186Y-84890389D01*
X141168452Y-84889291D01*
X141154660Y-84898507D01*
X141152664Y-84898638D01*
X141151553Y-84896975D01*
X141151886Y-84895733D01*
X141159233Y-84884738D01*
X141163000Y-84865801D01*
X141163000Y-84166199D01*
X141159233Y-84147262D01*
X141151886Y-84136267D01*
X141151755Y-84134271D01*
X141153418Y-84133160D01*
X141154660Y-84133493D01*
G37*
G36*
X147743660Y-84133493D02*
G01*
X147757452Y-84142709D01*
X147758615Y-84140969D01*
X147760409Y-84140084D01*
X147761560Y-84140545D01*
X147778952Y-84155078D01*
X147847670Y-84163704D01*
X147895288Y-84140918D01*
X147897282Y-84141072D01*
X147897814Y-84141611D01*
X147898548Y-84142709D01*
X147912340Y-84133493D01*
X147914336Y-84133362D01*
X147915447Y-84135025D01*
X147915114Y-84136267D01*
X147907767Y-84147262D01*
X147904000Y-84166199D01*
X147904000Y-84865801D01*
X147907767Y-84884738D01*
X147915114Y-84895733D01*
X147915245Y-84897729D01*
X147913582Y-84898840D01*
X147912340Y-84898507D01*
X147898548Y-84889291D01*
X147897385Y-84891031D01*
X147895591Y-84891916D01*
X147894440Y-84891455D01*
X147877048Y-84876922D01*
X147808330Y-84868296D01*
X147760712Y-84891082D01*
X147758718Y-84890928D01*
X147758186Y-84890389D01*
X147757452Y-84889291D01*
X147743660Y-84898507D01*
X147741664Y-84898638D01*
X147740553Y-84896975D01*
X147740886Y-84895733D01*
X147748233Y-84884738D01*
X147752000Y-84865801D01*
X147752000Y-84166199D01*
X147748233Y-84147262D01*
X147740886Y-84136267D01*
X147740755Y-84134271D01*
X147742418Y-84133160D01*
X147743660Y-84133493D01*
G37*
G36*
X148393660Y-84133493D02*
G01*
X148407452Y-84142709D01*
X148408615Y-84140969D01*
X148410409Y-84140084D01*
X148411560Y-84140545D01*
X148428952Y-84155078D01*
X148497670Y-84163704D01*
X148545288Y-84140918D01*
X148547282Y-84141072D01*
X148547814Y-84141611D01*
X148548548Y-84142709D01*
X148562340Y-84133493D01*
X148564336Y-84133362D01*
X148565447Y-84135025D01*
X148565114Y-84136267D01*
X148557767Y-84147262D01*
X148554000Y-84166199D01*
X148554000Y-84865801D01*
X148557767Y-84884738D01*
X148565114Y-84895733D01*
X148565245Y-84897729D01*
X148563582Y-84898840D01*
X148562340Y-84898507D01*
X148548548Y-84889291D01*
X148547385Y-84891031D01*
X148545591Y-84891916D01*
X148544440Y-84891455D01*
X148527048Y-84876922D01*
X148458330Y-84868296D01*
X148410712Y-84891082D01*
X148408718Y-84890928D01*
X148408186Y-84890389D01*
X148407452Y-84889291D01*
X148393660Y-84898507D01*
X148391664Y-84898638D01*
X148390553Y-84896975D01*
X148390886Y-84895733D01*
X148398233Y-84884738D01*
X148402000Y-84865801D01*
X148402000Y-84166199D01*
X148398233Y-84147262D01*
X148390886Y-84136267D01*
X148390755Y-84134271D01*
X148392418Y-84133160D01*
X148393660Y-84133493D01*
G37*
G36*
X139854660Y-84133493D02*
G01*
X139868452Y-84142709D01*
X139869615Y-84140969D01*
X139871409Y-84140084D01*
X139872560Y-84140545D01*
X139889952Y-84155078D01*
X139958670Y-84163704D01*
X140006288Y-84140918D01*
X140008282Y-84141072D01*
X140008814Y-84141611D01*
X140009548Y-84142709D01*
X140023340Y-84133493D01*
X140025336Y-84133362D01*
X140026447Y-84135025D01*
X140026114Y-84136267D01*
X140018767Y-84147262D01*
X140015000Y-84166199D01*
X140015000Y-84865801D01*
X140018767Y-84884738D01*
X140026114Y-84895733D01*
X140026245Y-84897729D01*
X140024582Y-84898840D01*
X140023340Y-84898507D01*
X140009548Y-84889291D01*
X140008385Y-84891031D01*
X140006591Y-84891916D01*
X140005440Y-84891455D01*
X139988048Y-84876922D01*
X139919330Y-84868296D01*
X139871712Y-84891082D01*
X139869718Y-84890928D01*
X139869186Y-84890389D01*
X139868452Y-84889291D01*
X139854660Y-84898507D01*
X139852664Y-84898638D01*
X139851553Y-84896975D01*
X139851886Y-84895733D01*
X139859233Y-84884738D01*
X139863000Y-84865801D01*
X139863000Y-84166199D01*
X139859233Y-84147262D01*
X139851886Y-84136267D01*
X139851755Y-84134271D01*
X139853418Y-84133160D01*
X139854660Y-84133493D01*
G37*
G36*
X124145633Y-81830517D02*
G01*
X124146197Y-81832436D01*
X124145916Y-81833075D01*
X124135767Y-81848263D01*
X124132000Y-81867199D01*
X124132000Y-82741801D01*
X124135767Y-82760738D01*
X124145814Y-82775773D01*
X124145945Y-82777768D01*
X124144282Y-82778880D01*
X124143553Y-82778793D01*
X124083212Y-82759898D01*
X124018310Y-82778955D01*
X124016367Y-82778483D01*
X124015803Y-82776564D01*
X124016084Y-82775925D01*
X124026233Y-82760737D01*
X124030000Y-82741801D01*
X124030000Y-81867199D01*
X124026233Y-81848262D01*
X124016186Y-81833227D01*
X124016055Y-81831232D01*
X124017718Y-81830120D01*
X124018447Y-81830207D01*
X124078788Y-81849102D01*
X124143690Y-81830045D01*
X124145633Y-81830517D01*
G37*
G36*
X120945633Y-81830517D02*
G01*
X120946197Y-81832436D01*
X120945916Y-81833075D01*
X120935767Y-81848263D01*
X120932000Y-81867199D01*
X120932000Y-82741801D01*
X120935767Y-82760738D01*
X120945814Y-82775773D01*
X120945945Y-82777768D01*
X120944282Y-82778880D01*
X120943553Y-82778793D01*
X120883212Y-82759898D01*
X120818310Y-82778955D01*
X120816367Y-82778483D01*
X120815803Y-82776564D01*
X120816084Y-82775925D01*
X120826233Y-82760737D01*
X120830000Y-82741801D01*
X120830000Y-81867199D01*
X120826233Y-81848262D01*
X120816186Y-81833227D01*
X120816055Y-81831232D01*
X120817718Y-81830120D01*
X120818447Y-81830207D01*
X120878788Y-81849102D01*
X120943690Y-81830045D01*
X120945633Y-81830517D01*
G37*
G36*
X120145633Y-81830517D02*
G01*
X120146197Y-81832436D01*
X120145916Y-81833075D01*
X120135767Y-81848263D01*
X120132000Y-81867199D01*
X120132000Y-82741801D01*
X120135767Y-82760738D01*
X120145814Y-82775773D01*
X120145945Y-82777768D01*
X120144282Y-82778880D01*
X120143553Y-82778793D01*
X120083212Y-82759898D01*
X120018310Y-82778955D01*
X120016367Y-82778483D01*
X120015803Y-82776564D01*
X120016084Y-82775925D01*
X120026233Y-82760737D01*
X120030000Y-82741801D01*
X120030000Y-81867199D01*
X120026233Y-81848262D01*
X120016186Y-81833227D01*
X120016055Y-81831232D01*
X120017718Y-81830120D01*
X120018447Y-81830207D01*
X120078788Y-81849102D01*
X120143690Y-81830045D01*
X120145633Y-81830517D01*
G37*
G36*
X119745633Y-81830517D02*
G01*
X119746197Y-81832436D01*
X119745916Y-81833075D01*
X119735767Y-81848263D01*
X119732000Y-81867199D01*
X119732000Y-82741801D01*
X119735767Y-82760738D01*
X119745814Y-82775773D01*
X119745945Y-82777768D01*
X119744282Y-82778880D01*
X119743553Y-82778793D01*
X119683212Y-82759898D01*
X119618310Y-82778955D01*
X119616367Y-82778483D01*
X119615803Y-82776564D01*
X119616084Y-82775925D01*
X119626233Y-82760737D01*
X119630000Y-82741801D01*
X119630000Y-81867199D01*
X119626233Y-81848262D01*
X119616186Y-81833227D01*
X119616055Y-81831232D01*
X119617718Y-81830120D01*
X119618447Y-81830207D01*
X119678788Y-81849102D01*
X119743690Y-81830045D01*
X119745633Y-81830517D01*
G37*
G36*
X123345633Y-81830517D02*
G01*
X123346197Y-81832436D01*
X123345916Y-81833075D01*
X123335767Y-81848263D01*
X123332000Y-81867199D01*
X123332000Y-82741801D01*
X123335767Y-82760738D01*
X123345814Y-82775773D01*
X123345945Y-82777768D01*
X123344282Y-82778880D01*
X123343553Y-82778793D01*
X123283212Y-82759898D01*
X123218310Y-82778955D01*
X123216367Y-82778483D01*
X123215803Y-82776564D01*
X123216084Y-82775925D01*
X123226233Y-82760737D01*
X123230000Y-82741801D01*
X123230000Y-81867199D01*
X123226233Y-81848262D01*
X123216186Y-81833227D01*
X123216055Y-81831232D01*
X123217718Y-81830120D01*
X123218447Y-81830207D01*
X123278788Y-81849102D01*
X123343690Y-81830045D01*
X123345633Y-81830517D01*
G37*
G36*
X121745633Y-81830517D02*
G01*
X121746197Y-81832436D01*
X121745916Y-81833075D01*
X121735767Y-81848263D01*
X121732000Y-81867199D01*
X121732000Y-82741801D01*
X121735767Y-82760738D01*
X121745814Y-82775773D01*
X121745945Y-82777768D01*
X121744282Y-82778880D01*
X121743553Y-82778793D01*
X121683212Y-82759898D01*
X121618310Y-82778955D01*
X121616367Y-82778483D01*
X121615803Y-82776564D01*
X121616084Y-82775925D01*
X121626233Y-82760737D01*
X121630000Y-82741801D01*
X121630000Y-81867199D01*
X121626233Y-81848262D01*
X121616186Y-81833227D01*
X121616055Y-81831232D01*
X121617718Y-81830120D01*
X121618447Y-81830207D01*
X121678788Y-81849102D01*
X121743690Y-81830045D01*
X121745633Y-81830517D01*
G37*
G36*
X119345633Y-81830517D02*
G01*
X119346197Y-81832436D01*
X119345916Y-81833075D01*
X119335767Y-81848263D01*
X119332000Y-81867199D01*
X119332000Y-82741801D01*
X119335767Y-82760738D01*
X119345814Y-82775773D01*
X119345945Y-82777768D01*
X119344282Y-82778880D01*
X119343553Y-82778793D01*
X119283212Y-82759898D01*
X119218310Y-82778955D01*
X119216367Y-82778483D01*
X119215803Y-82776564D01*
X119216084Y-82775925D01*
X119226233Y-82760737D01*
X119230000Y-82741801D01*
X119230000Y-81867199D01*
X119226233Y-81848262D01*
X119216186Y-81833227D01*
X119216055Y-81831232D01*
X119217718Y-81830120D01*
X119218447Y-81830207D01*
X119278788Y-81849102D01*
X119343690Y-81830045D01*
X119345633Y-81830517D01*
G37*
G36*
X123745633Y-81830517D02*
G01*
X123746197Y-81832436D01*
X123745916Y-81833075D01*
X123735767Y-81848263D01*
X123732000Y-81867199D01*
X123732000Y-82741801D01*
X123735767Y-82760738D01*
X123745814Y-82775773D01*
X123745945Y-82777768D01*
X123744282Y-82778880D01*
X123743553Y-82778793D01*
X123683212Y-82759898D01*
X123618310Y-82778955D01*
X123616367Y-82778483D01*
X123615803Y-82776564D01*
X123616084Y-82775925D01*
X123626233Y-82760737D01*
X123630000Y-82741801D01*
X123630000Y-81867199D01*
X123626233Y-81848262D01*
X123616186Y-81833227D01*
X123616055Y-81831232D01*
X123617718Y-81830120D01*
X123618447Y-81830207D01*
X123678788Y-81849102D01*
X123743690Y-81830045D01*
X123745633Y-81830517D01*
G37*
G36*
X120545633Y-81830517D02*
G01*
X120546197Y-81832436D01*
X120545916Y-81833075D01*
X120535767Y-81848263D01*
X120532000Y-81867199D01*
X120532000Y-82741801D01*
X120535767Y-82760738D01*
X120545814Y-82775773D01*
X120545945Y-82777768D01*
X120544282Y-82778880D01*
X120543553Y-82778793D01*
X120483212Y-82759898D01*
X120418310Y-82778955D01*
X120416367Y-82778483D01*
X120415803Y-82776564D01*
X120416084Y-82775925D01*
X120426233Y-82760737D01*
X120430000Y-82741801D01*
X120430000Y-81867199D01*
X120426233Y-81848262D01*
X120416186Y-81833227D01*
X120416055Y-81831232D01*
X120417718Y-81830120D01*
X120418447Y-81830207D01*
X120478788Y-81849102D01*
X120543690Y-81830045D01*
X120545633Y-81830517D01*
G37*
G36*
X122945633Y-81830517D02*
G01*
X122946197Y-81832436D01*
X122945916Y-81833075D01*
X122935767Y-81848263D01*
X122932000Y-81867199D01*
X122932000Y-82741801D01*
X122935767Y-82760738D01*
X122945814Y-82775773D01*
X122945945Y-82777768D01*
X122944282Y-82778880D01*
X122943553Y-82778793D01*
X122883212Y-82759898D01*
X122818310Y-82778955D01*
X122816367Y-82778483D01*
X122815803Y-82776564D01*
X122816084Y-82775925D01*
X122826233Y-82760737D01*
X122830000Y-82741801D01*
X122830000Y-81867199D01*
X122826233Y-81848262D01*
X122816186Y-81833227D01*
X122816055Y-81831232D01*
X122817718Y-81830120D01*
X122818447Y-81830207D01*
X122878788Y-81849102D01*
X122943690Y-81830045D01*
X122945633Y-81830517D01*
G37*
G36*
X122545633Y-81830517D02*
G01*
X122546197Y-81832436D01*
X122545916Y-81833075D01*
X122535767Y-81848263D01*
X122532000Y-81867199D01*
X122532000Y-82741801D01*
X122535767Y-82760738D01*
X122545814Y-82775773D01*
X122545945Y-82777768D01*
X122544282Y-82778880D01*
X122543553Y-82778793D01*
X122483212Y-82759898D01*
X122418310Y-82778955D01*
X122416367Y-82778483D01*
X122415803Y-82776564D01*
X122416084Y-82775925D01*
X122426233Y-82760737D01*
X122430000Y-82741801D01*
X122430000Y-81867199D01*
X122426233Y-81848262D01*
X122416186Y-81833227D01*
X122416055Y-81831232D01*
X122417718Y-81830120D01*
X122418447Y-81830207D01*
X122478788Y-81849102D01*
X122543690Y-81830045D01*
X122545633Y-81830517D01*
G37*
G36*
X122145633Y-81830517D02*
G01*
X122146197Y-81832436D01*
X122145916Y-81833075D01*
X122135767Y-81848263D01*
X122132000Y-81867199D01*
X122132000Y-82741801D01*
X122135767Y-82760738D01*
X122145814Y-82775773D01*
X122145945Y-82777768D01*
X122144282Y-82778880D01*
X122143553Y-82778793D01*
X122083212Y-82759898D01*
X122018310Y-82778955D01*
X122016367Y-82778483D01*
X122015803Y-82776564D01*
X122016084Y-82775925D01*
X122026233Y-82760737D01*
X122030000Y-82741801D01*
X122030000Y-81867199D01*
X122026233Y-81848262D01*
X122016186Y-81833227D01*
X122016055Y-81831232D01*
X122017718Y-81830120D01*
X122018447Y-81830207D01*
X122078788Y-81849102D01*
X122143690Y-81830045D01*
X122145633Y-81830517D01*
G37*
G36*
X121345633Y-81830517D02*
G01*
X121346197Y-81832436D01*
X121345916Y-81833075D01*
X121335767Y-81848263D01*
X121332000Y-81867199D01*
X121332000Y-82741801D01*
X121335767Y-82760738D01*
X121345814Y-82775773D01*
X121345945Y-82777768D01*
X121344282Y-82778880D01*
X121343553Y-82778793D01*
X121283212Y-82759898D01*
X121218310Y-82778955D01*
X121216367Y-82778483D01*
X121215803Y-82776564D01*
X121216084Y-82775925D01*
X121226233Y-82760737D01*
X121230000Y-82741801D01*
X121230000Y-81867199D01*
X121226233Y-81848262D01*
X121216186Y-81833227D01*
X121216055Y-81831232D01*
X121217718Y-81830120D01*
X121218447Y-81830207D01*
X121278788Y-81849102D01*
X121343690Y-81830045D01*
X121345633Y-81830517D01*
G37*
G36*
X124697075Y-81202084D02*
G01*
X124712263Y-81212233D01*
X124731199Y-81216000D01*
X125605801Y-81216000D01*
X125624738Y-81212233D01*
X125639773Y-81202186D01*
X125641768Y-81202055D01*
X125642880Y-81203718D01*
X125642793Y-81204447D01*
X125623898Y-81264788D01*
X125642955Y-81329690D01*
X125642483Y-81331633D01*
X125640564Y-81332197D01*
X125639925Y-81331916D01*
X125624737Y-81321767D01*
X125605801Y-81318000D01*
X124731199Y-81318000D01*
X124712262Y-81321767D01*
X124697227Y-81331814D01*
X124695232Y-81331945D01*
X124694120Y-81330282D01*
X124694207Y-81329553D01*
X124713102Y-81269212D01*
X124694045Y-81204310D01*
X124694517Y-81202367D01*
X124696436Y-81201803D01*
X124697075Y-81202084D01*
G37*
G36*
X117822075Y-81202084D02*
G01*
X117837263Y-81212233D01*
X117856199Y-81216000D01*
X118730801Y-81216000D01*
X118749738Y-81212233D01*
X118764773Y-81202186D01*
X118766768Y-81202055D01*
X118767880Y-81203718D01*
X118767793Y-81204447D01*
X118748898Y-81264788D01*
X118767955Y-81329690D01*
X118767483Y-81331633D01*
X118765564Y-81332197D01*
X118764925Y-81331916D01*
X118749737Y-81321767D01*
X118730801Y-81318000D01*
X117856199Y-81318000D01*
X117837262Y-81321767D01*
X117822227Y-81331814D01*
X117820232Y-81331945D01*
X117819120Y-81330282D01*
X117819207Y-81329553D01*
X117838102Y-81269212D01*
X117819045Y-81204310D01*
X117819517Y-81202367D01*
X117821436Y-81201803D01*
X117822075Y-81202084D01*
G37*
G36*
X140504660Y-80733493D02*
G01*
X140518452Y-80742709D01*
X140519615Y-80740969D01*
X140521409Y-80740084D01*
X140522560Y-80740545D01*
X140539952Y-80755078D01*
X140608670Y-80763704D01*
X140656288Y-80740918D01*
X140658282Y-80741072D01*
X140658814Y-80741611D01*
X140659548Y-80742709D01*
X140673340Y-80733493D01*
X140675336Y-80733362D01*
X140676447Y-80735025D01*
X140676114Y-80736267D01*
X140668767Y-80747262D01*
X140665000Y-80766199D01*
X140665000Y-81315000D01*
X140664000Y-81316732D01*
X140663000Y-81317000D01*
X140515000Y-81317000D01*
X140513268Y-81316000D01*
X140513000Y-81315000D01*
X140513000Y-80766199D01*
X140509233Y-80747262D01*
X140501886Y-80736267D01*
X140501755Y-80734271D01*
X140503418Y-80733160D01*
X140504660Y-80733493D01*
G37*
G36*
X147743660Y-80733493D02*
G01*
X147757452Y-80742709D01*
X147758615Y-80740969D01*
X147760409Y-80740084D01*
X147761560Y-80740545D01*
X147778952Y-80755078D01*
X147847670Y-80763704D01*
X147895288Y-80740918D01*
X147897282Y-80741072D01*
X147897814Y-80741611D01*
X147898548Y-80742709D01*
X147912340Y-80733493D01*
X147914336Y-80733362D01*
X147915447Y-80735025D01*
X147915114Y-80736267D01*
X147907767Y-80747262D01*
X147904000Y-80766199D01*
X147904000Y-81315000D01*
X147903000Y-81316732D01*
X147902000Y-81317000D01*
X147754000Y-81317000D01*
X147752268Y-81316000D01*
X147752000Y-81315000D01*
X147752000Y-80766199D01*
X147748233Y-80747262D01*
X147740886Y-80736267D01*
X147740755Y-80734271D01*
X147742418Y-80733160D01*
X147743660Y-80733493D01*
G37*
G36*
X141154660Y-80733493D02*
G01*
X141168452Y-80742709D01*
X141169615Y-80740969D01*
X141171409Y-80740084D01*
X141172560Y-80740545D01*
X141189952Y-80755078D01*
X141258670Y-80763704D01*
X141306288Y-80740918D01*
X141308282Y-80741072D01*
X141308814Y-80741611D01*
X141309548Y-80742709D01*
X141323340Y-80733493D01*
X141325336Y-80733362D01*
X141326447Y-80735025D01*
X141326114Y-80736267D01*
X141318767Y-80747262D01*
X141315000Y-80766199D01*
X141315000Y-81315000D01*
X141314000Y-81316732D01*
X141313000Y-81317000D01*
X141165000Y-81317000D01*
X141163268Y-81316000D01*
X141163000Y-81315000D01*
X141163000Y-80766199D01*
X141159233Y-80747262D01*
X141151886Y-80736267D01*
X141151755Y-80734271D01*
X141153418Y-80733160D01*
X141154660Y-80733493D01*
G37*
G36*
X148393660Y-80733493D02*
G01*
X148407452Y-80742709D01*
X148408615Y-80740969D01*
X148410409Y-80740084D01*
X148411560Y-80740545D01*
X148428952Y-80755078D01*
X148497670Y-80763704D01*
X148545288Y-80740918D01*
X148547282Y-80741072D01*
X148547814Y-80741611D01*
X148548548Y-80742709D01*
X148562340Y-80733493D01*
X148564336Y-80733362D01*
X148565447Y-80735025D01*
X148565114Y-80736267D01*
X148557767Y-80747262D01*
X148554000Y-80766199D01*
X148554000Y-81315000D01*
X148553000Y-81316732D01*
X148552000Y-81317000D01*
X148404000Y-81317000D01*
X148402268Y-81316000D01*
X148402000Y-81315000D01*
X148402000Y-80766199D01*
X148398233Y-80747262D01*
X148390886Y-80736267D01*
X148390755Y-80734271D01*
X148392418Y-80733160D01*
X148393660Y-80733493D01*
G37*
G36*
X147093660Y-80733493D02*
G01*
X147107452Y-80742709D01*
X147108615Y-80740969D01*
X147110409Y-80740084D01*
X147111560Y-80740545D01*
X147128952Y-80755078D01*
X147197670Y-80763704D01*
X147245288Y-80740918D01*
X147247282Y-80741072D01*
X147247814Y-80741611D01*
X147248548Y-80742709D01*
X147262340Y-80733493D01*
X147264336Y-80733362D01*
X147265447Y-80735025D01*
X147265114Y-80736267D01*
X147257767Y-80747262D01*
X147254000Y-80766199D01*
X147254000Y-81315000D01*
X147253000Y-81316732D01*
X147252000Y-81317000D01*
X147104000Y-81317000D01*
X147102268Y-81316000D01*
X147102000Y-81315000D01*
X147102000Y-80766199D01*
X147098233Y-80747262D01*
X147090886Y-80736267D01*
X147090755Y-80734271D01*
X147092418Y-80733160D01*
X147093660Y-80733493D01*
G37*
G36*
X139854660Y-80733493D02*
G01*
X139868452Y-80742709D01*
X139869615Y-80740969D01*
X139871409Y-80740084D01*
X139872560Y-80740545D01*
X139889952Y-80755078D01*
X139958670Y-80763704D01*
X140006288Y-80740918D01*
X140008282Y-80741072D01*
X140008814Y-80741611D01*
X140009548Y-80742709D01*
X140023340Y-80733493D01*
X140025336Y-80733362D01*
X140026447Y-80735025D01*
X140026114Y-80736267D01*
X140018767Y-80747262D01*
X140015000Y-80766199D01*
X140015000Y-81315000D01*
X140014000Y-81316732D01*
X140013000Y-81317000D01*
X139865000Y-81317000D01*
X139863268Y-81316000D01*
X139863000Y-81315000D01*
X139863000Y-80766199D01*
X139859233Y-80747262D01*
X139851886Y-80736267D01*
X139851755Y-80734271D01*
X139853418Y-80733160D01*
X139854660Y-80733493D01*
G37*
G36*
X117822075Y-80802084D02*
G01*
X117837263Y-80812233D01*
X117856199Y-80816000D01*
X118730801Y-80816000D01*
X118749738Y-80812233D01*
X118764773Y-80802186D01*
X118766768Y-80802055D01*
X118767880Y-80803718D01*
X118767793Y-80804447D01*
X118748898Y-80864788D01*
X118767955Y-80929690D01*
X118767483Y-80931633D01*
X118765564Y-80932197D01*
X118764925Y-80931916D01*
X118749737Y-80921767D01*
X118730801Y-80918000D01*
X117856199Y-80918000D01*
X117837262Y-80921767D01*
X117822227Y-80931814D01*
X117820232Y-80931945D01*
X117819120Y-80930282D01*
X117819207Y-80929553D01*
X117838102Y-80869212D01*
X117819045Y-80804310D01*
X117819517Y-80802367D01*
X117821436Y-80801803D01*
X117822075Y-80802084D01*
G37*
G36*
X124697075Y-80802084D02*
G01*
X124712263Y-80812233D01*
X124731199Y-80816000D01*
X125605801Y-80816000D01*
X125624738Y-80812233D01*
X125639773Y-80802186D01*
X125641768Y-80802055D01*
X125642880Y-80803718D01*
X125642793Y-80804447D01*
X125623898Y-80864788D01*
X125642955Y-80929690D01*
X125642483Y-80931633D01*
X125640564Y-80932197D01*
X125639925Y-80931916D01*
X125624737Y-80921767D01*
X125605801Y-80918000D01*
X124731199Y-80918000D01*
X124712262Y-80921767D01*
X124697227Y-80931814D01*
X124695232Y-80931945D01*
X124694120Y-80930282D01*
X124694207Y-80929553D01*
X124713102Y-80869212D01*
X124694045Y-80804310D01*
X124694517Y-80802367D01*
X124696436Y-80801803D01*
X124697075Y-80802084D01*
G37*
G36*
X124697075Y-80402084D02*
G01*
X124712263Y-80412233D01*
X124731199Y-80416000D01*
X125605801Y-80416000D01*
X125624738Y-80412233D01*
X125639773Y-80402186D01*
X125641768Y-80402055D01*
X125642880Y-80403718D01*
X125642793Y-80404447D01*
X125623898Y-80464788D01*
X125642955Y-80529690D01*
X125642483Y-80531633D01*
X125640564Y-80532197D01*
X125639925Y-80531916D01*
X125624737Y-80521767D01*
X125605801Y-80518000D01*
X124731199Y-80518000D01*
X124712262Y-80521767D01*
X124697227Y-80531814D01*
X124695232Y-80531945D01*
X124694120Y-80530282D01*
X124694207Y-80529553D01*
X124713102Y-80469212D01*
X124694045Y-80404310D01*
X124694517Y-80402367D01*
X124696436Y-80401803D01*
X124697075Y-80402084D01*
G37*
G36*
X117822075Y-80402084D02*
G01*
X117837263Y-80412233D01*
X117856199Y-80416000D01*
X118730801Y-80416000D01*
X118749738Y-80412233D01*
X118764773Y-80402186D01*
X118766768Y-80402055D01*
X118767880Y-80403718D01*
X118767793Y-80404447D01*
X118748898Y-80464788D01*
X118767955Y-80529690D01*
X118767483Y-80531633D01*
X118765564Y-80532197D01*
X118764925Y-80531916D01*
X118749737Y-80521767D01*
X118730801Y-80518000D01*
X117856199Y-80518000D01*
X117837262Y-80521767D01*
X117822227Y-80531814D01*
X117820232Y-80531945D01*
X117819120Y-80530282D01*
X117819207Y-80529553D01*
X117838102Y-80469212D01*
X117819045Y-80404310D01*
X117819517Y-80402367D01*
X117821436Y-80401803D01*
X117822075Y-80402084D01*
G37*
G36*
X135070075Y-80187084D02*
G01*
X135085263Y-80197233D01*
X135104199Y-80201000D01*
X136503801Y-80201000D01*
X136522738Y-80197233D01*
X136537773Y-80187186D01*
X136539768Y-80187055D01*
X136540880Y-80188718D01*
X136540793Y-80189447D01*
X136521898Y-80249788D01*
X136540955Y-80314690D01*
X136540483Y-80316633D01*
X136538564Y-80317197D01*
X136537925Y-80316916D01*
X136522737Y-80306767D01*
X136503801Y-80303000D01*
X135104199Y-80303000D01*
X135085262Y-80306767D01*
X135070227Y-80316814D01*
X135068232Y-80316945D01*
X135067120Y-80315282D01*
X135067207Y-80314553D01*
X135086102Y-80254212D01*
X135067045Y-80189310D01*
X135067517Y-80187367D01*
X135069436Y-80186803D01*
X135070075Y-80187084D01*
G37*
G36*
X130670075Y-80187084D02*
G01*
X130685263Y-80197233D01*
X130704199Y-80201000D01*
X132103801Y-80201000D01*
X132122738Y-80197233D01*
X132137773Y-80187186D01*
X132139768Y-80187055D01*
X132140880Y-80188718D01*
X132140793Y-80189447D01*
X132121898Y-80249788D01*
X132140955Y-80314690D01*
X132140483Y-80316633D01*
X132138564Y-80317197D01*
X132137925Y-80316916D01*
X132122737Y-80306767D01*
X132103801Y-80303000D01*
X130704199Y-80303000D01*
X130685262Y-80306767D01*
X130670227Y-80316814D01*
X130668232Y-80316945D01*
X130667120Y-80315282D01*
X130667207Y-80314553D01*
X130686102Y-80254212D01*
X130667045Y-80189310D01*
X130667517Y-80187367D01*
X130669436Y-80186803D01*
X130670075Y-80187084D01*
G37*
G36*
X124697075Y-80002084D02*
G01*
X124712263Y-80012233D01*
X124731199Y-80016000D01*
X125605801Y-80016000D01*
X125624738Y-80012233D01*
X125639773Y-80002186D01*
X125641768Y-80002055D01*
X125642880Y-80003718D01*
X125642793Y-80004447D01*
X125623898Y-80064788D01*
X125642955Y-80129690D01*
X125642483Y-80131633D01*
X125640564Y-80132197D01*
X125639925Y-80131916D01*
X125624737Y-80121767D01*
X125605801Y-80118000D01*
X124731199Y-80118000D01*
X124712262Y-80121767D01*
X124697227Y-80131814D01*
X124695232Y-80131945D01*
X124694120Y-80130282D01*
X124694207Y-80129553D01*
X124713102Y-80069212D01*
X124694045Y-80004310D01*
X124694517Y-80002367D01*
X124696436Y-80001803D01*
X124697075Y-80002084D01*
G37*
G36*
X117822075Y-80002084D02*
G01*
X117837263Y-80012233D01*
X117856199Y-80016000D01*
X118730801Y-80016000D01*
X118749738Y-80012233D01*
X118764773Y-80002186D01*
X118766768Y-80002055D01*
X118767880Y-80003718D01*
X118767793Y-80004447D01*
X118748898Y-80064788D01*
X118767955Y-80129690D01*
X118767483Y-80131633D01*
X118765564Y-80132197D01*
X118764925Y-80131916D01*
X118749737Y-80121767D01*
X118730801Y-80118000D01*
X117856199Y-80118000D01*
X117837262Y-80121767D01*
X117822227Y-80131814D01*
X117820232Y-80131945D01*
X117819120Y-80130282D01*
X117819207Y-80129553D01*
X117838102Y-80069212D01*
X117819045Y-80004310D01*
X117819517Y-80002367D01*
X117821436Y-80001803D01*
X117822075Y-80002084D01*
G37*
G36*
X130670075Y-79687084D02*
G01*
X130685263Y-79697233D01*
X130704199Y-79701000D01*
X132103801Y-79701000D01*
X132122738Y-79697233D01*
X132137773Y-79687186D01*
X132139768Y-79687055D01*
X132140880Y-79688718D01*
X132140793Y-79689447D01*
X132121898Y-79749788D01*
X132140955Y-79814690D01*
X132140483Y-79816633D01*
X132138564Y-79817197D01*
X132137925Y-79816916D01*
X132122737Y-79806767D01*
X132103801Y-79803000D01*
X130704199Y-79803000D01*
X130685262Y-79806767D01*
X130670227Y-79816814D01*
X130668232Y-79816945D01*
X130667120Y-79815282D01*
X130667207Y-79814553D01*
X130686102Y-79754212D01*
X130667045Y-79689310D01*
X130667517Y-79687367D01*
X130669436Y-79686803D01*
X130670075Y-79687084D01*
G37*
G36*
X135070075Y-79687084D02*
G01*
X135085263Y-79697233D01*
X135104199Y-79701000D01*
X136503801Y-79701000D01*
X136522738Y-79697233D01*
X136537773Y-79687186D01*
X136539768Y-79687055D01*
X136540880Y-79688718D01*
X136540793Y-79689447D01*
X136521898Y-79749788D01*
X136540955Y-79814690D01*
X136540483Y-79816633D01*
X136538564Y-79817197D01*
X136537925Y-79816916D01*
X136522737Y-79806767D01*
X136503801Y-79803000D01*
X135104199Y-79803000D01*
X135085262Y-79806767D01*
X135070227Y-79816814D01*
X135068232Y-79816945D01*
X135067120Y-79815282D01*
X135067207Y-79814553D01*
X135086102Y-79754212D01*
X135067045Y-79689310D01*
X135067517Y-79687367D01*
X135069436Y-79686803D01*
X135070075Y-79687084D01*
G37*
G36*
X117822075Y-79602084D02*
G01*
X117837263Y-79612233D01*
X117856199Y-79616000D01*
X118730801Y-79616000D01*
X118749738Y-79612233D01*
X118764773Y-79602186D01*
X118766768Y-79602055D01*
X118767880Y-79603718D01*
X118767793Y-79604447D01*
X118748898Y-79664788D01*
X118767955Y-79729690D01*
X118767483Y-79731633D01*
X118765564Y-79732197D01*
X118764925Y-79731916D01*
X118749737Y-79721767D01*
X118730801Y-79718000D01*
X117856199Y-79718000D01*
X117837262Y-79721767D01*
X117822227Y-79731814D01*
X117820232Y-79731945D01*
X117819120Y-79730282D01*
X117819207Y-79729553D01*
X117838102Y-79669212D01*
X117819045Y-79604310D01*
X117819517Y-79602367D01*
X117821436Y-79601803D01*
X117822075Y-79602084D01*
G37*
G36*
X124697075Y-79602084D02*
G01*
X124712263Y-79612233D01*
X124731199Y-79616000D01*
X125605801Y-79616000D01*
X125624738Y-79612233D01*
X125639773Y-79602186D01*
X125641768Y-79602055D01*
X125642880Y-79603718D01*
X125642793Y-79604447D01*
X125623898Y-79664788D01*
X125642955Y-79729690D01*
X125642483Y-79731633D01*
X125640564Y-79732197D01*
X125639925Y-79731916D01*
X125624737Y-79721767D01*
X125605801Y-79718000D01*
X124731199Y-79718000D01*
X124712262Y-79721767D01*
X124697227Y-79731814D01*
X124695232Y-79731945D01*
X124694120Y-79730282D01*
X124694207Y-79729553D01*
X124713102Y-79669212D01*
X124694045Y-79604310D01*
X124694517Y-79602367D01*
X124696436Y-79601803D01*
X124697075Y-79602084D01*
G37*
G36*
X124697075Y-79202084D02*
G01*
X124712263Y-79212233D01*
X124731199Y-79216000D01*
X125605801Y-79216000D01*
X125624738Y-79212233D01*
X125639773Y-79202186D01*
X125641768Y-79202055D01*
X125642880Y-79203718D01*
X125642793Y-79204447D01*
X125623898Y-79264788D01*
X125642955Y-79329690D01*
X125642483Y-79331633D01*
X125640564Y-79332197D01*
X125639925Y-79331916D01*
X125624737Y-79321767D01*
X125605801Y-79318000D01*
X124731199Y-79318000D01*
X124712262Y-79321767D01*
X124697227Y-79331814D01*
X124695232Y-79331945D01*
X124694120Y-79330282D01*
X124694207Y-79329553D01*
X124713102Y-79269212D01*
X124694045Y-79204310D01*
X124694517Y-79202367D01*
X124696436Y-79201803D01*
X124697075Y-79202084D01*
G37*
G36*
X117822075Y-79202084D02*
G01*
X117837263Y-79212233D01*
X117856199Y-79216000D01*
X118730801Y-79216000D01*
X118749738Y-79212233D01*
X118764773Y-79202186D01*
X118766768Y-79202055D01*
X118767880Y-79203718D01*
X118767793Y-79204447D01*
X118748898Y-79264788D01*
X118767955Y-79329690D01*
X118767483Y-79331633D01*
X118765564Y-79332197D01*
X118764925Y-79331916D01*
X118749737Y-79321767D01*
X118730801Y-79318000D01*
X117856199Y-79318000D01*
X117837262Y-79321767D01*
X117822227Y-79331814D01*
X117820232Y-79331945D01*
X117819120Y-79330282D01*
X117819207Y-79329553D01*
X117838102Y-79269212D01*
X117819045Y-79204310D01*
X117819517Y-79202367D01*
X117821436Y-79201803D01*
X117822075Y-79202084D01*
G37*
G36*
X135070075Y-79187084D02*
G01*
X135085263Y-79197233D01*
X135104199Y-79201000D01*
X136503801Y-79201000D01*
X136522738Y-79197233D01*
X136537773Y-79187186D01*
X136539768Y-79187055D01*
X136540880Y-79188718D01*
X136540793Y-79189447D01*
X136521898Y-79249788D01*
X136540955Y-79314690D01*
X136540483Y-79316633D01*
X136538564Y-79317197D01*
X136537925Y-79316916D01*
X136522737Y-79306767D01*
X136503801Y-79303000D01*
X135104199Y-79303000D01*
X135085262Y-79306767D01*
X135070227Y-79316814D01*
X135068232Y-79316945D01*
X135067120Y-79315282D01*
X135067207Y-79314553D01*
X135086102Y-79254212D01*
X135067045Y-79189310D01*
X135067517Y-79187367D01*
X135069436Y-79186803D01*
X135070075Y-79187084D01*
G37*
G36*
X130670075Y-79187084D02*
G01*
X130685263Y-79197233D01*
X130704199Y-79201000D01*
X132103801Y-79201000D01*
X132122738Y-79197233D01*
X132137773Y-79187186D01*
X132139768Y-79187055D01*
X132140880Y-79188718D01*
X132140793Y-79189447D01*
X132121898Y-79249788D01*
X132140955Y-79314690D01*
X132140483Y-79316633D01*
X132138564Y-79317197D01*
X132137925Y-79316916D01*
X132122737Y-79306767D01*
X132103801Y-79303000D01*
X130704199Y-79303000D01*
X130685262Y-79306767D01*
X130670227Y-79316814D01*
X130668232Y-79316945D01*
X130667120Y-79315282D01*
X130667207Y-79314553D01*
X130686102Y-79254212D01*
X130667045Y-79189310D01*
X130667517Y-79187367D01*
X130669436Y-79186803D01*
X130670075Y-79187084D01*
G37*
G36*
X124697075Y-78802084D02*
G01*
X124712263Y-78812233D01*
X124731199Y-78816000D01*
X125605801Y-78816000D01*
X125624738Y-78812233D01*
X125639773Y-78802186D01*
X125641768Y-78802055D01*
X125642880Y-78803718D01*
X125642793Y-78804447D01*
X125623898Y-78864788D01*
X125642955Y-78929690D01*
X125642483Y-78931633D01*
X125640564Y-78932197D01*
X125639925Y-78931916D01*
X125624737Y-78921767D01*
X125605801Y-78918000D01*
X124731199Y-78918000D01*
X124712262Y-78921767D01*
X124697227Y-78931814D01*
X124695232Y-78931945D01*
X124694120Y-78930282D01*
X124694207Y-78929553D01*
X124713102Y-78869212D01*
X124694045Y-78804310D01*
X124694517Y-78802367D01*
X124696436Y-78801803D01*
X124697075Y-78802084D01*
G37*
G36*
X117822075Y-78802084D02*
G01*
X117837263Y-78812233D01*
X117856199Y-78816000D01*
X118730801Y-78816000D01*
X118749738Y-78812233D01*
X118764773Y-78802186D01*
X118766768Y-78802055D01*
X118767880Y-78803718D01*
X118767793Y-78804447D01*
X118748898Y-78864788D01*
X118767955Y-78929690D01*
X118767483Y-78931633D01*
X118765564Y-78932197D01*
X118764925Y-78931916D01*
X118749737Y-78921767D01*
X118730801Y-78918000D01*
X117856199Y-78918000D01*
X117837262Y-78921767D01*
X117822227Y-78931814D01*
X117820232Y-78931945D01*
X117819120Y-78930282D01*
X117819207Y-78929553D01*
X117838102Y-78869212D01*
X117819045Y-78804310D01*
X117819517Y-78802367D01*
X117821436Y-78801803D01*
X117822075Y-78802084D01*
G37*
G36*
X130670075Y-78687084D02*
G01*
X130685263Y-78697233D01*
X130704199Y-78701000D01*
X132103801Y-78701000D01*
X132122738Y-78697233D01*
X132137773Y-78687186D01*
X132139768Y-78687055D01*
X132140880Y-78688718D01*
X132140793Y-78689447D01*
X132121898Y-78749788D01*
X132140955Y-78814690D01*
X132140483Y-78816633D01*
X132138564Y-78817197D01*
X132137925Y-78816916D01*
X132122737Y-78806767D01*
X132103801Y-78803000D01*
X130704199Y-78803000D01*
X130685262Y-78806767D01*
X130670227Y-78816814D01*
X130668232Y-78816945D01*
X130667120Y-78815282D01*
X130667207Y-78814553D01*
X130686102Y-78754212D01*
X130667045Y-78689310D01*
X130667517Y-78687367D01*
X130669436Y-78686803D01*
X130670075Y-78687084D01*
G37*
G36*
X135070075Y-78687084D02*
G01*
X135085263Y-78697233D01*
X135104199Y-78701000D01*
X136503801Y-78701000D01*
X136522738Y-78697233D01*
X136537773Y-78687186D01*
X136539768Y-78687055D01*
X136540880Y-78688718D01*
X136540793Y-78689447D01*
X136521898Y-78749788D01*
X136540955Y-78814690D01*
X136540483Y-78816633D01*
X136538564Y-78817197D01*
X136537925Y-78816916D01*
X136522737Y-78806767D01*
X136503801Y-78803000D01*
X135104199Y-78803000D01*
X135085262Y-78806767D01*
X135070227Y-78816814D01*
X135068232Y-78816945D01*
X135067120Y-78815282D01*
X135067207Y-78814553D01*
X135086102Y-78754212D01*
X135067045Y-78689310D01*
X135067517Y-78687367D01*
X135069436Y-78686803D01*
X135070075Y-78687084D01*
G37*
G36*
X117822075Y-78402084D02*
G01*
X117837263Y-78412233D01*
X117856199Y-78416000D01*
X118730801Y-78416000D01*
X118749738Y-78412233D01*
X118764773Y-78402186D01*
X118766768Y-78402055D01*
X118767880Y-78403718D01*
X118767793Y-78404447D01*
X118748898Y-78464788D01*
X118767955Y-78529690D01*
X118767483Y-78531633D01*
X118765564Y-78532197D01*
X118764925Y-78531916D01*
X118749737Y-78521767D01*
X118730801Y-78518000D01*
X117856199Y-78518000D01*
X117837262Y-78521767D01*
X117822227Y-78531814D01*
X117820232Y-78531945D01*
X117819120Y-78530282D01*
X117819207Y-78529553D01*
X117838102Y-78469212D01*
X117819045Y-78404310D01*
X117819517Y-78402367D01*
X117821436Y-78401803D01*
X117822075Y-78402084D01*
G37*
G36*
X124697075Y-78402084D02*
G01*
X124712263Y-78412233D01*
X124731199Y-78416000D01*
X125605801Y-78416000D01*
X125624738Y-78412233D01*
X125639773Y-78402186D01*
X125641768Y-78402055D01*
X125642880Y-78403718D01*
X125642793Y-78404447D01*
X125623898Y-78464788D01*
X125642955Y-78529690D01*
X125642483Y-78531633D01*
X125640564Y-78532197D01*
X125639925Y-78531916D01*
X125624737Y-78521767D01*
X125605801Y-78518000D01*
X124731199Y-78518000D01*
X124712262Y-78521767D01*
X124697227Y-78531814D01*
X124695232Y-78531945D01*
X124694120Y-78530282D01*
X124694207Y-78529553D01*
X124713102Y-78469212D01*
X124694045Y-78404310D01*
X124694517Y-78402367D01*
X124696436Y-78401803D01*
X124697075Y-78402084D01*
G37*
G36*
X124697075Y-78002084D02*
G01*
X124712263Y-78012233D01*
X124731199Y-78016000D01*
X125605801Y-78016000D01*
X125624738Y-78012233D01*
X125639773Y-78002186D01*
X125641768Y-78002055D01*
X125642880Y-78003718D01*
X125642793Y-78004447D01*
X125623898Y-78064788D01*
X125642955Y-78129690D01*
X125642483Y-78131633D01*
X125640564Y-78132197D01*
X125639925Y-78131916D01*
X125624737Y-78121767D01*
X125605801Y-78118000D01*
X124731199Y-78118000D01*
X124712262Y-78121767D01*
X124697227Y-78131814D01*
X124695232Y-78131945D01*
X124694120Y-78130282D01*
X124694207Y-78129553D01*
X124713102Y-78069212D01*
X124694045Y-78004310D01*
X124694517Y-78002367D01*
X124696436Y-78001803D01*
X124697075Y-78002084D01*
G37*
G36*
X117822075Y-78002084D02*
G01*
X117837263Y-78012233D01*
X117856199Y-78016000D01*
X118730801Y-78016000D01*
X118749738Y-78012233D01*
X118764773Y-78002186D01*
X118766768Y-78002055D01*
X118767880Y-78003718D01*
X118767793Y-78004447D01*
X118748898Y-78064788D01*
X118767955Y-78129690D01*
X118767483Y-78131633D01*
X118765564Y-78132197D01*
X118764925Y-78131916D01*
X118749737Y-78121767D01*
X118730801Y-78118000D01*
X117856199Y-78118000D01*
X117837262Y-78121767D01*
X117822227Y-78131814D01*
X117820232Y-78131945D01*
X117819120Y-78130282D01*
X117819207Y-78129553D01*
X117838102Y-78069212D01*
X117819045Y-78004310D01*
X117819517Y-78002367D01*
X117821436Y-78001803D01*
X117822075Y-78002084D01*
G37*
G36*
X124697075Y-77602084D02*
G01*
X124712263Y-77612233D01*
X124731199Y-77616000D01*
X125605801Y-77616000D01*
X125624738Y-77612233D01*
X125639773Y-77602186D01*
X125641768Y-77602055D01*
X125642880Y-77603718D01*
X125642793Y-77604447D01*
X125623898Y-77664788D01*
X125642955Y-77729690D01*
X125642483Y-77731633D01*
X125640564Y-77732197D01*
X125639925Y-77731916D01*
X125624737Y-77721767D01*
X125605801Y-77718000D01*
X124731199Y-77718000D01*
X124712262Y-77721767D01*
X124697227Y-77731814D01*
X124695232Y-77731945D01*
X124694120Y-77730282D01*
X124694207Y-77729553D01*
X124713102Y-77669212D01*
X124694045Y-77604310D01*
X124694517Y-77602367D01*
X124696436Y-77601803D01*
X124697075Y-77602084D01*
G37*
G36*
X117822075Y-77602084D02*
G01*
X117837263Y-77612233D01*
X117856199Y-77616000D01*
X118730801Y-77616000D01*
X118749738Y-77612233D01*
X118764773Y-77602186D01*
X118766768Y-77602055D01*
X118767880Y-77603718D01*
X118767793Y-77604447D01*
X118748898Y-77664788D01*
X118767955Y-77729690D01*
X118767483Y-77731633D01*
X118765564Y-77732197D01*
X118764925Y-77731916D01*
X118749737Y-77721767D01*
X118730801Y-77718000D01*
X117856199Y-77718000D01*
X117837262Y-77721767D01*
X117822227Y-77731814D01*
X117820232Y-77731945D01*
X117819120Y-77730282D01*
X117819207Y-77729553D01*
X117838102Y-77669212D01*
X117819045Y-77604310D01*
X117819517Y-77602367D01*
X117821436Y-77601803D01*
X117822075Y-77602084D01*
G37*
G36*
X124697075Y-77202084D02*
G01*
X124712263Y-77212233D01*
X124731199Y-77216000D01*
X125605801Y-77216000D01*
X125624738Y-77212233D01*
X125639773Y-77202186D01*
X125641768Y-77202055D01*
X125642880Y-77203718D01*
X125642793Y-77204447D01*
X125623898Y-77264788D01*
X125642955Y-77329690D01*
X125642483Y-77331633D01*
X125640564Y-77332197D01*
X125639925Y-77331916D01*
X125624737Y-77321767D01*
X125605801Y-77318000D01*
X124731199Y-77318000D01*
X124712262Y-77321767D01*
X124697227Y-77331814D01*
X124695232Y-77331945D01*
X124694120Y-77330282D01*
X124694207Y-77329553D01*
X124713102Y-77269212D01*
X124694045Y-77204310D01*
X124694517Y-77202367D01*
X124696436Y-77201803D01*
X124697075Y-77202084D01*
G37*
G36*
X117822075Y-77202084D02*
G01*
X117837263Y-77212233D01*
X117856199Y-77216000D01*
X118730801Y-77216000D01*
X118749738Y-77212233D01*
X118764773Y-77202186D01*
X118766768Y-77202055D01*
X118767880Y-77203718D01*
X118767793Y-77204447D01*
X118748898Y-77264788D01*
X118767955Y-77329690D01*
X118767483Y-77331633D01*
X118765564Y-77332197D01*
X118764925Y-77331916D01*
X118749737Y-77321767D01*
X118730801Y-77318000D01*
X117856199Y-77318000D01*
X117837262Y-77321767D01*
X117822227Y-77331814D01*
X117820232Y-77331945D01*
X117819120Y-77330282D01*
X117819207Y-77329553D01*
X117838102Y-77269212D01*
X117819045Y-77204310D01*
X117819517Y-77202367D01*
X117821436Y-77201803D01*
X117822075Y-77202084D01*
G37*
G36*
X117822075Y-76802084D02*
G01*
X117837263Y-76812233D01*
X117856199Y-76816000D01*
X118730801Y-76816000D01*
X118749738Y-76812233D01*
X118764773Y-76802186D01*
X118766768Y-76802055D01*
X118767880Y-76803718D01*
X118767793Y-76804447D01*
X118748898Y-76864788D01*
X118767955Y-76929690D01*
X118767483Y-76931633D01*
X118765564Y-76932197D01*
X118764925Y-76931916D01*
X118749737Y-76921767D01*
X118730801Y-76918000D01*
X117856199Y-76918000D01*
X117837262Y-76921767D01*
X117822227Y-76931814D01*
X117820232Y-76931945D01*
X117819120Y-76930282D01*
X117819207Y-76929553D01*
X117838102Y-76869212D01*
X117819045Y-76804310D01*
X117819517Y-76802367D01*
X117821436Y-76801803D01*
X117822075Y-76802084D01*
G37*
G36*
X124697075Y-76802084D02*
G01*
X124712263Y-76812233D01*
X124731199Y-76816000D01*
X125605801Y-76816000D01*
X125624738Y-76812233D01*
X125639773Y-76802186D01*
X125641768Y-76802055D01*
X125642880Y-76803718D01*
X125642793Y-76804447D01*
X125623898Y-76864788D01*
X125642955Y-76929690D01*
X125642483Y-76931633D01*
X125640564Y-76932197D01*
X125639925Y-76931916D01*
X125624737Y-76921767D01*
X125605801Y-76918000D01*
X124731199Y-76918000D01*
X124712262Y-76921767D01*
X124697227Y-76931814D01*
X124695232Y-76931945D01*
X124694120Y-76930282D01*
X124694207Y-76929553D01*
X124713102Y-76869212D01*
X124694045Y-76804310D01*
X124694517Y-76802367D01*
X124696436Y-76801803D01*
X124697075Y-76802084D01*
G37*
G36*
X117822075Y-76402084D02*
G01*
X117837263Y-76412233D01*
X117856199Y-76416000D01*
X118730801Y-76416000D01*
X118749738Y-76412233D01*
X118764773Y-76402186D01*
X118766768Y-76402055D01*
X118767880Y-76403718D01*
X118767793Y-76404447D01*
X118748898Y-76464788D01*
X118767955Y-76529690D01*
X118767483Y-76531633D01*
X118765564Y-76532197D01*
X118764925Y-76531916D01*
X118749737Y-76521767D01*
X118730801Y-76518000D01*
X117856199Y-76518000D01*
X117837262Y-76521767D01*
X117822227Y-76531814D01*
X117820232Y-76531945D01*
X117819120Y-76530282D01*
X117819207Y-76529553D01*
X117838102Y-76469212D01*
X117819045Y-76404310D01*
X117819517Y-76402367D01*
X117821436Y-76401803D01*
X117822075Y-76402084D01*
G37*
G36*
X124697075Y-76402084D02*
G01*
X124712263Y-76412233D01*
X124731199Y-76416000D01*
X125605801Y-76416000D01*
X125624738Y-76412233D01*
X125639773Y-76402186D01*
X125641768Y-76402055D01*
X125642880Y-76403718D01*
X125642793Y-76404447D01*
X125623898Y-76464788D01*
X125642955Y-76529690D01*
X125642483Y-76531633D01*
X125640564Y-76532197D01*
X125639925Y-76531916D01*
X125624737Y-76521767D01*
X125605801Y-76518000D01*
X124731199Y-76518000D01*
X124712262Y-76521767D01*
X124697227Y-76531814D01*
X124695232Y-76531945D01*
X124694120Y-76530282D01*
X124694207Y-76529553D01*
X124713102Y-76469212D01*
X124694045Y-76404310D01*
X124694517Y-76402367D01*
X124696436Y-76401803D01*
X124697075Y-76402084D01*
G37*
G36*
X120545633Y-74955517D02*
G01*
X120546197Y-74957436D01*
X120545916Y-74958075D01*
X120535767Y-74973263D01*
X120532000Y-74992199D01*
X120532000Y-75866801D01*
X120535767Y-75885738D01*
X120545814Y-75900773D01*
X120545945Y-75902768D01*
X120544282Y-75903880D01*
X120543553Y-75903793D01*
X120483212Y-75884898D01*
X120418310Y-75903955D01*
X120416367Y-75903483D01*
X120415803Y-75901564D01*
X120416084Y-75900925D01*
X120426233Y-75885737D01*
X120430000Y-75866801D01*
X120430000Y-74992199D01*
X120426233Y-74973262D01*
X120416186Y-74958227D01*
X120416055Y-74956232D01*
X120417718Y-74955120D01*
X120418447Y-74955207D01*
X120478788Y-74974102D01*
X120543690Y-74955045D01*
X120545633Y-74955517D01*
G37*
G36*
X122545633Y-74955517D02*
G01*
X122546197Y-74957436D01*
X122545916Y-74958075D01*
X122535767Y-74973263D01*
X122532000Y-74992199D01*
X122532000Y-75866801D01*
X122535767Y-75885738D01*
X122545814Y-75900773D01*
X122545945Y-75902768D01*
X122544282Y-75903880D01*
X122543553Y-75903793D01*
X122483212Y-75884898D01*
X122418310Y-75903955D01*
X122416367Y-75903483D01*
X122415803Y-75901564D01*
X122416084Y-75900925D01*
X122426233Y-75885737D01*
X122430000Y-75866801D01*
X122430000Y-74992199D01*
X122426233Y-74973262D01*
X122416186Y-74958227D01*
X122416055Y-74956232D01*
X122417718Y-74955120D01*
X122418447Y-74955207D01*
X122478788Y-74974102D01*
X122543690Y-74955045D01*
X122545633Y-74955517D01*
G37*
G36*
X124145633Y-74955517D02*
G01*
X124146197Y-74957436D01*
X124145916Y-74958075D01*
X124135767Y-74973263D01*
X124132000Y-74992199D01*
X124132000Y-75866801D01*
X124135767Y-75885738D01*
X124145814Y-75900773D01*
X124145945Y-75902768D01*
X124144282Y-75903880D01*
X124143553Y-75903793D01*
X124083212Y-75884898D01*
X124018310Y-75903955D01*
X124016367Y-75903483D01*
X124015803Y-75901564D01*
X124016084Y-75900925D01*
X124026233Y-75885737D01*
X124030000Y-75866801D01*
X124030000Y-74992199D01*
X124026233Y-74973262D01*
X124016186Y-74958227D01*
X124016055Y-74956232D01*
X124017718Y-74955120D01*
X124018447Y-74955207D01*
X124078788Y-74974102D01*
X124143690Y-74955045D01*
X124145633Y-74955517D01*
G37*
G36*
X119745633Y-74955517D02*
G01*
X119746197Y-74957436D01*
X119745916Y-74958075D01*
X119735767Y-74973263D01*
X119732000Y-74992199D01*
X119732000Y-75866801D01*
X119735767Y-75885738D01*
X119745814Y-75900773D01*
X119745945Y-75902768D01*
X119744282Y-75903880D01*
X119743553Y-75903793D01*
X119683212Y-75884898D01*
X119618310Y-75903955D01*
X119616367Y-75903483D01*
X119615803Y-75901564D01*
X119616084Y-75900925D01*
X119626233Y-75885737D01*
X119630000Y-75866801D01*
X119630000Y-74992199D01*
X119626233Y-74973262D01*
X119616186Y-74958227D01*
X119616055Y-74956232D01*
X119617718Y-74955120D01*
X119618447Y-74955207D01*
X119678788Y-74974102D01*
X119743690Y-74955045D01*
X119745633Y-74955517D01*
G37*
G36*
X123345633Y-74955517D02*
G01*
X123346197Y-74957436D01*
X123345916Y-74958075D01*
X123335767Y-74973263D01*
X123332000Y-74992199D01*
X123332000Y-75866801D01*
X123335767Y-75885738D01*
X123345814Y-75900773D01*
X123345945Y-75902768D01*
X123344282Y-75903880D01*
X123343553Y-75903793D01*
X123283212Y-75884898D01*
X123218310Y-75903955D01*
X123216367Y-75903483D01*
X123215803Y-75901564D01*
X123216084Y-75900925D01*
X123226233Y-75885737D01*
X123230000Y-75866801D01*
X123230000Y-74992199D01*
X123226233Y-74973262D01*
X123216186Y-74958227D01*
X123216055Y-74956232D01*
X123217718Y-74955120D01*
X123218447Y-74955207D01*
X123278788Y-74974102D01*
X123343690Y-74955045D01*
X123345633Y-74955517D01*
G37*
G36*
X121345633Y-74955517D02*
G01*
X121346197Y-74957436D01*
X121345916Y-74958075D01*
X121335767Y-74973263D01*
X121332000Y-74992199D01*
X121332000Y-75866801D01*
X121335767Y-75885738D01*
X121345814Y-75900773D01*
X121345945Y-75902768D01*
X121344282Y-75903880D01*
X121343553Y-75903793D01*
X121283212Y-75884898D01*
X121218310Y-75903955D01*
X121216367Y-75903483D01*
X121215803Y-75901564D01*
X121216084Y-75900925D01*
X121226233Y-75885737D01*
X121230000Y-75866801D01*
X121230000Y-74992199D01*
X121226233Y-74973262D01*
X121216186Y-74958227D01*
X121216055Y-74956232D01*
X121217718Y-74955120D01*
X121218447Y-74955207D01*
X121278788Y-74974102D01*
X121343690Y-74955045D01*
X121345633Y-74955517D01*
G37*
G36*
X120145633Y-74955517D02*
G01*
X120146197Y-74957436D01*
X120145916Y-74958075D01*
X120135767Y-74973263D01*
X120132000Y-74992199D01*
X120132000Y-75866801D01*
X120135767Y-75885738D01*
X120145814Y-75900773D01*
X120145945Y-75902768D01*
X120144282Y-75903880D01*
X120143553Y-75903793D01*
X120083212Y-75884898D01*
X120018310Y-75903955D01*
X120016367Y-75903483D01*
X120015803Y-75901564D01*
X120016084Y-75900925D01*
X120026233Y-75885737D01*
X120030000Y-75866801D01*
X120030000Y-74992199D01*
X120026233Y-74973262D01*
X120016186Y-74958227D01*
X120016055Y-74956232D01*
X120017718Y-74955120D01*
X120018447Y-74955207D01*
X120078788Y-74974102D01*
X120143690Y-74955045D01*
X120145633Y-74955517D01*
G37*
G36*
X119345633Y-74955517D02*
G01*
X119346197Y-74957436D01*
X119345916Y-74958075D01*
X119335767Y-74973263D01*
X119332000Y-74992199D01*
X119332000Y-75866801D01*
X119335767Y-75885738D01*
X119345814Y-75900773D01*
X119345945Y-75902768D01*
X119344282Y-75903880D01*
X119343553Y-75903793D01*
X119283212Y-75884898D01*
X119218310Y-75903955D01*
X119216367Y-75903483D01*
X119215803Y-75901564D01*
X119216084Y-75900925D01*
X119226233Y-75885737D01*
X119230000Y-75866801D01*
X119230000Y-74992199D01*
X119226233Y-74973262D01*
X119216186Y-74958227D01*
X119216055Y-74956232D01*
X119217718Y-74955120D01*
X119218447Y-74955207D01*
X119278788Y-74974102D01*
X119343690Y-74955045D01*
X119345633Y-74955517D01*
G37*
G36*
X122945633Y-74955517D02*
G01*
X122946197Y-74957436D01*
X122945916Y-74958075D01*
X122935767Y-74973263D01*
X122932000Y-74992199D01*
X122932000Y-75866801D01*
X122935767Y-75885738D01*
X122945814Y-75900773D01*
X122945945Y-75902768D01*
X122944282Y-75903880D01*
X122943553Y-75903793D01*
X122883212Y-75884898D01*
X122818310Y-75903955D01*
X122816367Y-75903483D01*
X122815803Y-75901564D01*
X122816084Y-75900925D01*
X122826233Y-75885737D01*
X122830000Y-75866801D01*
X122830000Y-74992199D01*
X122826233Y-74973262D01*
X122816186Y-74958227D01*
X122816055Y-74956232D01*
X122817718Y-74955120D01*
X122818447Y-74955207D01*
X122878788Y-74974102D01*
X122943690Y-74955045D01*
X122945633Y-74955517D01*
G37*
G36*
X121745633Y-74955517D02*
G01*
X121746197Y-74957436D01*
X121745916Y-74958075D01*
X121735767Y-74973263D01*
X121732000Y-74992199D01*
X121732000Y-75866801D01*
X121735767Y-75885738D01*
X121745814Y-75900773D01*
X121745945Y-75902768D01*
X121744282Y-75903880D01*
X121743553Y-75903793D01*
X121683212Y-75884898D01*
X121618310Y-75903955D01*
X121616367Y-75903483D01*
X121615803Y-75901564D01*
X121616084Y-75900925D01*
X121626233Y-75885737D01*
X121630000Y-75866801D01*
X121630000Y-74992199D01*
X121626233Y-74973262D01*
X121616186Y-74958227D01*
X121616055Y-74956232D01*
X121617718Y-74955120D01*
X121618447Y-74955207D01*
X121678788Y-74974102D01*
X121743690Y-74955045D01*
X121745633Y-74955517D01*
G37*
G36*
X122145633Y-74955517D02*
G01*
X122146197Y-74957436D01*
X122145916Y-74958075D01*
X122135767Y-74973263D01*
X122132000Y-74992199D01*
X122132000Y-75866801D01*
X122135767Y-75885738D01*
X122145814Y-75900773D01*
X122145945Y-75902768D01*
X122144282Y-75903880D01*
X122143553Y-75903793D01*
X122083212Y-75884898D01*
X122018310Y-75903955D01*
X122016367Y-75903483D01*
X122015803Y-75901564D01*
X122016084Y-75900925D01*
X122026233Y-75885737D01*
X122030000Y-75866801D01*
X122030000Y-74992199D01*
X122026233Y-74973262D01*
X122016186Y-74958227D01*
X122016055Y-74956232D01*
X122017718Y-74955120D01*
X122018447Y-74955207D01*
X122078788Y-74974102D01*
X122143690Y-74955045D01*
X122145633Y-74955517D01*
G37*
G36*
X120945633Y-74955517D02*
G01*
X120946197Y-74957436D01*
X120945916Y-74958075D01*
X120935767Y-74973263D01*
X120932000Y-74992199D01*
X120932000Y-75866801D01*
X120935767Y-75885738D01*
X120945814Y-75900773D01*
X120945945Y-75902768D01*
X120944282Y-75903880D01*
X120943553Y-75903793D01*
X120883212Y-75884898D01*
X120818310Y-75903955D01*
X120816367Y-75903483D01*
X120815803Y-75901564D01*
X120816084Y-75900925D01*
X120826233Y-75885737D01*
X120830000Y-75866801D01*
X120830000Y-74992199D01*
X120826233Y-74973262D01*
X120816186Y-74958227D01*
X120816055Y-74956232D01*
X120817718Y-74955120D01*
X120818447Y-74955207D01*
X120878788Y-74974102D01*
X120943690Y-74955045D01*
X120945633Y-74955517D01*
G37*
G36*
X123745633Y-74955517D02*
G01*
X123746197Y-74957436D01*
X123745916Y-74958075D01*
X123735767Y-74973263D01*
X123732000Y-74992199D01*
X123732000Y-75866801D01*
X123735767Y-75885738D01*
X123745814Y-75900773D01*
X123745945Y-75902768D01*
X123744282Y-75903880D01*
X123743553Y-75903793D01*
X123683212Y-75884898D01*
X123618310Y-75903955D01*
X123616367Y-75903483D01*
X123615803Y-75901564D01*
X123616084Y-75900925D01*
X123626233Y-75885737D01*
X123630000Y-75866801D01*
X123630000Y-74992199D01*
X123626233Y-74973262D01*
X123616186Y-74958227D01*
X123616055Y-74956232D01*
X123617718Y-74955120D01*
X123618447Y-74955207D01*
X123678788Y-74974102D01*
X123743690Y-74955045D01*
X123745633Y-74955517D01*
G37*
G36*
X133465014Y-74333755D02*
G01*
X133465404Y-74335717D01*
X133464832Y-74336575D01*
X133421158Y-74375030D01*
X133402173Y-74441634D01*
X133422211Y-74507929D01*
X133475028Y-74552967D01*
X133509166Y-74562624D01*
X133523095Y-74564458D01*
X133523679Y-74564628D01*
X133531806Y-74568418D01*
X133532953Y-74570057D01*
X133532108Y-74571869D01*
X133530571Y-74572193D01*
X133474301Y-74561000D01*
X133179699Y-74561000D01*
X133109880Y-74574888D01*
X133107986Y-74574245D01*
X133107596Y-74572283D01*
X133108168Y-74571425D01*
X133151842Y-74532970D01*
X133170827Y-74466366D01*
X133150789Y-74400071D01*
X133097972Y-74355033D01*
X133063834Y-74345376D01*
X133049905Y-74343542D01*
X133049321Y-74343372D01*
X133041194Y-74339582D01*
X133040047Y-74337943D01*
X133040892Y-74336131D01*
X133042429Y-74335807D01*
X133098699Y-74347000D01*
X133393301Y-74347000D01*
X133463120Y-74333112D01*
X133465014Y-74333755D01*
G37*
G36*
X148374840Y-71176418D02*
G01*
X148374507Y-71177660D01*
X148365291Y-71191452D01*
X148367031Y-71192615D01*
X148367916Y-71194409D01*
X148367455Y-71195560D01*
X148352922Y-71212952D01*
X148344296Y-71281670D01*
X148367082Y-71329288D01*
X148366928Y-71331282D01*
X148366389Y-71331814D01*
X148365291Y-71332548D01*
X148374507Y-71346340D01*
X148374638Y-71348336D01*
X148372975Y-71349447D01*
X148371733Y-71349114D01*
X148360738Y-71341767D01*
X148341801Y-71338000D01*
X147793000Y-71338000D01*
X147791268Y-71337000D01*
X147791000Y-71336000D01*
X147791000Y-71188000D01*
X147792000Y-71186268D01*
X147793000Y-71186000D01*
X148341801Y-71186000D01*
X148360738Y-71182233D01*
X148371733Y-71174886D01*
X148373729Y-71174755D01*
X148374840Y-71176418D01*
G37*
G36*
X144212267Y-71174886D02*
G01*
X144223262Y-71182233D01*
X144242199Y-71186000D01*
X144941801Y-71186000D01*
X144960738Y-71182233D01*
X144971733Y-71174886D01*
X144973729Y-71174755D01*
X144974840Y-71176418D01*
X144974507Y-71177660D01*
X144965291Y-71191452D01*
X144967031Y-71192615D01*
X144967916Y-71194409D01*
X144967455Y-71195560D01*
X144952922Y-71212952D01*
X144944296Y-71281670D01*
X144967082Y-71329288D01*
X144966928Y-71331282D01*
X144966389Y-71331814D01*
X144965291Y-71332548D01*
X144974507Y-71346340D01*
X144974638Y-71348336D01*
X144972975Y-71349447D01*
X144971733Y-71349114D01*
X144960738Y-71341767D01*
X144941801Y-71338000D01*
X144242199Y-71338000D01*
X144223262Y-71341767D01*
X144212267Y-71349114D01*
X144210271Y-71349245D01*
X144209160Y-71347582D01*
X144209493Y-71346340D01*
X144218709Y-71332548D01*
X144216969Y-71331385D01*
X144216084Y-71329591D01*
X144216545Y-71328440D01*
X144231078Y-71311048D01*
X144239704Y-71242330D01*
X144216918Y-71194712D01*
X144217072Y-71192718D01*
X144217611Y-71192186D01*
X144218709Y-71191452D01*
X144209493Y-71177660D01*
X144209362Y-71175664D01*
X144211025Y-71174553D01*
X144212267Y-71174886D01*
G37*
G36*
X137100267Y-71174886D02*
G01*
X137111262Y-71182233D01*
X137130199Y-71186000D01*
X137829801Y-71186000D01*
X137848738Y-71182233D01*
X137859733Y-71174886D01*
X137861729Y-71174755D01*
X137862840Y-71176418D01*
X137862507Y-71177660D01*
X137853291Y-71191452D01*
X137855031Y-71192615D01*
X137855916Y-71194409D01*
X137855455Y-71195560D01*
X137840922Y-71212952D01*
X137832296Y-71281670D01*
X137855082Y-71329288D01*
X137854928Y-71331282D01*
X137854389Y-71331814D01*
X137853291Y-71332548D01*
X137862507Y-71346340D01*
X137862638Y-71348336D01*
X137860975Y-71349447D01*
X137859733Y-71349114D01*
X137848738Y-71341767D01*
X137829801Y-71338000D01*
X137130199Y-71338000D01*
X137111262Y-71341767D01*
X137100267Y-71349114D01*
X137098271Y-71349245D01*
X137097160Y-71347582D01*
X137097493Y-71346340D01*
X137106709Y-71332548D01*
X137104969Y-71331385D01*
X137104084Y-71329591D01*
X137104545Y-71328440D01*
X137119078Y-71311048D01*
X137127704Y-71242330D01*
X137104918Y-71194712D01*
X137105072Y-71192718D01*
X137105611Y-71192186D01*
X137106709Y-71191452D01*
X137097493Y-71177660D01*
X137097362Y-71175664D01*
X137099025Y-71174553D01*
X137100267Y-71174886D01*
G37*
G36*
X141262840Y-71176418D02*
G01*
X141262507Y-71177660D01*
X141253291Y-71191452D01*
X141255031Y-71192615D01*
X141255916Y-71194409D01*
X141255455Y-71195560D01*
X141240922Y-71212952D01*
X141232296Y-71281670D01*
X141255082Y-71329288D01*
X141254928Y-71331282D01*
X141254389Y-71331814D01*
X141253291Y-71332548D01*
X141262507Y-71346340D01*
X141262638Y-71348336D01*
X141260975Y-71349447D01*
X141259733Y-71349114D01*
X141248738Y-71341767D01*
X141229801Y-71338000D01*
X140681000Y-71338000D01*
X140679268Y-71337000D01*
X140679000Y-71336000D01*
X140679000Y-71188000D01*
X140680000Y-71186268D01*
X140681000Y-71186000D01*
X141229801Y-71186000D01*
X141248738Y-71182233D01*
X141259733Y-71174886D01*
X141261729Y-71174755D01*
X141262840Y-71176418D01*
G37*
G36*
X137100267Y-70524886D02*
G01*
X137111262Y-70532233D01*
X137130199Y-70536000D01*
X137829801Y-70536000D01*
X137848738Y-70532233D01*
X137859733Y-70524886D01*
X137861729Y-70524755D01*
X137862840Y-70526418D01*
X137862507Y-70527660D01*
X137853291Y-70541452D01*
X137855031Y-70542615D01*
X137855916Y-70544409D01*
X137855455Y-70545560D01*
X137840922Y-70562952D01*
X137832296Y-70631670D01*
X137855082Y-70679288D01*
X137854928Y-70681282D01*
X137854389Y-70681814D01*
X137853291Y-70682548D01*
X137862507Y-70696340D01*
X137862638Y-70698336D01*
X137860975Y-70699447D01*
X137859733Y-70699114D01*
X137848738Y-70691767D01*
X137829801Y-70688000D01*
X137130199Y-70688000D01*
X137111262Y-70691767D01*
X137100267Y-70699114D01*
X137098271Y-70699245D01*
X137097160Y-70697582D01*
X137097493Y-70696340D01*
X137106709Y-70682548D01*
X137104969Y-70681385D01*
X137104084Y-70679591D01*
X137104545Y-70678440D01*
X137119078Y-70661048D01*
X137127704Y-70592330D01*
X137104918Y-70544712D01*
X137105072Y-70542718D01*
X137105611Y-70542186D01*
X137106709Y-70541452D01*
X137097493Y-70527660D01*
X137097362Y-70525664D01*
X137099025Y-70524553D01*
X137100267Y-70524886D01*
G37*
G36*
X148374840Y-70526418D02*
G01*
X148374507Y-70527660D01*
X148365291Y-70541452D01*
X148367031Y-70542615D01*
X148367916Y-70544409D01*
X148367455Y-70545560D01*
X148352922Y-70562952D01*
X148344296Y-70631670D01*
X148367082Y-70679288D01*
X148366928Y-70681282D01*
X148366389Y-70681814D01*
X148365291Y-70682548D01*
X148374507Y-70696340D01*
X148374638Y-70698336D01*
X148372975Y-70699447D01*
X148371733Y-70699114D01*
X148360738Y-70691767D01*
X148341801Y-70688000D01*
X147793000Y-70688000D01*
X147791268Y-70687000D01*
X147791000Y-70686000D01*
X147791000Y-70538000D01*
X147792000Y-70536268D01*
X147793000Y-70536000D01*
X148341801Y-70536000D01*
X148360738Y-70532233D01*
X148371733Y-70524886D01*
X148373729Y-70524755D01*
X148374840Y-70526418D01*
G37*
G36*
X141262840Y-70526418D02*
G01*
X141262507Y-70527660D01*
X141253291Y-70541452D01*
X141255031Y-70542615D01*
X141255916Y-70544409D01*
X141255455Y-70545560D01*
X141240922Y-70562952D01*
X141232296Y-70631670D01*
X141255082Y-70679288D01*
X141254928Y-70681282D01*
X141254389Y-70681814D01*
X141253291Y-70682548D01*
X141262507Y-70696340D01*
X141262638Y-70698336D01*
X141260975Y-70699447D01*
X141259733Y-70699114D01*
X141248738Y-70691767D01*
X141229801Y-70688000D01*
X140681000Y-70688000D01*
X140679268Y-70687000D01*
X140679000Y-70686000D01*
X140679000Y-70538000D01*
X140680000Y-70536268D01*
X140681000Y-70536000D01*
X141229801Y-70536000D01*
X141248738Y-70532233D01*
X141259733Y-70524886D01*
X141261729Y-70524755D01*
X141262840Y-70526418D01*
G37*
G36*
X144212267Y-70524886D02*
G01*
X144223262Y-70532233D01*
X144242199Y-70536000D01*
X144941801Y-70536000D01*
X144960738Y-70532233D01*
X144971733Y-70524886D01*
X144973729Y-70524755D01*
X144974840Y-70526418D01*
X144974507Y-70527660D01*
X144965291Y-70541452D01*
X144967031Y-70542615D01*
X144967916Y-70544409D01*
X144967455Y-70545560D01*
X144952922Y-70562952D01*
X144944296Y-70631670D01*
X144967082Y-70679288D01*
X144966928Y-70681282D01*
X144966389Y-70681814D01*
X144965291Y-70682548D01*
X144974507Y-70696340D01*
X144974638Y-70698336D01*
X144972975Y-70699447D01*
X144971733Y-70699114D01*
X144960738Y-70691767D01*
X144941801Y-70688000D01*
X144242199Y-70688000D01*
X144223262Y-70691767D01*
X144212267Y-70699114D01*
X144210271Y-70699245D01*
X144209160Y-70697582D01*
X144209493Y-70696340D01*
X144218709Y-70682548D01*
X144216969Y-70681385D01*
X144216084Y-70679591D01*
X144216545Y-70678440D01*
X144231078Y-70661048D01*
X144239704Y-70592330D01*
X144216918Y-70544712D01*
X144217072Y-70542718D01*
X144217611Y-70542186D01*
X144218709Y-70541452D01*
X144209493Y-70527660D01*
X144209362Y-70525664D01*
X144211025Y-70524553D01*
X144212267Y-70524886D01*
G37*
G36*
X137100267Y-69874886D02*
G01*
X137111262Y-69882233D01*
X137130199Y-69886000D01*
X137829801Y-69886000D01*
X137848738Y-69882233D01*
X137859733Y-69874886D01*
X137861729Y-69874755D01*
X137862840Y-69876418D01*
X137862507Y-69877660D01*
X137853291Y-69891452D01*
X137855031Y-69892615D01*
X137855916Y-69894409D01*
X137855455Y-69895560D01*
X137840922Y-69912952D01*
X137832296Y-69981670D01*
X137855082Y-70029288D01*
X137854928Y-70031282D01*
X137854389Y-70031814D01*
X137853291Y-70032548D01*
X137862507Y-70046340D01*
X137862638Y-70048336D01*
X137860975Y-70049447D01*
X137859733Y-70049114D01*
X137848738Y-70041767D01*
X137829801Y-70038000D01*
X137130199Y-70038000D01*
X137111262Y-70041767D01*
X137100267Y-70049114D01*
X137098271Y-70049245D01*
X137097160Y-70047582D01*
X137097493Y-70046340D01*
X137106709Y-70032548D01*
X137104969Y-70031385D01*
X137104084Y-70029591D01*
X137104545Y-70028440D01*
X137119078Y-70011048D01*
X137127704Y-69942330D01*
X137104918Y-69894712D01*
X137105072Y-69892718D01*
X137105611Y-69892186D01*
X137106709Y-69891452D01*
X137097493Y-69877660D01*
X137097362Y-69875664D01*
X137099025Y-69874553D01*
X137100267Y-69874886D01*
G37*
G36*
X144212267Y-69874886D02*
G01*
X144223262Y-69882233D01*
X144242199Y-69886000D01*
X144941801Y-69886000D01*
X144960738Y-69882233D01*
X144971733Y-69874886D01*
X144973729Y-69874755D01*
X144974840Y-69876418D01*
X144974507Y-69877660D01*
X144965291Y-69891452D01*
X144967031Y-69892615D01*
X144967916Y-69894409D01*
X144967455Y-69895560D01*
X144952922Y-69912952D01*
X144944296Y-69981670D01*
X144967082Y-70029288D01*
X144966928Y-70031282D01*
X144966389Y-70031814D01*
X144965291Y-70032548D01*
X144974507Y-70046340D01*
X144974638Y-70048336D01*
X144972975Y-70049447D01*
X144971733Y-70049114D01*
X144960738Y-70041767D01*
X144941801Y-70038000D01*
X144242199Y-70038000D01*
X144223262Y-70041767D01*
X144212267Y-70049114D01*
X144210271Y-70049245D01*
X144209160Y-70047582D01*
X144209493Y-70046340D01*
X144218709Y-70032548D01*
X144216969Y-70031385D01*
X144216084Y-70029591D01*
X144216545Y-70028440D01*
X144231078Y-70011048D01*
X144239704Y-69942330D01*
X144216918Y-69894712D01*
X144217072Y-69892718D01*
X144217611Y-69892186D01*
X144218709Y-69891452D01*
X144209493Y-69877660D01*
X144209362Y-69875664D01*
X144211025Y-69874553D01*
X144212267Y-69874886D01*
G37*
G36*
X141262840Y-69876418D02*
G01*
X141262507Y-69877660D01*
X141253291Y-69891452D01*
X141255031Y-69892615D01*
X141255916Y-69894409D01*
X141255455Y-69895560D01*
X141240922Y-69912952D01*
X141232296Y-69981670D01*
X141255082Y-70029288D01*
X141254928Y-70031282D01*
X141254389Y-70031814D01*
X141253291Y-70032548D01*
X141262507Y-70046340D01*
X141262638Y-70048336D01*
X141260975Y-70049447D01*
X141259733Y-70049114D01*
X141248738Y-70041767D01*
X141229801Y-70038000D01*
X140681000Y-70038000D01*
X140679268Y-70037000D01*
X140679000Y-70036000D01*
X140679000Y-69888000D01*
X140680000Y-69886268D01*
X140681000Y-69886000D01*
X141229801Y-69886000D01*
X141248738Y-69882233D01*
X141259733Y-69874886D01*
X141261729Y-69874755D01*
X141262840Y-69876418D01*
G37*
G36*
X148374840Y-69876418D02*
G01*
X148374507Y-69877660D01*
X148365291Y-69891452D01*
X148367031Y-69892615D01*
X148367916Y-69894409D01*
X148367455Y-69895560D01*
X148352922Y-69912952D01*
X148344296Y-69981670D01*
X148367082Y-70029288D01*
X148366928Y-70031282D01*
X148366389Y-70031814D01*
X148365291Y-70032548D01*
X148374507Y-70046340D01*
X148374638Y-70048336D01*
X148372975Y-70049447D01*
X148371733Y-70049114D01*
X148360738Y-70041767D01*
X148341801Y-70038000D01*
X147793000Y-70038000D01*
X147791268Y-70037000D01*
X147791000Y-70036000D01*
X147791000Y-69888000D01*
X147792000Y-69886268D01*
X147793000Y-69886000D01*
X148341801Y-69886000D01*
X148360738Y-69882233D01*
X148371733Y-69874886D01*
X148373729Y-69874755D01*
X148374840Y-69876418D01*
G37*
G36*
X147743660Y-67877493D02*
G01*
X147757452Y-67886709D01*
X147758615Y-67884969D01*
X147760409Y-67884084D01*
X147761560Y-67884545D01*
X147778952Y-67899078D01*
X147847670Y-67907704D01*
X147895288Y-67884918D01*
X147897282Y-67885072D01*
X147897814Y-67885611D01*
X147898548Y-67886709D01*
X147912340Y-67877493D01*
X147914336Y-67877362D01*
X147915447Y-67879025D01*
X147915114Y-67880267D01*
X147907767Y-67891262D01*
X147904000Y-67910199D01*
X147904000Y-68609801D01*
X147907767Y-68628738D01*
X147915114Y-68639733D01*
X147915245Y-68641729D01*
X147913582Y-68642840D01*
X147912340Y-68642507D01*
X147898548Y-68633291D01*
X147897385Y-68635031D01*
X147895591Y-68635916D01*
X147894440Y-68635455D01*
X147877048Y-68620922D01*
X147808330Y-68612296D01*
X147760712Y-68635082D01*
X147758718Y-68634928D01*
X147758186Y-68634389D01*
X147757452Y-68633291D01*
X147743660Y-68642507D01*
X147741664Y-68642638D01*
X147740553Y-68640975D01*
X147740886Y-68639733D01*
X147748233Y-68628738D01*
X147752000Y-68609801D01*
X147752000Y-67910199D01*
X147748233Y-67891262D01*
X147740886Y-67880267D01*
X147740755Y-67878271D01*
X147742418Y-67877160D01*
X147743660Y-67877493D01*
G37*
G36*
X141154660Y-67877493D02*
G01*
X141168452Y-67886709D01*
X141169615Y-67884969D01*
X141171409Y-67884084D01*
X141172560Y-67884545D01*
X141189952Y-67899078D01*
X141258670Y-67907704D01*
X141306288Y-67884918D01*
X141308282Y-67885072D01*
X141308814Y-67885611D01*
X141309548Y-67886709D01*
X141323340Y-67877493D01*
X141325336Y-67877362D01*
X141326447Y-67879025D01*
X141326114Y-67880267D01*
X141318767Y-67891262D01*
X141315000Y-67910199D01*
X141315000Y-68609801D01*
X141318767Y-68628738D01*
X141326114Y-68639733D01*
X141326245Y-68641729D01*
X141324582Y-68642840D01*
X141323340Y-68642507D01*
X141309548Y-68633291D01*
X141308385Y-68635031D01*
X141306591Y-68635916D01*
X141305440Y-68635455D01*
X141288048Y-68620922D01*
X141219330Y-68612296D01*
X141171712Y-68635082D01*
X141169718Y-68634928D01*
X141169186Y-68634389D01*
X141168452Y-68633291D01*
X141154660Y-68642507D01*
X141152664Y-68642638D01*
X141151553Y-68640975D01*
X141151886Y-68639733D01*
X141159233Y-68628738D01*
X141163000Y-68609801D01*
X141163000Y-67910199D01*
X141159233Y-67891262D01*
X141151886Y-67880267D01*
X141151755Y-67878271D01*
X141153418Y-67877160D01*
X141154660Y-67877493D01*
G37*
G36*
X139854660Y-67877493D02*
G01*
X139868452Y-67886709D01*
X139869615Y-67884969D01*
X139871409Y-67884084D01*
X139872560Y-67884545D01*
X139889952Y-67899078D01*
X139958670Y-67907704D01*
X140006288Y-67884918D01*
X140008282Y-67885072D01*
X140008814Y-67885611D01*
X140009548Y-67886709D01*
X140023340Y-67877493D01*
X140025336Y-67877362D01*
X140026447Y-67879025D01*
X140026114Y-67880267D01*
X140018767Y-67891262D01*
X140015000Y-67910199D01*
X140015000Y-68609801D01*
X140018767Y-68628738D01*
X140026114Y-68639733D01*
X140026245Y-68641729D01*
X140024582Y-68642840D01*
X140023340Y-68642507D01*
X140009548Y-68633291D01*
X140008385Y-68635031D01*
X140006591Y-68635916D01*
X140005440Y-68635455D01*
X139988048Y-68620922D01*
X139919330Y-68612296D01*
X139871712Y-68635082D01*
X139869718Y-68634928D01*
X139869186Y-68634389D01*
X139868452Y-68633291D01*
X139854660Y-68642507D01*
X139852664Y-68642638D01*
X139851553Y-68640975D01*
X139851886Y-68639733D01*
X139859233Y-68628738D01*
X139863000Y-68609801D01*
X139863000Y-67910199D01*
X139859233Y-67891262D01*
X139851886Y-67880267D01*
X139851755Y-67878271D01*
X139853418Y-67877160D01*
X139854660Y-67877493D01*
G37*
G36*
X148393660Y-67877493D02*
G01*
X148407452Y-67886709D01*
X148408615Y-67884969D01*
X148410409Y-67884084D01*
X148411560Y-67884545D01*
X148428952Y-67899078D01*
X148497670Y-67907704D01*
X148545288Y-67884918D01*
X148547282Y-67885072D01*
X148547814Y-67885611D01*
X148548548Y-67886709D01*
X148562340Y-67877493D01*
X148564336Y-67877362D01*
X148565447Y-67879025D01*
X148565114Y-67880267D01*
X148557767Y-67891262D01*
X148554000Y-67910199D01*
X148554000Y-68609801D01*
X148557767Y-68628738D01*
X148565114Y-68639733D01*
X148565245Y-68641729D01*
X148563582Y-68642840D01*
X148562340Y-68642507D01*
X148548548Y-68633291D01*
X148547385Y-68635031D01*
X148545591Y-68635916D01*
X148544440Y-68635455D01*
X148527048Y-68620922D01*
X148458330Y-68612296D01*
X148410712Y-68635082D01*
X148408718Y-68634928D01*
X148408186Y-68634389D01*
X148407452Y-68633291D01*
X148393660Y-68642507D01*
X148391664Y-68642638D01*
X148390553Y-68640975D01*
X148390886Y-68639733D01*
X148398233Y-68628738D01*
X148402000Y-68609801D01*
X148402000Y-67910199D01*
X148398233Y-67891262D01*
X148390886Y-67880267D01*
X148390755Y-67878271D01*
X148392418Y-67877160D01*
X148393660Y-67877493D01*
G37*
G36*
X140504660Y-67877493D02*
G01*
X140518452Y-67886709D01*
X140519615Y-67884969D01*
X140521409Y-67884084D01*
X140522560Y-67884545D01*
X140539952Y-67899078D01*
X140608670Y-67907704D01*
X140656288Y-67884918D01*
X140658282Y-67885072D01*
X140658814Y-67885611D01*
X140659548Y-67886709D01*
X140673340Y-67877493D01*
X140675336Y-67877362D01*
X140676447Y-67879025D01*
X140676114Y-67880267D01*
X140668767Y-67891262D01*
X140665000Y-67910199D01*
X140665000Y-68609801D01*
X140668767Y-68628738D01*
X140676114Y-68639733D01*
X140676245Y-68641729D01*
X140674582Y-68642840D01*
X140673340Y-68642507D01*
X140659548Y-68633291D01*
X140658385Y-68635031D01*
X140656591Y-68635916D01*
X140655440Y-68635455D01*
X140638048Y-68620922D01*
X140569330Y-68612296D01*
X140521712Y-68635082D01*
X140519718Y-68634928D01*
X140519186Y-68634389D01*
X140518452Y-68633291D01*
X140504660Y-68642507D01*
X140502664Y-68642638D01*
X140501553Y-68640975D01*
X140501886Y-68639733D01*
X140509233Y-68628738D01*
X140513000Y-68609801D01*
X140513000Y-67910199D01*
X140509233Y-67891262D01*
X140501886Y-67880267D01*
X140501755Y-67878271D01*
X140503418Y-67877160D01*
X140504660Y-67877493D01*
G37*
G36*
X147093660Y-67877493D02*
G01*
X147107452Y-67886709D01*
X147108615Y-67884969D01*
X147110409Y-67884084D01*
X147111560Y-67884545D01*
X147128952Y-67899078D01*
X147197670Y-67907704D01*
X147245288Y-67884918D01*
X147247282Y-67885072D01*
X147247814Y-67885611D01*
X147248548Y-67886709D01*
X147262340Y-67877493D01*
X147264336Y-67877362D01*
X147265447Y-67879025D01*
X147265114Y-67880267D01*
X147257767Y-67891262D01*
X147254000Y-67910199D01*
X147254000Y-68609801D01*
X147257767Y-68628738D01*
X147265114Y-68639733D01*
X147265245Y-68641729D01*
X147263582Y-68642840D01*
X147262340Y-68642507D01*
X147248548Y-68633291D01*
X147247385Y-68635031D01*
X147245591Y-68635916D01*
X147244440Y-68635455D01*
X147227048Y-68620922D01*
X147158330Y-68612296D01*
X147110712Y-68635082D01*
X147108718Y-68634928D01*
X147108186Y-68634389D01*
X147107452Y-68633291D01*
X147093660Y-68642507D01*
X147091664Y-68642638D01*
X147090553Y-68640975D01*
X147090886Y-68639733D01*
X147098233Y-68628738D01*
X147102000Y-68609801D01*
X147102000Y-67910199D01*
X147098233Y-67891262D01*
X147090886Y-67880267D01*
X147090755Y-67878271D01*
X147092418Y-67877160D01*
X147093660Y-67877493D01*
G37*
G36*
X139854660Y-64477493D02*
G01*
X139868452Y-64486709D01*
X139869615Y-64484969D01*
X139871409Y-64484084D01*
X139872560Y-64484545D01*
X139889952Y-64499078D01*
X139958670Y-64507704D01*
X140006288Y-64484918D01*
X140008282Y-64485072D01*
X140008814Y-64485611D01*
X140009548Y-64486709D01*
X140023340Y-64477493D01*
X140025336Y-64477362D01*
X140026447Y-64479025D01*
X140026114Y-64480267D01*
X140018767Y-64491262D01*
X140015000Y-64510199D01*
X140015000Y-65059000D01*
X140014000Y-65060732D01*
X140013000Y-65061000D01*
X139865000Y-65061000D01*
X139863268Y-65060000D01*
X139863000Y-65059000D01*
X139863000Y-64510199D01*
X139859233Y-64491262D01*
X139851886Y-64480267D01*
X139851755Y-64478271D01*
X139853418Y-64477160D01*
X139854660Y-64477493D01*
G37*
G36*
X147743660Y-64477493D02*
G01*
X147757452Y-64486709D01*
X147758615Y-64484969D01*
X147760409Y-64484084D01*
X147761560Y-64484545D01*
X147778952Y-64499078D01*
X147847670Y-64507704D01*
X147895288Y-64484918D01*
X147897282Y-64485072D01*
X147897814Y-64485611D01*
X147898548Y-64486709D01*
X147912340Y-64477493D01*
X147914336Y-64477362D01*
X147915447Y-64479025D01*
X147915114Y-64480267D01*
X147907767Y-64491262D01*
X147904000Y-64510199D01*
X147904000Y-65059000D01*
X147903000Y-65060732D01*
X147902000Y-65061000D01*
X147754000Y-65061000D01*
X147752268Y-65060000D01*
X147752000Y-65059000D01*
X147752000Y-64510199D01*
X147748233Y-64491262D01*
X147740886Y-64480267D01*
X147740755Y-64478271D01*
X147742418Y-64477160D01*
X147743660Y-64477493D01*
G37*
G36*
X141154660Y-64477493D02*
G01*
X141168452Y-64486709D01*
X141169615Y-64484969D01*
X141171409Y-64484084D01*
X141172560Y-64484545D01*
X141189952Y-64499078D01*
X141258670Y-64507704D01*
X141306288Y-64484918D01*
X141308282Y-64485072D01*
X141308814Y-64485611D01*
X141309548Y-64486709D01*
X141323340Y-64477493D01*
X141325336Y-64477362D01*
X141326447Y-64479025D01*
X141326114Y-64480267D01*
X141318767Y-64491262D01*
X141315000Y-64510199D01*
X141315000Y-65059000D01*
X141314000Y-65060732D01*
X141313000Y-65061000D01*
X141165000Y-65061000D01*
X141163268Y-65060000D01*
X141163000Y-65059000D01*
X141163000Y-64510199D01*
X141159233Y-64491262D01*
X141151886Y-64480267D01*
X141151755Y-64478271D01*
X141153418Y-64477160D01*
X141154660Y-64477493D01*
G37*
G36*
X140504660Y-64477493D02*
G01*
X140518452Y-64486709D01*
X140519615Y-64484969D01*
X140521409Y-64484084D01*
X140522560Y-64484545D01*
X140539952Y-64499078D01*
X140608670Y-64507704D01*
X140656288Y-64484918D01*
X140658282Y-64485072D01*
X140658814Y-64485611D01*
X140659548Y-64486709D01*
X140673340Y-64477493D01*
X140675336Y-64477362D01*
X140676447Y-64479025D01*
X140676114Y-64480267D01*
X140668767Y-64491262D01*
X140665000Y-64510199D01*
X140665000Y-65059000D01*
X140664000Y-65060732D01*
X140663000Y-65061000D01*
X140515000Y-65061000D01*
X140513268Y-65060000D01*
X140513000Y-65059000D01*
X140513000Y-64510199D01*
X140509233Y-64491262D01*
X140501886Y-64480267D01*
X140501755Y-64478271D01*
X140503418Y-64477160D01*
X140504660Y-64477493D01*
G37*
G36*
X147093660Y-64477493D02*
G01*
X147107452Y-64486709D01*
X147108615Y-64484969D01*
X147110409Y-64484084D01*
X147111560Y-64484545D01*
X147128952Y-64499078D01*
X147197670Y-64507704D01*
X147245288Y-64484918D01*
X147247282Y-64485072D01*
X147247814Y-64485611D01*
X147248548Y-64486709D01*
X147262340Y-64477493D01*
X147264336Y-64477362D01*
X147265447Y-64479025D01*
X147265114Y-64480267D01*
X147257767Y-64491262D01*
X147254000Y-64510199D01*
X147254000Y-65059000D01*
X147253000Y-65060732D01*
X147252000Y-65061000D01*
X147104000Y-65061000D01*
X147102268Y-65060000D01*
X147102000Y-65059000D01*
X147102000Y-64510199D01*
X147098233Y-64491262D01*
X147090886Y-64480267D01*
X147090755Y-64478271D01*
X147092418Y-64477160D01*
X147093660Y-64477493D01*
G37*
G36*
X148393660Y-64477493D02*
G01*
X148407452Y-64486709D01*
X148408615Y-64484969D01*
X148410409Y-64484084D01*
X148411560Y-64484545D01*
X148428952Y-64499078D01*
X148497670Y-64507704D01*
X148545288Y-64484918D01*
X148547282Y-64485072D01*
X148547814Y-64485611D01*
X148548548Y-64486709D01*
X148562340Y-64477493D01*
X148564336Y-64477362D01*
X148565447Y-64479025D01*
X148565114Y-64480267D01*
X148557767Y-64491262D01*
X148554000Y-64510199D01*
X148554000Y-65059000D01*
X148553000Y-65060732D01*
X148552000Y-65061000D01*
X148404000Y-65061000D01*
X148402268Y-65060000D01*
X148402000Y-65059000D01*
X148402000Y-64510199D01*
X148398233Y-64491262D01*
X148390886Y-64480267D01*
X148390755Y-64478271D01*
X148392418Y-64477160D01*
X148393660Y-64477493D01*
G37*
G36*
X134943075Y-63677084D02*
G01*
X134958263Y-63687233D01*
X134977199Y-63691000D01*
X136376801Y-63691000D01*
X136395738Y-63687233D01*
X136410773Y-63677186D01*
X136412768Y-63677055D01*
X136413880Y-63678718D01*
X136413793Y-63679447D01*
X136394898Y-63739788D01*
X136413955Y-63804690D01*
X136413483Y-63806633D01*
X136411564Y-63807197D01*
X136410925Y-63806916D01*
X136395737Y-63796767D01*
X136376801Y-63793000D01*
X134977199Y-63793000D01*
X134958262Y-63796767D01*
X134943227Y-63806814D01*
X134941232Y-63806945D01*
X134940120Y-63805282D01*
X134940207Y-63804553D01*
X134959102Y-63744212D01*
X134940045Y-63679310D01*
X134940517Y-63677367D01*
X134942436Y-63676803D01*
X134943075Y-63677084D01*
G37*
G36*
X130543075Y-63677084D02*
G01*
X130558263Y-63687233D01*
X130577199Y-63691000D01*
X131976801Y-63691000D01*
X131995738Y-63687233D01*
X132010773Y-63677186D01*
X132012768Y-63677055D01*
X132013880Y-63678718D01*
X132013793Y-63679447D01*
X131994898Y-63739788D01*
X132013955Y-63804690D01*
X132013483Y-63806633D01*
X132011564Y-63807197D01*
X132010925Y-63806916D01*
X131995737Y-63796767D01*
X131976801Y-63793000D01*
X130577199Y-63793000D01*
X130558262Y-63796767D01*
X130543227Y-63806814D01*
X130541232Y-63806945D01*
X130540120Y-63805282D01*
X130540207Y-63804553D01*
X130559102Y-63744212D01*
X130540045Y-63679310D01*
X130540517Y-63677367D01*
X130542436Y-63676803D01*
X130543075Y-63677084D01*
G37*
G36*
X130543075Y-63177084D02*
G01*
X130558263Y-63187233D01*
X130577199Y-63191000D01*
X131976801Y-63191000D01*
X131995738Y-63187233D01*
X132010773Y-63177186D01*
X132012768Y-63177055D01*
X132013880Y-63178718D01*
X132013793Y-63179447D01*
X131994898Y-63239788D01*
X132013955Y-63304690D01*
X132013483Y-63306633D01*
X132011564Y-63307197D01*
X132010925Y-63306916D01*
X131995737Y-63296767D01*
X131976801Y-63293000D01*
X130577199Y-63293000D01*
X130558262Y-63296767D01*
X130543227Y-63306814D01*
X130541232Y-63306945D01*
X130540120Y-63305282D01*
X130540207Y-63304553D01*
X130559102Y-63244212D01*
X130540045Y-63179310D01*
X130540517Y-63177367D01*
X130542436Y-63176803D01*
X130543075Y-63177084D01*
G37*
G36*
X134943075Y-63177084D02*
G01*
X134958263Y-63187233D01*
X134977199Y-63191000D01*
X136376801Y-63191000D01*
X136395738Y-63187233D01*
X136410773Y-63177186D01*
X136412768Y-63177055D01*
X136413880Y-63178718D01*
X136413793Y-63179447D01*
X136394898Y-63239788D01*
X136413955Y-63304690D01*
X136413483Y-63306633D01*
X136411564Y-63307197D01*
X136410925Y-63306916D01*
X136395737Y-63296767D01*
X136376801Y-63293000D01*
X134977199Y-63293000D01*
X134958262Y-63296767D01*
X134943227Y-63306814D01*
X134941232Y-63306945D01*
X134940120Y-63305282D01*
X134940207Y-63304553D01*
X134959102Y-63244212D01*
X134940045Y-63179310D01*
X134940517Y-63177367D01*
X134942436Y-63176803D01*
X134943075Y-63177084D01*
G37*
G36*
X130543075Y-62677084D02*
G01*
X130558263Y-62687233D01*
X130577199Y-62691000D01*
X131976801Y-62691000D01*
X131995738Y-62687233D01*
X132010773Y-62677186D01*
X132012768Y-62677055D01*
X132013880Y-62678718D01*
X132013793Y-62679447D01*
X131994898Y-62739788D01*
X132013955Y-62804690D01*
X132013483Y-62806633D01*
X132011564Y-62807197D01*
X132010925Y-62806916D01*
X131995737Y-62796767D01*
X131976801Y-62793000D01*
X130577199Y-62793000D01*
X130558262Y-62796767D01*
X130543227Y-62806814D01*
X130541232Y-62806945D01*
X130540120Y-62805282D01*
X130540207Y-62804553D01*
X130559102Y-62744212D01*
X130540045Y-62679310D01*
X130540517Y-62677367D01*
X130542436Y-62676803D01*
X130543075Y-62677084D01*
G37*
G36*
X134943075Y-62677084D02*
G01*
X134958263Y-62687233D01*
X134977199Y-62691000D01*
X136376801Y-62691000D01*
X136395738Y-62687233D01*
X136410773Y-62677186D01*
X136412768Y-62677055D01*
X136413880Y-62678718D01*
X136413793Y-62679447D01*
X136394898Y-62739788D01*
X136413955Y-62804690D01*
X136413483Y-62806633D01*
X136411564Y-62807197D01*
X136410925Y-62806916D01*
X136395737Y-62796767D01*
X136376801Y-62793000D01*
X134977199Y-62793000D01*
X134958262Y-62796767D01*
X134943227Y-62806814D01*
X134941232Y-62806945D01*
X134940120Y-62805282D01*
X134940207Y-62804553D01*
X134959102Y-62744212D01*
X134940045Y-62679310D01*
X134940517Y-62677367D01*
X134942436Y-62676803D01*
X134943075Y-62677084D01*
G37*
G36*
X134943075Y-62177084D02*
G01*
X134958263Y-62187233D01*
X134977199Y-62191000D01*
X136376801Y-62191000D01*
X136395738Y-62187233D01*
X136410773Y-62177186D01*
X136412768Y-62177055D01*
X136413880Y-62178718D01*
X136413793Y-62179447D01*
X136394898Y-62239788D01*
X136413955Y-62304690D01*
X136413483Y-62306633D01*
X136411564Y-62307197D01*
X136410925Y-62306916D01*
X136395737Y-62296767D01*
X136376801Y-62293000D01*
X134977199Y-62293000D01*
X134958262Y-62296767D01*
X134943227Y-62306814D01*
X134941232Y-62306945D01*
X134940120Y-62305282D01*
X134940207Y-62304553D01*
X134959102Y-62244212D01*
X134940045Y-62179310D01*
X134940517Y-62177367D01*
X134942436Y-62176803D01*
X134943075Y-62177084D01*
G37*
G36*
X130543075Y-62177084D02*
G01*
X130558263Y-62187233D01*
X130577199Y-62191000D01*
X131976801Y-62191000D01*
X131995738Y-62187233D01*
X132010773Y-62177186D01*
X132012768Y-62177055D01*
X132013880Y-62178718D01*
X132013793Y-62179447D01*
X131994898Y-62239788D01*
X132013955Y-62304690D01*
X132013483Y-62306633D01*
X132011564Y-62307197D01*
X132010925Y-62306916D01*
X131995737Y-62296767D01*
X131976801Y-62293000D01*
X130577199Y-62293000D01*
X130558262Y-62296767D01*
X130543227Y-62306814D01*
X130541232Y-62306945D01*
X130540120Y-62305282D01*
X130540207Y-62304553D01*
X130559102Y-62244212D01*
X130540045Y-62179310D01*
X130540517Y-62177367D01*
X130542436Y-62176803D01*
X130543075Y-62177084D01*
G37*
M02*
