G04 #@! TF.GenerationSoftware,KiCad,Pcbnew,(6.0.6)*
G04 #@! TF.CreationDate,2022-09-05T23:03:05+09:00*
G04 #@! TF.ProjectId,RP_MD,52505f4d-442e-46b6-9963-61645f706362,rev?*
G04 #@! TF.SameCoordinates,Original*
G04 #@! TF.FileFunction,Paste,Top*
G04 #@! TF.FilePolarity,Positive*
%FSLAX46Y46*%
G04 Gerber Fmt 4.6, Leading zero omitted, Abs format (unit mm)*
G04 Created by KiCad (PCBNEW (6.0.6)) date 2022-09-05 23:03:05*
%MOMM*%
%LPD*%
G01*
G04 APERTURE LIST*
G04 Aperture macros list*
%AMRoundRect*
0 Rectangle with rounded corners*
0 $1 Rounding radius*
0 $2 $3 $4 $5 $6 $7 $8 $9 X,Y pos of 4 corners*
0 Add a 4 corners polygon primitive as box body*
4,1,4,$2,$3,$4,$5,$6,$7,$8,$9,$2,$3,0*
0 Add four circle primitives for the rounded corners*
1,1,$1+$1,$2,$3*
1,1,$1+$1,$4,$5*
1,1,$1+$1,$6,$7*
1,1,$1+$1,$8,$9*
0 Add four rect primitives between the rounded corners*
20,1,$1+$1,$2,$3,$4,$5,0*
20,1,$1+$1,$4,$5,$6,$7,0*
20,1,$1+$1,$6,$7,$8,$9,0*
20,1,$1+$1,$8,$9,$2,$3,0*%
G04 Aperture macros list end*
%ADD10RoundRect,0.147500X-0.172500X0.147500X-0.172500X-0.147500X0.172500X-0.147500X0.172500X0.147500X0*%
%ADD11RoundRect,0.147500X-0.147500X-0.172500X0.147500X-0.172500X0.147500X0.172500X-0.147500X0.172500X0*%
%ADD12RoundRect,0.147500X0.172500X-0.147500X0.172500X0.147500X-0.172500X0.147500X-0.172500X-0.147500X0*%
%ADD13RoundRect,0.147500X0.147500X0.172500X-0.147500X0.172500X-0.147500X-0.172500X0.147500X-0.172500X0*%
%ADD14R,1.400000X0.300000*%
%ADD15RoundRect,0.250000X0.425000X1.425000X-0.425000X1.425000X-0.425000X-1.425000X0.425000X-1.425000X0*%
%ADD16R,0.875000X0.200000*%
%ADD17R,0.200000X0.875000*%
%ADD18R,3.200000X3.200000*%
%ADD19RoundRect,0.237500X0.237500X-0.287500X0.237500X0.287500X-0.237500X0.287500X-0.237500X-0.287500X0*%
%ADD20R,0.650000X1.050000*%
%ADD21R,1.800000X2.400000*%
%ADD22RoundRect,0.150000X-0.825000X-0.150000X0.825000X-0.150000X0.825000X0.150000X-0.825000X0.150000X0*%
%ADD23RoundRect,0.250000X-1.750000X-1.000000X1.750000X-1.000000X1.750000X1.000000X-1.750000X1.000000X0*%
%ADD24RoundRect,0.150000X-0.150000X0.675000X-0.150000X-0.675000X0.150000X-0.675000X0.150000X0.675000X0*%
%ADD25R,0.400000X0.700000*%
%ADD26R,0.400000X0.600000*%
%ADD27R,2.650000X2.100000*%
%ADD28R,0.700000X0.400000*%
%ADD29R,0.600000X0.400000*%
%ADD30R,2.100000X2.650000*%
G04 APERTURE END LIST*
D10*
X117094000Y-73937000D03*
X117094000Y-74907000D03*
D11*
X114973000Y-80264000D03*
X115943000Y-80264000D03*
D12*
X121808000Y-71859000D03*
X121808000Y-70889000D03*
X123808000Y-65771000D03*
X123808000Y-64801000D03*
X120792000Y-71859000D03*
X120792000Y-70889000D03*
X124824000Y-65771000D03*
X124824000Y-64801000D03*
D10*
X122936000Y-85367000D03*
X122936000Y-86337000D03*
X125110000Y-70889000D03*
X125110000Y-71859000D03*
X126126000Y-70889000D03*
X126126000Y-71859000D03*
X117490000Y-87145000D03*
X117490000Y-88115000D03*
X125110000Y-87145000D03*
X125110000Y-88115000D03*
X137287000Y-62507000D03*
X137287000Y-63477000D03*
X137668000Y-79017000D03*
X137668000Y-79987000D03*
D11*
X133579000Y-77010000D03*
X134549000Y-77010000D03*
D10*
X127396000Y-72921000D03*
X127396000Y-73891000D03*
D12*
X138176000Y-66017000D03*
X138176000Y-65047000D03*
D13*
X136629000Y-68199000D03*
X135659000Y-68199000D03*
D12*
X129794000Y-61699000D03*
X129794000Y-60729000D03*
D13*
X115911000Y-63254000D03*
X114941000Y-63254000D03*
D11*
X117227000Y-63254000D03*
X118197000Y-63254000D03*
D12*
X121808000Y-87099000D03*
X121808000Y-86129000D03*
X138176000Y-82527000D03*
X138176000Y-81557000D03*
D13*
X136629000Y-84455000D03*
X135659000Y-84455000D03*
D11*
X131341000Y-76962000D03*
X132311000Y-76962000D03*
D14*
X135804000Y-80502000D03*
X135804000Y-80002000D03*
X135804000Y-79502000D03*
X135804000Y-79002000D03*
X135804000Y-78502000D03*
X131404000Y-78502000D03*
X131404000Y-79002000D03*
X131404000Y-79502000D03*
X131404000Y-80002000D03*
X131404000Y-80502000D03*
D15*
X147680000Y-92075000D03*
X141880000Y-92075000D03*
D16*
X118293500Y-76267000D03*
X118293500Y-76667000D03*
X118293500Y-77067000D03*
X118293500Y-77467000D03*
X118293500Y-77867000D03*
X118293500Y-78267000D03*
X118293500Y-78667000D03*
X118293500Y-79067000D03*
X118293500Y-79467000D03*
X118293500Y-79867000D03*
X118293500Y-80267000D03*
X118293500Y-80667000D03*
X118293500Y-81067000D03*
X118293500Y-81467000D03*
D17*
X119081000Y-82304500D03*
X119481000Y-82304500D03*
X119881000Y-82304500D03*
X120281000Y-82304500D03*
X120681000Y-82304500D03*
X121081000Y-82304500D03*
X121481000Y-82304500D03*
X121881000Y-82304500D03*
X122281000Y-82304500D03*
X122681000Y-82304500D03*
X123081000Y-82304500D03*
X123481000Y-82304500D03*
X123881000Y-82304500D03*
X124281000Y-82304500D03*
D16*
X125168500Y-81467000D03*
X125168500Y-81067000D03*
X125168500Y-80667000D03*
X125168500Y-80267000D03*
X125168500Y-79867000D03*
X125168500Y-79467000D03*
X125168500Y-79067000D03*
X125168500Y-78667000D03*
X125168500Y-78267000D03*
X125168500Y-77867000D03*
X125168500Y-77467000D03*
X125168500Y-77067000D03*
X125168500Y-76667000D03*
X125168500Y-76267000D03*
D17*
X124281000Y-75429500D03*
X123881000Y-75429500D03*
X123481000Y-75429500D03*
X123081000Y-75429500D03*
X122681000Y-75429500D03*
X122281000Y-75429500D03*
X121881000Y-75429500D03*
X121481000Y-75429500D03*
X121081000Y-75429500D03*
X120681000Y-75429500D03*
X120281000Y-75429500D03*
X119881000Y-75429500D03*
X119481000Y-75429500D03*
X119081000Y-75429500D03*
D18*
X121681000Y-78867000D03*
D10*
X123078000Y-70889000D03*
X123078000Y-71859000D03*
D12*
X124094000Y-71859000D03*
X124094000Y-70889000D03*
D19*
X116840000Y-99165000D03*
X116840000Y-97415000D03*
D12*
X116840000Y-95481000D03*
X116840000Y-94511000D03*
D20*
X120725000Y-99405000D03*
X120725000Y-95255000D03*
X118575000Y-95255000D03*
X118575000Y-99405000D03*
X124535000Y-99405000D03*
X124535000Y-95255000D03*
X122385000Y-95255000D03*
X122385000Y-99405000D03*
X126179000Y-99405000D03*
X126179000Y-95255000D03*
X128329000Y-95255000D03*
X128329000Y-99405000D03*
D21*
X119200000Y-89408000D03*
X123400000Y-89408000D03*
D15*
X147680000Y-75565000D03*
X141880000Y-75565000D03*
D22*
X116507000Y-64905000D03*
X116507000Y-66175000D03*
X116507000Y-67445000D03*
X116507000Y-68715000D03*
X121457000Y-68715000D03*
X121457000Y-67445000D03*
X121457000Y-66175000D03*
X121457000Y-64905000D03*
D11*
X133246000Y-73978000D03*
X134216000Y-73978000D03*
X132357000Y-74930000D03*
X133327000Y-74930000D03*
D10*
X126380000Y-73175000D03*
X126380000Y-74145000D03*
X128524000Y-78763000D03*
X128524000Y-79733000D03*
D20*
X110177000Y-59479000D03*
X110177000Y-55329000D03*
X112327000Y-59479000D03*
X112327000Y-55329000D03*
D23*
X153720000Y-60830000D03*
X161720000Y-60830000D03*
D11*
X134389000Y-60452000D03*
X135359000Y-60452000D03*
D14*
X135677000Y-63992000D03*
X135677000Y-63492000D03*
X135677000Y-62992000D03*
X135677000Y-62492000D03*
X135677000Y-61992000D03*
X131277000Y-61992000D03*
X131277000Y-62492000D03*
X131277000Y-62992000D03*
X131277000Y-63492000D03*
X131277000Y-63992000D03*
D12*
X115316000Y-95481000D03*
X115316000Y-94511000D03*
D10*
X123952000Y-85367000D03*
X123952000Y-86337000D03*
D19*
X114808000Y-99173000D03*
X114808000Y-97423000D03*
X141478000Y-99173000D03*
X141478000Y-97423000D03*
D24*
X130683000Y-84497000D03*
X129413000Y-84497000D03*
X128143000Y-84497000D03*
X126873000Y-84497000D03*
X126873000Y-89747000D03*
X128143000Y-89747000D03*
X129413000Y-89747000D03*
X130683000Y-89747000D03*
D25*
X146853000Y-68260000D03*
X148153000Y-68260000D03*
X147503000Y-68260000D03*
X148803000Y-68260000D03*
D26*
X148803000Y-64810000D03*
D27*
X147828000Y-66160000D03*
D26*
X148153000Y-64810000D03*
X147503000Y-64810000D03*
X146853000Y-64810000D03*
D28*
X137480000Y-86670000D03*
X137480000Y-86020000D03*
X137480000Y-87320000D03*
X137480000Y-87970000D03*
D29*
X140930000Y-86670000D03*
X140930000Y-87320000D03*
X140930000Y-86020000D03*
X140930000Y-87970000D03*
D30*
X139580000Y-86995000D03*
D25*
X146853000Y-84516000D03*
X147503000Y-84516000D03*
X148153000Y-84516000D03*
X148803000Y-84516000D03*
D27*
X147828000Y-82416000D03*
D26*
X148153000Y-81066000D03*
X147503000Y-81066000D03*
X146853000Y-81066000D03*
X148803000Y-81066000D03*
D28*
X144592000Y-86020000D03*
X144592000Y-86670000D03*
X144592000Y-87320000D03*
X144592000Y-87970000D03*
D30*
X146692000Y-86995000D03*
D29*
X148042000Y-86670000D03*
X148042000Y-87970000D03*
X148042000Y-87320000D03*
X148042000Y-86020000D03*
D28*
X137480000Y-69637000D03*
X137480000Y-70937000D03*
X137480000Y-70287000D03*
X137480000Y-71587000D03*
D29*
X140930000Y-70937000D03*
X140930000Y-70287000D03*
D30*
X139580000Y-70612000D03*
D29*
X140930000Y-71587000D03*
X140930000Y-69637000D03*
D25*
X139614000Y-68260000D03*
X140264000Y-68260000D03*
X140914000Y-68260000D03*
X141564000Y-68260000D03*
D26*
X140914000Y-64810000D03*
X140264000Y-64810000D03*
X141564000Y-64810000D03*
D27*
X140589000Y-66160000D03*
D26*
X139614000Y-64810000D03*
D28*
X144592000Y-69637000D03*
X144592000Y-70937000D03*
X144592000Y-70287000D03*
X144592000Y-71587000D03*
D30*
X146692000Y-70612000D03*
D29*
X148042000Y-69637000D03*
X148042000Y-70287000D03*
X148042000Y-71587000D03*
X148042000Y-70937000D03*
D25*
X139614000Y-84516000D03*
X140264000Y-84516000D03*
X140914000Y-84516000D03*
X141564000Y-84516000D03*
D27*
X140589000Y-82416000D03*
D26*
X140914000Y-81066000D03*
X139614000Y-81066000D03*
X140264000Y-81066000D03*
X141564000Y-81066000D03*
M02*
