M48
; DRILL file {KiCad (6.0.6)} date Mon Sep  5 23:03:35 2022
; FORMAT={-:-/ absolute / metric / decimal}
; #@! TF.CreationDate,2022-09-05T23:03:35+09:00
; #@! TF.GenerationSoftware,Kicad,Pcbnew,(6.0.6)
; #@! TF.FileFunction,MixedPlating,1,2
FMAT,2
METRIC
; #@! TA.AperFunction,Plated,PTH,ViaDrill
T1C0.400
; #@! TA.AperFunction,Plated,PTH,ComponentDrill
T2C0.750
; #@! TA.AperFunction,Plated,PTH,ViaDrill
T3C0.800
; #@! TA.AperFunction,Plated,PTH,ComponentDrill
T4C1.000
; #@! TA.AperFunction,Plated,PTH,ComponentDrill
T5C1.200
; #@! TA.AperFunction,Plated,PTH,ViaDrill
T6C2.000
; #@! TA.AperFunction,Plated,PTH,ComponentDrill
T7C2.000
%
G90
G05
T1
X110.236Y-57.15
X110.617Y-70.993
X110.998Y-59.436
X112.014Y-69.596
X112.014Y-80.264
X112.014Y-81.915
X113.284Y-75.184
X113.538Y-77.216
X113.919Y-80.264
X113.919Y-81.915
X114.3Y-51.435
X114.554Y-61.214
X115.062Y-64.008
X115.443Y-56.642
X115.57Y-58.928
X115.57Y-81.28
X117.094Y-70.739
X117.094Y-73.406
X117.348Y-75.184
X117.539Y-89.535
X117.602Y-68.834
X117.602Y-93.218
X117.856Y-58.674
X118.11Y-51.435
X119.126Y-61.722
X119.634Y-91.694
X119.761Y-76.962
X119.761Y-80.899
X119.888Y-58.674
X120.015Y-87.249
X120.65Y-61.722
X120.65Y-77.978
X120.65Y-80.01
X120.65Y-98.552
X121.285Y-70.866
X121.808Y-71.859
X121.92Y-51.435
X122.174Y-62.484
X122.428Y-77.978
X122.428Y-80.01
X122.936Y-81.153
X122.936Y-85.367
X122.936Y-91.948
X123.444Y-76.454
X123.444Y-87.122
X124.079Y-77.978
X124.333Y-66.167
X124.333Y-67.564
X124.46Y-57.15
X124.714Y-86.36
X124.824Y-64.801
X124.968Y-85.344
X124.968Y-90.678
X124.968Y-93.091
X125.222Y-69.977
X125.73Y-51.435
X125.984Y-62.23
X125.984Y-74.422
X126.126Y-71.859
X126.238Y-55.88
X127.0Y-68.58
X127.0Y-70.485
X127.127Y-96.393
X127.127Y-98.044
X127.254Y-64.262
X127.254Y-76.2
X127.254Y-91.44
X127.396Y-73.891
X127.762Y-80.772
X128.016Y-66.929
X128.016Y-74.93
X128.143Y-71.755
X128.143Y-84.497
X128.27Y-63.246
X128.27Y-96.393
X128.27Y-98.044
X128.524Y-79.733
X128.524Y-81.534
X128.778Y-60.706
X128.778Y-87.122
X128.884Y-64.2
X129.54Y-51.435
X130.302Y-82.296
X130.556Y-90.678
X130.81Y-74.041
X131.064Y-65.532
X131.064Y-69.088
X131.064Y-72.517
X131.064Y-93.218
X131.826Y-96.012
X131.953Y-60.579
X132.461Y-76.2
X132.461Y-83.312
X132.588Y-85.217
X132.588Y-86.233
X132.588Y-88.392
X132.588Y-90.678
X132.715Y-63.5
X133.096Y-81.153
X133.223Y-69.088
X133.223Y-72.517
X133.35Y-51.435
X133.604Y-76.962
X133.858Y-92.075
X134.112Y-85.598
X134.112Y-86.614
X134.112Y-87.63
X134.389Y-60.452
X134.747Y-58.547
X135.255Y-69.215
X135.255Y-70.231
X135.255Y-71.247
X135.255Y-72.263
X135.255Y-85.852
X135.255Y-86.868
X135.255Y-87.884
X135.382Y-76.962
X135.763Y-73.025
X135.89Y-88.9
X136.271Y-69.215
X136.271Y-70.231
X136.271Y-71.247
X136.271Y-72.263
X136.398Y-85.852
X136.398Y-86.868
X136.398Y-87.884
X136.525Y-60.452
X136.525Y-92.075
X136.906Y-73.025
X137.16Y-51.435
X137.16Y-69.596
X137.16Y-70.485
X137.922Y-93.472
X138.303Y-58.674
X139.192Y-99.314
X139.446Y-94.742
X141.478Y-95.059
X141.478Y-99.314
X141.732Y-57.023
X142.494Y-69.469
X142.494Y-70.485
X142.494Y-71.501
X142.494Y-85.598
X142.494Y-86.614
X142.494Y-87.63
X142.494Y-88.646
X142.748Y-72.517
X143.002Y-68.58
X143.002Y-98.529
X143.383Y-75.565
X143.383Y-85.598
X143.383Y-86.614
X143.383Y-87.63
X143.383Y-88.646
X143.51Y-69.469
X143.51Y-70.485
X143.51Y-71.501
X143.51Y-92.075
X143.764Y-72.771
X143.878Y-82.392
X144.018Y-68.58
X144.145Y-51.435
X144.272Y-85.598
X144.272Y-86.614
X144.399Y-69.469
X144.399Y-70.485
X144.78Y-72.771
X144.78Y-89.408
X144.907Y-65.659
X145.288Y-68.326
X145.288Y-84.836
X145.669Y-66.421
X145.903Y-83.312
X146.05Y-92.075
X146.177Y-75.565
X148.59Y-51.435
X149.225Y-57.023
X152.908Y-96.901
X152.908Y-99.06
X154.305Y-51.435
X155.321Y-57.023
X156.21Y-99.06
X158.115Y-51.435
X159.004Y-84.328
X159.004Y-88.9
X159.004Y-93.472
X159.004Y-95.758
X159.385Y-99.06
X159.512Y-58.928
X159.512Y-60.96
X160.782Y-58.928
X160.782Y-60.96
X160.782Y-62.992
X160.782Y-66.548
X161.036Y-71.12
X161.036Y-75.438
X161.29Y-80.01
X162.052Y-58.928
X162.052Y-60.96
X162.052Y-62.992
X163.195Y-55.245
X163.195Y-58.928
X163.195Y-62.992
X163.195Y-66.675
X163.195Y-71.12
X163.195Y-75.565
X163.195Y-80.01
X163.195Y-84.455
X163.195Y-88.9
X163.195Y-93.345
X163.195Y-95.885
X163.322Y-60.96
T2
X112.22Y-83.33
X112.22Y-85.33
X112.22Y-87.33
X112.22Y-89.33
X112.22Y-91.33
X112.22Y-93.33
X112.23Y-72.24
X112.23Y-74.24
X112.23Y-76.24
X112.23Y-78.24
X115.92Y-53.84
X117.92Y-53.84
X119.92Y-53.84
X121.92Y-53.84
X127.22Y-53.83
X129.22Y-53.83
X131.22Y-53.83
X131.89Y-98.298
X133.22Y-53.83
X133.89Y-98.298
X135.22Y-53.83
X135.89Y-98.298
X137.22Y-53.83
X137.89Y-98.298
T3
X121.666Y-78.994
T4
X110.998Y-62.738
X110.998Y-65.278
X110.998Y-67.818
X156.21Y-67.525
X156.21Y-78.525
X156.21Y-84.035
X156.21Y-95.035
T5
X141.22Y-51.83
X152.22Y-51.83
T6
X111.22Y-52.33
X111.22Y-98.33
X162.22Y-52.33
X162.22Y-98.33
T7
X144.22Y-61.83
X149.22Y-61.83
X151.21Y-70.525
X151.21Y-75.525
X151.21Y-87.035
X151.21Y-92.035
T0
M30
